<?xml version='1.0' encoding='utf-8'?>
<svg xmlns='http://www.w3.org/2000/svg' version='1.1' width='2000' height='2000'>
	<path d="M 0.0 0.0 L 800.0 0.0 L 800.0 800.0 L 0.0 800.0 Z" stroke="rgba(0,0,0,0)" fill="rgba(0,0,0,0)"/><path d="M 0.0 0.0 L 800.0 800.0 L 0.0 800.0 Z" stroke="red" fill="red"/><path d="M 266.6666666666689 355.5555555555571 L 307.0707070707092 476.7676767676779 L 428.28282828283 476.7676767676779 L 347.4747474747495 557.5757575757584 L 387.87878787878975 678.7878787878792 L 266.6666666666689 597.9797979797987 L 145.4545454545481 678.7878787878792 L 185.85858585858838 557.5757575757584 L 105.05050505050784 476.7676767676779 L 226.26262626262866 476.7676767676779 Z" stroke="yellow" fill="yellow"/><circle cx="266.66666666666896" cy="533.3333333333342" r="1" stroke="red" stroke-width="3" fill="red" /><circle cx="266.6666666666667" cy="533.3333333333334" r="1" stroke="red" stroke-width="3" fill="red" /><circle cx="400.0" cy="400.0" r="1" stroke="red" stroke-width="3" fill="red" /><path d="M 0.0 0.0 L 800.0 0.0 L 800.0 800.0 L 0.0 800.0 Z" stroke="rgba(0,0,0,0)" fill="rgba(0,0,0,0)"/><path d="M 0.0 0.0 L 800.0 0.0 L 800.0 800.0 Z" stroke="blue" fill="blue"/><path d="M 533.3333333333378 88.88888888888823 L 573.7373737373781 210.101010101009 L 694.9494949494989 210.101010101009 L 614.1414141414184 290.9090909090895 L 654.5454545454586 412.1212121212103 L 533.3333333333378 331.31313131312976 L 412.12121212121707 412.1212121212103 L 452.5252525252573 290.9090909090895 L 371.7171717171768 210.101010101009 L 492.9292929292976 210.101010101009 Z" stroke="black" fill="black"/><circle cx="533.3333333333378" cy="266.6666666666653" r="1" stroke="red" stroke-width="3" fill="red" /><circle cx="533.3333333333334" cy="266.6666666666667" r="1" stroke="red" stroke-width="3" fill="red" /><circle cx="400.0" cy="400.0" r="1" stroke="red" stroke-width="3" fill="red" /></svg>
