<?xml version='1.0' encoding='utf-8'?>
<svg xmlns='http://www.w3.org/2000/svg' version='1.1' width='2000' height='2000'>
	<g transform="scale(10)">
//nouvelle forme de couleur rgba(0,0,0,0)
<path d="M 0.0 0.0 L 100.0 0.0 L 100.0 100.0 L 0.0 100.0 Z " stroke="rgba(0,0,0,0)" fill="rgba(0,0,0,0)"/>
//nouvelle forme de couleur blue
<path d="M 0.0 0.0 L 100.0 0.0 L 100.0 100.0 L 0.0 100.0 Z " stroke="blue" fill="blue"/>
//nouvelle forme de couleur rgba(0,0,0,0)
<path d="M 0.0 0.0 L 100.0 0.0 L 100.0 100.0 L 0.0 100.0 Z " stroke="rgba(0,0,0,0)" fill="rgba(0,0,0,0)"/>
//nouvelle forme de couleur white
<path d="M 0.0 35.0 L 100.0 35.0 L 100.0 65.0 L 0.0 65.0 Z " stroke="white" fill="white"/>
//nouvelle forme de couleur rgba(0,0,0,0)
<path d="M 0.0 0.0 L 100.0 0.0 L 100.0 100.0 L 0.0 100.0 Z " stroke="rgba(0,0,0,0)" fill="rgba(0,0,0,0)"/>
//nouvelle forme de couleur rgba(0,0,0,0)
<path d="M 0.0 0.0 L 100.0 0.0 L 100.0 35.0 L 0.0 35.0 Z " stroke="rgba(0,0,0,0)" fill="rgba(0,0,0,0)"/>
//nouvelle forme de couleur yellow
<path d="M  M 45.493452164823665 23.808631787423657 C 44.952812895417274 25.29904274632776844.09071243879627 26.23420256367936443.11171700500631 26.96479617098530244.71902294107937 27.35931671893050445.478840292677546 27.94379160477525346.23865764427572 28.54287836276612547.129981845188965 27.47621169609945548.06514166254056 26.48260439016338849.394822027837364 25.956576992903113 L 49.394822027837364 23.85246740386201545.44961654838531 23.852467403862015 Z  Z " stroke="yellow" fill="yellow"/>
<path d=" M 40.233178192220926 4.886257358199918 C 40.832264950211794 4.28717060020905241.41820102327115 3.86342630797160842.04505033833965 3.61502448148759143.082493260714074 3.176668317104029544.32450239313417 3.33739891071133444.82130604610221 3.61502448148759147.80212796391042 5.3246135225834848.06514166254056 8.34927105683005545.990255817791706 11.16936238103096843.900758100896724 13.98945370523188143.59390878582823 15.08534411619078443.43317819222093 16.3858007371953549.17564394564558 16.3858007371953555.04961654838531 16.34196512075699661.63957088628485 16.06433954998073760.73363481322549 17.0871706002090560.61673983605654 18.06616603399900460.675187324641016 19.36662265500356757.372904219618185 21.1784948011222954.947333443362474 23.8524674038620155.03500467623919 27.34470484678438553.237744402266586 27.60771854541452452.88705947075974 27.68077790614511751.62459371733508 28.73283270066566450.192630247015444 26.19036694724100747.51865764427572 24.46616603399900243.32505033833965 23.09265005226384240.738748968476635 22.24516146778895438.62002750728942 20.19949936733233638.736922484458375 16.60497881938712838.809981845188965 14.41319799746932240.05199097760906 12.46981900203553241.61546129724376 10.847901193816355 L 40.22733344336248 9.781234527149689 Z  Z " stroke="yellow" fill="yellow"/>
<path d=" M 43.316283215051975 16.648814435825486 C 44.79208230180997 14.96844913902183546.48559828354513 13.01045827144192751.060575452494895 12.77666831710402654.070621114595355 12.61593772349672157.168338009572516 12.52826649062000958.3957352698465 11.28625735819991758.62952522418439 12.93739891071133257.97199097760905 14.09173681025471256.481580018704946 14.61776420751498454.45052979039444 15.2606865819442152.49253892281453 15.43602904769763250.417653078065676 15.55292402486658352.30258458491499 15.36296968696704153.90989052098805 15.43602904769763456.481580018704946 14.58854046322274957.98660284975517 14.5593167189305157.51902294107937 15.90360895637343456.90532431094239 16.5173075865104255.51719645706111 17.56936238103096753.64687682235792 17.37940804313142452.01034714199262 17.803152335368868 L 55.63409143423006 17.17484183308576 C 56.817653078065675 17.51091489244649356.36468504153599 18.0369422897067755.83865764427572 18.53374594267480254.81582659404741 19.27895142212685553.12084942509764 19.43968201573416451.68888595477801 19.81959069153325 L 54.65509600044011 19.10360895637343 C 55.707150794960654 19.52735324861087655.02039280409308 20.1264400066017454.245963580348786 20.65246740386201651.96651152555427 21.9529240248665849.321762667106775 21.7629696869670446.89619189085107 21.850640919843748 Z " stroke="yellow" fill="yellow"/></g></svg>
