<?xml version='1.0' encoding='utf-8'?>
<svg xmlns='http://www.w3.org/2000/svg' version='1.1' width='2000' height='2000'>
	<g transform="scale(10)">
//nouvelle forme de couleur rgba(0,0,0,0)
<path d="M 0.0 0.0  L 100.0 0.0  L 100.0 100.0  L 0.0 100.0  Z " stroke="black" stroke-width ="0.03px" fill="rgba(0,0,0,0)"/>
//nouvelle forme de couleur white
<path d="M 0.0 0.0  L 100.0 0.0  L 100.0 100.0  L 0.0 100.0  Z " stroke="black" stroke-width ="0.1px" fill="white"/>
//nouvelle forme de couleur rgba(0,0,0,0)
<path d="M 0.0 0.0  L 100.0 0.0  L 100.0 100.0  L 0.0 100.0  Z " stroke="black" stroke-width ="0.03px" fill="rgba(0,0,0,0)"/>
//nouvelle forme de couleur black
<path d="M 30.0 0.0  L 65.0 0.0  L 65.0 35.0  L 30.0 35.0  Z " stroke="black" stroke-width ="0.1px" fill="black"/>
//nouvelle forme de couleur yellow
<path d="M 47.5 3.500000000000007  L 50.68181818181818 13.045454545454557  L 60.22727272727273 13.045454545454557  L 53.86363636363636 19.40909090909092  L 57.04545454545455 28.954545454545467  L 47.5 22.590909090909104  L 37.95454545454545 28.954545454545467  L 41.13636363636364 19.40909090909092  L 34.77272727272727 13.045454545454557  L 44.31818181818182 13.045454545454557  Z " stroke="black" stroke-width ="0.1px" fill="yellow"/>
//nouvelle forme de couleur rgba(0,0,0,0)
<path d="M 0.0 0.0  L 100.0 0.0  L 100.0 100.0  L 0.0 100.0  Z " stroke="black" stroke-width ="0.03px" fill="rgba(0,0,0,0)"/>
//nouvelle forme de couleur black
<path d="M 30.0 35.0  L 65.0 35.0  L 65.0 65.0  L 30.0 65.0  Z " stroke="black" stroke-width ="0.1px" fill="black"/>
//nouvelle forme de couleur yellow
<path d="M 47.5 37.99999999999997  L 50.22727272727273 46.18181818181816  L 58.409090909090914 46.18181818181816  L 52.95454545454545 51.63636363636362  L 55.68181818181819 59.8181818181818  L 47.5 54.363636363636346  L 39.31818181818181 59.8181818181818  L 42.04545454545455 51.63636363636362  L 36.590909090909086 46.18181818181816  L 44.77272727272727 46.18181818181816  Z " stroke="black" stroke-width ="0.1px" fill="yellow"/>
//nouvelle forme de couleur rgba(0,0,0,0)
<path d="M 0.0 0.0  L 100.0 0.0  L 100.0 100.0  L 0.0 100.0  Z " stroke="black" stroke-width ="0.03px" fill="rgba(0,0,0,0)"/>
//nouvelle forme de couleur black
<path d="M 30.0 65.0  L 65.0 65.0  L 65.0 100.0  L 30.0 100.0  Z " stroke="black" stroke-width ="0.1px" fill="black"/>
//nouvelle forme de couleur yellow
<path d="M 47.5 68.49999999999997  L 50.68181818181818 78.0454545454545  L 60.22727272727271 78.0454545454545  L 53.86363636363636 84.40909090909086  L 57.04545454545453 93.9545454545454  L 47.5 87.59090909090904  L 37.95454545454547 93.9545454545454  L 41.13636363636364 84.40909090909086  L 34.77272727272729 78.0454545454545  L 44.31818181818182 78.0454545454545  Z " stroke="black" stroke-width ="0.1px" fill="yellow"/>
//nouvelle forme de couleur rgba(0,0,0,0)
<path d="M 0.0 0.0  L 100.0 0.0  L 100.0 100.0  L 0.0 100.0  Z " stroke="black" stroke-width ="0.03px" fill="rgba(0,0,0,0)"/>
//nouvelle forme de couleur black
<path d="M 0.0 35.0  L 30.0 35.0  L 30.0 65.0  L 0.0 65.0  Z " stroke="black" stroke-width ="0.1px" fill="black"/>
//nouvelle forme de couleur yellow
<path d="M 15.0 37.99999999999997  L 17.727272727272727 46.18181818181816  L 25.909090909090914 46.18181818181816  L 20.454545454545457 51.63636363636362  L 23.181818181818187 59.8181818181818  L 15.0 54.363636363636346  L 6.818181818181815 59.8181818181818  L 9.545454545454543 51.63636363636362  L 4.090909090909086 46.18181818181816  L 12.272727272727272 46.18181818181816  Z " stroke="black" stroke-width ="0.1px" fill="yellow"/>
//nouvelle forme de couleur rgba(0,0,0,0)
<path d="M 0.0 0.0  L 100.0 0.0  L 100.0 100.0  L 0.0 100.0  Z " stroke="black" stroke-width ="0.03px" fill="rgba(0,0,0,0)"/>
//nouvelle forme de couleur black
<path d="M 65.0 35.0  L 100.0 35.0  L 100.0 65.0  L 65.0 65.0  Z " stroke="black" stroke-width ="0.1px" fill="black"/>
//nouvelle forme de couleur yellow
<path d="M 82.5 37.99999999999997  L 85.22727272727273 46.18181818181816  L 93.4090909090909 46.18181818181816  L 87.95454545454545 51.63636363636362  L 90.68181818181819 59.8181818181818  L 82.5 54.363636363636346  L 74.31818181818181 59.8181818181818  L 77.04545454545455 51.63636363636362  L 71.5909090909091 46.18181818181816  L 79.77272727272727 46.18181818181816  Z " stroke="black" stroke-width ="0.1px" fill="yellow"/></g></svg>
