<?xml version='1.0' encoding='utf-8'?>
<svg xmlns='http://www.w3.org/2000/svg' version='1.1' width='2000' height='2000'>
	<g transform="scale(10)">
//nouvelle forme de couleur rgba(0,0,0,0)
<path d="M 0.0 0.0  L 100.0 0.0  L 100.0 100.0  L 0.0 100.0  Z " stroke="black" stroke-width ="0.05px" fill="rgba(0,0,0,0)"/>
//nouvelle forme de couleur blue
<path d="M 0.0 0.0  L 100.0 0.0  L 100.0 100.0  L 0.0 100.0  Z " stroke="black" stroke-width ="0.05px" fill="blue"/>
//nouvelle forme de couleur rgba(0,0,0,0)
<path d="M 0.0 0.0  L 100.0 0.0  L 100.0 100.0  L 0.0 100.0  Z " stroke="black" stroke-width ="0.05px" fill="rgba(0,0,0,0)"/>
//nouvelle forme de couleur white
<path d="M 0.0 35.0  L 100.0 35.0  L 100.0 65.0  L 0.0 65.0  Z " stroke="black" stroke-width ="0.05px" fill="white"/>
//nouvelle forme de couleur rgba(0,0,0,0)
<path d="M 0.0 0.0  L 100.0 0.0  L 100.0 100.0  L 0.0 100.0  Z " stroke="black" stroke-width ="0.05px" fill="rgba(0,0,0,0)"/>
//nouvelle forme de couleur rgba(0,0,0,0)
<path d="M 0.0 0.0  L 100.0 0.0  L 100.0 35.0  L 0.0 35.0  Z " stroke="black" stroke-width ="0.05px" fill="rgba(0,0,0,0)"/>
//nouvelle forme de couleur yellow
<path d=" M 54.233293992032884 10.131631234665084 C 54.029581708668765 10.134337823832283 53.82639789409304 10.140516763803188 53.63747133845739 10.138107567856121 C 53.615329532437215 10.54076949096633 53.64611542989413 10.970250065252621 53.63747133845739 11.378325373939887 C 53.13911698130037 11.37832547756122 52.64626906167569 11.378325373939887 52.14791470451866 11.378325373939887 C 52.13923434561605 10.97026363964699 52.1733972622521 10.547202510440986 52.151152871114185 10.14458390104716 C 51.702413443480374 10.149838642366372 51.21500149888293 10.132690244668483 50.7716939014231 10.151060234238198 C 50.767676502418034 10.557609097097671 50.77509889836162 10.968533059797014 50.7716939014231 11.375087207344368 L 49.30804260024853 11.375087207344368 L 49.28213726748437 10.151060234238198 C 48.818969605714244 10.156309690869527 48.26650626190608 10.132694389521724 47.80877146652324 10.151060234238198 L 47.80877146652324 11.371849040748849 L 46.3677873315173 11.371849040748849 L 46.3677873315173 10.14458390104716 C 46.01140031156636 10.149905996231558 45.55298171901988 10.139135491460205 45.20204735713047 10.157536567429236 C 45.18765352527606 11.136778662937722 45.203348841048545 12.144938777789498 45.16642752457976 13.123697168924613 C 48.41091512491452 13.141868516402694 51.65572270791957 13.13341166871117 54.90035631070979 13.13341166871117 L 54.82587847901286 10.138107567856121 C 54.639289620605844 10.129690303513062 54.437006275396996 10.128924645497886 54.233293992032884 10.131631234665084 Z " stroke="black" stroke-width ="0.05px" fill="yellow"/>
<path d="M 45.1729038577708 13.175507834452917 C 45.236580305539725 13.324624939880575 45.41737559170603 13.525230862982276 45.506435017109254 13.6677091569718 C 45.65049208569876 13.866638797800999 45.78712831266464 14.063264521955483 45.940349340908796 14.253817310760734 C 45.93705874191976 14.302150444418778 45.93365902966913 14.350957645666407 45.93063484112224 14.399534807559089 C 45.926755362108814 14.459862628393589 45.924223582127105 14.520263502266484 45.92092034133568 14.580872136908152 C 45.91940943870755 14.607970772920751 45.919124790911134 14.63466642557687 45.917682174740165 14.661826301796125 C 45.91151017739844 14.783721979933881 45.90603026692684 14.905090743603216 45.90149134176257 15.027739127089768 C 45.876902932494815 15.596535265099076 45.85987981298617 16.17384182302806 45.83996617644771 16.743967422714825 C 45.83940869368662 16.754661144079865 45.840539824136435 16.765664693224767 45.83996617644771 16.776349088670013 C 45.83838553666377 16.82104511360797 45.83515700685204 16.864526696545944 45.83348984325667 16.90911391908629 C 45.78205926077068 18.001295182982656 45.72148803342953 19.11084959924397 45.66186701369416 20.2217583463022 C 45.59526668282682 21.358937173209895 45.52691743113389 22.495186516778016 45.48376785094062 23.625071438192638 C 45.48698083755269 23.6250973435254 45.49026915687244 23.625045532859872 45.49348235072718 23.625071438192638 C 45.49284922439442 23.640080987996186 45.49087264750452 23.655404510432838 45.49024418413166 23.670405770529904 C 45.048732344339044 24.17297337100769 44.20495472578486 25.124923887585147 43.92944788509151 25.441682898278778 C 43.73190428318653 27.288084454830386 43.532090130675435 29.24597323767911 43.34333973130258 31.0955217740549 L 48.738125279437185 31.0955217740549 L 48.77050694539238 28.197362671065424 C 48.77746532501549 27.5891406890157 49.299136346844215 27.01867003029652 50.01720108466718 27.01867003029652 C 50.74821019916574 27.01867003029652 51.2593172335359 27.584713985752963 51.260657057346464 28.197362671065424 L 51.2671333905375 31.0955217740549 L 56.69753877122282 31.0955217740549 C 56.707011833308016 30.842563453106134 56.607133304729174 30.553425744418952 56.59067927357069 30.29569462496172 C 56.41925125211058 28.691021945712272 56.261382081819214 27.05807204143079 56.0790489514787 25.454635564660855 C 53.305399167460216 25.505046306006584 46.800521408356104 25.474542258570143 44.02659288295708 25.454635564660855 C 46.79791118702679 25.45489772662843 53.30795239705745 25.441989617418706 56.0628581185011 25.4449210648743 C 55.96108746441717 25.276766441262257 55.73718870954991 25.08138013184854 55.60951479512845 24.917099909804705 C 55.262002009590525 24.509439086441667 54.91137436684104 24.07044835363366 54.5603488181803 23.667167603934384 L 54.3725351556402 19.849369187817516 C 54.36907627560953 19.769400461787892 54.36624430463175 19.68976539644427 54.36282065585364 19.609744859749114 C 54.29057068277442 17.86237939035486 54.22541566223265 16.11381398594697 54.13291082757179 14.367153141603898 C 54.1344019385257 14.342783476966005 54.13174819623734 14.32434965665636 54.12643449438075 14.308866142884558 C 54.12568842079715 14.294883480471778 54.123945510008774 14.280749530915658 54.12319632778524 14.266769977142811 C 54.11351913167786 14.266920331694173 54.10373209695956 14.266622109503391 54.09405282842557 14.266769977142811 C 54.07319385448387 14.255288008312421 54.04557773354398 14.251481582337387 54.009860496942075 14.250579144165215 L 54.00662233034655 14.250579144165215 C 53.953944354277304 14.249599093616084 53.885862031133186 14.2559822712305 53.80585600142438 14.257055477356253 C 51.86150638169151 14.257055788220248 49.92528481916673 14.25831520187791 47.98687062927679 14.260293643951773 C 47.79967931645101 14.25906168994684 46.16289770258972 14.258060811510166 45.975969173459504 14.257055477356253 C 48.210242262432956 14.255543538514807 51.906961950986116 14.253602503741455 54.13291082757179 14.247340977569696 C 54.373106109174316 13.908664397416295 54.646254010266155 13.519930631898731 54.87768914454116 13.175507834452917 L 45.1729038577708 13.175507834452917 Z " stroke="black" stroke-width ="0.05px" fill="yellow"/>
<path d="M 49.618906593418345 16.69863309037756 L 50.60978557164715 16.69863309037756 L 50.60978557164715 19.373358698276228 L 49.618906593418345 19.373358698276228 L 49.618906593418345 16.69863309037756 Z " stroke="black" stroke-width ="0.05px" fill="yellow"/>
<path d="M 54.554787461342485 23.657453104147827 C 53.58485346276016 23.654923707456735 46.47107914674115 23.65465947306254 45.499958683918216 23.654214937552307 C 47.0057670801772 23.63948102048937 53.04902652365313 23.64761529497731 54.554787461342485 23.657453104147827  Z " stroke="black" stroke-width ="0.05px" fill="yellow"/></g></svg>
