<?xml version='1.0' encoding='utf-8'?>
<svg xmlns='http://www.w3.org/2000/svg' version='1.1' width='2000' height='2000'>
	<g transform="scale(10)">
//nouvelle forme de couleur rgba(0,0,0,0)
<path d="M 0.0 0.0 L 100.0 0.0 L 100.0 100.0 L 0.0 100.0 Z " stroke="rgba(0,0,0,0)" fill="rgba(0,0,0,0)"/>
//nouvelle forme de couleur blue
<path d="M 0.0 0.0 L 100.0 0.0 L 100.0 100.0 L 0.0 100.0 Z " stroke="blue" fill="blue"/>
//nouvelle forme de couleur rgba(0,0,0,0)
<path d="M 0.0 0.0 L 100.0 0.0 L 100.0 100.0 L 0.0 100.0 Z " stroke="rgba(0,0,0,0)" fill="rgba(0,0,0,0)"/>
//nouvelle forme de couleur white
<path d="M 0.0 35.0 L 100.0 35.0 L 100.0 65.0 L 0.0 65.0 Z " stroke="white" fill="white"/>
//nouvelle forme de couleur rgba(0,0,0,0)
<path d="M 0.0 0.0 L 100.0 0.0 L 100.0 100.0 L 0.0 100.0 Z " stroke="rgba(0,0,0,0)" fill="rgba(0,0,0,0)"/>
//nouvelle forme de couleur rgba(0,0,0,0)
<path d="M 0.0 0.0 L 100.0 0.0 L 100.0 35.0 L 0.0 35.0 Z " stroke="rgba(0,0,0,0)" fill="rgba(0,0,0,0)"/>
//nouvelle forme de couleur yellow
<path d="M  M 50.50724069758948 17.953069412533246 C 50.54709118631662 16.2199307966115450.975832562325174 14.60910856702665651.77415738033728 13.082608289809775 C 53.864195884562996 8.68554043707770360.24795901478943 8.79055537190786858.840738858898575 14.16830409390543 C 58.322194364443 16.14994312576958556.56064174610673 17.31461371016012854.46792252255187 17.514378072440547 C 54.61896901407295 16.99223867825640655.44980737971183 15.14633613385570554.77911506930662 14.785220609499294 C 53.7066550196781 14.82573771141242652.37493419203733 16.6791825238453152.05467788790142 17.563028806328454 C 52.00844575980709 17.68992029071685252.02137771993097 17.83655588978441751.96975422132316 17.96137620168894 M 48.92655285274977 19.314631740317537 C 48.88670236402263 17.58149312439582748.45796098801408 15.97067089481094447.659636170001974 14.444170617594063 C 45.56959766577626 10.0471027648619939.18583464464724 10.15211769969215540.593054775361765 15.529866421689716 C 41.111599381712125 17.51150545355387342.87315180423252 18.67617603794441544.96587102778738 18.875940400224835 C 44.8148245362663 18.35380100604069443.983986170627425 16.50789846163999344.65467848103263 16.146782937283582 C 45.72713853066115 16.18730003919671447.05885935830192 18.04074485162959747.379115662437826 18.92459113411274 C 47.425347790532165 19.0514826185011447.412415830408285 19.19811821756870547.464039329016096 19.322938529473227 M 50.13230253061478 2.523362551034019 C 47.93037259750181 4.89691502807913546.451954069187394 7.64147424880230747.089288865544454 10.86039826599399 C 47.44090620101411 12.63627789269523148.29332767213564 14.28101431288726948.89446646346753 15.991823205368537 C 49.27033447611166 17.06516974143700749.366445103630326 18.18640808500916649.32193951207982 19.31457383476592 L 51.19005792697648 19.31457383476592 C 51.10063972659237 18.17810968796240451.29654567692383 17.07672735385514451.61753097558877 15.991823205368537 C 52.19026975135432 14.2703694821837353.06169515314741 12.63762230854578753.42270857351185 10.86039826599399 C 54.097658480514106 7.53770526241125652.51337014120654 5.03181230464961150.389310866590264 2.5338526871962834 L 50.25950088645304 2.368296854756883 L 50.13230253061478 2.523362551034019 Z  M 48.3900657496653 20.630211745116632 C 47.99950651112864 21.72482304600235646.407061321678256 23.7294754784477745.56122569790788 24.300885223895804 C 45.341851214954204 24.44908567154181346.609858032651985 24.21552153107264647.17758084491018 24.091082500650504 C 47.92221294998936 23.9278660524963848.890059207594554 23.13444949926035648.867366945048346 23.414468718184423 C 48.86525101465017 24.69673428842788449.2257390889956 26.83632987430591850.16552129512861 27.81945172832213 L 50.2545358350732 27.914215422357564 L 50.34647614392768 27.81945172832213 C 51.2857682508992 26.72369546404141351.63991300984154 24.79711817781361251.644630494007956 23.414468718184423 C 51.62193823146175 23.13444949926035652.58978476880391 23.9278660524963853.33441659414612 24.091082500650504 C 53.902139406404316 24.21552153107264655.1701462241021 24.44908567154181354.95077174114842 24.300885223895804 C 54.104936117378045 23.7294754784477752.513365665415115 21.72482304600235652.12280586740453 20.630211745116632 L 48.3900657496653 20.630211745116632 Z  Z " stroke="yellow" fill="yellow"/></g></svg>
