<?xml version='1.0' encoding='utf-8'?>
<svg xmlns='http://www.w3.org/2000/svg' version='1.1' width='2000' height='2000'>
	<g transform="scale(10)">
//nouvelle forme de couleur rgba(0,0,0,0)
<path d="M 0.0 0.0  L 100.0 0.0  L 100.0 100.0  L 0.0 100.0  Z " stroke="black" stroke-width ="0.01px" fill="rgba(0,0,0,0)"/>
//nouvelle forme de couleur blue
<path d="M 0.0 0.0  L 100.0 0.0  L 100.0 100.0  L 0.0 100.0  Z " stroke="black" stroke-width ="0.01px" fill="blue"/>
//nouvelle forme de couleur rgba(0,0,0,0)
<path d="M 0.0 0.0  L 100.0 0.0  L 100.0 100.0  L 0.0 100.0  Z " stroke="black" stroke-width ="0.01px" fill="rgba(0,0,0,0)"/>
//nouvelle forme de couleur white
<path d="M 0.0 20.0  L 0.0 0.0  L 20.0 0.0  L 100.0 80.0  L 100.0 100.0  L 80.0 100.0  Z " stroke="black" stroke-width ="0.01px" fill="white"/>
//nouvelle forme de couleur rgba(0,0,0,0)
<path d="M 0.0 0.0  L 100.0 0.0  L 100.0 100.0  L 0.0 100.0  Z " stroke="black" stroke-width ="0.01px" fill="rgba(0,0,0,0)"/>
//nouvelle forme de couleur rgba(0,0,0,0)
<path d="M 20.0 0.0  L 100.0 0.0  L 100.0 80.0  Z " stroke="black" stroke-width ="0.01px" fill="rgba(0,0,0,0)"/>
//nouvelle forme de couleur white
<path d=" M 73.31303510896305 11.767016243538674 L 69.61893279239557 20.50916615000009 L 59.81063505393017 19.581079244731367 L 65.51437350569911 27.16578939725758 L 59.79464149073589 35.19320987730937 L 69.1125242625745 34.07310550467437 L 73.3663410350812 43.03927530796629 L 76.93251176449482 34.39846802221195 L 86.86341253791237 35.22521243429922 L 81.18632853700153 27.811184923688778 L 86.89006752012726 19.623749958345986 L 77.48156146449276 20.834531643135715 L 73.31303510896305 11.767016243538674 Z " stroke="black" stroke-width ="0.1px" fill="white"/>
<path d="M 73.34501874965103 23.49078043064074 C 75.50252351027457 23.49078043064074 77.2523475337465 25.246999014314547 77.2523475337465 27.405813463163962 C 77.25235433511345 29.56462493641533 75.50252351027457 31.315510610761702 73.34501874965103 31.315510610761702 C 71.18751653954011 31.315510610761702 69.4323602443689 29.56462493641533 69.4323602443689 27.405813463163962 C 69.4323602443689 25.246999014314547 71.18751653954011 23.49078043064074 73.34501874965103 23.49078043064074  Z " stroke="black" stroke-width ="0.01px" fill="white"/>
//nouvelle forme de couleur rgba(0,0,0,0)
<path d="M 0.0 0.0  L 100.0 0.0  L 100.0 100.0  L 0.0 100.0  Z " stroke="black" stroke-width ="0.01px" fill="rgba(0,0,0,0)"/>
//nouvelle forme de couleur rgba(0,0,0,0)
<path d="M 0.0 20.0  L 80.0 100.0  L 0.0 100.0  Z " stroke="black" stroke-width ="0.01px" fill="rgba(0,0,0,0)"/>
//nouvelle forme de couleur white
<path d=" M 26.64636844229639 58.43368291020533 L 22.9522661257289 67.17583281666674 L 13.143968387263502 66.24774591139803 L 18.847706839032448 73.83245606392424 L 13.127974824069225 81.85987654397604 L 22.445857595907835 80.73977217134103 L 26.69967436841455 89.70594197463295 L 30.26584509782815 81.06513468887862 L 40.19674587124571 81.89187910096588 L 34.519661870334865 74.47785159035543 L 40.2234008534606 66.29041662501264 L 30.81489479782609 67.50119830980238 L 26.64636844229639 58.43368291020533 Z " stroke="black" stroke-width ="0.1px" fill="white"/>
<path d="M 26.67835208298437 70.1574470973074 C 28.835856843607903 70.1574470973074 30.585680867079834 71.91366568098121 30.585680867079834 74.07248012983062 C 30.585687668446795 76.23129160308198 28.835856843607903 77.98217727742836 26.67835208298437 77.98217727742836 C 24.520849872873452 77.98217727742836 22.765693577702237 76.23129160308198 22.765693577702237 74.07248012983062 C 22.765693577702237 71.91366568098121 24.520849872873452 70.1574470973074 26.67835208298437 70.1574470973074  Z " stroke="black" stroke-width ="0.01px" fill="white"/></g></svg>
