<?xml version='1.0' encoding='utf-8'?>
<svg xmlns='http://www.w3.org/2000/svg' version='1.1' width='2000' height='2000'>
	<g transform="scale(10)">
//nouvelle forme de couleur rgba(0,0,0,0)
<path d="M 0.0 0.0  L 100.0 0.0  L 100.0 100.0  L 0.0 100.0  Z " stroke="black" stroke-width ="0.03px" fill="rgba(0,0,0,0)"/>
//nouvelle forme de couleur white
<path d="M 0.0 0.0  L 100.0 0.0  L 100.0 100.0  L 0.0 100.0  Z " stroke="black" stroke-width ="0.1px" fill="white"/>
//nouvelle forme de couleur rgba(0,0,0,0)
<path d="M 0.0 0.0  L 100.0 0.0  L 100.0 100.0  L 0.0 100.0  Z " stroke="black" stroke-width ="0.03px" fill="rgba(0,0,0,0)"/>
//nouvelle forme de couleur blue
<path d="M 50.0 0.0  L 100.0 0.0  L 100.0 50.0  L 50.0 50.0  Z " stroke="black" stroke-width ="0.1px" fill="blue"/>
//nouvelle forme de couleur yellow
<path d=" M 80.21703892905903 38.35226484919602 C 77.81853673276034 40.063217538761805 76.0663944414087 42.69301519124254 75.02081224222962 45.73470886158171 73.78512418865434 42.69301519124254 72.25477206076494 40.094901847827835 69.8245855554002 38.35226484919602 M 74.94793833137774 31.191611000272566 L 70.03687042614263 24.189378696679274 C 68.80118237256735 22.415057388981428 70.70224091652932 19.34167940957623 72.53993084235924 19.214942173312096 73.18945917821291 19.173752571526254 74.15583060472692 19.905660110951615 75.04299125857584 19.905660110951615 S 76.88068118440576 19.176921002432856 77.54605167479245 19.214942173312096 C 79.50097354416668 19.34167940957623 81.06300998112211 22.763584788707792 80.04911209100905 24.189378696679274 L 75.01130694950982 31.191611000272566 M 74.14315688110051 29.63907985603695 C 74.49168428082687 29.353921074442653 75.06200184401547 21.622949662330605 74.96694891681736 21.622949662330605 S 75.60063509813803 29.32223676537662 75.88579387973232 29.63907985603695 M 71.21869515430566 22.44674169804746 C 71.47216962683393 22.085540574694686 71.39929571598205 21.73701317496832 71.65277018851032 21.47720184062685 71.90307623013197 21.21739050628538 72.24843519895174 21.05263209914201 72.6032994604913 21.020947790075976 73.01519547834974 20.98292661919674 73.42709149620816 21.10966385546087 73.81997692862697 21.249074815351413 74.21286236104578 21.385317344335355 74.6120846552778 21.53423359694571 75.02398067313622 21.53423359694571 S 75.84143584703988 21.385317344335355 76.22798441764547 21.249074815351413 C 76.62086985006428 21.11283228636747 77.03276586792272 20.98292661919674 77.44466188578114 21.020947790075976 77.80269457822732 21.055800530048614 78.14171668523387 21.220558937191985 78.39519115776213 21.47720184062685 78.6454971993838 21.73701317496832 78.80391874471395 22.07920371288148 78.82926619196678 22.44674169804746  Z " stroke="black" stroke-width ="0.1px" fill="yellow"/>
//nouvelle forme de couleur rgba(0,0,0,0)
<path d="M 0.0 0.0  L 100.0 0.0  L 100.0 100.0  L 0.0 100.0  Z " stroke="black" stroke-width ="0.03px" fill="rgba(0,0,0,0)"/>
//nouvelle forme de couleur blue
<path d="M 0.0 50.0  L 50.0 50.0  L 50.0 100.0  L 0.0 100.0  Z " stroke="black" stroke-width ="0.1px" fill="blue"/>
//nouvelle forme de couleur yellow
<path d=" M 30.217038929059044 88.35226484919598 C 27.818536732760347 90.06321753876176 26.066394441408725 92.6930151912425 25.020812242229635 95.73470886158167 23.78512418865435 92.6930151912425 22.254772060764957 90.0949018478278 19.824585555400226 88.35226484919598 M 24.94793833137776 81.19161100027253 L 20.03687042614265 74.18937869667924 C 18.80118237256736 72.41505738898138 20.70224091652934 69.34167940957619 22.53993084235925 69.21494217331205 23.18945917821293 69.17375257152621 24.155830604726933 69.90566011095157 25.042991258575857 69.90566011095157 S 26.88068118440577 69.17692100243282 27.546051674792466 69.21494217331205 C 29.500973544166698 69.34167940957619 31.063009981122125 72.76358478870775 30.04911209100907 74.18937869667924 L 25.011306949509827 81.19161100027253 M 24.14315688110052 79.63907985603691 C 24.491684280826885 79.35392107444261 25.062001844015477 71.62294966233057 24.96694891681738 71.62294966233057 S 25.60063509813804 79.32223676537657 25.885793879732336 79.63907985603691 M 21.218695154305678 72.44674169804742 C 21.472169626833942 72.08554057469465 21.399295715982063 71.73701317496828 21.652770188510328 71.4772018406268 21.90307623013199 71.21739050628534 22.24843519895175 71.05263209914197 22.603299460491318 71.02094779007594 23.015195478349746 70.9829266191967 23.427091496208178 71.10966385546082 23.819976928626986 71.24907481535138 24.212862361045794 71.38531734433532 24.61208465527781 71.53423359694567 25.02398067313624 71.53423359694567 S 25.84143584703989 71.38531734433532 26.22798441764549 71.24907481535138 C 26.620869850064302 71.11283228636744 27.03276586792273 70.9829266191967 27.44466188578116 71.02094779007594 27.80269457822733 71.05580053004857 28.141716685233884 71.22055893719194 28.39519115776215 71.4772018406268 28.645497199383808 71.73701317496828 28.803918744713975 72.07920371288144 28.8292661919668 72.44674169804742  Z " stroke="black" stroke-width ="0.1px" fill="yellow"/></g></svg>
