<?xml version='1.0' encoding='utf-8'?>
<svg xmlns='http://www.w3.org/2000/svg' version='1.1' width='2000' height='2000'>
	<g transform="scale(10)">
//nouvelle forme de couleur rgba(0,0,0,0)
<path d="M 0.0 0.0  L 100.0 0.0  L 100.0 100.0  L 0.0 100.0  Z " stroke="black" stroke-width ="0.01px" fill="rgba(0,0,0,0)"/>
//nouvelle forme de couleur white
<path d="M 0.0 0.0  L 100.0 0.0  L 100.0 100.0  L 0.0 100.0  Z " stroke="black" stroke-width ="0.01px" fill="white"/>
//nouvelle forme de couleur rgba(0,0,0,0)
<path d="M 0.0 0.0  L 100.0 0.0  L 100.0 100.0  L 0.0 100.0  Z " stroke="black" stroke-width ="0.01px" fill="rgba(0,0,0,0)"/>
//nouvelle forme de couleur rgba(0,0,0,0)
<path d="M 1.0 0.0  L 99.0 0.0  L 99.0 100.0  L 1.0 100.0  Z " stroke="black" stroke-width ="0.01px" fill="rgba(0,0,0,0)"/>
//nouvelle forme de couleur black
<path d=" M 72.74750187614677 -22.668935247475666 C 72.45680293165161 -20.98571584890795 72.05898702915087 -20.35817527031525 71.37080177279502 -18.981804757603534 C 72.25575264124113 -19.37500639114402 72.98085204927891 -19.80512217636643 73.53390514322773 -20.309066264952698 C 73.59553859291094 -18.944890605921607 72.94393789759698 -18.14596289451999 71.22347475670733 -16.86781039253338 C 72.74750187614677 -16.572826769718013 73.58301414859028 -16.732678230126332 74.91027565593944 -17.75276126097949 C 74.81205764521432 -16.069212271771768 74.16078654054039 -15.417611576457809 73.38657812714006 -14.655598016738104 C 74.82425249889496 -14.287115681198905 75.11923612171034 -14.446967141607239 76.18875774856608 -14.901472634190917 C 75.97979728279518 -13.53729697515984 73.7270452582778 -13.094986336256788 73.73759215875835 -13.084769026416254 C 74.40303566095301 -12.44635195670299 78.978014120997 -7.027552244180626 78.92000616835398 1.0826846347219714 C 78.90715213339332 2.8710434474551576 78.92000616835398 111.53411114535733 78.92000616835398 111.53411114535733 C 78.92000616835398 111.53411114535733 75.59219869013498 108.16635398566181 74.67033367000694 104.82661203036781 C 74.09915309085719 102.75678281105996 74.75042419553112 100.27496529173062 74.75042419553112 100.27496529173062 C 74.75042419553112 100.27496529173062 71.73565861129401 101.84678305397253 68.67145443105436 101.90676855045567 C 66.52548977390254 101.96642445629878 64.80865213005308 100.44437488069946 62.492948293292415 100.51457768702313 C 60.895752051769186 100.54424084462465 59.45346341105403 101.18694259265817 59.218791579455406 102.91004245866793 C 58.959077451028264 104.8187018550074 59.75503884666975 106.24385178244165 61.14195625986202 106.5019212535751 C 62.33243435569765 106.72307657302665 62.63697610707352 106.64001973174229 63.328790156375966 105.86515213706193 C 63.76780488887884 105.37373249279631 63.577957384322545 104.619299517797 62.94152115435578 104.28740174329974 C 62.68477004578241 104.15325835281273 62.36374876240568 104.02636595640612 61.52955485252221 104.89615565541145 C 61.37563272772779 104.1661123877734 61.70852257005154 103.47924549397763 62.772437860120576 103.46902818413707 C 64.02092720450563 103.45683333045642 65.1006694371083 104.1489736744925 65.04826452534557 105.94458348130605 C 65.1006694371083 107.47058814458558 62.858461017165055 109.13139537963214 61.015719748829035 108.89903397842002 C 56.8236563984506 108.10735726109876 55.5781333698257 103.2907196478878 55.785119587662884 101.5125781449951 C 55.865210113187054 100.59433862190728 56.41430811945567 96.85645117347251 63.66101422560688 95.42899411155813 C 68.11774215582551 94.70949774440064 69.30822354756755 96.59178988953872 72.47460082621254 96.2823042785626 C 75.6040639531756 95.97611457398662 75.84927938934837 94.40660394622486 76.11987330480248 92.0375064257814 C 75.15516150147221 92.42016115884132 73.77648385428037 93.75236652579076 71.88496317122181 93.84432231435555 C 70.33226166610089 93.5691141299412 68.38438098359941 91.89611204121405 68.32769139351645 89.58106738573342 C 68.46908577808381 88.25413546902425 68.97006355090993 87.44268331330198 70.55803125451266 86.78613875838775 C 70.08506868608802 88.19085406614096 70.3111678651398 88.89551885449768 72.30848714364387 88.98846341498253 C 76.16931190080504 88.45980002839498 75.72469412742188 82.18801973950818 75.72469412742188 82.18801973950818 C 69.48092904293655 86.83261103863018 67.5495278924359 87.7577719651584 59.08728491408855 87.54221968658717 C 58.06291720491517 87.57814506634905 56.14074459233501 88.06330248845433 56.10449291783952 89.94987931191261 C 56.14074459233501 91.58497847703782 56.72445291171183 92.55496373060835 58.36845102411749 92.93234501342805 C 59.473565144188676 92.91454711886709 59.6620909902785 92.52826688876699 59.6620909902785 92.1779120384287 C 59.6620909902785 90.8572423438799 58.36845102411749 91.53092561207501 58.36845102411749 91.53092561207501 C 58.36845102411749 91.53092561207501 58.53027673245953 90.70464187755196 59.266915108804305 90.77649263707569 C 60.18317708805205 90.74056725731381 61.03318805274995 91.67363835920244 60.94353939866528 93.14690852007922 C 60.45838197655999 94.7279548202416 58.94490505350754 95.10105142474103 55.88894063926829 95.08852698042037 C 52.70806137246255 94.73388745176189 49.98531309528067 91.7306575399254 51.14250583238097 86.59168028077764 C 48.77801928499136 85.94469385442392 45.97946845651193 85.7963780664162 43.55697725238571 87.32567863609587 C 42.74947688843723 87.87642459556459 41.39156345156647 89.22214317875469 41.45286731060967 92.7088825594964 C 41.709618419183045 95.21706733002706 42.72509047698236 96.8198666124306 44.58464086795925 97.35808812757867 C 46.346632429491066 97.45597654766374 47.81462584422116 97.211090702131 47.91251426430626 95.6452055714094 C 47.91251426430626 93.58987834026227 46.60338353806444 93.25336629680476 45.668002005789305 93.39739740649226 C 44.66044341925681 93.55230500730033 44.503228683968615 95.10302896858113 44.503228683968615 95.10302896858113 C 44.503228683968615 95.10302896858113 43.88953420816304 94.6739019552788 43.96303292088686 93.70721260810842 C 44.52564414339618 92.34929917123767 45.29853419423645 92.01970853122049 46.75433605119231 92.01970853122049 C 48.35713533359583 91.97092911649794 50.21273063689252 93.60207319394291 49.919065376637214 95.74309399149448 C 49.625396820475515 97.88411478904607 48.8996382311577 99.57524436297419 45.26985651264856 100.19652271940654 C 43.49907476874749 100.2453021341291 41.49121188566926 100.0919337216099 39.002360902081975 97.04036275060209 C 35.979688438390866 92.00224022729958 35.191264780686595 88.26460326775123 38.94007156702513 83.97967445864153 C 41.56657608141559 80.86537250111924 45.049693261023485 79.32453625903896 49.18473743067896 79.78925906146317 C 47.83901884748883 78.93298257869856 47.4507610735486 76.88820224803202 47.57007288523482 75.14038308402094 C 47.91581346661283 72.39258591819775 50.946728992210765 71.32306429134202 53.98093712830247 71.17639645653438 C 56.77026271476782 71.37217329670457 58.407009833093106 73.05605187655233 58.43403626557451 74.30849630861759 C 58.46040681268228 75.51941232004069 57.112710685652054 75.77649301925408 57.112710685652054 75.77649301925408 C 57.112710685652054 75.77649301925408 56.09723862785275 75.71518916021088 56.03626765535597 74.99338565857327 C 57.00262741188633 74.76102425736117 57.47987465863119 74.33288601597886 55.88926693400191 73.28083269304403 C 54.88599632169603 73.40311082049041 53.93182812293991 74.05141560940419 53.58938674386847 76.26593511967958 C 54.421273519271814 79.26323239999576 57.822316037702635 82.26085927095197 63.22991296437081 82.28524897831323 C 68.98028086075045 82.21175026558942 71.57086329128543 79.84627824218614 75.61131494725598 75.38493933891368 C 73.13674842200703 77.14231663148524 70.46113160634762 78.45870164771385 65.89761960466983 78.82586562069298 C 60.62713238424879 78.74841182028895 58.76692610789826 73.01254591207007 59.23197850096249 69.52481775940834 C 60.549681879751155 66.42435860876677 62.099743363845526 65.64949101408638 65.33434920088047 66.43358714668724 C 68.25847735911285 68.5380233831969 65.87257071602852 69.85935225902575 65.87257071602852 69.85935225902575 C 65.87257071602852 69.85935225902575 66.59536298958616 68.59471297327987 64.55124184019965 67.70613660779355 C 63.327798088549514 67.86499929628184 62.42241589632874 68.25226829830203 62.54502031850873 69.95295600079064 C 63.00974641683935 71.94697937289453 64.88149166149687 73.21952883400084 68.36856063287858 73.47627994257422 C 75.91717506119191 73.39091596680977 74.92609600666027 65.10797359253817 74.92609600666027 65.10797359253817 C 74.92609600666027 65.10797359253817 73.40899029066122 67.17582526800592 71.94099358002474 67.60396350938822 C 69.77327594063178 68.43980537247178 67.62203783323967 67.2002149753672 66.45990123653911 65.89108095321897 C 65.12275200998945 64.17688003448967 66.16425843244372 61.522686610431364 68.36856063287858 60.80154229007377 C 69.29635828452693 60.61730112230418 65.60362475377451 62.20856473230709 68.71100530785642 63.101755366753636 C 69.6163907959836 62.82028496017896 70.85301487732804 62.3295244971934 71.98977299474727 59.48021341424493 C 73.18387988352949 55.79703801205301 73.1436698254474 54.86693322592454 71.56624902232521 53.37026212960655 C 70.87872294724937 57.25283986900885 68.41536250376102 59.41528405816155 62.558203944109415 61.783392806684944 C 60.21778080934746 60.16773948932076 57.81078036530204 58.93045622669628 54.910382733150904 58.026389101129176 C 53.198159358261684 54.10755639132498 53.341864173215576 49.01175550601945 56.85958507411887 46.40337518092353 C 56.92714785941599 44.579420579068476 56.664793709962325 43.325328193803124 56.351023420665975 42.48652001495943 C 53.04918438897392 51.82316366536593 50.046616954323866 57.254487822208944 39.5056491052946 63.64327278830185 C 52.25454135589251 53.633605050980265 52.0854613575637 47.84863013739884 53.816141808293885 43.828942691749376 C 48.967207608267614 51.90753886921034 41.893859586952644 64.22598903985222 25.50991216760532 64.05657945088339 C 30.245470483372074 59.89483843938653 35.13296678828035 54.0656983800428 37.89263251305055 49.08822053450342 C 32.55919348038624 53.65964271154163 22.865276872107515 60.76858322607206 13.917876471654893 59.041857863022074 C 25.270299772312832 59.41132897048134 32.903618995110584 50.823844844833864 36.85672913147657 45.75968466096998 C 31.12976217053816 48.43101679830919 22.349793815214255 53.55087780033597 8.92181300992496 51.12080601148934 C 14.8872025439454 48.21117984141772 24.121343505306566 43.14504211371374 28.31999866848535 38.52154461555281 C 20.719968100329332 40.302652434205626 12.90086028170709 44.11931204560452 8.409925786914286 41.05378950280476 C 13.647615442747203 42.224495456145775 17.795839942096954 40.72683558790774 26.403099506145463 37.62077339638588 C 19.67022191187463 37.02190720347467 9.09389228307792 36.65342486793547 3.7476025113593394 31.945881756570188 C 7.801204833866564 32.08430982537739 21.47737068699519 29.63578096068981 26.85332361631532 26.034673627862166 C 18.494901689573386 27.139131862559715 9.3008422459447 26.74724859157929 4.993586966880258 23.483971664769246 C 8.87484634372251 24.692910132352242 11.24638118694888 26.250225906433396 24.933128547575265 24.501417970502256 C 19.933568129154747 23.91639458447178 12.469656847372619 23.044627341626363 8.465264055373169 18.858167032128215 C 13.60641661274505 18.52857639211104 20.770395468251955 17.653842833505465 26.213588184041985 15.825273962690183 C 21.745324581422757 15.379997008026976 13.194095426177178 14.204676785725724 11.53378422504386 12.367538558269992 C 17.836709181459085 14.337172223012622 24.173751712975694 14.969986251845604 27.892852494929485 14.387929181575288 C 23.929521752816573 11.807564060880829 17.315300084858322 12.352377388829204 13.943917428122639 3.639648819975207 C 17.630055850168326 4.8785800357997715 22.204118048233063 4.814639451636431 25.975953332589608 4.716421440911311 C 25.975953332589608 4.716421440911311 19.874571404591673 0.9452453378348125 16.496267344415635 -3.4389693556736347 C 19.683405537475316 0.055680200428462 27.469984407881054 3.7203985267794124 27.469984407881054 3.7203985267794124 C 24.93477650077535 -0.2636931297481837 18.823836444216926 -5.736875297873375 19.8788560829119 -12.33956458933742 C 22.605226561227568 -9.90883361921076 27.60346861708801 -4.522992970690126 31.904296878672117 -3.1954018727009412 L 31.896716293951723 -3.202982457421335 C 28.917876089476497 -7.4711812456437485 27.369462558582214 -13.43281674227439 27.50558019700291 -15.369491343015305 C 28.020733663256152 -13.694511710448033 29.158150961955425 -8.904900529718454 32.97843607039448 -6.234557164299304 L 32.973488914887824 -6.244115292859803 C 31.41122928120642 -12.413722483341296 30.97683211357019 -17.355934130398815 34.18407533567091 -21.47054368037322 C 36.07098174976923 -18.513456458139125 37.562379395846946 -10.393991041316042 40.933435757849 -8.36206474561017 C 41.09493187555101 -9.058489767966456 40.960129303783994 -10.140535839142835 42.641371158511596 -9.939485548732364 C 44.17067502409768 -9.561115493992652 43.92117490960468 -9.034759241885219 43.83284461808009 -8.240445799443833 C 43.43370705711288 -8.94642895036062 43.45447456334036 -9.052886727086168 42.81770215092078 -9.123089533409825 C 42.060632450801336 -9.118145673809558 42.210599487915545 -7.2295913065111534 42.490418645383734 -6.767175638567068 C 42.770570689398326 -6.3047599706229605 43.51314169726342 -5.47781705481988 44.68483642252448 -5.186788519684711 C 51.172828171262545 -4.088922097787503 51.98889459594507 -2.7428739239573687 52.446363108382506 -0.012545062055096423 C 52.26476196163945 1.5292799519452416 51.49549411193296 2.0503627538124007 50.90486768502219 2.3746799435892925 C 50.009043621361904 2.2069183078205583 48.76483895529708 2.4989356148757693 47.566776978834646 4.040101447596079 C 47.2243290079504 5.561821432555362 47.11984877506496 8.28127380333708 48.641572055930645 8.661950992556903 C 50.16362163152996 9.04229859113672 51.1527231422215 5.5420459941543285 53.51160005691801 6.226935344110032 C 55.53792660765 7.313925274886671 55.96573196248589 9.222255080586116 57.72278296032385 10.164884311035223 C 60.89443039330272 9.950650395024063 59.69570923556026 7.072335335754083 61.86936280237992 4.2124773523250525 C 65.01761259582396 0.0698525979491933 66.39859737749592 -0.09593149397943534 66.28785492245015 -0.9795639998654835 C 66.1774420580444 -1.8631965057515245 65.88740229482929 -2.3968037519393306 64.85182850389533 -2.0840222345630366 C 62.46756981401109 -1.7893682023876778 63.54236159520069 -2.5625878438679734 61.34234407308606 -2.5131492478653925 C 60.71546267577339 -2.365822231777713 60.48211250264123 -1.8127691378289015 60.506505505908905 -0.7435771016131838 C 59.84303625164793 -0.8539899660189434 58.83515137038181 -2.673000708273726 60.94914243954557 -3.643974733764324 C 62.8169358924293 -3.9758725082616166 63.22266197029043 -3.57014643040047 64.78360324141178 -3.88984935121713 C 65.90190428299005 -5.241500565927559 66.3728893075746 -6.3001457016627285 65.42267949240507 -9.05156836452609 C 63.78395153433328 -11.163914776396169 58.66079792181272 -12.127967398446394 58.114662935397874 -12.674099088954861 C 57.921852410987825 -13.220560370103328 56.28873408560912 -15.421237073498013 54.729111177047855 -17.20926629559117 C 57.10216048926511 -19.542768026912775 56.535264588435574 -20.5701020518463 59.751083758989544 -20.405306731837705 C 69.80293909823331 -19.886860655090693 71.4647351051999 -20.56680614544613 72.74750187614677 -22.668935247475666 Z " stroke="black" stroke-width ="0.1px" fill="black"/>
<path d="M 66.54334040296587 77.16092531902062 C 64.32783212077042 78.65627805277853 44.88791699127746 87.38910505886079 40.51260124504947 89.38279884032467 C 41.23242720284698 89.88113988803065 41.28779843036986 89.82576866050778 42.44861666451035 90.41375836229841 C 44.389575943571494 89.43817006784755 44.06328120995448 90.0073731031572 45.43108236602576 91.21037893921992 C 45.86383487636831 91.59138571907977 46.196391832145636 92.37416348912055 44.44494717109438 94.36752767994442 C 42.838851982290684 96.19510777883963 41.48884872078035 95.8121234551397 40.291116334957934 94.75512627260463 C 39.34947587642886 93.9242282691213 39.12799096633732 93.59200090398403 39.07261973881444 92.65069003609494 C 37.6326382325794 91.43219343995145 38.18635050780826 92.0412769427032 36.35877040891302 91.21037893921992 C 33.09087921314274 92.15201939774897 32.260310800299465 94.36752767994442 30.602140290373065 95.91067105650484 C 31.101470109999077 96.26662894772335 31.64133957834721 96.9429489410386 31.329876423530983 98.20890658934456 C 31.09257116271862 99.17328880203485 30.49040906340724 100.42540364346007 26.86194570745817 98.8789643604995 C 26.242644894865904 98.61496225784572 24.553492864777887 97.16641139497025 25.223880226572817 95.60250380808876 C 25.643449111314677 94.62394919787778 26.601569101844607 94.22514452345699 27.755465932544734 94.48552112907055 C 29.72905468496757 92.43777448264385 28.31412206737384 93.51751341934013 29.74915971400862 92.21464161935222 C 27.197139388355634 91.80496045381089 26.591351792004073 91.5442542575573 24.85144280335341 91.58149799987925 C 24.171167722357964 92.81021190586327 23.5482414127255 92.88469939050714 22.096394643449848 92.99643061747298 C 20.609611266332376 93.11079856955894 19.52723560451598 91.84220419613283 19.419129874590347 89.65569989025889 C 19.379908588428304 88.86369358229764 19.75135723972765 87.56444727934993 21.59871277702392 87.28627277917542 C 23.734460124335204 86.96492190515868 23.920678835944905 87.59773593399167 24.81419906103147 88.71471861300988 C 27.085408161389815 88.49125615907823 28.0906596134422 88.37952493211239 29.803212578971433 88.19330622050268 C 28.79796112691905 86.96492190515868 29.05866732317263 87.0763235414845 28.138120665604674 85.58031162644653 C 26.527081617200725 85.48571911276161 26.005669224693555 85.69896425685272 24.91571297815676 84.82225315440704 C 24.40814339253031 84.41389035142576 23.515941530003822 83.77019983147221 24.92593028799729 81.78936008496899 C 26.489837874878784 79.59296805989456 29.02142358085069 80.93308360220438 29.431104746392045 81.23103354077989 C 30.644987073575294 82.11400686538592 29.454835272473282 83.04872592047462 30.21289374451278 84.4702503508687 C 31.925446710042014 85.5872330298869 32.9306981620944 86.0710720894321 34.58260644986048 87.38119488350037 C 40.675089430577934 86.33177828568569 57.62626563730122 74.72393212673363 59.62028900940513 73.3393218480215 C 63.2200779796727 74.22559107902767 63.82949107306446 74.44707598911921 66.54334040296587 77.16092531902062 Z " stroke="black" stroke-width ="0.1px" fill="black"/>
<path d="M 26.774604187853623 81.17071515775037 C 24.42033824621095 79.56989341918694 20.182791387510132 81.68883164385736 21.87787604911846 83.99596612397758 C 22.913779430692447 82.4419462562966 23.572960710726793 82.63047210238642 24.749928886228123 83.43071817634812 C 26.99938500434533 83.0539960748085 26.774604187853623 81.17071515775037 26.774604187853623 81.17071515775037 Z " stroke="black" stroke-width ="0.1px" fill="black"/>
<path d="M 20.483707641845815 88.80139765542798 C 17.69899632434072 89.39433121681887 16.298433858651734 93.9202698855347 19.137000286735645 94.29204812747408 C 18.7312742088745 92.4690822975391 19.32321899834535 92.12334171616106 20.71540986177789 91.82671014014561 C 21.642548332146195 90.49351600127616 20.483707641845815 88.80139765542798 20.483707641845815 88.80139765542798 Z " stroke="black" stroke-width ="0.1px" fill="black"/>
<path d="M 26.351080215431555 96.89680295552981 C 24.160291231237395 98.71515451650454 25.471073206585697 102.71210020799283 28.157566513365687 101.7229986973013 C 26.951923952182856 100.296859997947 27.656918331179597 99.45409673142308 28.752148027956668 98.54475615561569 C 28.11636768336354 96.84242049992699 26.351080215431555 96.89680295552981 26.351080215431555 96.89680295552981 Z " stroke="black" stroke-width ="0.1px" fill="black"/>
<path d="M 44.39979325341203 92.54225141962291 C 46.59058223760618 94.36060298059763 45.27980026225788 98.35754867208593 42.5933069554779 97.3684471613944 C 43.79894951666071 95.94230846204009 43.093955137663976 95.09921560487612 41.998395850246894 94.19020461970878 C 42.63417619484002 92.48786896402005 44.39979325341203 92.54225141962291 44.39979325341203 92.54225141962291 Z " stroke="black" stroke-width ="0.1px" fill="black"/>
<path d="M 64.53085995502101 -2.1590172887925476 C 65.1218159725718 -2.1590172887925476 66.69890718505397 -2.5680392730538557 67.7509605079888 -2.768430382184299 C 67.7915001567109 -1.3462467705101915 65.49392380515118 0.20612514397070214 64.0433953984356 -0.07699321580405183 C 63.016061373502076 -0.27738432493449494 62.48245412731427 -1.115203731858152 62.670979973404094 -1.6712231415671184 C 63.39937528784204 -1.9329181097407613 63.94023352811023 -2.1590172887925476 64.53085995502101 -2.1590172887925476 Z " stroke="black" stroke-width ="0.1px" fill="black"/>
<path d="M 64.91318509744092 -0.8874565996062884 C 64.91318509744092 -0.3818645578199451 64.52492732350069 0.027816607721412367 64.04603212355575 0.027816607721412367 C 63.56713692361079 0.027816607721412367 63.17887914967056 -0.3818645578199451 63.17887914967056 -0.8874565996062884 C 63.17887914967056 -1.3927190507526106 63.56713692361079 -1.802729806933975 64.04603212355575 -1.802729806933975 C 64.52492732350069 -1.802729806933975 64.91318509744092 -1.3927190507526106 64.91318509744092 -0.8874565996062884 C 64.91318509744092 -0.8874565996062884 64.91318509744092 -0.8874565996062884 64.91318509744092 -0.8874565996062884 Z " stroke="black" stroke-width ="0.1px" fill="black"/>
<path d="M 64.53085995502101 -1.12805776681882 C 64.53085995502101 -0.9286554296084333 64.36903095077257 -0.7668264253599943 64.16962861356218 -0.7668264253599943 C 63.97022627635179 -0.7668264253599943 63.80839727210336 -0.9286554296084333 63.80839727210336 -1.12805776681882 C 63.80839727210336 -1.327789694669228 63.97022627635179 -1.4892891082776458 64.16962861356218 -1.4892891082776458 C 64.36903095077257 -1.4892891082776458 64.53085995502101 -1.327789694669228 64.53085995502101 -1.12805776681882 C 64.53085995502101 -1.12805776681882 64.53085995502101 -1.12805776681882 64.53085995502101 -1.12805776681882 Z " stroke="black" stroke-width ="0.1px" fill="black"/>
<path d="M 64.39507849905313 4.4739943415530945 C 61.41327197881775 4.932784512456998 60.54150473597233 4.8411583145322155 59.44034240767495 5.437387782323292 C 57.269328861881824 6.613367185904565 57.22528896056273 7.587264680372101 54.47254793513929 7.541121990769703 C 53.362157068921434 7.522664914928747 52.696588322283546 6.400781223093496 52.421380137869214 4.8411583145322155 C 51.9625899669653 5.80455175530242 51.1756659466731 8.454556082326114 53.751607960978525 9.113664852419653 C 54.88479001995357 9.403615626161958 56.8123118886212 8.50472636954953 58.601659473274445 6.898960771385852 C 60.24400963248002 5.425031429229037 61.459085077780145 5.1621795979089455 65.81726211072724 4.978597611419389 M 58.694149198676065 -1.2200135553836091 C 59.32465609302892 -0.789897770161204 61.923148698924315 2.418007929125956 62.113981679494266 3.3411913118140646 C 63.05792927250345 3.618047449428481 66.64585297973042 4.909713167655802 66.9490763685462 5.073519715744318 C 66.41546912235842 5.001668956220591 65.64159029959808 5.307199479516498 65.03448434068645 5.680625674655971 C 63.00882026714089 6.556348005181597 62.13672343365545 7.997318283336682 60.551062864532824 7.501943551390859 C 60.293982165319434 7.421523435226675 59.49736158839792 7.216518057135993 59.59393164592296 6.638086483905852 C 60.41329397700565 7.425478522906886 61.55532554466515 6.871436657038018 62.53585769871625 6.311132569008805 C 63.15713605514862 5.95616344971031 63.399714766201264 5.377072695200155 64.80080457691427 4.93344369373704 C 64.05296341471531 4.7788656835689665 63.467940028684815 4.498384048914353 61.8249306881992 4.498384048914353 C 58.816097735482415 4.498384048914353 59.30191433886773 2.9074500295514483 56.9176556489835 6.574145899742511 C 54.997790170883455 1.2443356600248023 57.80590242382978 -0.9332696985686653 58.694149198676065 -1.2200135553836091 Z " stroke="black" stroke-width ="0.1px" fill="black"/>
<path d="M 72.74750187614677 -22.668935247475666 C 72.45680293165161 -20.98571584890795 72.05898702915087 -20.35817527031525 71.37080177279502 -18.981804757603534 C 72.25575264124113 -19.37500639114402 72.98085204927891 -19.80512217636643 73.53390514322773 -20.309066264952698 C 73.59553859291094 -18.944890605921607 72.94393789759698 -18.14596289451999 71.22347475670733 -16.86781039253338 C 72.74750187614677 -16.572826769718013 73.58301414859028 -16.732678230126332 74.91027565593944 -17.75276126097949 C 74.81205764521432 -16.069212271771768 74.16078654054039 -15.417611576457809 73.38657812714006 -14.655598016738104 C 74.82425249889496 -14.287115681198905 75.11923612171034 -14.446967141607239 76.18875774856608 -14.901472634190917 C 75.97979728279518 -13.53729697515984 73.7270452582778 -13.094986336256788 73.73759215875835 -13.084769026416254 C 74.40303566095301 -12.44635195670299 78.978014120997 -7.027552244180626 78.92000616835398 1.0826846347219714 C 78.90715213339332 2.8710434474551576 78.92000616835398 111.53411114535733 78.92000616835398 111.53411114535733 C 78.92000616835398 111.53411114535733 75.59219869013498 108.16635398566181 74.67033367000694 104.82661203036781 C 74.09915309085719 102.75678281105996 74.75042419553112 100.27496529173062 74.75042419553112 100.27496529173062 C 74.75042419553112 100.27496529173062 71.73565861129401 101.84678305397253 68.67145443105436 101.90676855045567 C 66.52548977390254 101.96642445629878 64.80865213005308 100.44437488069946 62.492948293292415 100.51457768702313 C 60.895752051769186 100.54424084462465 59.45346341105403 101.18694259265817 59.218791579455406 102.91004245866793 C 58.959077451028264 104.8187018550074 59.75503884666975 106.24385178244165 61.14195625986202 106.5019212535751 C 62.33243435569765 106.72307657302665 62.63697610707352 106.64001973174229 63.328790156375966 105.86515213706193 C 63.76780488887884 105.37373249279631 63.577957384322545 104.619299517797 62.94152115435578 104.28740174329974 C 62.68477004578241 104.15325835281273 62.36374876240568 104.02636595640612 61.52955485252221 104.89615565541145 C 61.37563272772779 104.1661123877734 61.70852257005154 103.47924549397763 62.772437860120576 103.46902818413707 C 64.02092720450563 103.45683333045642 65.1006694371083 104.1489736744925 65.04826452534557 105.94458348130605 C 65.1006694371083 107.47058814458558 62.858461017165055 109.13139537963214 61.015719748829035 108.89903397842002 C 56.8236563984506 108.10735726109876 55.5781333698257 103.2907196478878 55.785119587662884 101.5125781449951 C 55.865210113187054 100.59433862190728 56.41430811945567 96.85645117347251 63.66101422560688 95.42899411155813 C 68.11774215582551 94.70949774440064 69.30822354756755 96.59178988953872 72.47460082621254 96.2823042785626 C 75.6040639531756 95.97611457398662 75.84927938934837 94.40660394622486 76.11987330480248 92.0375064257814 C 75.15516150147221 92.42016115884132 73.77648385428037 93.75236652579076 71.88496317122181 93.84432231435555 C 70.33226166610089 93.5691141299412 68.38438098359941 91.89611204121405 68.32769139351645 89.58106738573342 C 68.46908577808381 88.25413546902425 68.97006355090993 87.44268331330198 70.55803125451266 86.78613875838775 C 70.08506868608802 88.19085406614096 70.3111678651398 88.89551885449768 72.30848714364387 88.98846341498253 C 76.16931190080504 88.45980002839498 75.72469412742188 82.18801973950818 75.72469412742188 82.18801973950818 C 69.48092904293655 86.83261103863018 67.5495278924359 87.7577719651584 59.08728491408855 87.54221968658717 C 58.06291720491517 87.57814506634905 56.14074459233501 88.06330248845433 56.10449291783952 89.94987931191261 C 56.14074459233501 91.58497847703782 56.72445291171183 92.55496373060835 58.36845102411749 92.93234501342805 C 59.473565144188676 92.91454711886709 59.6620909902785 92.52826688876699 59.6620909902785 92.1779120384287 C 59.6620909902785 90.8572423438799 58.36845102411749 91.53092561207501 58.36845102411749 91.53092561207501 C 58.36845102411749 91.53092561207501 58.53027673245953 90.70464187755196 59.266915108804305 90.77649263707569 C 60.18317708805205 90.74056725731381 61.03318805274995 91.67363835920244 60.94353939866528 93.14690852007922 C 60.45838197655999 94.7279548202416 58.94490505350754 95.10105142474103 55.88894063926829 95.08852698042037 C 52.70806137246255 94.73388745176189 49.98531309528067 91.7306575399254 51.14250583238097 86.59168028077764 C 48.77801928499136 85.94469385442392 45.97946845651193 85.7963780664162 43.55697725238571 87.32567863609587 C 42.74947688843723 87.87642459556459 41.39156345156647 89.22214317875469 41.45286731060967 92.7088825594964 C 41.709618419183045 95.21706733002706 42.72509047698236 96.8198666124306 44.58464086795925 97.35808812757867 C 46.346632429491066 97.45597654766374 47.81462584422116 97.211090702131 47.91251426430626 95.6452055714094 C 47.91251426430626 93.58987834026227 46.60338353806444 93.25336629680476 45.668002005789305 93.39739740649226 C 44.66044341925681 93.55230500730033 44.503228683968615 95.10302896858113 44.503228683968615 95.10302896858113 C 44.503228683968615 95.10302896858113 43.88953420816304 94.6739019552788 43.96303292088686 93.70721260810842 C 44.52564414339618 92.34929917123767 45.29853419423645 92.01970853122049 46.75433605119231 92.01970853122049 C 48.35713533359583 91.97092911649794 50.21273063689252 93.60207319394291 49.919065376637214 95.74309399149448 C 49.625396820475515 97.88411478904607 48.8996382311577 99.57524436297419 45.26985651264856 100.19652271940654 C 43.49907476874749 100.2453021341291 41.49121188566926 100.0919337216099 39.002360902081975 97.04036275060209 C 35.979688438390866 92.00224022729958 35.191264780686595 88.26460326775123 38.94007156702513 83.97967445864153 C 41.56657608141559 80.86537250111924 45.049693261023485 79.32453625903896 49.18473743067896 79.78925906146317 C 47.83901884748883 78.93298257869856 47.4507610735486 76.88820224803202 47.57007288523482 75.14038308402094 C 47.91581346661283 72.39258591819775 50.946728992210765 71.32306429134202 53.98093712830247 71.17639645653438 C 56.77026271476782 71.37217329670457 58.407009833093106 73.05605187655233 58.43403626557451 74.30849630861759 C 58.46040681268228 75.51941232004069 57.112710685652054 75.77649301925408 57.112710685652054 75.77649301925408 C 57.112710685652054 75.77649301925408 56.09723862785275 75.71518916021088 56.03626765535597 74.99338565857327 C 57.00262741188633 74.76102425736117 57.47987465863119 74.33288601597886 55.88926693400191 73.28083269304403 C 54.88599632169603 73.40311082049041 53.93182812293991 74.05141560940419 53.58938674386847 76.26593511967958 C 54.421273519271814 79.26323239999576 57.822316037702635 82.26085927095197 63.22991296437081 82.28524897831323 C 68.98028086075045 82.21175026558942 71.57086329128543 79.84627824218614 75.61131494725598 75.38493933891368 C 73.13674842200703 77.14231663148524 70.46113160634762 78.45870164771385 65.89761960466983 78.82586562069298 C 60.62713238424879 78.74841182028895 58.76692610789826 73.01254591207007 59.23197850096249 69.52481775940834 C 60.549681879751155 66.42435860876677 62.099743363845526 65.64949101408638 65.33434920088047 66.43358714668724 C 68.25847735911285 68.5380233831969 65.87257071602852 69.85935225902575 65.87257071602852 69.85935225902575 C 65.87257071602852 69.85935225902575 66.59536298958616 68.59471297327987 64.55124184019965 67.70613660779355 C 63.327798088549514 67.86499929628184 62.42241589632874 68.25226829830203 62.54502031850873 69.95295600079064 C 63.00974641683935 71.94697937289453 64.88149166149687 73.21952883400084 68.36856063287858 73.47627994257422 C 75.91717506119191 73.39091596680977 74.92609600666027 65.10797359253817 74.92609600666027 65.10797359253817 C 74.92609600666027 65.10797359253817 73.40899029066122 67.17582526800592 71.94099358002474 67.60396350938822 C 69.77327594063178 68.43980537247178 67.62203783323967 67.2002149753672 66.45990123653911 65.89108095321897 C 65.12275200998945 64.17688003448967 66.16425843244372 61.522686610431364 68.36856063287858 60.80154229007377 C 69.29635828452693 60.61730112230418 65.60362475377451 62.20856473230709 68.71100530785642 63.101755366753636 C 69.6163907959836 62.82028496017896 70.85301487732804 62.3295244971934 71.98977299474727 59.48021341424493 C 73.18387988352949 55.79703801205301 73.1436698254474 54.86693322592454 71.56624902232521 53.37026212960655 C 70.87872294724937 57.25283986900885 68.41536250376102 59.41528405816155 62.558203944109415 61.783392806684944 C 60.21778080934746 60.16773948932076 57.81078036530204 58.93045622669628 54.910382733150904 58.026389101129176 C 53.198159358261684 54.10755639132498 53.341864173215576 49.01175550601945 56.85958507411887 46.40337518092353 C 56.92714785941599 44.579420579068476 56.664793709962325 43.325328193803124 56.351023420665975 42.48652001495943 C 53.04918438897392 51.82316366536593 50.046616954323866 57.254487822208944 39.5056491052946 63.64327278830185 C 52.25454135589251 53.633605050980265 52.0854613575637 47.84863013739884 53.816141808293885 43.828942691749376 C 48.967207608267614 51.90753886921034 41.893859586952644 64.22598903985222 25.50991216760532 64.05657945088339 C 30.245470483372074 59.89483843938653 35.13296678828035 54.0656983800428 37.89263251305055 49.08822053450342 C 32.55919348038624 53.65964271154163 22.865276872107515 60.76858322607206 13.917876471654893 59.041857863022074 C 25.270299772312832 59.41132897048134 32.903618995110584 50.823844844833864 36.85672913147657 45.75968466096998 C 31.12976217053816 48.43101679830919 22.349793815214255 53.55087780033597 8.92181300992496 51.12080601148934 C 14.8872025439454 48.21117984141772 24.121343505306566 43.14504211371374 28.31999866848535 38.52154461555281 C 20.719968100329332 40.302652434205626 12.90086028170709 44.11931204560452 8.409925786914286 41.05378950280476 C 13.647615442747203 42.224495456145775 17.795839942096954 40.72683558790774 26.403099506145463 37.62077339638588 C 19.67022191187463 37.02190720347467 9.09389228307792 36.65342486793547 3.7476025113593394 31.945881756570188 C 7.801204833866564 32.08430982537739 21.47737068699519 29.63578096068981 26.85332361631532 26.034673627862166 C 18.494901689573386 27.139131862559715 9.3008422459447 26.74724859157929 4.993586966880258 23.483971664769246 C 8.87484634372251 24.692910132352242 11.24638118694888 26.250225906433396 24.933128547575265 24.501417970502256 C 19.933568129154747 23.91639458447178 12.469656847372619 23.044627341626363 8.465264055373169 18.858167032128215 C 13.60641661274505 18.52857639211104 20.770395468251955 17.653842833505465 26.213588184041985 15.825273962690183 C 21.745324581422757 15.379997008026976 13.194095426177178 14.204676785725724 11.53378422504386 12.367538558269992 C 17.836709181459085 14.337172223012622 24.173751712975694 14.969986251845604 27.892852494929485 14.387929181575288 C 23.929521752816573 11.807564060880829 17.315300084858322 12.352377388829204 13.943917428122639 3.639648819975207 C 17.630055850168326 4.8785800357997715 22.204118048233063 4.814639451636431 25.975953332589608 4.716421440911311 C 25.975953332589608 4.716421440911311 19.874571404591673 0.9452453378348125 16.496267344415635 -3.4389693556736347 C 19.683405537475316 0.055680200428462 27.469984407881054 3.7203985267794124 27.469984407881054 3.7203985267794124 C 24.93477650077535 -0.2636931297481837 18.823836444216926 -5.736875297873375 19.8788560829119 -12.33956458933742 C 22.605226561227568 -9.90883361921076 27.60346861708801 -4.522992970690126 31.904296878672117 -3.1954018727009412 L 31.896716293951723 -3.202982457421335 C 28.917876089476497 -7.4711812456437485 27.369462558582214 -13.43281674227439 27.50558019700291 -15.369491343015305 C 28.020733663256152 -13.694511710448033 29.158150961955425 -8.904900529718454 32.97843607039448 -6.234557164299304 L 32.973488914887824 -6.244115292859803 C 31.41122928120642 -12.413722483341296 30.97683211357019 -17.355934130398815 34.18407533567091 -21.47054368037322 C 36.07098174976923 -18.513456458139125 37.562379395846946 -10.393991041316042 40.933435757849 -8.36206474561017 C 41.09493187555101 -9.058489767966456 40.960129303783994 -10.140535839142835 42.641371158511596 -9.939485548732364 C 44.17067502409768 -9.561115493992652 43.92117490960468 -9.034759241885219 43.83284461808009 -8.240445799443833 C 43.43370705711288 -8.94642895036062 43.45447456334036 -9.052886727086168 42.81770215092078 -9.123089533409825 C 42.060632450801336 -9.118145673809558 42.210599487915545 -7.2295913065111534 42.490418645383734 -6.767175638567068 C 42.770570689398326 -6.3047599706229605 43.51314169726342 -5.47781705481988 44.68483642252448 -5.186788519684711 C 51.172828171262545 -4.088922097787503 51.98889459594507 -2.7428739239573687 52.446363108382506 -0.012545062055096423 C 52.26476196163945 1.5292799519452416 51.49549411193296 2.0503627538124007 50.90486768502219 2.3746799435892925 C 50.009043621361904 2.2069183078205583 48.76483895529708 2.4989356148757693 47.566776978834646 4.040101447596079 C 47.2243290079504 5.561821432555362 47.11984877506496 8.28127380333708 48.641572055930645 8.661950992556903 C 50.16362163152996 9.04229859113672 51.1527231422215 5.5420459941543285 53.51160005691801 6.226935344110032 C 55.53792660765 7.313925274886671 55.96573196248589 9.222255080586116 57.72278296032385 10.164884311035223 C 60.89443039330272 9.950650395024063 59.69570923556026 7.072335335754083 61.86936280237992 4.2124773523250525 C 65.01761259582396 0.0698525979491933 66.39859737749592 -0.09593149397943534 66.28785492245015 -0.9795639998654835 C 66.1774420580444 -1.8631965057515245 65.88740229482929 -2.3968037519393306 64.85182850389533 -2.0840222345630366 C 62.46756981401109 -1.7893682023876778 63.54236159520069 -2.5625878438679734 61.34234407308606 -2.5131492478653925 C 60.71546267577339 -2.365822231777713 60.48211250264123 -1.8127691378289015 60.506505505908905 -0.7435771016131838 C 59.84303625164793 -0.8539899660189434 58.83515137038181 -2.673000708273726 60.94914243954557 -3.643974733764324 C 62.8169358924293 -3.9758725082616166 63.22266197029043 -3.57014643040047 64.78360324141178 -3.88984935121713 C 65.90190428299005 -5.241500565927559 66.3728893075746 -6.3001457016627285 65.42267949240507 -9.05156836452609 C 63.78395153433328 -11.163914776396169 58.66079792181272 -12.127967398446394 58.114662935397874 -12.674099088954861 C 57.921852410987825 -13.220560370103328 56.28873408560912 -15.421237073498013 54.729111177047855 -17.20926629559117 C 57.10216048926511 -19.542768026912775 56.535264588435574 -20.5701020518463 59.751083758989544 -20.405306731837705 C 69.80293909823331 -19.886860655090693 71.4647351051999 -20.56680614544613 72.74750187614677 -22.668935247475666 Z " stroke="black" stroke-width ="0.1px" fill="black"/>
<path d="M 66.54334040296587 77.16092531902062 C 64.32783212077042 78.65627805277853 44.88791699127746 87.38910505886079 40.51260124504947 89.38279884032467 C 41.23242720284698 89.88113988803065 41.28779843036986 89.82576866050778 42.44861666451035 90.41375836229841 C 44.389575943571494 89.43817006784755 44.06328120995448 90.0073731031572 45.43108236602576 91.21037893921992 C 45.86383487636831 91.59138571907977 46.196391832145636 92.37416348912055 44.44494717109438 94.36752767994442 C 42.838851982290684 96.19510777883963 41.48884872078035 95.8121234551397 40.291116334957934 94.75512627260463 C 39.34947587642886 93.9242282691213 39.12799096633732 93.59200090398403 39.07261973881444 92.65069003609494 C 37.6326382325794 91.43219343995145 38.18635050780826 92.0412769427032 36.35877040891302 91.21037893921992 C 33.09087921314274 92.15201939774897 32.260310800299465 94.36752767994442 30.602140290373065 95.91067105650484 C 31.101470109999077 96.26662894772335 31.64133957834721 96.9429489410386 31.329876423530983 98.20890658934456 C 31.09257116271862 99.17328880203485 30.49040906340724 100.42540364346007 26.86194570745817 98.8789643604995 C 26.242644894865904 98.61496225784572 24.553492864777887 97.16641139497025 25.223880226572817 95.60250380808876 C 25.643449111314677 94.62394919787778 26.601569101844607 94.22514452345699 27.755465932544734 94.48552112907055 C 29.72905468496757 92.43777448264385 28.31412206737384 93.51751341934013 29.74915971400862 92.21464161935222 C 27.197139388355634 91.80496045381089 26.591351792004073 91.5442542575573 24.85144280335341 91.58149799987925 C 24.171167722357964 92.81021190586327 23.5482414127255 92.88469939050714 22.096394643449848 92.99643061747298 C 20.609611266332376 93.11079856955894 19.52723560451598 91.84220419613283 19.419129874590347 89.65569989025889 C 19.379908588428304 88.86369358229764 19.75135723972765 87.56444727934993 21.59871277702392 87.28627277917542 C 23.734460124335204 86.96492190515868 23.920678835944905 87.59773593399167 24.81419906103147 88.71471861300988 C 27.085408161389815 88.49125615907823 28.0906596134422 88.37952493211239 29.803212578971433 88.19330622050268 C 28.79796112691905 86.96492190515868 29.05866732317263 87.0763235414845 28.138120665604674 85.58031162644653 C 26.527081617200725 85.48571911276161 26.005669224693555 85.69896425685272 24.91571297815676 84.82225315440704 C 24.40814339253031 84.41389035142576 23.515941530003822 83.77019983147221 24.92593028799729 81.78936008496899 C 26.489837874878784 79.59296805989456 29.02142358085069 80.93308360220438 29.431104746392045 81.23103354077989 C 30.644987073575294 82.11400686538592 29.454835272473282 83.04872592047462 30.21289374451278 84.4702503508687 C 31.925446710042014 85.5872330298869 32.9306981620944 86.0710720894321 34.58260644986048 87.38119488350037 C 40.675089430577934 86.33177828568569 57.62626563730122 74.72393212673363 59.62028900940513 73.3393218480215 C 63.2200779796727 74.22559107902767 63.82949107306446 74.44707598911921 66.54334040296587 77.16092531902062 Z " stroke="black" stroke-width ="0.1px" fill="black"/>
<path d="M 26.774604187853623 81.17071515775037 C 24.42033824621095 79.56989341918694 20.182791387510132 81.68883164385736 21.87787604911846 83.99596612397758 C 22.913779430692447 82.4419462562966 23.572960710726793 82.63047210238642 24.749928886228123 83.43071817634812 C 26.99938500434533 83.0539960748085 26.774604187853623 81.17071515775037 26.774604187853623 81.17071515775037 Z " stroke="black" stroke-width ="0.1px" fill="black"/>
<path d="M 20.483707641845815 88.80139765542798 C 17.69899632434072 89.39433121681887 16.298433858651734 93.9202698855347 19.137000286735645 94.29204812747408 C 18.7312742088745 92.4690822975391 19.32321899834535 92.12334171616106 20.71540986177789 91.82671014014561 C 21.642548332146195 90.49351600127616 20.483707641845815 88.80139765542798 20.483707641845815 88.80139765542798 Z " stroke="black" stroke-width ="0.1px" fill="black"/>
<path d="M 26.351080215431555 96.89680295552981 C 24.160291231237395 98.71515451650454 25.471073206585697 102.71210020799283 28.157566513365687 101.7229986973013 C 26.951923952182856 100.296859997947 27.656918331179597 99.45409673142308 28.752148027956668 98.54475615561569 C 28.11636768336354 96.84242049992699 26.351080215431555 96.89680295552981 26.351080215431555 96.89680295552981 Z " stroke="black" stroke-width ="0.1px" fill="black"/>
<path d="M 44.39979325341203 92.54225141962291 C 46.59058223760618 94.36060298059763 45.27980026225788 98.35754867208593 42.5933069554779 97.3684471613944 C 43.79894951666071 95.94230846204009 43.093955137663976 95.09921560487612 41.998395850246894 94.19020461970878 C 42.63417619484002 92.48786896402005 44.39979325341203 92.54225141962291 44.39979325341203 92.54225141962291 Z " stroke="black" stroke-width ="0.1px" fill="black"/>
<path d="M 64.53085995502101 -2.1590172887925476 C 65.1218159725718 -2.1590172887925476 66.69890718505397 -2.5680392730538557 67.7509605079888 -2.768430382184299 C 67.7915001567109 -1.3462467705101915 65.49392380515118 0.20612514397070214 64.0433953984356 -0.07699321580405183 C 63.016061373502076 -0.27738432493449494 62.48245412731427 -1.115203731858152 62.670979973404094 -1.6712231415671184 C 63.39937528784204 -1.9329181097407613 63.94023352811023 -2.1590172887925476 64.53085995502101 -2.1590172887925476 Z " stroke="black" stroke-width ="0.1px" fill="black"/>
<path d="M 64.91318509744092 -0.8874565996062884 C 64.91318509744092 -0.3818645578199451 64.52492732350069 0.027816607721412367 64.04603212355575 0.027816607721412367 C 63.56713692361079 0.027816607721412367 63.17887914967056 -0.3818645578199451 63.17887914967056 -0.8874565996062884 C 63.17887914967056 -1.3927190507526106 63.56713692361079 -1.802729806933975 64.04603212355575 -1.802729806933975 C 64.52492732350069 -1.802729806933975 64.91318509744092 -1.3927190507526106 64.91318509744092 -0.8874565996062884 C 64.91318509744092 -0.8874565996062884 64.91318509744092 -0.8874565996062884 64.91318509744092 -0.8874565996062884 Z " stroke="black" stroke-width ="0.1px" fill="black"/>
<path d="M 64.53085995502101 -1.12805776681882 C 64.53085995502101 -0.9286554296084333 64.36903095077257 -0.7668264253599943 64.16962861356218 -0.7668264253599943 C 63.97022627635179 -0.7668264253599943 63.80839727210336 -0.9286554296084333 63.80839727210336 -1.12805776681882 C 63.80839727210336 -1.327789694669228 63.97022627635179 -1.4892891082776458 64.16962861356218 -1.4892891082776458 C 64.36903095077257 -1.4892891082776458 64.53085995502101 -1.327789694669228 64.53085995502101 -1.12805776681882 C 64.53085995502101 -1.12805776681882 64.53085995502101 -1.12805776681882 64.53085995502101 -1.12805776681882 Z " stroke="black" stroke-width ="0.1px" fill="black"/>
<path d="M 64.39507849905313 4.4739943415530945 C 61.41327197881775 4.932784512456998 60.54150473597233 4.8411583145322155 59.44034240767495 5.437387782323292 C 57.269328861881824 6.613367185904565 57.22528896056273 7.587264680372101 54.47254793513929 7.541121990769703 C 53.362157068921434 7.522664914928747 52.696588322283546 6.400781223093496 52.421380137869214 4.8411583145322155 C 51.9625899669653 5.80455175530242 51.1756659466731 8.454556082326114 53.751607960978525 9.113664852419653 C 54.88479001995357 9.403615626161958 56.8123118886212 8.50472636954953 58.601659473274445 6.898960771385852 C 60.24400963248002 5.425031429229037 61.459085077780145 5.1621795979089455 65.81726211072724 4.978597611419389 M 58.694149198676065 -1.2200135553836091 C 59.32465609302892 -0.789897770161204 61.923148698924315 2.418007929125956 62.113981679494266 3.3411913118140646 C 63.05792927250345 3.618047449428481 66.64585297973042 4.909713167655802 66.9490763685462 5.073519715744318 C 66.41546912235842 5.001668956220591 65.64159029959808 5.307199479516498 65.03448434068645 5.680625674655971 C 63.00882026714089 6.556348005181597 62.13672343365545 7.997318283336682 60.551062864532824 7.501943551390859 C 60.293982165319434 7.421523435226675 59.49736158839792 7.216518057135993 59.59393164592296 6.638086483905852 C 60.41329397700565 7.425478522906886 61.55532554466515 6.871436657038018 62.53585769871625 6.311132569008805 C 63.15713605514862 5.95616344971031 63.399714766201264 5.377072695200155 64.80080457691427 4.93344369373704 C 64.05296341471531 4.7788656835689665 63.467940028684815 4.498384048914353 61.8249306881992 4.498384048914353 C 58.816097735482415 4.498384048914353 59.30191433886773 2.9074500295514483 56.9176556489835 6.574145899742511 C 54.997790170883455 1.2443356600248023 57.80590242382978 -0.9332696985686653 58.694149198676065 -1.2200135553836091  Z " stroke="black" stroke-width ="0.01px" fill="black"/>
//nouvelle forme de couleur rgba(0,0,0,0)
<path d="M 0.0 0.0  L 100.0 0.0  L 100.0 100.0  L 0.0 100.0  Z " stroke="black" stroke-width ="0.01px" fill="rgba(0,0,0,0)"/>
//nouvelle forme de couleur red
<path d="M 0.0 10.0  L 0.0 0.0  L 10.0 0.0  L 100.0 90.0  L 100.0 100.0  L 90.0 100.0  Z " stroke="black" stroke-width ="0.01px" fill="red"/></g></svg>
