<?xml version='1.0' encoding='utf-8'?>
<svg xmlns='http://www.w3.org/2000/svg' version='1.1' width='2000' height='2000'>
	<g transform="scale(10)">
//nouvelle forme de couleur rgba(0,0,0,0)
<path d="M 0.0 0.0  L 100.0 0.0  L 100.0 100.0  L 0.0 100.0  Z " stroke="black" stroke-width ="0.03px" fill="rgba(0,0,0,0)"/>
//nouvelle forme de couleur white
<path d="M 0.0 0.0  L 100.0 0.0  L 100.0 100.0  L 0.0 100.0  Z " stroke="black" stroke-width ="0.1px" fill="white"/>
//nouvelle forme de couleur rgba(0,0,0,0)
<path d="M 0.0 0.0  L 100.0 0.0  L 100.0 100.0  L 0.0 100.0  Z " stroke="black" stroke-width ="0.03px" fill="rgba(0,0,0,0)"/>
//nouvelle forme de couleur rgba(0,0,0,0)
<path d="M 0.0 0.0  L 33.0 0.0  L 33.0 35.0  L 0.0 35.0  Z " stroke="black" stroke-width ="0.03px" fill="rgba(0,0,0,0)"/>
//nouvelle forme de couleur black
<path d=" M 7.454114838353751 7.364521509733718 L 16.640406687953273 19.636865406660764 L 25.83056361187038 7.364521509733718 L 16.640406687953273 7.364521509733718 L 7.454114838353751 7.364521509733718 Z " stroke="black" stroke-width ="0.1px" fill="black"/>
<path d="M 15.785002802891574 7.427516572776309 C 13.718530194746268 9.000205091807455 11.773500803755127 12.516672299284384 11.405862842333962 13.57596356154386 C 5.301790241939097 14.333311022208125 3.469935982888291 18.602125569850788 7.178017544521142 20.10684983669408 C 7.265924450520929 19.631152520195517 11.519735946985097 15.524139881520094 12.016553998402829 15.369739979875055 C 11.424334239603294 15.588845582882788 7.169009796511677 19.677667896151227 7.190625433083207 20.115255095735456 C 6.3391834509232545 23.24392247882349 8.17164154378359 24.50150254333846 10.590552715320356 24.292668839300013 C 10.98070332255795 22.354693141696394 12.94649303096057 18.217802160601405 13.87324344444837 17.1926443190986 C 12.96722914122601 18.292927693492512 10.961938749853253 22.380549063349118 10.582147456278978 24.368316170672408 C 11.918455883920554 27.26292465870774 13.710658837759205 28.07470054239962 16.5919076708638 26.25529682546163 L 16.642339225112067 17.91860721492309 L 16.69277077936033 26.25529682546163 C 19.57401961246493 28.07470054239962 21.362018591941446 27.26292465870774 22.698328364424466 24.368316170672408 C 22.215307041407613 22.587007777392834 20.22143166423377 18.484961638179776 19.411435005775765 17.1926443190986 C 20.050717490999777 18.240329599673743 21.996669443223304 22.138675294650103 22.69412573490378 24.292668839300013 C 25.11303690644054 24.50150254333846 26.94549768898377 23.24392247882349 26.094053017140922 20.115255095735456 C 25.956408495079327 19.174135051390518 21.616025520171867 15.220118299889858 21.263921822300613 15.286597847120643 C 21.828554848505625 15.22476472708793 26.151667369555586 19.34792487701293 26.106660905702988 20.10684983669408 C 29.81474246733584 18.602125569850788 27.982889553126483 14.333311022208125 21.87881560789017 13.57596356154386 C 21.511177646469 12.516672299284384 19.64088647403234 8.888099108817178 17.574413865887042 7.315410589786033 C 17.574413865887042 7.315410589786033 16.950104845329697 6.76431608242415 16.642339225112067 6.906390512210912 L 15.785002802891574 7.427516572776309 Z " stroke="black" stroke-width ="0.1px" fill="black"/>
<path d="M 12.30755482514689 14.476509739444266 C 15.418706993234137 16.025580152989864 18.26349314019652 15.7100884186614 20.97712496991869 14.476509739444266 M 9.16857250816328 17.31654187189284 C 13.951783529772452 22.385468493360854 18.934294674404978 22.60799537300879 24.116107286902302 17.31654187189284  Z " stroke="black" stroke-width ="0.1px" fill="black"/>
//nouvelle forme de couleur rgba(0,0,0,0)
<path d="M 0.0 0.0  L 100.0 0.0  L 100.0 100.0  L 0.0 100.0  Z " stroke="black" stroke-width ="0.03px" fill="rgba(0,0,0,0)"/>
//nouvelle forme de couleur rgba(0,0,0,0)
<path d="M 33.0 0.0  L 66.0 0.0  L 66.0 35.0  L 33.0 35.0  Z " stroke="black" stroke-width ="0.03px" fill="rgba(0,0,0,0)"/>
//nouvelle forme de couleur black
<path d=" M 40.45411483835376 7.364521509733725 L 49.64040668795327 19.63686540666076 L 58.830563611870375 7.364521509733725 L 49.64040668795327 7.364521509733725 L 40.45411483835376 7.364521509733725 Z " stroke="black" stroke-width ="0.1px" fill="black"/>
<path d="M 48.785002802891576 7.427516572776316 C 46.71853019474627 9.00020509180746 44.773500803755134 12.516672299284387 44.40586284233397 13.575963561543862 C 38.3017902419391 14.333311022208127 36.4699359828883 18.602125569850788 40.17801754452115 20.106849836694078 C 40.265924450520934 19.631152520195517 44.5197359469851 15.524139881520094 45.016553998402834 15.369739979875057 C 44.4243342396033 15.58884558288279 40.16900979651169 19.677667896151224 40.19062543308321 20.115255095735456 C 39.33918345092326 23.243922478823485 41.17164154378359 24.501502543338454 43.59055271532036 24.29266883930001 C 43.98070332255795 22.35469314169639 45.946493030960575 18.217802160601405 46.87324344444837 17.1926443190986 C 45.967229141226014 18.292927693492512 43.96193874985326 22.380549063349115 43.58214745627898 24.368316170672404 C 44.91845588392056 27.262924658707732 46.710658837759205 28.074700542399615 49.591907670863804 26.255296825461627 L 49.64233922511207 17.91860721492309 L 49.69277077936033 26.255296825461627 C 52.57401961246492 28.074700542399615 54.36201859194144 27.262924658707732 55.69832836442446 24.368316170672404 C 55.215307041407605 22.58700777739283 53.22143166423377 18.484961638179776 52.41143500577576 17.1926443190986 C 53.05071749099977 18.240329599673743 54.996669443223304 22.1386752946501 55.69412573490377 24.29266883930001 C 58.113036906440534 24.501502543338454 59.945497688983764 23.243922478823485 59.09405301714092 20.115255095735456 C 58.95640849507932 19.174135051390515 54.61602552017186 15.220118299889858 54.26392182230061 15.286597847120643 C 54.82855484850562 15.224764727087932 59.15166736955558 19.34792487701293 59.10666090570298 20.106849836694078 C 62.81474246733583 18.602125569850788 60.982889553126476 14.333311022208127 54.87881560789017 13.575963561543862 C 54.511177646469 12.516672299284387 52.640886474032335 8.888099108817183 50.57441386588704 7.31541058978604 C 50.57441386588704 7.31541058978604 49.9501048453297 6.7643160824241555 49.64233922511207 6.906390512210919 L 48.785002802891576 7.427516572776316 Z " stroke="black" stroke-width ="0.1px" fill="black"/>
<path d="M 45.307554825146894 14.476509739444268 C 48.41870699323414 16.025580152989864 51.263493140196516 15.710088418661401 53.97712496991869 14.476509739444268 M 42.16857250816328 17.31654187189284 C 46.951783529772456 22.38546849336085 51.934294674404974 22.607995373008787 57.1161072869023 17.31654187189284  Z " stroke="black" stroke-width ="0.1px" fill="black"/>
//nouvelle forme de couleur rgba(0,0,0,0)
<path d="M 0.0 0.0  L 100.0 0.0  L 100.0 100.0  L 0.0 100.0  Z " stroke="black" stroke-width ="0.03px" fill="rgba(0,0,0,0)"/>
//nouvelle forme de couleur rgba(0,0,0,0)
<path d="M 66.0 0.0  L 100.0 0.0  L 100.0 35.0  L 66.0 35.0  Z " stroke="black" stroke-width ="0.03px" fill="rgba(0,0,0,0)"/>
//nouvelle forme de couleur black
<path d=" M 73.67999710618265 7.057385797907472 L 83.14466143607306 19.7016189038323 L 92.61330796374524 7.057385797907472 L 83.14466143607306 7.057385797907472 L 73.67999710618265 7.057385797907472 Z " stroke="black" stroke-width ="0.1px" fill="black"/>
<path d="M 82.26333622116101 7.122289802254384 C 80.1342432309507 8.742635549134958 78.13027355538406 12.365662368959672 77.75149504967742 13.45705336643913 C 71.4624505523009 14.237350750153828 69.57508555812734 18.635523314391722 73.39553322768845 20.18584528629087 C 73.4861039793246 19.69573289959538 77.8688188544695 15.46426533247525 78.38069199835442 15.305186645931876 C 77.77052618625794 15.530931812667117 73.38625251761809 19.743657832398235 73.40852317347967 20.194505250151686 C 72.53127991913306 23.41798073575753 74.41926704511036 24.713669287075987 76.91147855517855 24.49850728897577 C 77.31345190809 22.501805055081135 79.33881100159574 18.23955374122569 80.2936447609468 17.183330510586437 C 79.36017547883891 18.316955805416526 77.29411871197001 22.528444489511212 76.90281859131774 24.576446963723086 C 78.27962121373633 27.55877086048676 80.12613334799433 28.395146013381424 83.09469275179907 26.520608850475618 L 83.14665253496395 17.931292282041973 L 83.19861231812882 26.520608850475618 C 86.16717172193356 28.395146013381424 88.00935248866693 27.55877086048676 89.38615649667975 24.576446963723086 C 88.8884981638745 22.74115952822292 86.8342023207257 18.514808960548862 85.99966030898109 17.183330510586437 C 86.65831499072704 18.262763829966886 88.66323518392704 22.279241212669803 89.38182651474933 24.49850728897577 C 91.87403802481752 24.713669287075987 93.76202792198328 23.41798073575753 92.88478189644822 20.194505250151686 C 92.74296632826355 19.22486641658417 88.2710565965407 15.151030975644098 87.90828308964305 15.219525054609147 C 88.49002620755124 15.155818203666355 92.94414213833 19.403922600558776 92.89777184223944 20.18584528629087 C 96.71821951180056 18.635523314391722 94.83085590322122 14.237350750153828 88.54181002025048 13.45705336643913 C 88.16303151454382 12.365662368959672 86.23606485203332 8.627132415144974 84.10697186182301 7.006786668264402 C 84.10697186182301 7.006786668264402 83.46374438609726 6.438992327346098 83.14665253496395 6.585372042883975 L 82.26333622116101 7.122289802254384 Z " stroke="black" stroke-width ="0.1px" fill="black"/>
<path d="M 78.68051103196952 14.38488882245773 C 81.88594053848365 15.980900763686527 84.81693232626307 15.655848673772352 87.61279542355258 14.38488882245773 M 75.44640803871368 17.310982534677475 C 80.37456484885647 22.53351299315967 85.50806117968997 22.762783111584813 90.84689841680843 17.310982534677475  Z " stroke="black" stroke-width ="0.1px" fill="black"/>
//nouvelle forme de couleur rgba(0,0,0,0)
<path d="M 0.0 0.0  L 100.0 0.0  L 100.0 100.0  L 0.0 100.0  Z " stroke="black" stroke-width ="0.03px" fill="rgba(0,0,0,0)"/>
//nouvelle forme de couleur rgba(0,0,0,0)
<path d="M 0.0 35.0  L 100.0 35.0  L 100.0 80.0  L 0.0 80.0  Z " stroke="black" stroke-width ="0.03px" fill="rgba(0,0,0,0)"/>
//nouvelle forme de couleur black
<path d=" M 56.94779771252872 69.05079353985475 C 56.87615857036652 69.012197741623 57.968486702050434 68.34698875297472 57.76004461736483 68.05289022664415 C 56.60963414483308 67.07043014974982 55.52109023013041 66.52103881440337 54.859163354710994 68.95796486287678 C 55.8034559817725 68.07927573155287 56.36337447545284 68.60995968340183 56.94779771252872 69.05079353985475 Z " stroke="black" stroke-width ="0.1px" fill="black"/>
<path d="M 56.34441462170697 73.13523452409368 C 56.498328806232536 73.31537630142503 56.11120870430726 70.73369118806934 55.32330484843797 71.51074071442147 C 53.8717909821601 72.40489766717945 53.92180940436324 73.37055665278875 55.06802716872535 74.3884155170169 C 55.290649192903906 72.87534808037142 55.82033271957391 73.0204172959708 56.34441462170697 73.13523452409368 Z " stroke="black" stroke-width ="0.1px" fill="black"/>
<path d="M 60.707340691298356 74.36520811137703 C 60.822198579423784 74.10021836454439 60.29581418644882 73.88432131567083 59.78343952830497 73.85712450187408 C 59.271065815742574 73.82992768807733 58.77270278359275 73.99143110935739 58.94360433894992 74.4812432484134 C 59.31007577865144 75.5000505308405 59.73984254975991 75.92903341492313 60.01111001186955 76.16071883734386 C 60.218963944890405 76.01000355487915 60.61932880625004 75.36910262868388 60.707340691298356 74.36520811137703 Z " stroke="black" stroke-width ="0.1px" fill="black"/>
<path d="M 63.4689803568574 72.97278457577758 C 63.53043180442791 72.30999816681594 61.57412684327197 72.94926607383917 61.98372814427998 73.18164838979193 C 62.39332944528799 73.41403070574471 62.67643747837192 73.74760725780416 62.16938455265448 74.71331352248616 C 63.80512510814751 74.40036861218428 63.407528909286896 73.63557098473922 63.4689803568574 72.97278457577758 Z " stroke="black" stroke-width ="0.1px" fill="black"/>
<path d="M 68.53201304425995 61.7675781482542 L 65.49264475851211 57.715085524621315 L 64.88477110136253 58.69443842085588 C 64.90526185148337 59.38732836100565 63.84685456331976 59.867075731059074 62.03114148957573 60.872652437773624 C 60.43533283890979 61.926533227514156 58.86951614082035 63.35174290888839 61.40638258439165 66.57991166134723 C 61.856635377713694 67.15189766555096 62.39395447462947 68.13145669854264 60.190634324511066 69.53485370692253 C 59.94433777745409 69.60905726598958 59.51378239141249 69.74819012121708 58.90734507249244 69.60239564464203 C 58.7182145978538 69.12869621357211 58.70420580860414 68.7600697937356 58.73849070098444 68.4204188264119 C 58.44983777825083 66.81924778331701 55.996153189657825 68.16823414363724 56.84732779181625 69.60239564464203 C 57.92702106410401 70.52753457375947 57.5985175565484 70.79168275309753 56.475849498312705 70.68306002908363 C 55.90841741439424 70.78537194246964 55.33834810379895 70.89085060814705 54.55091609307549 71.25716319016419 C 54.541143508742365 71.44704634764068 54.539604102134305 71.6286963273921 54.61845803079498 71.72995391745624 C 55.84533862114039 71.585891746106 55.97814553643673 73.03020784635156 55.96928827495164 73.3509509669094 C 56.134092721089644 73.38877044276694 56.291472461646265 73.43401556978733 56.543391436032195 73.38472146297842 C 57.79452429952478 72.53462671484112 57.921432677707415 72.5800931079219 58.25166754490637 72.607043124959 C 58.746730497779694 72.78682558133761 58.031387725990825 74.49666379077476 59.00865750628094 75.0394890085006 C 59.62507354629122 73.75766729889948 60.66755346043382 74.50583971321005 60.81681916652865 75.00096318329646 C 61.06748146316144 74.63566521018008 61.052577208274286 74.04273835908313 61.00113284923764 73.41849195904743 C 61.18203298289558 72.03243880570751 61.81229895447115 72.80061215894546 62.08179723367926 73.38472146297842 C 62.716303192497186 72.55241026525749 63.05440435181683 72.85626340987355 63.47805321091414 73.48603389676691 C 63.78001519262102 73.5290871659756 63.81226330254816 73.48293522634025 63.93918870119698 73.3509509669094 L 64.10804307270497 72.37159807067484 C 64.16244710169447 71.05742896509385 65.0901201891102 71.05565694544796 65.29192240082172 72.21820395594929 C 65.45336246814432 72.04361841524506 65.66337138130018 71.94456308438865 65.66586677075883 71.76365254933471 C 65.69032045275581 69.99060221965861 65.79779807762822 70.40558860705049 66.58971876351657 71.55729547175646 C 66.97245325865549 67.9350121513528 67.27737680147814 70.38201904371353 67.62020303132633 69.87256150435707 C 67.99619836743842 68.96789725047573 66.65153520552856 67.71521741572344 68.73463791183696 67.94762809911985 C 68.40006377134293 67.44395279035818 67.57056189612356 67.37334054965567 67.85659839497235 66.3266310496667 C 67.96387177425055 65.65774185799718 67.3434181014292 65.37004302695124 66.53953864688471 65.17842472750559 C 64.865096388037 64.58219685155068 65.84609175925819 64.04712161942663 66.2356013455192 63.624969615771924 L 67.68869527840766 62.68129067107445 L 68.53201304425995 61.7675781482542 Z " stroke="black" stroke-width ="0.1px" fill="black"/>
<path d="M 70.66565235140861 57.194656403647315 C 67.91871553188689 56.81639356320713 65.97243184298662 55.19265338195423 65.97243184298662 55.19265338195423 L 67.25240115851821 54.43779948908556 C 67.67556777107367 54.28115068299334 68.28714905310667 54.31291749196009 68.92620704104698 54.3721600612527 C 72.3875987313717 55.54396715093877 75.86037333124672 56.67837271177022 79.92081640374975 55.88186784699003 C 83.5475307188496 54.522149137160284 83.68891500352046 51.350332311487385 80.11773468724834 49.67893860724926 C 78.52451692976796 49.121240338824286 78.44802317241792 47.9365166064686 69.38568303587702 50.46661268682509 C 66.06621366607082 51.79098839862685 63.13396273866117 52.03788728107039 60.81973439415314 50.56507135578366 C 58.94019835455051 49.36570624018519 56.90701856671832 48.38912389761255 52.450703090346394 50.92608868165514 C 53.033417661733836 48.938055680372074 54.43690071802611 48.427407653964295 55.634216758612496 47.54565672989044 C 55.13205248901524 47.42194441702429 54.06649565947351 47.50310272768979 53.10709831425649 47.54565672989044 C 53.95082173455279 46.60122415677367 55.447350005976126 46.96374968506521 56.88136683301837 47.15182016289326 C 56.47961102133904 46.90675098056433 55.985170261062834 46.62857982825478 54.97782248028385 46.16722779981883 C 56.8359732497096 46.141420045178876 57.55604487435285 46.51728678221314 58.75209099904573 46.72516340918891 C 58.645349036545 46.516976631496036 58.50157337637549 46.28286673822575 57.96441786505135 45.77339123282165 C 59.24707641423978 45.841576165930256 60.323033694200475 46.06663873584309 61.24639020227603 46.98772112052037 C 61.10326983005454 46.60392284624505 61.01801904285361 46.277994156990275 61.049471918777435 46.06876913086027 C 61.58110145208098 46.401887075914246 62.10376970993943 46.83358472435298 62.591998945640476 47.64411539884901 C 62.65055124047123 47.04361538588229 62.90552444295547 46.71319423913678 63.314033597383435 46.59388455352318 C 63.33591340666106 46.925482949179646 63.35779321593868 47.32406633507884 63.379673025216306 47.742575013389036 C 63.6946953779739 47.64850762470555 63.88205099622228 47.59699612938563 64.0688874902521 47.54565672989044 C 63.915322225283276 48.26296536552339 64.32985757032131 48.450045819568494 64.82374138312078 48.563068334090566 C 66.18905604399875 49.07159258455135 67.60469738663406 48.9510451328137 69.0574858967127 48.366150050591976 C 70.42234762407394 47.87254045641435 71.84270552700471 47.40667989560295 73.55378906721755 47.086180735060395 C 79.07410494605696 46.46719365907509 81.72329417387395 47.59139072252286 83.5966253079716 49.186643371293506 C 84.59371542113126 49.84095169693334 86.56257203051535 53.08072084267701 83.43252721118017 56.14442555832149 C 82.31001611946593 56.845389818511954 82.02993300145522 57.691454498489804 79.13314232417392 57.785412199724554 C 76.17154149399543 57.92234279574433 73.41258917093032 57.5729192440875 70.66565235140861 57.194656403647315 Z " stroke="black" stroke-width ="0.1px" fill="black"/>
<path d="M 31.552484900262517 48.68976206528302 C 31.649685000305034 48.95644156617501 31.381727356960884 49.00493571107335 30.491758289907096 49.18555595262073 C 30.047165652614055 48.623882459760694 29.862106189811836 47.86572375970825 28.79482792923204 47.700304685624765 C 30.23478839762336 46.67775384621898 31.46570983575679 47.05668332158464 31.552484900262517 48.68976206528302 Z " stroke="black" stroke-width ="0.1px" fill="black"/>
<path d="M 34.97071930741858 50.32270180850757 C 34.97399007366998 50.90764984329075 33.872501148854056 49.659409513467736 33.82231157640764 49.350337704803835 C 34.5444899565317 49.217617783001316 35.127393644210066 48.43654480755994 34.51289240664532 47.61777244510576 C 36.34979785194948 48.19316821603472 35.828770177914734 50.131072162084465 34.97071930741858 50.32270180850757 Z " stroke="black" stroke-width ="0.1px" fill="black"/>
<path d="M 29.517062098661917 53.502068156513864 C 30.359738476613554 53.66710237894534 29.970633788331398 51.45701375677501 28.774436370605784 51.6455040727689 C 27.578238952880174 51.83399438876279 27.124710759957605 52.765152889420115 27.66049792035881 54.68562787809896 C 28.00901068795858 53.61525331104613 28.67438572071028 53.33703393408239 29.517062098661917 53.502068156513864 Z " stroke="black" stroke-width ="0.1px" fill="black"/>
<path d="M 32.02342417906649 57.40085273237829 C 31.980230963802544 56.220118408179495 30.597142302880894 55.06338388687949 30.51496531731437 55.86918759968406 C 30.12629796045496 56.33018976298181 29.814582400602188 57.01227359826859 28.65840113901126 56.24050041643305 C 28.677649773333357 58.78420435950246 31.41099565605019 57.844012719209495 32.02342417906649 57.40085273237829 Z " stroke="black" stroke-width ="0.1px" fill="black"/>
<path d="M 40.96034806496008 63.78026434922118 L 42.536397845551036 58.264091062734295 L 41.55733618840448 57.14175301242624 C 39.55905402973518 56.33292627571137 37.34681137301132 54.98919923944155 34.966583334136224 53.22550827500292 C 33.466045797345444 52.332276100907514 34.58306589755291 51.20708050344371 35.30089743973025 51.124109513129774 C 35.50383529476873 50.858111776466544 35.38265808578232 50.56993353562313 35.20537858351398 50.24056671219949 C 34.718419263706444 49.714741157864175 34.43498027711341 49.437618655387766 34.20243815789481 49.357023911269195 C 33.91094092614581 49.26409500265704 33.54232490770529 48.9327897372515 33.67708823103116 49.930132320659524 C 33.78107476917323 50.63551055507999 33.02536796183253 52.15341747761002 32.19655730665647 50.57487987221206 C 32.1171766891256 50.03382856529504 32.11057936731696 49.44616198382993 32.14879787854834 49.02270980567517 C 32.011440825292546 48.76207446144088 32.04770292849439 48.327819960748954 31.623447951684692 48.354082540068575 C 30.948471863075724 48.59697499388905 30.45184907903492 48.731984168393105 30.095157882876308 48.78391455629741 C 29.955762061446283 49.41623905869962 29.806052783091108 49.977711142709836 30.954821253426967 50.12116908751061 C 31.023291468460418 50.57102757336608 31.16928177495471 51.087331122453726 30.811544009242166 51.171867995656456 C 29.946418865651683 51.10609334967558 28.829450866982363 50.42308946363349 28.280312947465738 51.84049526126305 C 29.834714775351735 52.06010655409021 29.69386814829594 53.13669359129966 29.139976318016398 53.51206295248882 C 29.28325375131749 53.97373364187496 29.553888146643278 54.0851723074606 29.951880638691506 53.846377058082844 C 31.161679110943563 53.27227484258375 31.212135715592755 53.543948904718846 31.48017061294174 53.7030997193399 C 31.67787751137346 54.50397222485881 31.560273654703927 55.109651187452286 30.42947142112146 55.088112733079775 C 30.160811399872845 55.187061213231814 30.050631208645104 55.5967901677362 30.214555507565187 56.067174390226334 C 31.512739274981985 56.36315178690716 31.52590649673707 56.79453644788442 31.647327665738757 57.42830768991214 C 32.27127715319771 57.71028197083203 32.302834988663 58.221641074493654 32.33983464539942 56.640282799616664 C 32.501419386684574 55.80485496542143 33.40120444026025 56.595431980062834 33.032341625060084 57.117873298372174 C 33.7367402370936 57.52933644926427 34.16138384788114 57.14547009312422 33.366654785072654 58.09693400993728 C 33.59569825290929 58.46033514665577 35.74449239403056 58.22470097608068 34.08304147878739 59.19539329177272 C 34.82288899397181 59.490063894883306 36.578455522552645 59.4038401043656 34.966583334136224 60.5804063055126 C 35.332642500323544 60.97099196346892 37.967614910970866 60.80695532947203 35.77848793848577 61.82214198050952 C 39.18621599009994 62.323881684033665 37.93021527327916 62.684295728937116 37.30677829096859 63.0638786010879 L 39.551454391584684 63.684746438586366 L 40.96034806496008 63.78026434922118 Z " stroke="black" stroke-width ="0.1px" fill="black"/>
<path d="M 29.54026922062734 69.51493408800027 C 28.2100008343169 70.44119163997848 28.028446452850535 72.15530009526454 29.702718507036415 72.71750689606498 C 29.35698054821512 71.6379176377372 29.661981817833333 70.93507261603358 30.491758289907096 70.53604386126928 M 33.021327492277095 71.46432590314176 C 32.35269077085594 73.35193815394798 33.07115112470058 74.36507572997338 35.24920439277105 74.45803584277355 C 34.403333556991385 73.71335735193766 34.3490959503379 72.88951572730545 34.73864903334582 72.02129512826524 M 38.799883557526336 70.35038745289478 C 39.34646367920831 71.97539565887827 38.56363948691305 72.56642378241443 37.45387388762514 72.90316330443946 C 37.929337773689305 71.96571101362042 37.81217928588488 71.26530748323253 37.361046156228625 70.69849380958536 M 33.13736262931347 64.50221011630741 C 31.786990992162284 63.057964934670935 30.171264330062545 63.270264046109794 29.65630445222186 64.91993774433612 C 30.900589793052934 64.5450005138717 31.250896990579065 64.82878463769566 31.327212222150475 65.31445702114351 M 76.65525368708794 70.73279383126895 C 75.59603130771046 71.57418923002406 74.87146722557648 72.50854474157934 76.14654788498787 73.99835749351222 C 76.22949618134689 72.89086318087823 76.78025955538395 72.157622443317 77.73830471912092 71.75020543546907 M 79.29724136654681 72.70197761183633 C 78.33727005338685 73.62622863996792 78.15989315622869 74.50156757619824 79.29724136654681 75.29473642960666 C 79.54178291442408 74.67673181275268 79.4311319181901 73.89479173911744 80.74130972445127 73.76861902330647 M 83.16996949984872 73.32555264903927 C 84.1029671564352 73.70974995868843 84.26417650188289 74.5184310758593 84.33506958027742 75.37678547800238 C 85.81550027301793 74.64561272708231 85.39221262603625 73.50282458665598 85.33607156391469 72.43941990050487 M 84.51557824321316 69.33795622621594 C 85.31418608114834 69.11021955194954 85.95292540813844 69.24582160602563 86.2714341197191 70.10921973964746 C 86.85535241629823 68.55001454708847 85.93238548778197 68.00631844884298 84.51557824321316 67.79542825377145 M 48.594867769730634 67.02931343136015 C 50.2218087442073 65.50963921709149 50.14656693670313 66.72274552238798 50.28460102628041 67.36877244564856 C 52.29281462696721 63.95154035483436 51.45001976765931 65.14673545621811 52.10609633061921 65.64573675584978 C 53.643429278552226 62.71213270137862 53.19933505724389 64.44447007594614 53.517344501816524 64.38217706088105 C 54.70559147067199 61.76856628087424 54.74497021034815 62.66202634010021 55.17474076378244 62.363763473043655 C 57.12385268681337 60.06632770958758 61.11214032968 59.42868620266625 64.87297024480932 58.60590457484463 C 66.27609208898593 58.98707696942057 66.31822247069493 59.837556569209866 66.49754726564953 60.64072778324488 C 67.1332664054737 61.03002366809715 67.53007966288992 61.77767790377061 67.72828677391111 62.82324041345516 C 70.9545492341575 66.08559571782303 74.80279910034459 65.33958490271763 78.37828843130525 66.35136084144844 C 78.81746846579411 66.96476331336297 79.30143407471644 67.54830905084899 79.87158659647973 68.07439653124722 C 79.78577697063913 68.5171215506093 79.88926329619173 68.9219864341113 80.01927507270833 69.3215466056531 C 79.22035897521894 69.53003502382998 78.69973695562821 69.15874395545444 77.426516254938 70.35536783041607 L 76.57320369311076 70.43741687881179 C 76.01765851365788 70.39299251649396 76.02884757900996 70.6486030408786 76.21218636723927 70.99535248818187 C 76.50428782553776 70.89239474266238 77.0145784221557 71.36218419441758 77.65625472514375 72.17686218917342 C 79.72639256412835 70.8992256230903 79.82879147100817 71.3299786356559 80.08491450054117 71.53687753140763 C 79.1809632150766 72.14521074114413 78.71912988568027 71.95766695218629 79.00186346850819 72.9809458893121 C 79.84053275592973 72.81476183983185 80.17129809432471 73.56280565506461 80.59362030264124 74.1460459697408 C 80.99350102629613 74.1772227358799 81.4184311482644 74.37539296922435 81.69308095523708 73.57170073980788 C 81.9174693255728 72.52412981511378 82.82048070307152 72.8559958103219 82.97305121635011 73.80143921001363 C 84.73469216019521 72.33692548989814 84.95134661981388 72.77789456449906 85.46735041958041 72.84966703364637 C 85.96622690246008 72.32651747482754 85.71764677619029 71.95285867048972 85.35248118447754 71.60251695924049 C 82.77353542059578 70.44797902365949 84.58853647150451 69.74792441282834 85.05710328643892 69.63333412425456 C 84.47472534204931 69.27656907818434 84.47998939400699 68.49670171909757 84.99146385860607 67.3523628250857 C 84.61424304892881 67.33584162591121 84.35160212642936 67.25762407356947 83.43252721118017 67.53287148802144 C 82.1007627258923 66.92775703755635 83.22432814092839 66.83955509063566 83.38329740391016 66.54827912494703 C 81.15352461259975 64.92328510268536 83.29193059586098 65.6809331887523 83.28483778937013 65.26830980941544 C 80.79826682336815 63.68902519466836 82.95874929684953 64.25705015815885 82.97305121635011 63.82424145151098 C 82.5866507019118 63.30814593034334 80.96594772829101 64.47317698332586 81.70949152138138 62.46222308758368 C 80.71786781461068 62.58760246055426 79.54303013636266 62.97302618935001 79.85517697591689 61.24789319988496 C 78.86319867610071 61.72595743494923 76.33902193564992 62.60887236979367 73.29123041030464 58.93410265959041 C 72.0276707153359 57.211066969791624 68.71096338895855 54.27318510481992 66.34985878942095 54.355750440689846 C 62.426925008787904 54.82248471876528 60.487192308205 54.22134076482799 54.04245992447944 56.04596594378146 L 43.83552464135249 56.423392890215794 L 41.390455245392204 56.6367217398587 C 41.44342577289655 61.17442057528232 40.345728629713506 63.44702442415956 38.84176997922005 64.54512060271644 C 38.767522923406105 64.59933078750774 37.79051885150472 65.04575113919435 37.71360714715176 65.0931313891392 C 36.214630765342505 66.01655219675366 34.88757149337263 66.9361282701738 34.268574015991334 66.74519740844562 C 33.56490539284076 66.64722571393617 33.37564348237993 66.31777095143724 33.546539364248375 65.82624541878552 C 33.62842860937826 65.39415062613585 33.680693733117494 64.96798084688062 33.546539364248375 64.57909534437964 C 33.430199749983615 64.3928526755033 33.459962871848106 64.09703224534394 33.021423941585454 64.15243953625675 C 32.60221364183596 64.99150123998196 31.90837433790579 65.22638083655627 31.052240444692508 65.10421076704256 C 30.838916701189465 65.19783846034966 30.703993952830352 65.50833715142852 30.888141780552207 65.85906465991123 C 32.164522898138074 66.6399088046406 31.900103336922545 66.77479599913701 32.00401233738533 67.86106862718577 C 31.28221152793609 68.05977784195935 30.562220183158338 68.25932200515732 30.395845882689432 68.71438118901301 C 29.99906042536798 68.67713851784276 29.592408865707544 68.6250965513268 29.279975042181864 68.71438118901301 C 29.123824557516212 69.07380899245933 29.053463085015444 69.41607827483078 29.115876472599705 69.73179279321313 C 30.51483709646913 70.2822100844378 30.095183886366307 70.52952502272137 30.297386646381987 70.88048325307898 C 31.0851110308912 70.7055970174722 31.721650368069067 70.07715790926689 32.43066909108968 69.66615336538027 C 33.54065217411213 69.2505901733011 33.46948109476995 70.13292546671389 33.21834222508405 70.58510630062182 C 32.96672394560068 70.63012165134876 32.71510661169876 70.97942511416085 32.463488332215384 71.27431982007617 C 32.311594855258264 71.62313158053188 32.368504675102415 71.76314098976778 32.43066909108968 71.89789485727911 C 34.419611741732055 71.71013358458671 34.1643056945758 72.20811460182887 34.728050010821384 72.45583046664919 C 35.68564696894889 72.65194784265574 35.2246892479795 72.07430820693504 35.31880486131716 71.79943618832054 C 35.08480087316978 70.92635624618522 35.487255469544046 70.88067142378844 35.647002000481486 70.5194659272075 C 35.94532633033259 70.27021822043078 36.45931509601941 69.92572398489669 36.434676080057315 70.88048325307898 C 36.59456539379439 71.69857574246733 37.059531434549754 71.55785903830339 37.5177271120903 71.43841886244905 C 37.373923084477155 70.47502738116788 37.85941580744863 70.3244775754577 38.764876240914724 70.71638515628754 C 38.9417926399045 70.62470157845108 39.079752028546864 70.46809059561704 39.1258935667862 70.15844954691747 C 38.579912943746436 68.94972317491863 39.893192257178654 68.69028020889857 40.60278116581638 69.27231679838309 L 40.50432249685781 70.45382649937464 C 41.20300412341691 69.2930619099152 41.80716826452014 68.77518396770567 42.24376780721944 68.64874176118013 C 42.10128192015398 69.34763803472943 42.08023800488221 69.90774469911923 42.24376780721944 70.25690821587605 C 43.24160776647258 68.48750499387029 43.764139860601574 68.38167740863614 44.245770828912526 68.41900423655585 C 44.17018955766617 69.05102426172968 44.20714477207422 69.40170259997673 44.212951587786826 69.83025240775315 C 44.85447754332359 69.321766926132 45.21809900052099 68.77358026155869 45.55856033115127 68.2220850074758 C 46.29023518582372 67.71240052857024 46.37391536222859 68.29407401477619 46.280594037312774 69.17385718384305 C 46.47761917151574 69.21351203330396 46.74842708103844 68.96318730925044 47.19954697255433 68.45182347768154 C 47.71677340914165 67.35767793844192 48.082234022268224 67.32879326174874 48.54515571591878 67.50005130131429 C 48.59192039233669 66.82892864624904 48.802977009744225 65.8296353283002 48.51233552921162 65.53086752074691 C 48.62759245271088 65.3859089381777 49.01190985120476 65.61763596618245 49.332828849913156 65.76060599095266 C 49.43101613699426 65.14326800902415 49.31707451729833 64.27137666277724 49.20154999424742 63.39758564338809 C 49.54715245124627 63.40206013483118 49.73479268951249 63.56449684500691 49.956403887116096 63.69296259584525 C 49.86990682355801 62.87236715234662 49.77772870662079 62.07260570503685 49.5625673201189 61.72377881527787 M 41.35265846348957 55.89239405974246 C 40.967848417057844 56.50814157366435 40.43958326256971 56.99836504065311 39.70495819375896 57.30802405540031 C 41.000501235847544 57.69633464437691 41.45187737993763 57.481668742557225 42.18811277396553 57.47047400371641 C 42.25525189398537 57.95039441517602 41.97516499364883 58.35315348877866 41.6543509544819 58.74686145669802 C 42.383052901061134 58.72767750014742 42.877189184108964 58.56775414547798 43.394879901190485 58.42196345122875 C 43.56785795342192 58.89383980125421 43.343715434264396 59.36571709686113 43.23242995287439 59.8375934468866 C 43.777059340015555 59.51139715808018 44.102341251555394 59.0638685849288 44.39278226881963 58.862896593734405 C 44.380234402917296 59.53140944398499 44.82343221300668 59.8011450641382 45.13540884789907 60.18569885799573 C 45.28959535988355 59.79680673642457 45.44864499728896 59.42736806211856 45.64596326174284 59.211002950425 C 46.034447837707084 59.44250682120645 46.340032341966484 59.70164436441668 46.59745270925519 59.97683598956284 C 46.765555343506776 59.62813769888168 46.942901982058395 59.31641258865621 47.15442193437867 59.14138167908688 C 47.971455372537875 59.49406748676201 48.083468006066454 59.655434744312615 48.40760292730188 59.884007312584856 C 48.47763552657275 59.66076025906482 48.439187239047904 59.32606319298169 48.54684546997812 58.886103999374264 C 49.08786084479987 59.35133007502964 49.83568244839079 59.35124308153581 50.54265209639932 59.44307322449775 C 50.34543122683526 59.11426807645813 50.16247350793215 58.771197886594656 50.00888933133424 58.39875604558889 C 50.7151545211591 58.33702659707073 51.21058719638116 58.40179798112829 51.703004412344555 58.468377316927004 C 51.448208979173785 58.11344859004159 51.139923894280095 57.75257688371411 50.496237285119605 57.35443886668003 C 51.00412988716872 57.39178555181028 51.41884489268313 57.38254343867318 51.8422469550208 57.37764532673843 C 51.38870070149244 57.03643415001467 50.930752766293 56.708428018304176 50.519444690759464 56.24050041643305 C 50.82558992482143 56.045309710251985 51.26991581358613 56.03436082258935 51.703004412344555 56.00842919677884 C 51.20193796281608 55.69246315372956 50.84877652766929 55.34691554045507 50.56585855645773 54.98731942350983 L 51.331691595595565 54.940905557811575 C 51.0589613189757 54.60596925962044 50.75317729702938 54.28425408132728 50.26416701104685 54.035829975997494 L 50.38020214808323 53.61810329355024 C 49.90414821919141 53.40547511976519 49.779114929033206 53.07583975120845 49.54474878318872 52.78264898307428 C 49.520559863999004 52.3982606659713 49.575743997688534 52.13293145539646 49.63757651458524 51.877574346841655 C 50.18725625227535 51.730807812531296 49.76121223535357 51.1218561925235 49.521541377548864 50.601185948278584 C 49.75080611144587 50.201054645538235 49.97727381540022 49.99917205940307 50.09093837972995 48.83580050187335 C 52.639730496606475 48.3059032737946 51.09271101225271 45.50371234755572 49.31267756353451 46.74881523811243 C 48.97230795430532 46.51921009489177 48.63193739949469 45.92387957573725 48.2915677902655 46.284674689966906 L 48.19873911328753 45.77411933054168 C 47.98669625442287 45.7927699791519 47.65704291981849 45.92903110350183 47.270457071415045 46.12222474165082 C 47.12548241396113 45.93656833327632 47.100861364046665 45.75091192490182 47.084800663040554 45.56525551652733 C 46.615709050398834 45.80912475599038 46.39246388804171 46.037127138645516 46.086897349829954 46.23826082426865 L 45.64596326174284 45.68129159914516 C 45.5468502504177 45.830962959684 45.44129026473521 45.98339730923314 45.04258017092109 46.261467284327054 C 44.724850618459016 46.16440902150272 44.40620006966017 46.069455622996294 43.78939917799788 46.6559875067159 C 42.12203648750065 44.31565165824681 39.29113676271914 47.22932852914406 42.025663771230896 48.99989954424623 C 41.949348728775774 49.727053573984314 41.83878472603562 50.45420854930385 41.88642122855465 51.18136257904193 C 41.58231277694587 51.317220885692215 41.54039798780852 51.54047739502679 41.491901006165804 51.76153920980528 C 41.70076482018016 51.63656265453435 41.90962768861306 51.521735970596936 42.118491502627414 51.483054124452806 C 42.01036615445863 52.46596618928243 41.69653712549672 52.88319265914021 41.42227973482769 53.40923947953589 L 42.21132017960539 53.06113406842675 C 42.41022418415861 54.55094303803382 41.16099288497119 54.97878649646367 40.09947841614781 55.54428864863333 C 40.465414656746034 55.789800363082996 40.89990082489434 55.86393678586675 41.35265846348957 55.89239405974246 Z " stroke="black" stroke-width ="0.1px" fill="black"/>
<path d="M 43.71672935205018 48.74464077616271 C 43.30570022304575 48.81724535699004 43.02103292614321 48.964392960626604 42.80774189975849 49.45209361629453 C 42.743838559476245 49.59821148172705 43.31368660401117 49.065535189753284 43.379598359302946 49.27755630024449 C 43.40610206189349 49.36281181535271 43.3789582006582 49.592727109290465 43.489404951297985 49.74261406240095 C 43.61439758145364 49.91224097395734 43.732519616760285 49.98405883101446 43.9872516959736 50.02358791814189 C 44.538829215643055 50.10918006024794 44.846853320055274 49.731978162199795 44.92249038060746 49.46132343687273 C 45.01638283672184 49.49720257958547 45.11994764553516 49.63968468432511 45.160002475951345 49.658330605028056 C 45.17902190132885 49.667184084187326 45.1030926561072 49.45430154899099 45.2163562939002 49.47009465044545 C 45.50156635455767 49.509862969680896 45.59302299284504 49.190003022201644 45.62885012857778 49.26836524850594 C 45.72131853902156 49.470621339315656 46.184525798271395 49.32715015637452 46.26574557173144 49.11571719754806 C 46.29485246006645 49.03994586442933 46.17569974097431 48.97614559252563 46.04491447882788 48.96043759340208 C 45.975115438176296 48.952054068225735 46.01815925157042 48.82288291362227 45.98952893628852 48.82144279306694 C 45.91311649894358 48.81760089561697 45.97876349142808 49.05904660981193 45.786040752843476 48.96795402038457 C 45.682353018441056 48.918944533593475 45.73384654771334 48.68576887480031 45.73412454866099 48.67239173396231 C 45.77957770360139 48.606870503811265 45.75413210665854 48.43177434912157 45.58117391163765 48.393597443474185 C 45.46112289016365 48.367099414372376 45.523935029447316 48.19487782730461 45.46691079424716 48.243668884779694 C 45.44023026792462 48.26649805783772 45.503205047218465 48.81377601863318 45.47235639784411 48.84267204230381 C 45.309285202512356 48.995420324895875 45.111651113852645 49.22045641852798 45.100681423398015 49.19353949684179 C 44.97300996098152 48.8802636330308 44.75525579013117 48.820743062790555 44.333375168353925 48.73336188057243 C 44.20419455793592 48.70660476215207 43.85779213902649 48.7320862911902 43.71672935205018 48.74464077616271 Z " stroke="black" stroke-width ="0.1px" fill="black"/>
<path d="M 47.26740851680547 48.61700146351568 C 46.20086071789934 49.37341272904005 46.274361709945616 48.200460540212475 46.20177320400302 48.35556048388209 C 45.8466175375685 49.11441985979237 46.89172900489921 49.227315666399534 47.04631266109462 49.26595307021529 C 47.13292886791597 49.287602157618 47.07468105031359 49.44188133658503 47.18512780095338 49.591768289695516 C 47.310120431109034 49.7613952012519 47.56232686225716 49.794457456811436 47.81641500049991 49.837931509767394 C 48.41904919080963 49.941042439482516 48.55060415626009 49.45699929288092 48.60661000023365 49.17123512149106 C 48.7093332415524 49.17652092182218 49.00820411748425 49.317595055775946 49.04138173398124 49.35083697181185 C 49.09673039884387 49.40629437854175 48.95827268877494 49.03501276598077 48.95990476236555 48.95667796153865 C 48.67154969779013 48.72342476506621 48.4898581124547 48.719093056422764 48.02909801800932 48.582516107866994 C 47.90261515148125 48.545024748774196 47.46068725728537 48.54062779501038 47.26740851680547 48.61700146351568 Z " stroke="black" stroke-width ="0.1px" fill="black"/>
<path d="M 43.78255033152233 49.09230743747692 C 43.74233948016614 49.11230081175265 43.739986873507135 49.280945264177724 43.75499892468011 49.32326854450345 C 43.81211109895553 49.49289545605984 43.77480318266492 49.42695249658005 43.87535915128976 49.510042630157265 C 43.97591511991459 49.59313276373448 44.24622281684782 49.58414122968284 44.36022117143103 49.56705173605414 C 44.58821882617889 49.53287274879675 44.63861358980095 49.451569764168696 44.640040472215915 49.192134362800275 C 44.64105980902396 49.14114293728037 44.556571160475414 49.19886122926819 44.54760042921578 49.14865369077413 C 44.54126314230715 49.11318398483123 44.49626764879077 49.03482932317857 44.42818105615344 49.065943680941665 C 44.38179366673591 49.08714172599053 44.42603080392571 49.2600148186805 44.396978759315076 49.328421963430934 C 44.33949969943527 49.4637620914441 44.23070960750391 49.45634495051435 44.16505126804196 49.46618750787511 C 44.13222162552025 49.47110925934622 44.00464850357504 49.35977460772058 43.956980796868 49.32038641222988 C 43.81511521123675 49.15547322422459 43.91464806072773 49.026625458478605 43.78255033152233 49.09230743747692 Z " stroke="black" stroke-width ="0.1px" fill="black"/>
<path d="M 47.460867863343196 48.90665102910243 C 47.42405826847914 48.93237462699293 47.43570972316253 49.21712608064493 47.45072177433551 49.25944936097066 C 47.50783394861093 49.42907627252705 47.45978233583334 49.31600364218788 47.54207345308142 49.41721489876075 C 47.59736349189386 49.48521638906716 47.83335982016605 49.503815030697375 48.02693547322269 49.47422400465762 C 48.14311528422162 49.456464093777626 48.24722191120842 49.34083839351108 48.30675477400759 49.099306631403756 C 48.30777411081563 49.04831520588385 48.22328546226708 49.106033497871664 48.21431473100744 49.055825959377614 C 48.207977444098816 49.02035625343471 48.162981950582434 48.94200159178205 48.094895357945106 48.97311594954515 C 48.048507968527574 48.99431399459401 48.08774014307827 49.165271339256996 48.06369306110674 49.235594232034416 C 48.02323257624654 49.35391578502798 47.957693380047864 49.25103179486196 47.87817943553189 49.27472995727674 C 47.84636629307386 49.284211302521854 47.752803844887126 49.23283407976848 47.69331636999779 49.21595545080416 C 47.42053692314227 49.13855771758354 47.63881967402574 48.78229382968425 47.460867863343196 48.90665102910243 Z " stroke="black" stroke-width ="0.1px" fill="black"/>
<path d="M 44.118802879098254 49.010266899314296 C 44.11451655836462 49.02680228221061 44.1182459316215 49.04579806805175 44.13179044037696 49.05620702870381 C 44.209265711276856 49.07865135010982 44.23480775752808 49.12346245524256 44.25294306424555 49.183269536663545 C 44.25294306424555 49.183269536663545 44.313016799636735 49.17948248293794 44.313016799636735 49.17948248293794 C 44.3903303761079 48.97863247175118 44.24344848086007 48.956281762909185 44.118802879098254 49.010266899314296 Z " stroke="black" stroke-width ="0.1px" fill="black"/>
<path d="M 47.80281753918299 48.81745054816569 C 47.798531218449355 48.833985931062 47.802260591706236 48.852981716903145 47.8158051004617 48.8633906775552 C 47.8932803713616 48.885834998961215 47.91882241761282 48.93064610409395 47.936957724330284 48.990453185514944 C 47.936957724330284 48.990453185514944 47.99703145972147 48.986666131789335 47.99703145972147 48.986666131789335 C 48.07434503619263 48.785816120602576 47.92746314094481 48.76346541176058 47.80281753918299 48.81745054816569 Z " stroke="black" stroke-width ="0.1px" fill="black"/>
<path d="M 42.58044586644993 46.39380424564046 C 42.477877700489735 46.38967016352102 42.3897287061305 46.40843333632433 42.27039348981762 46.42760594589748 C 41.98956525362069 46.472725310584416 41.69030101580373 46.53033013279767 41.58715320841188 47.26944009444752 C 41.54472213180033 47.33553529254149 41.66381906158665 47.58273865221341 41.74023244451304 47.56457403247085 C 41.807374401277244 47.54861261751747 41.790769045353294 47.4728942369602 41.82478255585614 47.40331268004317 C 41.93928963326191 47.16906189513614 42.01117368102084 47.03167363769235 42.09713743663854 46.927601051637915 C 42.205837698331706 46.79600258944053 42.36802572058488 46.72344434210448 42.46181605390217 46.710415175241764 C 42.55290486100371 46.69776140421652 42.63390147724048 46.89916647171711 42.51334740643264 46.99823409513243 C 42.38710188084966 47.101978564422126 42.279485255503445 47.33937908115438 42.242826008090674 47.544538107029666 C 42.27769432422846 47.607369157942415 42.23013819613307 48.02009087775056 42.265095396927585 47.96446421194028 C 42.58489766393811 47.45557118471221 42.820580059167376 47.33007266847836 42.97665962522394 47.05185612825899 C 43.08596695021095 46.85701245047176 43.03456892466558 46.790946565402876 42.97655182893811 46.63448782118303 C 42.94330140266912 46.544818331844816 42.68301403241012 46.3979383277599 42.58044586644993 46.39380424564046 Z " stroke="black" stroke-width ="0.1px" fill="black"/>
<path d="M 50.16209811209468 46.92655807529351 C 50.39598484814169 46.89829464561599 50.71783997249011 46.84515202228691 50.87434788694561 47.51311454413093 C 50.670937241179836 47.38807747164691 50.68999543539698 47.311816327334704 50.358561570913615 47.21768936701959 C 50.17278980160166 47.24058283961652 49.92742654344036 47.22732578762325 49.91334305325579 47.37534899968675 C 49.90472975178598 47.46587518582282 49.927743313227644 47.5071772381776 49.94599208971967 47.67797856190058 C 49.91112377358187 47.74080961281333 49.99611736262717 48.10537759704677 49.95853333655182 48.051490801112934 C 49.64532650018702 47.60242093019058 49.54240468676281 47.714265250220244 49.51385001799728 47.41156571497878 C 49.465353036354564 46.89746064277304 49.87922363763003 46.96074179045817 50.16209811209468 46.92655807529351 Z " stroke="black" stroke-width ="0.1px" fill="black"/>
<path d="M 45.20738934496637 50.8409920242313 C 45.160214286197174 50.84726973950828 45.11933112642677 50.87678606461312 45.098525497681564 50.91958780915487 C 45.077718923354894 50.96238860811516 45.08796713515968 51.16046050098835 45.11217118365266 51.2014363277413 C 45.34639076437169 51.506085651942115 45.54397190046995 51.57651728658681 45.65358559384825 51.74815923222292 C 45.76153411828502 51.91719326420728 45.990853695906395 52.310718734905905 46.15749918913647 52.31344484623947 C 46.18843766874902 52.31395073231767 46.248891527884936 52.511872277739585 46.249823871199155 52.481096438137236 C 46.260048443467575 52.143741342585265 46.56759692040814 51.80860268996284 47.22168492556906 51.33340451228742 C 47.28507386954001 51.28735185870481 47.27744208162006 50.98420033552806 47.213794993912 50.93850511173528 C 47.150147906203955 50.892809887942505 47.0723927431935 50.91680874525985 47.01581387685846 50.97100947423661 C 46.63777892154883 51.33315487878341 46.37232962212926 51.592212047569994 46.2091146984164 51.650646144718934 C 46.0963342527467 51.69102341841113 46.03325167716704 51.59046177629756 45.89356660237006 51.47435382948918 C 45.70065380191308 51.314003072002265 45.654502807859195 51.24909741537816 45.409616122751004 50.96409538264069 C 45.38164487774295 50.91151727144 45.26637566168478 50.83277964929823 45.20738934496637 50.8409920242313 L 45.20738934496637 50.8409920242313 Z " stroke="black" stroke-width ="0.1px" fill="black"/>
<path d="M 48.50312462026252 51.72420387165248 C 48.425901819611 51.730500498558555 48.31878824359862 51.81400479681288 48.323878308568645 51.89131648212113 C 48.340718168693336 52.22076840787568 48.300710617349885 52.42577614071824 48.209610463270884 52.53121887430037 C 48.11851030919189 52.636661607882495 47.98517481386244 52.685208705342305 47.787053750753614 52.687830802715865 C 47.39081162453597 52.693074997462986 46.89814666623147 52.440148033246466 46.33121384932103 52.27218818179451 C 45.92624778860339 52.12304729245169 45.99191842062425 52.205197518063045 45.943572732014275 52.37951262247127 C 45.2702667293704 52.92192556668289 44.79358587997419 52.87361864691255 44.55887932480606 52.776794888288954 C 44.4444885539192 52.72960470021648 44.28671356031457 52.631627332218294 44.212548770087174 52.52037400059775 C 44.12680533494839 52.391749392075035 44.12416148920138 52.193540389890934 44.17315962901502 51.97568976973221 C 44.184016795276555 51.92312205992752 44.07201361756252 51.82051323396478 44.023684003837275 51.84387004147446 C 43.77955378389275 51.96185213072583 43.77376398864634 52.02719275481905 43.670907420342495 52.18933349799949 C 43.6735597763226 52.550239245259334 43.780788713272436 52.63188547595539 43.88325948434281 52.72027653916701 C 44.023544057782 52.84128638023596 44.08093328742361 52.97756736179643 44.2719927482296 53.064399161189435 C 44.316150456577226 53.08446723640007 44.475437434927734 52.9369555839035 44.61005797545396 53.12764815910511 C 44.764576386529 53.346526626304964 44.85082287100162 53.70155180249875 44.96149372444614 53.8966782091409 C 44.981828453626974 53.93253087557291 45.22354649528086 54.005273511292614 45.230288491052036 54.02051061085178 C 45.32635767567487 54.23761233049847 45.24150781501068 55.92270278210624 46.356143158789685 55.86540527386572 C 47.094423845503854 55.87486676190029 47.31546674865325 55.13987953539243 47.454984455532774 53.76989086538445 C 47.478151201170085 53.54240571578497 47.77995243402969 54.11961132961801 47.86385293091348 53.87404760818834 C 47.95085020706104 53.61942143409793 48.04549818275763 52.72596137487197 48.490960660430744 52.75840427457875 C 48.912404423575964 52.78909784859455 48.95297365030345 51.85623730131897 48.50312462026252 51.72420387165248 Z " stroke="black" stroke-width ="0.1px" fill="black"/>
<path d="M 46.80064398012349 52.84206364819162 C 46.69721533503962 52.84985051147012 46.42528407474887 52.61665026755914 46.402231744467564 52.71777736738254 L 46.4313131021033 53.81343489136805 L 46.13192593869725 53.826133104721656 L 46.12125883430809 52.800840079097576 C 46.09596358481651 52.672730812467606 45.88457695948132 52.972299527512945 45.75646769285136 52.99759477700452 C 45.628358426221396 53.0228900264961 45.527605776654006 53.17625861052237 45.552901026145584 53.30436787715233 C 45.53916361877339 53.64480367708334 45.52571083141902 54.121472233920635 45.58079473347436 54.43565869267238 L 45.6863433721794 54.75524725827417 C 45.72650032539268 54.8745730187725 45.87774797021632 55.54930495824989 46.26719893042714 55.55860380627428 C 46.56525566072659 55.565720252301475 46.855559568679915 55.331329521339164 46.99686726125296 54.73900689679169 C 47.06497843900811 54.45350937937202 47.097653006171264 53.83948187811602 47.1126782954846 53.61034763445974 C 47.13096205849044 53.536563913558545 47.11845296142775 53.040762461569194 47.069272324393374 52.9828002095661 C 47.020091687359 52.92483795756301 46.89382630456548 52.87665207221885 46.80064398012349 52.84206364819162 Z " stroke="black" stroke-width ="0.1px" fill="black"/>
<path d="M 44.973192458202256 53.28429696519733 C 45.05312813204698 53.46156512048821 45.090836974874335 53.54732273934881 45.24764180190657 53.64794489867546 C 45.302135661134244 53.65451858094773 45.23949656325678 53.518829533377826 45.26870084648161 53.47235325930356 C 45.29790418412498 53.42587793081075 45.204846676435 53.28549974480756 45.175282126675974 53.239252301445305 L 45.16349734500749 53.163144341328746 C 45.0468107023489 53.0962718752791 44.992910668274696 53.159667438320234 44.973192458202256 53.28429696519733 Z " stroke="black" stroke-width ="0.1px" fill="black"/>
<path d="M 47.42730728635709 52.96318128554639 L 47.43246070528458 53.09856774705083 C 47.41278410079614 53.14758858081938 47.42197420695324 53.20348190059985 47.456312051895004 53.24362088776549 C 47.490648951255324 53.28375892934967 47.55604914698017 53.34210697858624 47.60752471020482 53.3302588429603 L 47.736819735978834 53.083793036822954 C 47.75329649282496 53.037953139067625 47.74510113835808 52.986865264239356 47.715112968107405 52.948479385090515 C 47.68512385227527 52.91009445152313 47.62593423554412 52.92459116080336 47.57746940367087 52.92948738157519 C 47.50494330610427 52.93698016902132 47.4677592609842 52.92294679465383 47.42730728635709 52.96318128554639 Z " stroke="black" stroke-width ="0.1px" fill="black"/>
<path d="M 60.334681366558044 43.0986523941018 C 60.02314631820495 42.85225277866627 60.1876188652524 42.94194307079648 59.53444618293952 42.71815514468443 C 58.48082731926192 43.042345855225676 57.14557836631389 43.536459444318595 56.010911825000974 44.18483991981964 C 58.037101874720875 43.68380467447916 58.875824114703875 43.26074774937242 60.334681366558044 43.0986523941018  Z " stroke="black" stroke-width ="0.1px" fill="black"/></g></svg>
