<?xml version='1.0' encoding='utf-8'?>
<svg xmlns='http://www.w3.org/2000/svg' version='1.1' width='2000' height='2000'>
	<g transform="scale(10)">
//nouvelle forme de couleur rgba(0,0,0,0)
<path d="M 0.0 0.0  L 100.0 0.0  L 100.0 100.0  L 0.0 100.0  Z " stroke="black" stroke-width ="0.03px" fill="rgba(0,0,0,0)"/>
//nouvelle forme de couleur red
<path d="M 0.0 0.0  L 100.0 0.0  L 100.0 100.0  L 0.0 100.0  Z " stroke="black" stroke-width ="0.1px" fill="red"/>
//nouvelle forme de couleur rgba(0,0,0,0)
<path d="M 0.0 0.0  L 100.0 0.0  L 100.0 100.0  L 0.0 100.0  Z " stroke="black" stroke-width ="0.03px" fill="rgba(0,0,0,0)"/>
//nouvelle forme de couleur rgba(0,0,0,0)
<path d="M 0.0 0.0  L 50.0 0.0  L 50.0 35.0  L 0.0 35.0  Z " stroke="black" stroke-width ="0.03px" fill="rgba(0,0,0,0)"/>
//nouvelle forme de couleur white
<path d=" M 24.735993654469937 3.705706356544125 C 24.735924804812175 3.6995490560836775 23.52495616208374 5.945458491506939 22.413892011166027 6.762484225978085 C 20.459214962814336 8.199864828321966 20.037662222287434 9.925108648539712 21.499919801278047 11.564118132470917 C 22.178347536275638 12.324551547335771 22.247783815512957 12.81476097067032 21.714200367232646 13.348331824501038 C 21.59055197942337 13.471977273605411 21.464788283836153 13.551411726619552 21.338116108618454 13.593223899877723 C 21.052235816863497 13.687590052450059 20.762958382238914 13.597497616438869 20.50285920867298 13.431420207218128 C 20.322423847042067 13.28109159745737 20.145942302952697 13.049392767780366 19.960598184624608 12.731728563284747 C 18.853670330829175 10.834556792196349 17.077543954696292 10.70466309671165 15.106487404836775 12.119498374843037 C 13.98611161758327 12.923707297718941 12.736049663386659 13.129673987621995 11.463717783608608 13.378943333923125 C 11.457840359805735 13.377106083604485 13.220926176949478 15.222769354633083 13.654627243675009 16.531928804397925 C 14.417626847613153 18.83511358441645 15.929585063393976 19.76885068386226 17.94023856276697 18.88464195712392 C 18.187005951687723 18.776123981299715 18.401808347670368 18.703448409627644 18.591826406179933 18.66598831839474 C 18.846808175000465 18.64830151301939 19.11971016632876 18.642925082427407 19.317756486760814 18.76219591943558 C 19.51876963970148 18.883253768902357 19.67143102140311 19.024378774717142 19.702586890924174 19.23448777909061 C 19.805182816612458 19.926376461810847 19.631475829767936 20.294656359828608 19.15595279410122 20.585767266436953 C 19.15150429456742 20.588490466315143 19.147297608465763 20.591815401007114 19.14283357577747 20.59451341198612 C 18.985920867647298 20.657356916677642 18.799706192975826 20.709236253308728 18.583080260630766 20.756317104645717 C 16.436703514872477 21.22281131933912 15.765003594907965 22.865695695594425 16.501497619928955 25.17749367974977 C 16.920131666732352 26.491543974105706 16.58090982274882 29.02199139884037 16.58458600264604 29.017051575834202 C 17.760440340347024 28.470859684130215 18.891980127594472 27.901092382175534 20.27108635162005 27.89317187276621 C 22.697324221797192 27.879248009051935 23.96351029005159 26.73751217523076 23.839513735680292 24.547771200209727 C 23.759523307685882 23.13517353595564 24.445551653073192 23.00629593267626 24.77535130944119 22.97346500135962 C 25.16843527623639 22.986312739325527 25.834695653422635 23.275149648091087 25.71556195597667 24.547771200209727 C 25.495956736611742 26.733245455586054 26.857751189983116 27.879248009051935 29.283989340036918 27.89317187276621 C 30.663099762212354 27.901092382175534 31.79463549124827 28.470858284746924 32.970489689010925 29.017051575834202 C 32.974168667674725 29.02199279822366 32.634944164862944 26.491542574722416 33.05357807172801 25.17749367974977 C 33.79007629489887 22.865697094977712 33.113999243948236 21.22281131933912 30.967622358251617 20.756317104645717 C 30.703319437288933 20.698873820062076 30.48771225597744 20.63253465591746 30.31166144206407 20.550782684240286 C 30.061609840505024 20.38880266928642 29.83959208435181 20.18280785177928 29.747535054142784 19.929806350249407 C 29.747231387969315 19.928426558327573 29.7478331227831 19.926817267546525 29.747535054142784 19.925433277474827 C 29.74646592531085 19.92244559415523 29.743993215041193 19.919750381942798 29.7431619813682 19.91668713192566 C 29.702181041783025 19.765674083798807 29.7226092390193 19.486887545806702 29.769400418015703 19.348187671229788 C 29.82974742292167 19.16930870369164 29.96707730125976 18.893396498972816 30.123619312756976 18.82341893827975 C 30.34483662166953 18.68318813838591 30.630058923402537 18.650323621870356 30.919518557731198 18.66598831839474 C 31.111655282538592 18.702890055695786 31.329304164067082 18.77446011457044 31.579852546693328 18.88464195712392 C 33.59050744544961 19.76885068386226 35.10246272252553 18.83511358441645 35.86546386578529 16.531928804397925 C 36.29916633189411 15.222769494571413 38.06225213504402 13.377105943666155 38.05637332585169 13.378943333923125 C 36.78404284545692 13.129674127560323 35.53398075132199 12.923707157780612 34.413603704623526 12.119498374843037 C 32.442548554147294 10.704663236649978 30.666420498754462 10.83455665225802 29.559492924835688 12.731728563284747 C 29.408720570634348 12.990143019310416 29.2635541458842 13.188095441123856 29.11781257460274 13.335212606177288 C 28.86018051377332 13.725812807574851 28.025785633933168 13.667262470872176 27.75778694170723 13.365824115599374 C 27.58810052298708 13.159986168958806 27.51598050648029 13.080723560212416 27.46041799303554 12.937262983690179 C 27.40240376007045 12.706150775487448 27.443352513840008 12.450691816965751 27.53038715742888 12.202586757560127 C 27.625058235619644 12.01573144521947 27.77363075929246 11.81330631454135 27.97644058043641 11.585983496343834 C 29.438698159427027 9.946974152350958 29.012773465632172 8.217354460592052 27.058095297773846 6.77997651707642 C 25.947031146856137 5.962950642666945 25.36623530520978 4.838738026314767 24.735993654469937 3.705706356544125 Z " stroke="black" stroke-width ="0.1px" fill="white"/>
<path d="M 24.757859018342856 15.928444761505384 C 25.695826453467888 15.92844504138204 26.454611254881307 16.6916012363101 26.454611254881307 17.629570070818417 C 26.454611254881307 18.567538905326735 25.695826453467888 19.326322307356868 24.757859018342856 19.326322307356868 C 23.819890463711197 19.326320907973578 23.061106781804405 18.567538905326735 23.061106781804405 17.629570070818417 C 23.06110664186608 16.69160067655678 23.819890183834538 15.928444761505384 24.757859018342856 15.928444761505384  Z " stroke="black" stroke-width ="0.1px" fill="white"/>
//nouvelle forme de couleur rgba(0,0,0,0)
<path d="M 0.0 0.0  L 100.0 0.0  L 100.0 100.0  L 0.0 100.0  Z " stroke="black" stroke-width ="0.03px" fill="rgba(0,0,0,0)"/>
//nouvelle forme de couleur rgba(0,0,0,0)
<path d="M 50.0 0.0  L 100.0 0.0  L 100.0 35.0  L 50.0 35.0  Z " stroke="black" stroke-width ="0.03px" fill="rgba(0,0,0,0)"/>
//nouvelle forme de couleur white
<path d=" M 74.73599365446991 3.705706356544125 C 74.73592480481214 3.6995490560836775 73.52495616208371 5.945458491506939 72.413892011166 6.762484225978085 C 70.4592149628143 8.199864828321966 70.03766222228741 9.925108648539712 71.49991980127803 11.564118132470917 C 72.17834753627561 12.324551547335771 72.24778381551293 12.81476097067032 71.71420036723262 13.348331824501038 C 71.59055197942334 13.471977273605411 71.46478828383613 13.551411726619552 71.33811610861842 13.593223899877723 C 71.05223581686347 13.687590052450059 70.76295838223888 13.597497616438869 70.50285920867296 13.431420207218128 C 70.32242384704205 13.28109159745737 70.14594230295268 13.049392767780366 69.96059818462459 12.731728563284747 C 68.85367033082915 10.834556792196349 67.07754395469627 10.70466309671165 65.10648740483674 12.119498374843037 C 63.98611161758325 12.923707297718941 62.73604966338663 13.129673987621995 61.46371778360858 13.378943333923125 C 61.45784035980571 13.377106083604485 63.22092617694945 15.222769354633083 63.65462724367498 16.531928804397925 C 64.41762684761312 18.83511358441645 65.92958506339394 19.76885068386226 67.94023856276694 18.88464195712392 C 68.1870059516877 18.776123981299715 68.40180834767034 18.703448409627644 68.5918264061799 18.66598831839474 C 68.84680817500043 18.64830151301939 69.11971016632873 18.642925082427407 69.31775648676079 18.76219591943558 C 69.51876963970145 18.883253768902357 69.67143102140308 19.024378774717142 69.70258689092415 19.23448777909061 C 69.80518281661243 19.926376461810847 69.63147582976791 20.294656359828608 69.1559527941012 20.585767266436953 C 69.15150429456739 20.588490466315143 69.14729760846573 20.591815401007114 69.14283357577744 20.59451341198612 C 68.98592086764727 20.657356916677642 68.7997061929758 20.709236253308728 68.58308026063074 20.756317104645717 C 66.43670351487245 21.22281131933912 65.76500359490794 22.865695695594425 66.50149761992893 25.17749367974977 C 66.92013166673232 26.491543974105706 66.5809098227488 29.02199139884037 66.58458600264602 29.017051575834202 C 67.760440340347 28.470859684130215 68.89198012759445 27.901092382175534 70.27108635162001 27.89317187276621 C 72.69732422179716 27.879248009051935 73.96351029005156 26.73751217523076 73.83951373568027 24.547771200209727 C 73.75952330768585 23.13517353595564 74.44555165307317 23.00629593267626 74.77535130944116 22.97346500135962 C 75.16843527623637 22.986312739325527 75.83469565342261 23.275149648091087 75.71556195597664 24.547771200209727 C 75.49595673661172 26.733245455586054 76.85775118998309 27.879248009051935 79.2839893400369 27.89317187276621 C 80.66309976221233 27.901092382175534 81.79463549124824 28.470858284746924 82.97048968901089 29.017051575834202 C 82.97416866767469 29.02199279822366 82.63494416486292 26.491542574722416 83.05357807172798 25.17749367974977 C 83.79007629489884 22.865697094977712 83.1139992439482 21.22281131933912 80.96762235825159 20.756317104645717 C 80.70331943728891 20.698873820062076 80.48771225597741 20.63253465591746 80.31166144206405 20.550782684240286 C 80.061609840505 20.38880266928642 79.83959208435178 20.18280785177928 79.74753505414276 19.929806350249407 C 79.7472313879693 19.928426558327573 79.74783312278308 19.926817267546525 79.74753505414276 19.925433277474827 C 79.74646592531083 19.92244559415523 79.74399321504117 19.919750381942798 79.74316198136817 19.91668713192566 C 79.70218104178299 19.765674083798807 79.72260923901928 19.486887545806702 79.76940041801568 19.348187671229788 C 79.82974742292164 19.16930870369164 79.96707730125974 18.893396498972816 80.12361931275694 18.82341893827975 C 80.3448366216695 18.68318813838591 80.6300589234025 18.650323621870356 80.91951855773117 18.66598831839474 C 81.11165528253856 18.702890055695786 81.32930416406705 18.77446011457044 81.5798525466933 18.88464195712392 C 83.59050744544959 19.76885068386226 85.1024627225255 18.83511358441645 85.86546386578526 16.531928804397925 C 86.29916633189409 15.222769494571413 88.06225213504399 13.377105943666155 88.05637332585167 13.378943333923125 C 86.7840428454569 13.129674127560323 85.53398075132196 12.923707157780612 84.4136037046235 12.119498374843037 C 82.44254855414727 10.704663236649978 80.66642049875443 10.83455665225802 79.55949292483567 12.731728563284747 C 79.40872057063432 12.990143019310416 79.26355414588417 13.188095441123856 79.11781257460271 13.335212606177288 C 78.86018051377329 13.725812807574851 78.02578563393314 13.667262470872176 77.7577869417072 13.365824115599374 C 77.58810052298705 13.159986168958806 77.51598050648026 13.080723560212416 77.46041799303552 12.937262983690179 C 77.40240376007043 12.706150775487448 77.44335251383998 12.450691816965751 77.53038715742885 12.202586757560127 C 77.62505823561962 12.01573144521947 77.77363075929243 11.81330631454135 77.97644058043639 11.585983496343834 C 79.438698159427 9.946974152350958 79.01277346563215 8.217354460592052 77.05809529777382 6.77997651707642 C 75.9470311468561 5.962950642666945 75.36623530520976 4.838738026314767 74.73599365446991 3.705706356544125 Z " stroke="black" stroke-width ="0.1px" fill="white"/>
<path d="M 74.75785901834283 15.928444761505384 C 75.69582645346786 15.92844504138204 76.45461125488129 16.6916012363101 76.45461125488129 17.629570070818417 C 76.45461125488129 18.567538905326735 75.69582645346786 19.326322307356868 74.75785901834283 19.326322307356868 C 73.81989046371118 19.326320907973578 73.06110678180438 18.567538905326735 73.06110678180438 17.629570070818417 C 73.06110664186605 16.69160067655678 73.81989018383452 15.928444761505384 74.75785901834283 15.928444761505384  Z " stroke="black" stroke-width ="0.1px" fill="white"/>
//nouvelle forme de couleur rgba(0,0,0,0)
<path d="M 0.0 0.0  L 100.0 0.0  L 100.0 100.0  L 0.0 100.0  Z " stroke="black" stroke-width ="0.03px" fill="rgba(0,0,0,0)"/>
//nouvelle forme de couleur white
<path d="M 0.0 35.0  L 100.0 35.0  L 100.0 65.0  L 0.0 65.0  Z " stroke="black" stroke-width ="0.1px" fill="white"/>
//nouvelle forme de couleur rgba(0,0,0,0)
<path d="M 0.0 0.0  L 100.0 0.0  L 100.0 100.0  L 0.0 100.0  Z " stroke="black" stroke-width ="0.03px" fill="rgba(0,0,0,0)"/>
//nouvelle forme de couleur rgba(0,0,0,0)
<path d="M 0.0 65.0  L 100.0 65.0  L 100.0 100.0  L 0.0 100.0  Z " stroke="black" stroke-width ="0.03px" fill="rgba(0,0,0,0)"/>
//nouvelle forme de couleur white
<path d=" M 49.73599365446995 68.70570635654411 C 49.73592480481219 68.69954905608367 48.524956162083754 70.94545849150693 47.41389201116604 71.76248422597808 C 45.45921496281434 73.19986482832196 45.037662222287445 74.9251086485397 46.49991980127806 76.56411813247091 C 47.17834753627565 77.32455154733577 47.24778381551297 77.81476097067032 46.714200367232664 78.34833182450103 C 46.59055197942338 78.4719772736054 46.464788283836164 78.55141172661955 46.338116108618465 78.59322389987771 C 46.05223581686351 78.68759005245006 45.76295838223893 78.59749761643887 45.502859208672994 78.43142020721812 C 45.32242384704208 78.28109159745736 45.14594230295271 78.04939276778036 44.96059818462462 77.73172856328475 C 43.85367033082919 75.83455679219634 42.0775439546963 75.70466309671164 40.106487404836784 77.11949837484303 C 38.986111617583276 77.92370729771893 37.736049663386666 78.129673987622 36.463717783608615 78.37894333392312 C 36.45784035980574 78.37710608360447 38.22092617694949 80.22276935463309 38.654627243675016 81.53192880439792 C 39.417626847613164 83.83511358441645 40.929585063393986 84.76885068386227 42.94023856276698 83.88464195712392 C 43.18700595168774 83.77612398129972 43.40180834767038 83.70344840962764 43.59182640617994 83.66598831839474 C 43.846808175000476 83.64830151301939 44.11971016632877 83.64292508242741 44.31775648676083 83.76219591943558 C 44.51876963970149 83.88325376890236 44.67143102140312 84.02437877471715 44.70258689092419 84.23448777909061 C 44.80518281661247 84.92637646181085 44.63147582976795 85.29465635982861 44.15595279410123 85.58576726643696 C 44.15150429456743 85.58849046631515 44.14729760846578 85.59181540100711 44.14283357577748 85.59451341198613 C 43.98592086764731 85.65735691667764 43.79970619297584 85.70923625330873 43.58308026063077 85.75631710464572 C 41.436703514872484 86.22281131933912 40.765003594907974 87.86569569559443 41.50149761992896 90.17749367974977 C 41.92013166673236 91.49154397410571 41.58090982274883 94.02199139884038 41.584586002646056 94.01705157583422 C 42.76044034034704 93.47085968413022 43.891980127594486 92.90109238217553 45.271086351620056 92.89317187276622 C 47.6973242217972 92.87924800905193 48.96351029005161 91.73751217523076 48.839513735680306 89.54777120020974 C 48.759523307685896 88.13517353595564 49.4455516530732 88.00629593267627 49.775351309441206 87.97346500135963 C 50.16843527623641 87.98631273932553 50.83469565342265 88.27514964809109 50.71556195597669 89.54777120020974 C 50.49595673661176 91.73324545558606 51.857751189983134 92.87924800905193 54.28398934003694 92.89317187276622 C 55.663099762212376 92.90109238217553 56.794635491248286 93.47085828474694 57.97048968901094 94.01705157583422 C 57.974168667674746 94.02199279822366 57.634944164862965 91.49154257472242 58.05357807172803 90.17749367974977 C 58.79007629489889 87.86569709497772 58.11399924394826 86.22281131933912 55.96762235825164 85.75631710464572 C 55.703319437288954 85.69887382006208 55.487712255977456 85.63253465591747 55.31166144206409 85.55078268424029 C 55.06160984050504 85.38880266928642 54.83959208435183 85.18280785177929 54.7475350541428 84.92980635024941 C 54.747231387969336 84.92842655832757 54.74783312278311 84.92681726754653 54.7475350541428 84.92543327747482 C 54.74646592531087 84.92244559415523 54.743993215041215 84.9197503819428 54.74316198136822 84.91668713192566 C 54.70218104178304 84.7656740837988 54.72260923901932 84.4868875458067 54.76940041801572 84.34818767122978 C 54.829747422921685 84.16930870369164 54.96707730125978 83.89339649897282 55.12361931275699 83.82341893827974 C 55.34483662166954 83.68318813838592 55.63005892340255 83.65032362187036 55.919518557731216 83.66598831839474 C 56.11165528253861 83.70289005569579 56.3293041640671 83.77446011457045 56.579852546693346 83.88464195712392 C 58.59050744544963 84.76885068386227 60.10246272252555 83.83511358441645 60.86546386578531 81.53192880439792 C 61.29916633189413 80.22276949457141 63.06225213504404 78.37710594366615 63.05637332585171 78.37894333392312 C 61.784042845456945 78.12967412756032 60.53398075132201 77.92370715778061 59.41360370462354 77.11949837484303 C 57.44254855414731 75.70466323664998 55.66642049875448 75.83455665225802 54.55949292483571 77.73172856328475 C 54.408720570634365 77.99014301931041 54.26355414588422 78.18809544112385 54.11781257460276 78.33521260617728 C 53.86018051377334 78.72581280757485 53.02578563393319 78.66726247087217 52.757786941707245 78.36582411559937 C 52.5881005229871 78.1599861689588 52.51598050648031 78.08072356021242 52.46041799303556 77.93726298369018 C 52.40240376007047 77.70615077548744 52.443352513840026 77.45069181696574 52.5303871574289 77.20258675756013 C 52.62505823561966 77.01573144521947 52.77363075929247 76.81330631454135 52.97644058043643 76.58598349634383 C 54.43869815942705 74.94697415235095 54.01277346563219 73.21735446059205 52.05809529777387 71.77997651707642 C 50.947031146856155 70.96295064266694 50.3662353052098 69.83873802631476 49.73599365446995 68.70570635654411 Z " stroke="black" stroke-width ="0.1px" fill="white"/>
<path d="M 49.75785901834287 80.92844476150539 C 50.6958264534679 80.92844504138203 51.45461125488132 81.69160123631009 51.45461125488132 82.62957007081842 C 51.45461125488132 83.56753890532674 50.6958264534679 84.32632230735688 49.75785901834287 84.32632230735688 C 48.81989046371121 84.32632090797358 48.06110678180442 83.56753890532674 48.06110678180442 82.62957007081842 C 48.06110664186609 81.69160067655679 48.81989018383455 80.92844476150539 49.75785901834287 80.92844476150539  Z " stroke="black" stroke-width ="0.1px" fill="white"/></g></svg>
