<svg width="640" height="480" xmlns="http://www.w3.org/2000/svg">
 <!-- Created with SVG-edit - http://svg-edit.googlecode.com/ -->
 <g>
  <title>Calque 1</title>
 </g>
 <g>
  <title>Layer 1</title>
  <rect id="svg_3" height="100" width="100" y="100" x="100" fill="blue"/>
  <polyline stroke-linejoin="mitter" id="svg_2" points="100 100, 200 200 " stroke-width="20" stroke="white"/>
  <rect id="svg_3" height="100" width="100" y="100" x="210" fill="green"/>
  <polyline stroke-linejoin="mitter" id="svg_2" points="210 150, 310 150 " stroke-width="30" stroke="white"/>
  <rect id="svg_3" height="100" width="100" y="100" x="320" fill="red"/>
  <polyline stroke-linejoin="mitter" id="svg_2" points="370 100, 370 200 " stroke-width="30" stroke="white"/>
  <rect id="svg_3" height="100" width="100" y="100" x="430" fill="grey"/>
  <polyline stroke-linejoin="mitter" id="svg_2" points="430 115, 530 115 " stroke-width="30" stroke="red"/>
  <rect id="svg_3" height="100" width="100" y="210" x="100" fill="red"/>
  <polyline stroke-linejoin="mitter" id="svg_2" points="100 260, 200 260 " stroke-width="30" stroke="white"/>
  <polyline stroke-linejoin="mitter" id="svg_2" points="150 210,  150 310 " stroke-width="30" stroke="white"/>
  <rect id="svg_3" height="100" width="100" y="210" x="210" fill="yellow"/>
  <polyline stroke-linejoin="mitter" id="svg_2" points="210 210, 310 310 " stroke-width="25" stroke="black"/>
  <polyline stroke="black" stroke-width="25" points="310 210,  210 310 " id="svg_2" stroke-linejoin="mitter"/>
  <rect id="svg_3" height="100" width="100" y="210" x="330" fill="blue"/>
  <polyline stroke="white" stroke-width="25" points="330 310, 380 250, 430 310 " id="svg_2" stroke-linejoin="mitter"/>
 </g>
</svg>
