<?xml version='1.0' encoding='utf-8'?>
<svg xmlns='http://www.w3.org/2000/svg' version='1.1' width='2000' height='2000'>
	<circle cx="485.6963248859853" cy="513.1514840534173" r="5" stroke="red" stroke-width="3" fill="red" /><path d="M 255.15650217442627 633.3386106312817 L 262.15650217442624 353.33861063128165 L 271.15650217442624 343.33861063128165 L 334.15650217442624 278.33861063128165 L 694.1565021744262 285.33861063128165 L 727.1565021744262 302.33861063128165 L 735.1565021744262 386.33861063128165 L 740.1565021744262 495.33861063128165 L 727.1565021744262 630.3386106312817 L 721.1565021744262 663.3386106312817 L 622.1565021744262 741.3386106312817 L 582.1565021744262 749.3386106312817 L 275.15650217442624 760.3386106312817 L 269.15650217442624 739.3386106312817 L 257.15650217442624 671.3386106312817 Z" stroke="black" fill="rgba(0,0,0,0.5)"/><circle cx="492.02253327705904" cy="514.6854561213532" r="5" stroke="red" stroke-width="3" fill="red" /><path d="M 0.0 506.0 L 26.0 256.0 L 45.0 136.0 L 153.0 32.0 L 187.0 18.0 L 200.0 17.0 L 641.0 42.0 L 986.0 136.0 L 990.0 713.0 L 935.0 965.0 L 467.0 980.0 L 345.0 977.0 L 25.0 968.0 L 2.0 798.0 Z" stroke="black" fill="rgba(0,0,0,0.5)"/></svg>
