<?xml version='1.0' encoding='utf-8'?>
<svg xmlns='http://www.w3.org/2000/svg' version='1.1' width='2000' height='2000'>
	<circle cx="249.86603110263277" cy="245.34684549007156" r="5" stroke="red" stroke-width="3" fill="red" /><path d="M 13.0 364.0 L 20.0 84.0 L 29.0 74.0 L 92.0 9.0 L 452.0 16.0 L 485.0 33.0 L 493.0 117.0 L 498.0 226.0 L 485.0 361.0 L 479.0 394.0 L 380.0 472.0 L 340.0 480.0 L 33.0 491.0 L 27.0 470.0 L 15.0 402.0 Z" stroke="black" fill="rgba(0,0,0,0.5)"/><circle cx="492.02253327705904" cy="514.6854561213532" r="5" stroke="red" stroke-width="3" fill="red" /><path d="M 0.0 506.0 L 26.0 256.0 L 45.0 136.0 L 153.0 32.0 L 187.0 18.0 L 200.0 17.0 L 641.0 42.0 L 986.0 136.0 L 990.0 713.0 L 935.0 965.0 L 467.0 980.0 L 345.0 977.0 L 25.0 968.0 L 2.0 798.0 Z" stroke="black" fill="rgba(0,0,0,0.5)"/></svg>
