<?xml version="1.0" encoding="UTF-8" standalone="no"?>
<!-- Created with Inkscape (http://www.inkscape.org/) -->
<svg xmlns:svg="http://www.w3.org/2000/svg" xmlns="http://www.w3.org/2000/svg" version="1.0" width="266.47009" height="309.39371" id="svg2">
  <defs id="defs4"/>
  <g transform="translate(-192.9228,-200.7185)" id="layer1">
    <g id="g9942">
      <path d="M 308.57143,445.93361 C 291.5867,458.15962 273.86516,471.54347 253.57143,488.96932 C 246.91601,490.26057 240.71591,493.01119 239.11612,494.69259 C 229.40628,504.10913 242.00733,508.81912 246.60714,507.71932 C 252.26819,506.86722 254.90117,500.71601 256.78571,493.25504 C 274.88095,478.70623 292.97619,464.66574 311.07143,450.57647" style="opacity:1;color:black;fill:#fcef3c;fill-opacity:1;fill-rule:nonzero;stroke:black;stroke-width:3;stroke-linecap:round;stroke-linejoin:round;marker:none;marker-start:none;marker-mid:none;marker-end:none;stroke-miterlimit:4;stroke-dasharray:none;stroke-dashoffset:0;stroke-opacity:1;visibility:visible;display:inline;overflow:visible" id="path1890"/>
      <path d="M 309.46429,239.50504 L 297.67857,227.00504 C 270.68148,222.63805 278.00723,206.62284 281.42857,203.61218 C 293.92671,197.56371 304.81579,212.52734 301.25,223.07647 L 312.5,234.50504" style="opacity:1;color:black;fill:#fcef3c;fill-opacity:1;fill-rule:nonzero;stroke:black;stroke-width:3;stroke-linecap:round;stroke-linejoin:round;marker:none;marker-start:none;marker-mid:none;marker-end:none;stroke-miterlimit:4;stroke-dasharray:none;stroke-dashoffset:0;stroke-opacity:1;visibility:visible;display:inline;overflow:visible" id="path1884"/>
      <path d="M 290.89286,323.96932 L 264.28571,310.93361 C 258.24854,308.63805 254.45301,304.39973 255.53571,295.93361 C 249.38083,256.75855 244.28067,257.64933 242.67857,255.75504 C 228.19126,248.53109 228.6165,261.19362 235.89286,265.93361 C 244.28053,267.96021 245.02848,270.8038 246.25,275.04075 C 248.06472,284.99803 249.63748,294.61656 249.10714,301.29075 C 249.60937,310.56655 253.1703,311.68582 256.42857,313.61218 L 286.42857,327.8979" style="opacity:1;color:black;fill:#fcef3c;fill-opacity:1;fill-rule:nonzero;stroke:black;stroke-width:3;stroke-linecap:round;stroke-linejoin:round;marker:none;marker-start:none;marker-mid:none;marker-end:none;stroke-miterlimit:4;stroke-dasharray:none;stroke-dashoffset:0;stroke-opacity:1;visibility:visible;display:inline;overflow:visible" id="path1886"/>
      <path d="M 246.96429,355.75504 C 240.36106,355.04446 237.6788,354.07248 224.64286,353.79075 C 217.88468,353.45906 214.1997,349.41909 214.10715,342.8979 C 213.46701,332.74994 213.41253,318.38789 211.25,315.57647 C 202.20351,304.59323 197.58922,314.25149 201.96429,322.00504 C 204.88359,325.57647 207.30014,329.14789 207.85714,332.71932 C 208.40468,338.89757 208.6784,343.98056 208.75,348.25504 C 209.90903,357.00841 214.96451,357.96888 219.82143,359.32647 L 245.35714,360.93361" style="opacity:1;color:black;fill:#fcef3c;fill-opacity:1;fill-rule:nonzero;stroke:black;stroke-width:3;stroke-linecap:round;stroke-linejoin:round;marker:none;marker-start:none;marker-mid:none;marker-end:none;stroke-miterlimit:4;stroke-dasharray:none;stroke-dashoffset:0;stroke-opacity:1;visibility:visible;display:inline;overflow:visible" id="path1888"/>
      <path d="M 343.7442,445.93361 C 360.72893,458.15962 378.45047,471.54347 398.7442,488.96932 C 405.39962,490.26057 411.59972,493.01119 413.19951,494.69259 C 422.90935,504.10913 410.3083,508.81912 405.70849,507.71932 C 400.04744,506.86722 397.41446,500.71601 395.52992,493.25504 C 377.43468,478.70623 359.33944,464.66574 341.2442,450.57647" style="opacity:1;color:black;fill:#fcef3c;fill-opacity:1;fill-rule:nonzero;stroke:black;stroke-width:3;stroke-linecap:round;stroke-linejoin:round;marker:none;marker-start:none;marker-mid:none;marker-end:none;stroke-miterlimit:4;stroke-dasharray:none;stroke-dashoffset:0;stroke-opacity:1;visibility:visible;display:inline;overflow:visible" id="path6357"/>
      <path d="M 326.15782,230.7244 L 332.31563,230.57647 C 334.71122,231.17807 336.22306,227.80275 339.81563,233.79075 C 343.99662,242.57219 346.13366,253.0261 357.40229,259.78296 C 362.56551,263.33715 366.91698,277.45024 353.38706,286.29075 C 357.04592,293.97304 356.51157,310.04173 355.52992,327.00504 L 350.17277,386.29075 C 352.88217,463.13909 336.77875,472.27286 329.88062,487.21424 L 326.15782,508.61218 L 322.43501,487.21424 C 315.53688,472.27286 299.43346,463.13909 302.14286,386.29075 L 296.78571,327.00504 C 295.80406,310.04173 295.26971,293.97304 298.92857,286.29075 C 285.39865,277.45024 289.75012,263.33715 294.91334,259.78296 C 306.18197,253.0261 308.31901,242.57219 312.5,233.79075 C 316.09257,227.80275 317.60441,231.17807 320,230.57647 L 326.15782,230.7244 z " style="color:black;fill:#fcef3c;fill-opacity:1;fill-rule:nonzero;stroke:black;stroke-width:3;stroke-linecap:round;stroke-linejoin:round;marker:none;marker-start:none;marker-mid:none;marker-end:none;stroke-miterlimit:4;stroke-dashoffset:0;stroke-opacity:1;visibility:visible;display:inline;overflow:visible" id="path1882"/>
      <path d="M 361.42277,323.96932 L 388.02992,310.93361 C 394.06709,308.63805 397.86262,304.39973 396.77992,295.93361 C 402.9348,256.75855 408.03496,257.64933 409.63706,255.75504 C 424.12437,248.53109 423.69913,261.19362 416.42277,265.93361 C 408.0351,267.96021 407.28715,270.8038 406.06563,275.04075 C 404.25091,284.99803 402.67815,294.61656 403.20849,301.29075 C 402.70626,310.56655 399.14533,311.68582 395.88706,313.61218 L 365.88706,327.8979" style="opacity:1;color:black;fill:#fcef3c;fill-opacity:1;fill-rule:nonzero;stroke:black;stroke-width:3;stroke-linecap:round;stroke-linejoin:round;marker:none;marker-start:none;marker-mid:none;marker-end:none;stroke-miterlimit:4;stroke-dasharray:none;stroke-dashoffset:0;stroke-opacity:1;visibility:visible;display:inline;overflow:visible" id="path6363"/>
      <path d="M 405.35134,355.75504 C 411.95457,355.04446 414.63683,354.07248 427.67277,353.79075 C 434.43095,353.45906 438.11593,349.41909 438.20848,342.8979 C 438.84862,332.74994 438.9031,318.38789 441.06563,315.57647 C 450.11212,304.59323 454.72641,314.25149 450.35134,322.00504 C 447.43204,325.57647 445.01549,329.14789 444.45849,332.71932 C 443.91095,338.89757 443.63723,343.98056 443.56563,348.25504 C 442.4066,357.00841 437.35112,357.96888 432.4942,359.32647 L 406.95849,360.93361" style="opacity:1;color:black;fill:#fcef3c;fill-opacity:1;fill-rule:nonzero;stroke:black;stroke-width:3;stroke-linecap:round;stroke-linejoin:round;marker:none;marker-start:none;marker-mid:none;marker-end:none;stroke-miterlimit:4;stroke-dasharray:none;stroke-dashoffset:0;stroke-opacity:1;visibility:visible;display:inline;overflow:visible" id="path6365"/>
      <path d="M 298.39286,286.20147 C 305.34351,288.1118 313.89666,287.61839 321.69643,288.25504" style="opacity:1;color:black;fill:none;fill-opacity:1;fill-rule:nonzero;stroke:black;stroke-width:3;stroke-linecap:round;stroke-linejoin:round;marker:none;marker-start:none;marker-mid:none;marker-end:none;stroke-miterlimit:4;stroke-dasharray:none;stroke-dashoffset:0;stroke-opacity:1;visibility:visible;display:inline;overflow:visible" id="path5456"/>
      <path d="M 342.85134,239.50504 L 354.63706,227.00504 C 381.63415,222.63805 374.3084,206.62284 370.88706,203.61218 C 358.38892,197.56371 347.49984,212.52734 351.06563,223.07647 L 339.81563,234.50504" style="opacity:1;color:black;fill:#fcef3c;fill-opacity:1;fill-rule:nonzero;stroke:black;stroke-width:3;stroke-linecap:round;stroke-linejoin:round;marker:none;marker-start:none;marker-mid:none;marker-end:none;stroke-miterlimit:4;stroke-dasharray:none;stroke-dashoffset:0;stroke-opacity:1;visibility:visible;display:inline;overflow:visible" id="path6361"/>
      <path d="M 308.09653 273.66083 A 5.1138973 5.3033009 0 1 1  297.86874,273.66083 A 5.1138973 5.3033009 0 1 1  308.09653 273.66083 z" transform="translate(1.010153,0.757614)" style="opacity:1;fill:none;fill-opacity:1;fill-rule:nonzero;stroke:black;stroke-width:3;stroke-linecap:round;stroke-linejoin:round;stroke-miterlimit:4;stroke-dasharray:none;stroke-opacity:1" id="path1912"/>
      <path d="M 308.09653 273.66083 A 5.1138973 5.3033009 0 1 1  297.86874,273.66083 A 5.1138973 5.3033009 0 1 1  308.09653 273.66083 z" transform="matrix(-1,0,0,1,651.3055,0.757614)" style="opacity:1;fill:none;fill-opacity:1;fill-rule:nonzero;stroke:black;stroke-width:3;stroke-linecap:round;stroke-linejoin:round;stroke-miterlimit:4;stroke-dasharray:none;stroke-opacity:1" id="path6369"/>
      <path d="M 353.92277,286.20147 C 346.97212,288.1118 338.41897,287.61839 330.6192,288.25504" style="opacity:1;color:black;fill:none;fill-opacity:1;fill-rule:nonzero;stroke:black;stroke-width:3;stroke-linecap:round;stroke-linejoin:round;marker:none;marker-start:none;marker-mid:none;marker-end:none;stroke-miterlimit:4;stroke-dasharray:none;stroke-dashoffset:0;stroke-opacity:1;visibility:visible;display:inline;overflow:visible" id="path6371"/>
      <path d="M 338.83349,334.95147 L 326.15782,334.68361 L 313.48214,334.95147" style="color:black;fill:none;fill-opacity:1;fill-rule:nonzero;stroke:black;stroke-width:3;stroke-linecap:round;stroke-linejoin:round;marker:none;marker-start:none;marker-mid:none;marker-end:none;stroke-miterlimit:4;stroke-dashoffset:0;stroke-opacity:1;visibility:visible;display:inline;overflow:visible" id="path6343"/>
      <path d="M 350.97634,389.23718 C 344.80092,379.0579 335.73797,380.42875 326.15782,380.30861 C 316.57766,380.42875 307.51471,379.0579 301.33929,389.23718" style="color:black;fill:none;fill-opacity:1;fill-rule:nonzero;stroke:black;stroke-width:3;stroke-linecap:round;stroke-linejoin:round;marker:none;marker-start:none;marker-mid:none;marker-end:none;stroke-miterlimit:4;stroke-dashoffset:0;stroke-opacity:1;visibility:visible;display:inline;overflow:visible" id="path6345"/>
      <path d="M 350.08349,424.7729 C 344.9948,416.09338 335.39024,417.24251 326.42277,417.00504 C 326.42277,417.00504 335.39024,417.24251 326.15782,417.00504 C 316.92539,417.24251 307.32083,416.09338 302.23214,424.7729" style="color:black;fill:none;fill-opacity:1;fill-rule:nonzero;stroke:black;stroke-width:3;stroke-linecap:round;stroke-linejoin:round;marker:none;marker-start:none;marker-mid:none;marker-end:none;stroke-miterlimit:4;stroke-dashoffset:0;stroke-opacity:1;visibility:visible;display:inline;overflow:visible" id="path6347"/>
      <path d="M 343.92277,459.50504 C 340.14108,455.39815 333.76668,455.59671 327.22634,455.3979 C 327.22634,455.3979 333.76668,455.59671 326.15782,455.3979 C 318.54895,455.59671 312.17455,455.39815 308.39286,459.50504" style="color:black;fill:none;fill-opacity:1;fill-rule:nonzero;stroke:black;stroke-width:3;stroke-linecap:round;stroke-linejoin:round;marker:none;marker-start:none;marker-mid:none;marker-end:none;stroke-miterlimit:4;stroke-dashoffset:0;stroke-opacity:1;visibility:visible;display:inline;overflow:visible" id="path6349"/>
      <g style="fill:#fcef3c;fill-opacity:1;stroke:black;stroke-width:3;stroke-linecap:round;stroke-linejoin:round;stroke-miterlimit:4;stroke-dasharray:none;stroke-opacity:1" id="g7283">
        <path d="M 293.70185,316.71859 C 205.5667,378.81516 202.376,414.72017 194.7069,446.01812 C 190.8633,475.14434 227.15736,476.49866 234.60793,474.55493 C 246.46758,470.88117 279.62208,445.89197 307.08637,372.78206 C 310.50637,363.82824 316.9943,345.83628 312.89475,329.59804 C 306.29251,317.88436 298.94372,316.3773 293.70185,316.71859 z " style="opacity:1;color:black;fill:#fcef3c;fill-opacity:1;fill-rule:nonzero;stroke:black;stroke-width:3;stroke-linecap:round;stroke-linejoin:round;marker:none;marker-start:none;marker-mid:none;marker-end:none;stroke-miterlimit:4;stroke-dasharray:none;stroke-dashoffset:0;stroke-opacity:1;visibility:visible;display:inline;overflow:visible" id="path1910"/>
        <path d="M 358.61378,316.71859 C 446.74893,378.81516 449.93963,414.72017 457.60873,446.01812 C 461.45233,475.14434 425.15827,476.49866 417.7077,474.55493 C 405.84805,470.88117 372.69355,445.89197 345.22926,372.78206 C 341.80926,363.82824 335.32133,345.83628 339.42088,329.59804 C 346.02312,317.88436 353.37191,316.3773 358.61378,316.71859 z " style="opacity:1;color:black;fill:#fcef3c;fill-opacity:1;fill-rule:nonzero;stroke:black;stroke-width:3;stroke-linecap:round;stroke-linejoin:round;marker:none;marker-start:none;marker-mid:none;marker-end:none;stroke-miterlimit:4;stroke-dasharray:none;stroke-dashoffset:0;stroke-opacity:1;visibility:visible;display:inline;overflow:visible" id="path6367"/>
      </g>
      <path d="M 322.23214,487.09432 C 322.23214,487.09432 324.17411,487.54075 326.11607,487.54075 C 328.05804,487.54075 330,487.09432 330,487.09432" style="opacity:1;color:black;fill:none;fill-opacity:1;fill-rule:nonzero;stroke:black;stroke-width:3;stroke-linecap:round;stroke-linejoin:round;marker:none;marker-start:none;marker-mid:none;marker-end:none;stroke-miterlimit:4;stroke-dasharray:none;stroke-dashoffset:0;stroke-opacity:1;visibility:visible;display:inline;overflow:visible" id="path6396"/>
    </g>
  </g>
</svg>