<?xml version="1.0" encoding="UTF-8" standalone="no"?>
<!-- Created with Inkscape (http://www.inkscape.org/) -->
<svg xmlns:svg="http://www.w3.org/2000/svg" xmlns="http://www.w3.org/2000/svg" version="1.0" width="738.27161" height="658.46924" viewBox="69 176 458 411" id="svg2">
  <defs id="defs59"/>
  <g transform="translate(0.3909452,-2.4237025)" style="display:inline" id="layer2">
    <g transform="translate(-2.4795752,1.2483499)" id="g2326">
      <g transform="translate(0,-0.8929798)" id="g2250">
        <path d="M 280.93893,179.58786 C 280.05693,184.69486 278.84993,186.59886 276.76193,190.77486 C 279.44693,189.58186 281.64693,188.27686 283.32493,186.74786 C 283.51193,190.88686 281.53493,193.31086 276.31493,197.18886 C 280.93893,198.08386 283.47393,197.59886 287.50093,194.50386 C 287.20293,199.61186 285.22693,201.58886 282.87793,203.90086 C 287.23993,205.01886 288.13493,204.53386 291.37993,203.15486 C 290.74593,207.29386 283.91093,208.63586 283.94293,208.66686 C 285.96193,210.60386 299.84272,227.04486 299.66672,251.65186 C 299.62772,257.07786 299.66672,586.76886 299.66672,586.76886 C 299.66672,586.76886 289.56993,576.55086 286.77293,566.41786 C 285.03993,560.13786 287.01593,552.60786 287.01593,552.60786 C 287.01593,552.60786 277.86893,557.37686 268.57193,557.55886 C 262.06093,557.73986 256.85193,553.12186 249.82593,553.33486 C 244.97993,553.42486 240.60393,555.37486 239.89192,560.60286 C 239.10393,566.39386 241.51893,570.71786 245.72693,571.50086 C 249.33892,572.17186 250.26292,571.91986 252.36193,569.56886 C 253.69393,568.07786 253.11792,565.78886 251.18693,564.78186 C 250.40793,564.37486 249.43393,563.98986 246.90293,566.62886 C 246.43592,564.41386 247.44593,562.32986 250.67392,562.29886 C 254.46192,562.26186 257.73793,564.36186 257.57893,569.80986 C 257.73793,574.43986 250.93492,579.47886 245.34392,578.77386 C 232.62492,576.37186 228.84592,561.75786 229.47393,556.36286 C 229.71693,553.57686 231.38293,542.23586 253.36992,537.90486 C 266.89193,535.72186 270.50393,541.43286 280.11093,540.49386 C 289.60593,539.56486 290.34993,534.80286 291.17093,527.61486 C 288.24393,528.77586 284.06093,532.81786 278.32193,533.09686 C 273.61093,532.26186 267.70093,527.18586 267.52893,520.16186 C 267.95793,516.13586 269.47793,513.67386 274.29593,511.68186 C 272.86093,515.94386 273.54693,518.08186 279.60693,518.36386 C 291.32093,516.75986 289.97193,497.73086 289.97193,497.73086 C 271.02793,511.82286 265.16793,514.62986 239.49292,513.97586 C 236.38492,514.08486 230.55292,515.55686 230.44293,521.28086 C 230.55292,526.24186 232.32393,529.18486 237.31193,530.32986 C 240.66492,530.27586 241.23692,529.10386 241.23692,528.04086 C 241.23692,524.03386 237.31193,526.07786 237.31193,526.07786 C 237.31193,526.07786 237.80292,523.57086 240.03793,523.78886 C 242.81793,523.67986 245.39692,526.51086 245.12492,530.98086 C 243.65292,535.77786 239.06093,536.90986 229.78893,536.87186 C 220.13793,535.79586 211.87693,526.68386 215.38793,511.09186 C 208.21392,509.12886 199.72293,508.67886 192.37293,513.31886 C 189.92292,514.98986 185.80292,519.07286 185.98892,529.65186 C 186.76792,537.26186 189.84893,542.12486 195.49093,543.75786 C 200.83693,544.05486 205.29092,543.31186 205.58792,538.56086 C 205.58792,532.32486 201.61593,531.30386 198.77792,531.74086 C 195.72092,532.21086 195.24392,536.91586 195.24392,536.91586 C 195.24392,536.91586 193.38193,535.61386 193.60493,532.68086 C 195.31193,528.56086 197.65693,527.56086 202.07393,527.56086 C 206.93693,527.41286 212.56693,532.36186 211.67593,538.85786 C 210.78492,545.35386 208.58292,550.48486 197.56992,552.36986 C 192.19725,552.51786 186.10526,552.05253 178.55392,542.79386 C 169.38293,527.50786 166.9908,516.16762 178.36493,503.16686 C 186.33392,493.71786 196.90193,489.04286 209.44793,490.45286 C 205.36493,487.85486 204.18693,481.65086 204.54893,476.34786 C 205.59793,468.01086 214.79393,464.76586 223.99992,464.32086 C 232.46292,464.91486 237.42892,470.02386 237.51092,473.82386 C 237.59093,477.49786 233.50193,478.27786 233.50193,478.27786 C 233.50193,478.27786 230.42092,478.09186 230.23593,475.90186 C 233.16793,475.19686 234.61593,473.89786 229.78992,470.70586 C 226.74593,471.07686 223.85092,473.04386 222.81193,479.76286 C 225.33593,488.85686 235.65492,497.95186 252.06193,498.02586 C 269.50893,497.80286 277.36893,490.62586 289.62793,477.08986 C 282.11993,482.42186 274.00193,486.41586 260.15593,487.52986 C 244.16492,487.29486 238.52093,469.89186 239.93193,459.30986 C 243.92993,449.90286 248.63292,447.55186 258.44693,449.93086 C 267.31893,456.31586 260.07993,460.32486 260.07993,460.32486 C 260.07993,460.32486 262.27293,456.48786 256.07093,453.79186 C 252.35892,454.27386 249.61193,455.44886 249.98392,460.60886 C 251.39393,466.65886 257.07293,470.51986 267.65293,471.29886 C 290.55593,471.03986 287.54893,445.90886 287.54893,445.90886 C 287.54893,445.90886 282.94593,452.18286 278.49193,453.48186 C 271.91493,456.01786 265.38793,452.25686 261.86193,448.28486 C 257.80493,443.08386 260.96493,435.03086 267.65293,432.84286 C 270.46793,432.28386 259.26393,437.11186 268.69193,439.82186 C 271.43893,438.96786 275.19093,437.47886 278.63993,428.83386 C 282.26293,417.65886 282.14093,414.83686 277.35493,410.29586 C 275.26893,422.07586 267.79493,428.63686 250.02392,435.82186 C 242.92292,430.91986 235.61992,427.16586 226.81992,424.42286 C 221.62492,412.53286 222.06093,397.07186 232.73393,389.15786 C 232.93892,383.62386 232.14292,379.81886 231.19092,377.27386 C 221.17292,405.60186 212.06293,422.08086 180.08093,441.46486 C 218.76192,411.09486 218.24892,393.54286 223.49992,381.34686 C 208.78793,405.85786 187.32692,443.23286 137.61693,442.71886 C 151.98493,430.09186 166.81392,412.40586 175.18693,397.30386 C 159.00492,411.17386 129.59293,432.74286 102.44592,427.50386 C 136.88993,428.62486 160.04993,402.56986 172.04393,387.20486 C 154.66793,395.30986 128.02892,410.84386 87.28753,403.47086 C 105.38692,394.64286 133.40392,379.27186 146.14292,365.24386 C 123.08392,370.64786 99.360225,382.22786 85.73443,372.92686 C 101.62593,376.47886 114.21192,371.93486 140.32692,362.51086 C 119.89892,360.69386 87.80963,359.57586 71.58863,345.29286 C 83.88753,345.71286 125.38193,338.28386 141.69293,327.35786 C 116.33292,330.70886 88.43753,329.51986 75.36903,319.61886 C 87.14503,323.28686 94.340425,328.01186 135.86693,322.70586 C 120.69793,320.93086 98.051925,318.28586 85.90233,305.58386 C 101.50093,304.58386 123.23692,301.92986 139.75193,296.38186 C 126.19492,295.03086 100.24992,291.46486 95.212425,285.89086 C 114.33592,291.86686 133.56293,293.78686 144.84693,292.02086 C 132.82192,284.19186 112.75393,285.84486 102.52493,259.40986 C 113.70892,263.16886 127.58693,262.97486 139.03093,262.67686 C 139.03093,262.67686 120.51893,251.23486 110.26893,237.93286 C 119.93892,248.53586 143.56392,259.65486 143.56392,259.65486 C 135.87193,247.56686 117.33093,230.96086 120.53193,210.92786 C 128.80392,218.30286 143.96892,234.64386 157.01792,238.67186 L 156.99492,238.64886 C 147.95692,225.69886 143.25893,207.61086 143.67192,201.73486 C 145.23493,206.81686 148.68593,221.34886 160.27693,229.45086 L 160.26192,229.42186 C 155.52192,210.70286 154.20393,195.70786 163.93492,183.22386 C 169.65992,192.19586 174.18492,216.83086 184.41293,222.99586 C 184.90292,220.88286 184.49392,217.59986 189.59492,218.20986 C 194.23493,219.35786 193.47793,220.95486 193.20993,223.36486 C 191.99892,221.22286 192.06193,220.89986 190.12992,220.68686 C 187.83292,220.70186 188.28793,226.43186 189.13692,227.83486 C 189.98692,229.23786 192.23993,231.74686 195.79493,232.62986 C 215.47993,235.96086 217.95593,240.04486 219.34392,248.32886 C 218.79293,253.00686 216.45892,254.58786 214.66692,255.57186 C 211.94893,255.06286 208.17393,255.94886 204.53893,260.62486 C 203.49992,265.24186 203.18292,273.49286 207.79993,274.64786 C 212.41793,275.80186 215.41893,265.18186 222.57592,267.25986 C 228.72393,270.55786 230.02192,276.34786 235.35293,279.20786 C 244.97592,278.55786 241.33892,269.82486 247.93393,261.14786 C 257.48593,248.57886 261.67593,248.07586 261.33993,245.39486 C 261.00493,242.71386 260.12493,241.09486 256.98293,242.04386 C 249.74893,242.93786 253.00992,240.59186 246.33492,240.74186 C 244.43292,241.18886 243.72492,242.86686 243.79893,246.11086 C 241.78592,245.77586 238.72793,240.25686 245.14192,237.31086 C 250.80893,236.30386 252.03993,237.53486 256.77593,236.56486 C 260.16893,232.46386 261.59793,229.25186 258.71493,220.90386 C 253.74292,214.49486 238.19893,211.56986 236.54192,209.91286 C 235.95692,208.25486 231.00193,201.57786 226.26993,196.15286 C 233.46992,189.07286 231.74992,185.95586 241.50693,186.45586 C 272.00493,188.02886 277.04693,185.96586 280.93893,179.58786 z " style="fill:#000000;fill-opacity:1;stroke:#000000;stroke-opacity:1" id="path6"/>
        <g transform="translate(-11.493165,-47.95846)" id="g24910">
          <path d="M 262.11509,482.47832 C 255.39309,487.01532 196.41109,513.5113 183.13609,519.5603 C 185.32009,521.0723 185.48809,520.9043 189.01009,522.6883 C 194.89909,519.7283 193.90909,521.4553 198.05909,525.1053 C 199.37209,526.2613 200.38109,528.6363 195.06709,534.6843 C 190.19409,540.2293 186.09809,539.0673 182.46409,535.8603 C 179.60709,533.3393 178.93509,532.3313 178.76709,529.4753 C 174.39809,525.7783 176.07809,527.6263 170.53309,525.1053 C 160.61809,527.9623 158.09809,534.6843 153.06709,539.3663 C 154.58209,540.4463 156.22009,542.4983 155.27509,546.3393 C 154.55509,549.2653 152.72809,553.0643 141.71909,548.3723 C 139.84009,547.5713 134.71509,543.1763 136.74909,538.4313 C 138.02209,535.4623 140.92909,534.2523 144.43009,535.0423 C 150.41809,528.8293 146.12509,532.1053 150.47909,528.1523 C 142.73609,526.9093 140.89809,526.1183 135.61909,526.2313 C 133.55509,529.9593 131.66509,530.1853 127.26009,530.5243 C 122.74909,530.8713 119.46509,527.0223 119.13709,520.3883 C 119.01809,517.9853 120.14509,514.0433 125.75009,513.1993 C 132.23009,512.2243 132.79509,514.1443 135.50609,517.5333 C 142.39709,516.8553 145.44709,516.5163 150.64309,515.9513 C 147.59309,512.2243 148.38409,512.5623 145.59109,508.0233 C 140.70309,507.7363 139.12109,508.3833 135.81409,505.7233 C 134.27409,504.4843 131.56709,502.5313 135.84509,496.5213 C 140.59009,489.8573 148.27109,493.9233 149.51409,494.8273 C 153.19709,497.5063 149.58609,500.3423 151.88609,504.6553 C 157.08209,508.0443 160.13209,509.5123 165.14409,513.4873 C 183.62909,510.3033 235.06009,475.08432 241.11009,470.88332 C 252.03209,473.57232 253.88109,474.24432 262.11509,482.47832 z " style="fill:#eac102;fill-opacity:1;stroke:#404040;stroke-opacity:1" id="path10"/>
          <path d="M 141.45409,494.64429 C 134.31109,489.78729 121.45409,496.21629 126.59709,503.21629 C 129.74009,498.50129 131.74009,499.07329 135.31109,501.50129 C 142.13609,500.35829 141.45409,494.64429 141.45409,494.64429 z " style="fill:#ed1c24;fill-opacity:1;stroke:#404040;stroke-opacity:1" id="path12"/>
          <path d="M 122.36709,517.79629 C 113.91809,519.59529 109.66869,533.32729 118.28109,534.45529 C 117.05009,528.92429 118.84609,527.87529 123.07009,526.97529 C 125.88309,522.93029 122.36709,517.79629 122.36709,517.79629 z " style="fill:#ed1c24;fill-opacity:1;stroke:#404040;stroke-opacity:1" id="path14"/>
          <path d="M 140.16909,542.35829 C 133.52209,547.87529 137.49909,560.00229 145.65009,557.00129 C 141.99209,552.67429 144.13109,550.11729 147.45409,547.35829 C 145.52509,542.19329 140.16909,542.35829 140.16909,542.35829 z " style="fill:#ed1c24;fill-opacity:1;stroke:#404040;stroke-opacity:1" id="path16"/>
          <path d="M 194.93009,529.14629 C 201.57709,534.66329 197.60009,546.79029 189.44909,543.78929 C 193.10709,539.46229 190.96809,536.90429 187.64409,534.14629 C 189.57309,528.98129 194.93009,529.14629 194.93009,529.14629 z " style="fill:#ed1c24;fill-opacity:1;stroke:#404040;stroke-opacity:1" id="path18"/>
        </g>
        <g transform="translate(-11.493165,-47.95846)" id="g24921">
          <path d="M 256.00909,241.81632 C 257.80209,241.81632 262.58709,240.57532 265.77909,239.96732 C 265.90209,244.28232 258.93109,248.99232 254.53009,248.13332 C 251.41309,247.52532 249.79409,244.98332 250.36609,243.29632 C 252.57609,242.50232 254.21709,241.81632 256.00909,241.81632 z " style="fill:#ffffff;stroke:#ffffff;stroke-opacity:1" id="path24"/>
          <path d="M 257.16909,245.67432 C 257.16909,247.20832 255.99109,248.45132 254.53809,248.45132 C 253.08509,248.45132 251.90709,247.20832 251.90709,245.67432 C 251.90709,244.14132 253.08509,242.89732 254.53809,242.89732 C 255.99109,242.89732 257.16909,244.14132 257.16909,245.67432 C 257.16909,245.67432 257.16909,245.67432 257.16909,245.67432 z " style="stroke:#000000" id="path26"/>
          <path d="M 256.00909,244.94432 C 256.00909,245.54932 255.51809,246.04032 254.91309,246.04032 C 254.30809,246.04032 253.81709,245.54932 253.81709,244.94432 C 253.81709,244.33832 254.30809,243.84832 254.91309,243.84832 C 255.51809,243.84832 256.00909,244.33832 256.00909,244.94432 C 256.00909,244.94432 256.00909,244.94432 256.00909,244.94432 z " style="fill:#ffffff;stroke:#ffffff" id="path28"/>
        </g>
        <g transform="translate(-11.493165,-47.95846)" id="g24917">
          <path d="M 255.59712,261.94132 C 246.55012,263.33332 243.90512,263.05532 240.56412,264.86432 C 233.97712,268.43232 233.8435,271.38719 225.4915,271.24719 C 222.1225,271.19119 220.10312,267.78732 219.26812,263.05532 C 217.87612,265.97832 215.48854,274.01861 223.30412,276.01839 C 226.74227,276.89812 232.5905,274.17083 238.0195,269.29883 C 243.0025,264.82683 246.68912,264.02932 259.91212,263.47232" style="fill:#ed1c24;fill-opacity:1;stroke:#404040;stroke-opacity:1" id="path30"/>
          <path d="M 238.30012,244.66532 C 240.21312,245.97032 248.09712,255.70332 248.67612,258.50432 C 251.54012,259.34432 262.42612,263.26332 263.34612,263.76032 C 261.72712,263.54232 259.37912,264.46932 257.53712,265.60232 C 251.39112,268.25932 248.74512,272.63132 243.93412,271.12832 C 243.15412,270.88432 240.73712,270.26232 241.03012,268.50732 C 243.51612,270.89632 246.98112,269.21532 249.95612,267.51532 C 251.84112,266.43832 252.57712,264.68132 256.82812,263.33532 C 254.55912,262.86632 252.78412,262.01532 247.79912,262.01532 C 238.67012,262.01532 240.14412,257.18832 232.91012,268.31332 C 227.08512,252.14232 235.60512,245.53532 238.30012,244.66532 z " style="fill:#eac102;fill-opacity:1;stroke:#404040;stroke-opacity:1" id="path20"/>
        </g>
      </g>
      <g transform="matrix(-1,0,0,1,599.82724,-0.8929798)" id="g2296">
        <path d="M 280.93893,179.58786 C 280.05693,184.69486 278.84993,186.59886 276.76193,190.77486 C 279.44693,189.58186 281.64693,188.27686 283.32493,186.74786 C 283.51193,190.88686 281.53493,193.31086 276.31493,197.18886 C 280.93893,198.08386 283.47393,197.59886 287.50093,194.50386 C 287.20293,199.61186 285.22693,201.58886 282.87793,203.90086 C 287.23993,205.01886 288.13493,204.53386 291.37993,203.15486 C 290.74593,207.29386 283.91093,208.63586 283.94293,208.66686 C 285.96193,210.60386 299.84272,227.04486 299.66672,251.65186 C 299.62772,257.07786 299.66672,586.76886 299.66672,586.76886 C 299.66672,586.76886 289.56993,576.55086 286.77293,566.41786 C 285.03993,560.13786 287.01593,552.60786 287.01593,552.60786 C 287.01593,552.60786 277.86893,557.37686 268.57193,557.55886 C 262.06093,557.73986 256.85193,553.12186 249.82593,553.33486 C 244.97993,553.42486 240.60393,555.37486 239.89192,560.60286 C 239.10393,566.39386 241.51893,570.71786 245.72693,571.50086 C 249.33892,572.17186 250.26292,571.91986 252.36193,569.56886 C 253.69393,568.07786 253.11792,565.78886 251.18693,564.78186 C 250.40793,564.37486 249.43393,563.98986 246.90293,566.62886 C 246.43592,564.41386 247.44593,562.32986 250.67392,562.29886 C 254.46192,562.26186 257.73793,564.36186 257.57893,569.80986 C 257.73793,574.43986 250.93492,579.47886 245.34392,578.77386 C 232.62492,576.37186 228.84592,561.75786 229.47393,556.36286 C 229.71693,553.57686 231.38293,542.23586 253.36992,537.90486 C 266.89193,535.72186 270.50393,541.43286 280.11093,540.49386 C 289.60593,539.56486 290.34993,534.80286 291.17093,527.61486 C 288.24393,528.77586 284.06093,532.81786 278.32193,533.09686 C 273.61093,532.26186 267.70093,527.18586 267.52893,520.16186 C 267.95793,516.13586 269.47793,513.67386 274.29593,511.68186 C 272.86093,515.94386 273.54693,518.08186 279.60693,518.36386 C 291.32093,516.75986 289.97193,497.73086 289.97193,497.73086 C 271.02793,511.82286 265.16793,514.62986 239.49292,513.97586 C 236.38492,514.08486 230.55292,515.55686 230.44293,521.28086 C 230.55292,526.24186 232.32393,529.18486 237.31193,530.32986 C 240.66492,530.27586 241.23692,529.10386 241.23692,528.04086 C 241.23692,524.03386 237.31193,526.07786 237.31193,526.07786 C 237.31193,526.07786 237.80292,523.57086 240.03793,523.78886 C 242.81793,523.67986 245.39692,526.51086 245.12492,530.98086 C 243.65292,535.77786 239.06093,536.90986 229.78893,536.87186 C 220.13793,535.79586 211.87693,526.68386 215.38793,511.09186 C 208.21392,509.12886 199.72293,508.67886 192.37293,513.31886 C 189.92292,514.98986 185.80292,519.07286 185.98892,529.65186 C 186.76792,537.26186 189.84893,542.12486 195.49093,543.75786 C 200.83693,544.05486 205.29092,543.31186 205.58792,538.56086 C 205.58792,532.32486 201.61593,531.30386 198.77792,531.74086 C 195.72092,532.21086 195.24392,536.91586 195.24392,536.91586 C 195.24392,536.91586 193.38193,535.61386 193.60493,532.68086 C 195.31193,528.56086 197.65693,527.56086 202.07393,527.56086 C 206.93693,527.41286 212.56693,532.36186 211.67593,538.85786 C 210.78492,545.35386 208.58292,550.48486 197.56992,552.36986 C 192.19725,552.51786 186.10526,552.05253 178.55392,542.79386 C 169.38293,527.50786 166.9908,516.16762 178.36493,503.16686 C 186.33392,493.71786 196.90193,489.04286 209.44793,490.45286 C 205.36493,487.85486 204.18693,481.65086 204.54893,476.34786 C 205.59793,468.01086 214.79393,464.76586 223.99992,464.32086 C 232.46292,464.91486 237.42892,470.02386 237.51092,473.82386 C 237.59093,477.49786 233.50193,478.27786 233.50193,478.27786 C 233.50193,478.27786 230.42092,478.09186 230.23593,475.90186 C 233.16793,475.19686 234.61593,473.89786 229.78992,470.70586 C 226.74593,471.07686 223.85092,473.04386 222.81193,479.76286 C 225.33593,488.85686 235.65492,497.95186 252.06193,498.02586 C 269.50893,497.80286 277.36893,490.62586 289.62793,477.08986 C 282.11993,482.42186 274.00193,486.41586 260.15593,487.52986 C 244.16492,487.29486 238.52093,469.89186 239.93193,459.30986 C 243.92993,449.90286 248.63292,447.55186 258.44693,449.93086 C 267.31893,456.31586 260.07993,460.32486 260.07993,460.32486 C 260.07993,460.32486 262.27293,456.48786 256.07093,453.79186 C 252.35892,454.27386 249.61193,455.44886 249.98392,460.60886 C 251.39393,466.65886 257.07293,470.51986 267.65293,471.29886 C 290.55593,471.03986 287.54893,445.90886 287.54893,445.90886 C 287.54893,445.90886 282.94593,452.18286 278.49193,453.48186 C 271.91493,456.01786 265.38793,452.25686 261.86193,448.28486 C 257.80493,443.08386 260.96493,435.03086 267.65293,432.84286 C 270.46793,432.28386 259.26393,437.11186 268.69193,439.82186 C 271.43893,438.96786 275.19093,437.47886 278.63993,428.83386 C 282.26293,417.65886 282.14093,414.83686 277.35493,410.29586 C 275.26893,422.07586 267.79493,428.63686 250.02392,435.82186 C 242.92292,430.91986 235.61992,427.16586 226.81992,424.42286 C 221.62492,412.53286 222.06093,397.07186 232.73393,389.15786 C 232.93892,383.62386 232.14292,379.81886 231.19092,377.27386 C 221.17292,405.60186 212.06293,422.08086 180.08093,441.46486 C 218.76192,411.09486 218.24892,393.54286 223.49992,381.34686 C 208.78793,405.85786 187.32692,443.23286 137.61693,442.71886 C 151.98493,430.09186 166.81392,412.40586 175.18693,397.30386 C 159.00492,411.17386 129.59293,432.74286 102.44592,427.50386 C 136.88993,428.62486 160.04993,402.56986 172.04393,387.20486 C 154.66793,395.30986 128.02892,410.84386 87.28753,403.47086 C 105.38692,394.64286 133.40392,379.27186 146.14292,365.24386 C 123.08392,370.64786 99.360225,382.22786 85.73443,372.92686 C 101.62593,376.47886 114.21192,371.93486 140.32692,362.51086 C 119.89892,360.69386 87.80963,359.57586 71.58863,345.29286 C 83.88753,345.71286 125.38193,338.28386 141.69293,327.35786 C 116.33292,330.70886 88.43753,329.51986 75.36903,319.61886 C 87.14503,323.28686 94.340425,328.01186 135.86693,322.70586 C 120.69793,320.93086 98.051925,318.28586 85.90233,305.58386 C 101.50093,304.58386 123.23692,301.92986 139.75193,296.38186 C 126.19492,295.03086 100.24992,291.46486 95.212425,285.89086 C 114.33592,291.86686 133.56293,293.78686 144.84693,292.02086 C 132.82192,284.19186 112.75393,285.84486 102.52493,259.40986 C 113.70892,263.16886 127.58693,262.97486 139.03093,262.67686 C 139.03093,262.67686 120.51893,251.23486 110.26893,237.93286 C 119.93892,248.53586 143.56392,259.65486 143.56392,259.65486 C 135.87193,247.56686 117.33093,230.96086 120.53193,210.92786 C 128.80392,218.30286 143.96892,234.64386 157.01792,238.67186 L 156.99492,238.64886 C 147.95692,225.69886 143.25893,207.61086 143.67192,201.73486 C 145.23493,206.81686 148.68593,221.34886 160.27693,229.45086 L 160.26192,229.42186 C 155.52192,210.70286 154.20393,195.70786 163.93492,183.22386 C 169.65992,192.19586 174.18492,216.83086 184.41293,222.99586 C 184.90292,220.88286 184.49392,217.59986 189.59492,218.20986 C 194.23493,219.35786 193.47793,220.95486 193.20993,223.36486 C 191.99892,221.22286 192.06193,220.89986 190.12992,220.68686 C 187.83292,220.70186 188.28793,226.43186 189.13692,227.83486 C 189.98692,229.23786 192.23993,231.74686 195.79493,232.62986 C 215.47993,235.96086 217.95593,240.04486 219.34392,248.32886 C 218.79293,253.00686 216.45892,254.58786 214.66692,255.57186 C 211.94893,255.06286 208.17393,255.94886 204.53893,260.62486 C 203.49992,265.24186 203.18292,273.49286 207.79993,274.64786 C 212.41793,275.80186 215.41893,265.18186 222.57592,267.25986 C 228.72393,270.55786 230.02192,276.34786 235.35293,279.20786 C 244.97592,278.55786 241.33892,269.82486 247.93393,261.14786 C 257.48593,248.57886 261.67593,248.07586 261.33993,245.39486 C 261.00493,242.71386 260.12493,241.09486 256.98293,242.04386 C 249.74893,242.93786 253.00992,240.59186 246.33492,240.74186 C 244.43292,241.18886 243.72492,242.86686 243.79893,246.11086 C 241.78592,245.77586 238.72793,240.25686 245.14192,237.31086 C 250.80893,236.30386 252.03993,237.53486 256.77593,236.56486 C 260.16893,232.46386 261.59793,229.25186 258.71493,220.90386 C 253.74292,214.49486 238.19893,211.56986 236.54192,209.91286 C 235.95692,208.25486 231.00193,201.57786 226.26993,196.15286 C 233.46992,189.07286 231.74992,185.95586 241.50693,186.45586 C 272.00493,188.02886 277.04693,185.96586 280.93893,179.58786 z " style="fill:#000000;fill-opacity:1;stroke:#000000;stroke-opacity:1" id="path2298"/>
        <g transform="translate(-11.493165,-47.95846)" id="g2300">
          <path d="M 262.11509,482.47832 C 255.39309,487.01532 196.41109,513.5113 183.13609,519.5603 C 185.32009,521.0723 185.48809,520.9043 189.01009,522.6883 C 194.89909,519.7283 193.90909,521.4553 198.05909,525.1053 C 199.37209,526.2613 200.38109,528.6363 195.06709,534.6843 C 190.19409,540.2293 186.09809,539.0673 182.46409,535.8603 C 179.60709,533.3393 178.93509,532.3313 178.76709,529.4753 C 174.39809,525.7783 176.07809,527.6263 170.53309,525.1053 C 160.61809,527.9623 158.09809,534.6843 153.06709,539.3663 C 154.58209,540.4463 156.22009,542.4983 155.27509,546.3393 C 154.55509,549.2653 152.72809,553.0643 141.71909,548.3723 C 139.84009,547.5713 134.71509,543.1763 136.74909,538.4313 C 138.02209,535.4623 140.92909,534.2523 144.43009,535.0423 C 150.41809,528.8293 146.12509,532.1053 150.47909,528.1523 C 142.73609,526.9093 140.89809,526.1183 135.61909,526.2313 C 133.55509,529.9593 131.66509,530.1853 127.26009,530.5243 C 122.74909,530.8713 119.46509,527.0223 119.13709,520.3883 C 119.01809,517.9853 120.14509,514.0433 125.75009,513.1993 C 132.23009,512.2243 132.79509,514.1443 135.50609,517.5333 C 142.39709,516.8553 145.44709,516.5163 150.64309,515.9513 C 147.59309,512.2243 148.38409,512.5623 145.59109,508.0233 C 140.70309,507.7363 139.12109,508.3833 135.81409,505.7233 C 134.27409,504.4843 131.56709,502.5313 135.84509,496.5213 C 140.59009,489.8573 148.27109,493.9233 149.51409,494.8273 C 153.19709,497.5063 149.58609,500.3423 151.88609,504.6553 C 157.08209,508.0443 160.13209,509.5123 165.14409,513.4873 C 183.62909,510.3033 235.06009,475.08432 241.11009,470.88332 C 252.03209,473.57232 253.88109,474.24432 262.11509,482.47832 z " style="fill:#eac102;fill-opacity:1;stroke:#404040;stroke-opacity:1" id="path2302"/>
          <path d="M 141.45409,494.64429 C 134.31109,489.78729 121.45409,496.21629 126.59709,503.21629 C 129.74009,498.50129 131.74009,499.07329 135.31109,501.50129 C 142.13609,500.35829 141.45409,494.64429 141.45409,494.64429 z " style="fill:#ed1c24;fill-opacity:1;stroke:#404040;stroke-opacity:1" id="path2304"/>
          <path d="M 122.36709,517.79629 C 113.91809,519.59529 109.66869,533.32729 118.28109,534.45529 C 117.05009,528.92429 118.84609,527.87529 123.07009,526.97529 C 125.88309,522.93029 122.36709,517.79629 122.36709,517.79629 z " style="fill:#ed1c24;fill-opacity:1;stroke:#404040;stroke-opacity:1" id="path2306"/>
          <path d="M 140.16909,542.35829 C 133.52209,547.87529 137.49909,560.00229 145.65009,557.00129 C 141.99209,552.67429 144.13109,550.11729 147.45409,547.35829 C 145.52509,542.19329 140.16909,542.35829 140.16909,542.35829 z " style="fill:#ed1c24;fill-opacity:1;stroke:#404040;stroke-opacity:1" id="path2308"/>
          <path d="M 194.93009,529.14629 C 201.57709,534.66329 197.60009,546.79029 189.44909,543.78929 C 193.10709,539.46229 190.96809,536.90429 187.64409,534.14629 C 189.57309,528.98129 194.93009,529.14629 194.93009,529.14629 z " style="fill:#ed1c24;fill-opacity:1;stroke:#404040;stroke-opacity:1" id="path2310"/>
        </g>
        <g transform="translate(-11.493165,-47.95846)" id="g2312">
          <path d="M 256.00909,241.81632 C 257.80209,241.81632 262.58709,240.57532 265.77909,239.96732 C 265.90209,244.28232 258.93109,248.99232 254.53009,248.13332 C 251.41309,247.52532 249.79409,244.98332 250.36609,243.29632 C 252.57609,242.50232 254.21709,241.81632 256.00909,241.81632 z " style="fill:#ffffff;stroke:#ffffff;stroke-opacity:1" id="path2314"/>
          <path d="M 257.16909,245.67432 C 257.16909,247.20832 255.99109,248.45132 254.53809,248.45132 C 253.08509,248.45132 251.90709,247.20832 251.90709,245.67432 C 251.90709,244.14132 253.08509,242.89732 254.53809,242.89732 C 255.99109,242.89732 257.16909,244.14132 257.16909,245.67432 C 257.16909,245.67432 257.16909,245.67432 257.16909,245.67432 z " style="stroke:#000000" id="path2316"/>
          <path d="M 256.00909,244.94432 C 256.00909,245.54932 255.51809,246.04032 254.91309,246.04032 C 254.30809,246.04032 253.81709,245.54932 253.81709,244.94432 C 253.81709,244.33832 254.30809,243.84832 254.91309,243.84832 C 255.51809,243.84832 256.00909,244.33832 256.00909,244.94432 C 256.00909,244.94432 256.00909,244.94432 256.00909,244.94432 z " style="fill:#ffffff;stroke:#ffffff" id="path2318"/>
        </g>
        <g transform="translate(-11.493165,-47.95846)" id="g2320">
          <path d="M 255.59712,261.94132 C 246.55012,263.33332 243.90512,263.05532 240.56412,264.86432 C 233.97712,268.43232 233.8435,271.38719 225.4915,271.24719 C 222.1225,271.19119 220.10312,267.78732 219.26812,263.05532 C 217.87612,265.97832 215.48854,274.01861 223.30412,276.01839 C 226.74227,276.89812 232.5905,274.17083 238.0195,269.29883 C 243.0025,264.82683 246.68912,264.02932 259.91212,263.47232" style="fill:#ed1c24;fill-opacity:1;stroke:#404040;stroke-opacity:1" id="path2322"/>
          <path d="M 238.30012,244.66532 C 240.21312,245.97032 248.09712,255.70332 248.67612,258.50432 C 251.54012,259.34432 262.42612,263.26332 263.34612,263.76032 C 261.72712,263.54232 259.37912,264.46932 257.53712,265.60232 C 251.39112,268.25932 248.74512,272.63132 243.93412,271.12832 C 243.15412,270.88432 240.73712,270.26232 241.03012,268.50732 C 243.51612,270.89632 246.98112,269.21532 249.95612,267.51532 C 251.84112,266.43832 252.57712,264.68132 256.82812,263.33532 C 254.55912,262.86632 252.78412,262.01532 247.79912,262.01532 C 238.67012,262.01532 240.14412,257.18832 232.91012,268.31332 C 227.08512,252.14232 235.60512,245.53532 238.30012,244.66532 z " style="fill:#eac102;fill-opacity:1;stroke:#404040;stroke-opacity:1" id="path2324"/>
        </g>
      </g>
    </g>
  </g>
</svg>