<?xml version="1.0" encoding="UTF-8" standalone="no"?>
<!-- Created with Inkscape (http://www.inkscape.org/) -->
<svg xmlns:svg="http://www.w3.org/2000/svg" xmlns="http://www.w3.org/2000/svg" version="1.0" width="1655.8085" height="808.35205" id="svg1958">
  <defs id="defs1961"/>
  <path d="m 1549.1479,805.65995 c -38.2902,-9.28274 -43.9343,-84.31012 9.2433,-88.09227 64.3765,-35.10694 2.8215,-128.81936 -30.5836,-162.93212 -13.5934,35.12012 58.4161,76.89692 36.4343,124.88907 -15.0651,37.60936 -49.1189,46.81923 -79.3628,59.23168 2.9766,48.44825 -65.9,30.72557 -97.3252,40.84962 -31.2307,-7.74078 -49.3195,-79.04664 -4.931,-88.86337 48.4922,18.43821 146.271,-25.24667 87.0694,-80.36407 -55.6913,-35.91002 -129.5247,-16.55982 -192.6025,-31.35731 -60.9312,-11.59016 -120.971,-46.86285 -159.2107,-95.01879 -95.7344,-1.8866 -194.0755,4.95619 -285.73532,36.34245 -79.09543,10.71532 -158.18922,24.23815 -238.27596,20.26112 -33.16113,-7.789 -54.09305,31.07831 -87.44524,23.92621 -82.56637,-0.61983 -165.36948,-4.32198 -247.76671,-0.0219 -51.91062,27.02754 -117.57166,31.46113 -159.332478,74.3188 -16.82127,33.67652 -97.1576208,29.32443 -78.47607,-18.06881 21.407715,-42.74664 83.216678,-49.80638 123.830048,-72.48689 57.36695,-24.2769 114.90617,-55.79156 179.43735,-47.94832 45.03902,-6.87196 123.66666,-3.33897 146.0144,-26.18129 -86.14666,22.84055 -178.52858,8.00127 -264.96079,31.18377 -53.224,31.60211 -113.082258,58.31386 -175.222551,58.28556 -67.334869,-8.16151 -7.084592,-96.56035 43.487713,-76.25153 57.473468,-5.12648 110.107608,-27.68917 163.437838,-48.37706 57.33145,-15.53958 143.50434,5.18647 184.72292,-39.8403 -41.1597,30.3596 -78.57728,-16.01614 -82.54632,-53.4071 -34.16852,-36.08746 -92.80175,-2.99142 -136.60226,-5.54034 -42.34467,17.32463 -79.42817,7.8501 -108.296078,-9.59079 -60.45584,4.54089 -78.885455,-76.63395 -8.42335,-78.69455 73.215968,3.69543 94.618238,-73.8901 155.696218,-91.69657 57.71981,5.07079 43.88451,-134.975333 107.88351,-98.946603 8.65641,34.199231 -23.86474,97.171213 15.00047,38.186011 16.8058,-44.829961 86.76025,-49.143199 63.69254,13.432162 -6.632,39.89001 -62.3602,75.31121 5.37292,82.2446 38.77284,-32.5838 103.76967,-20.44096 102.69976,38.578 53.89858,1.83292 108.83277,-3.64569 162.30746,2.51243 44.75899,9.75028 75.42198,58.47534 124.2285,51.44872 170.8998,6.52438 342.09028,8.48244 513.05648,5.33322 47.182,-21.36585 91.3838,-59.74231 110.9229,-108.98698 26.1928,-50.23333 -17.6547,-111.649402 -67.0951,-125.044149 -31.598,-2.384994 -122.8422,44.321069 -102.1855,-19.048528 49.6217,-53.352152 144.063,-53.126545 194.4193,0.04675 71.6822,52.973395 66.5998,161.345687 26.2649,232.045017 -12.7588,59.20322 -107.7515,66.69851 -108.8444,117.20357 7.7319,53.15961 66.5723,77.90485 113.9664,81.73 65.3076,-24.00915 91.4885,52.51607 116.2067,99.00338 28.8295,53.16277 54.0279,121.40761 20.4706,177.9902 -8.5732,31.83682 -45.1286,71.10508 -90.642,57.71731 z" id="path4830" style="fill:#000000"/>
  <path d="m 1592.2498,790.22442 c 21.3193,-28.89051 41.8366,-39.3617 46.7284,-85.31298 9.5116,-64.43001 -30.3983,-122.25296 -58.6138,-176.80548 -14.4734,-42.55498 -45.1629,-53.56681 -84.9853,-41.41534 -52.5831,-10.2123 -114.3699,-36.88825 -121.5578,-97.08466 -13.7804,-56.61481 83.3829,-55.598 99.6321,-106.0764 44.5046,-60.24887 54.8518,-151.73758 9.3487,-214.340482 -43.5321,-51.964609 -119.9966,-72.6650891 -179.1118,-34.167514 -47.5882,51.479624 57.3984,-0.227662 82.1449,9.467724 55.3893,18.301434 103.4655,85.712572 75.3517,143.427682 -20.3211,53.38706 -66.855,93.78786 -117.0249,118.29771 -53.5501,7.41482 -109.0231,0.5429 -163.146,3.20154 -131.8041,-1.94313 -264.84728,0.78873 -395.85551,-10.11565 -45.00866,-22.80156 -85.74649,-62.03641 -140.84895,-50.93788 -36.79227,-0.35339 -73.58511,-0.64377 -110.37767,-0.96533 -15.53296,45.75037 -50.51491,82.59861 -82.92063,118.36628 -30.14433,22.75303 -7.62934,77.48662 -66.13412,69.84232 -43.56188,10.36014 -88.46959,13.88384 -131.98216,14.10269 -56.82745,17.97443 -110.27107,47.60289 -170.784138,51.12316 -29.281455,-0.77455 -82.07075079,15.94208 -54.425297,31.83607 -29.7601108,38.56048 34.375127,-20.37549 18.289361,16.71997 63.587814,-5.95887 117.764454,-42.2846 175.998194,-63.29749 84.40728,-17.37097 172.79098,-5.85338 256.06625,-28.4844 37.61412,29.51019 -30.65207,51.17583 -57.22158,47.98138 -61.34369,13.58708 -126.31461,1.50045 -185.89652,20.79869 -66.44481,29.41977 -136.391868,52.59343 -198.427985,90.72373 4.803376,17.0438 19.211453,1.17276 0.05412,25.09984 29.069397,-13.81742 14.852802,3.31361 35.964247,-0.10147 34.563738,-42.74927 88.028478,-54.36687 136.615508,-74.10398 29.83767,-15.10429 60.53832,-24.46195 94.01839,-20.39819 75.02898,-1.31077 150.33685,3.5204 225.16345,0.14308 24.72203,-21.87955 54.63879,-24.21979 85.89192,-22.10975 76.97658,2.17715 153.36475,-11.0295 228.93874,-23.50204 92.94443,-31.76032 192.89608,-34.52558 289.80288,-33.08219 6.706,44.91672 74.8551,65.59755 111.769,86.20319 61.6983,18.12829 127.8262,16.37725 191.547,20.86021 39.1562,5.30378 66.1985,-20.10386 95.9696,-38.13925 32.9479,11.53406 34.3168,52.51011 52.1746,77.62675 36.8173,49.78022 14.3711,113.43366 -45.5256,129.1953 -21.9851,23.00376 40.0706,8.09176 4.1992,39.52422 16.9742,24.94709 32.8807,-33.30809 35.4028,7.28048 l 3.4301,0 10.3386,-1.38154 z" id="path4828" style="fill:#ffffff;fill-opacity:1"/>
  <path d="m 1418.4979,761.85596 c -2.4948,-8.74261 11.7392,-19.52816 15.6946,-8.12482 10.7142,3.08318 22.8649,4.54289 33.2426,-0.43714 5.7337,-9.59371 -0.043,-23.95911 11.3324,-30.61993 8.5335,-7.25461 20.5037,-8.33039 31.2133,-7.01942 12.7575,-2.8122 17.1977,-16.90433 27.1403,-23.83278 9.4087,-8.71459 15.7496,-21.72536 13.1621,-34.72654 -1.975,-22.64948 -13.8581,-42.74359 -25.9167,-61.44042 -6.4855,-6.45855 -9.1777,-18.05999 -19.3461,-19.73676 -10.1375,2.50073 -18.6403,10.2225 -29.496,11.79625 -11.3837,3.42338 6.0473,12.24843 9.9717,16.49578 11.0618,10.16557 14.503,25.60036 18.2234,39.55637 2.879,16.65011 -5.9452,34.05379 -20.6975,42.11556 -12.4226,7.96118 -25.4872,16.18707 -40.172,18.92738 -16.5939,1.99846 -33.4345,2.63345 -50.0439,0.57231 -13.2227,-2.79932 -21.1938,9.93904 -21.854,21.4614 -2.8691,8.67513 6.0704,14.24145 11.4438,6.19058 3.939,-6.62268 13.7095,-2.84437 7.1687,3.69853 -5.2365,7.61782 -8.0521,19.7106 -0.6479,26.85086 8.3674,2.46581 18.3899,0.85096 27.2989,0.63037 1.0296,-0.44226 1.9065,-1.28737 2.2823,-2.35758 z" id="path4826" style="fill:#ffffff;fill-opacity:1"/>
  <path d="m 402.87912,389.9743 c 22.94714,-12.08127 35.66353,-35.82286 53.95836,-53.20401 19.90117,-22.51227 41.57847,-44.71223 53.00161,-73.03544 4.16999,-17.65405 8.14559,-37.69331 -1.13021,-54.44037 -8.10484,-12.2645 -27.38552,-18.42828 -39.29101,-7.98538 -8.08603,8.75185 -2.34193,20.96762 -2.7701,31.32396 -1.35465,31.23239 -17.14155,61.07283 -41.3245,80.69635 C 410.48252,326.26 395.3518,339.10246 383.1,354.58786 c -7.18622,6.08324 -20.14933,13.13017 -15.84847,24.44833 5.41704,12.8382 23.95802,18.5334 35.62759,10.93811 z" id="path4824" style="fill:#ffffff;fill-opacity:1"/>
  <path d="m 375.35919,341.04016 c 14.2677,-18.37223 33.6561,-32.13135 50.18213,-48.43738 12.30383,-10.59085 19.08597,-27.4041 23.31103,-42.70489 1.77816,-14.46883 8.65227,-33.78353 -12.70106,-34.52052 -20.54725,-10.10662 -41.73584,-19.15382 -61.39652,-30.92262 -7.47263,-14.63932 18.10669,-24.76634 23.67506,-37.46232 12.81501,-19.48609 20.56097,-44.68115 13.00198,-67.540222 -16.94585,-1.6396 -25.63656,18.02532 -35.36685,28.972752 -14.68327,18.03803 -26.21464,38.57327 -41.81882,55.81451 -14.12112,2.51887 -29.72751,-0.25431 -44.57885,1.38093 -15.78124,1.73739 -30.55475,9.20944 -47.33382,9.63603 -17.86047,1.83859 -32.30471,15.15966 -43.82243,27.97857 -13.32476,15.67395 -22.16331,37.1455 -42.58685,44.94656 -20.77038,9.05251 -44.24481,9.34331 -65.328758,17.76829 -13.44993,6.0441 -40.111148,6.95994 -39.475583,26.03587 2.364222,15.88935 38.043183,-7.11205 22.715073,9.62024 -11.63827,2.25203 -0.54329,7.98401 3.47881,11.97546 4.59716,4.29954 12.03394,0.98447 17.84661,2.02454 21.604988,1.54448 41.774128,-7.87712 63.072448,-10 0.93326,15.74213 -28.37814,7.93371 -32.2943,23.26937 -0.10006,14.78082 28.36438,5.37214 38.98682,1.68895 53.56743,-8.0824 107.59339,-15.27936 161.87598,-14.95832 14.6895,11.07101 26.94279,25.1418 42.56003,35.01219 2.37441,-2.94144 4.28831,-6.21377 5.99787,-9.57799 z" id="path4822" style="fill:#ffffff;fill-opacity:1"/>
  <path d="m 232.37912,247.42918 c -6.18744,-4.72988 -11.0271,-10.96024 -16.96478,-15.97331 -2.13753,-1.99345 -5.13843,-1.97828 -7.85233,-2.2743 -3.67975,-0.16462 -2.06426,-5.21974 1.13141,-4.45107 2.45674,-0.11739 4.14928,-2.10662 6.42705,-2.63851 7.11363,-1.11502 14.3532,-0.9594 21.53236,-1.25191 5.95527,-0.0471 11.94739,-0.58592 17.87996,0.0933 3.02375,0.42015 4.8991,3.43691 7.94617,3.81732 3.64138,1.7427 6.89504,4.25859 9.87303,6.96039 1.94889,1.77692 2.26258,5.3645 -0.18346,6.8613 -2.26604,1.73492 -5.59295,0.23525 -7.65958,2.3875 -2.01753,2.28629 -3.98567,4.77223 -6.84047,6.0785 -4.22129,1.50659 -8.82571,1.34614 -13.25053,1.52988 -4.00297,-0.10191 -8.20322,0.1701 -12.03883,-1.13912 z" id="path4820" style="fill:#000000"/>
  <path d="m 248.95444,238.55235 c 1.2477,-1.53368 2.28454,-3.54743 1.79813,-5.57369 -0.72428,-1.29212 -2.67186,-1.30032 -3.68301,-0.35559 -2.5956,1.58089 -3.99347,4.6906 -6.93169,5.77729 -1.21717,0.72701 -3.09946,-0.17069 -3.13747,-1.63287 -0.51895,-2.31909 -0.0281,-4.8364 -1.11512,-7.02677 -0.97711,-1.24805 -2.79055,-1.10856 -4.14007,-0.65444 -2.00629,0.55126 -3.96478,1.40005 -5.58378,2.72753 -0.39734,1.22852 0.6589,2.23765 1.44667,3.02161 2.19122,2.31626 4.21773,4.96743 7.16881,6.36375 3.01232,0.79186 6.11223,0.006 9.15648,-0.0811 1.88332,-0.2508 3.93172,-0.88554 5.02105,-2.56573 z" id="path4818" style="fill:#ffffff;fill-opacity:1"/>
  <path d="m 346.62912,171.22319 c -3.6745,-1.60705 -3.73996,-7.68759 -0.12507,-9.4004 16.10062,-17.90822 28.07756,-38.95358 42.71562,-57.98757 0.31461,-4.666072 8.37995,-0.53836 4.98072,2.51395 -14.76099,20.82895 -28.90265,42.37984 -40.10526,65.36906 -1.67391,2.56709 -6.15446,2.28672 -7.46601,-0.49504 z" id="path4816" style="fill:#000000"/>
  <path d="m 318.30848,144.35596 c 3.51896,-8.01943 7.55405,-15.85451 9.87882,-24.33801 3.04499,-10.18087 5.7691,-20.482372 7.73275,-30.928982 0.93128,-5.97546 0.30826,-12.07078 -0.379,-18.0355 -0.67809,-4.200359 -5.65628,-1.41425 -8.08039,-0.56381 -5.0372,2.60012 -8.07974,7.55145 -10.63069,12.40217 -7.05801,12.95971 -13.83322,26.103702 -19.65615,39.669802 -2.947,8.02248 -6.02259,16.00153 -9.63387,23.75175 -2.24738,4.13488 3.39673,4.43212 6.17449,4.26619 7.2654,0.0518 14.53131,0.0155 21.79694,0.0264 0.93237,-2.08333 1.86473,-4.16667 2.7971,-6.25 z" id="path4812" style="fill:#ffffff;fill-opacity:1"/>
</svg>