<?xml version="1.0" encoding="UTF-8" standalone="no"?>
<svg xmlns:dc="http://purl.org/dc/elements/1.1/" xmlns:cc="http://web.resource.org/cc/" xmlns:rdf="http://www.w3.org/1999/02/22-rdf-syntax-ns#" xmlns:svg="http://www.w3.org/2000/svg" xmlns="http://www.w3.org/2000/svg" xmlns:sodipodi="http://sodipodi.sourceforge.net/DTD/sodipodi-0.dtd" xmlns:inkscape="http://www.inkscape.org/namespaces/inkscape" height="178.1412" width="166.01544" version="1.0" id="svg2" sodipodi:version="0.32" inkscape:version="0.45.1" sodipodi:docname="Colombe.svg" sodipodi:docbase="E:\Mes documents\Mes images\Héraldique\Meubles\Animaux\Oiseaux" inkscape:export-filename="/Users/olivier/Desktop/Blason Rouge/Blason_Vide_3D.png" inkscape:export-xdpi="144" inkscape:export-ydpi="144" inkscape:output_extension="org.inkscape.output.svg.inkscape">
  <metadata id="metadata49">
    <rdf:RDF>
      <cc:Work rdf:about="">
        <dc:format>image/svg+xml</dc:format>
        <dc:type rdf:resource="http://purl.org/dc/dcmitype/StillImage"/>
        <dc:title>Gabarit d'un blason en pointe pour le projet Blasons de Wikipédia</dc:title>
        <dc:date>03-AUG-2006</dc:date>
        <dc:creator>
          <cc:Agent>
            <dc:title>Jérôme BLUM (wagner51)</dc:title>
          </cc:Agent>
        </dc:creator>
        <cc:license rdf:resource="http://web.resource.org/cc/PublicDomain"/>
        <dc:language>fr</dc:language>
        <dc:subject>
          <rdf:Bag>
            <rdf:li>gabarit modèle blason projet wikipédia</rdf:li>
          </rdf:Bag>
        </dc:subject>
      </cc:Work>
      <cc:License rdf:about="http://web.resource.org/cc/PublicDomain">
        <cc:permits rdf:resource="http://web.resource.org/cc/Reproduction"/>
        <cc:permits rdf:resource="http://web.resource.org/cc/Distribution"/>
        <cc:permits rdf:resource="http://web.resource.org/cc/DerivativeWorks"/>
      </cc:License>
    </rdf:RDF>
  </metadata>
  <sodipodi:namedview inkscape:window-height="723" inkscape:window-width="1024" inkscape:pageshadow="2" inkscape:pageopacity="0.0" guidetolerance="10.0" gridtolerance="10.0" objecttolerance="10.0" borderopacity="1.0" bordercolor="#666666" pagecolor="#ffffff" id="base" showgrid="false" height="660px" inkscape:zoom="2.9695544" inkscape:cx="83.00772" inkscape:cy="89.0706" inkscape:window-x="-4" inkscape:window-y="-4" inkscape:current-layer="layer4"/>
  <desc id="desc4">Flag of Canton of Valais (Wallis)</desc>
  <defs id="defs6"/>
  <g inkscape:groupmode="layer" id="layer3" inkscape:label="Fond écu" style="display:inline" transform="translate(-200.15468,-373.35301)"/>
  <g inkscape:groupmode="layer" id="layer4" inkscape:label="Meubles" transform="translate(-200.15468,-373.35301)">
    <g style="stroke:#000000;stroke-width:3.41727042;stroke-miterlimit:4;stroke-dasharray:none;stroke-opacity:1" transform="matrix(0.7315768,-1.3428436e-3,1.3428436e-3,0.7315768,-327.32021,-209.79648)" id="g2249">
      <path sodipodi:nodetypes="cccccccc" id="path2251" d="M 807.62174,1003.8594 C 798.96724,1009.1903 783.75121,1013.177 778.45063,1014.5902 C 792.76401,1013.0115 798.59751,1016.8391 810.29272,1009.2819 C 809.50424,1012.7798 818.4951,1011.3804 824.88691,1015.4834 C 821.25358,1010.0496 813.45828,1007.7699 815.24431,1005.3786 L 815.80952,1000.3105 L 809.86544,997.02348 C 809.62869,999.6758 809.814,1001.3786 807.62174,1003.8594 z " style="fill:#e20909;fill-opacity:1;fill-rule:evenodd;stroke:#000000;stroke-width:3.41727042;stroke-linecap:butt;stroke-linejoin:miter;stroke-miterlimit:4;stroke-dasharray:none;stroke-opacity:1"/>
      <path style="fill:#ffffff;fill-opacity:1;fill-rule:evenodd;stroke:#000000;stroke-width:3.41727042;stroke-linecap:butt;stroke-linejoin:miter;stroke-miterlimit:4;stroke-dasharray:none;stroke-opacity:1" d="M 799.86077,907.14153 C 801.60441,906.68479 814.05452,921.99472 818.23307,935.24524 C 820.61442,942.79668 825.45973,949.20775 824.02591,950.64157 C 823.72329,956.59466 819.62474,959.51729 818.25461,968.50083 C 817.16998,975.61242 817.63915,994.052 815.94469,1001.0625 L 809.88377,997.02193 C 810.31972,987.4344 810.22379,968.9762 811.90408,953.16695 C 798.2486,938.18302 778.62454,930.88713 775.53295,916.40828" id="path2253" sodipodi:nodetypes="cscscccc"/>
    </g>
    <g style="stroke:#000000;stroke-width:3.41727066;stroke-miterlimit:4;stroke-dasharray:none;stroke-opacity:1" transform="matrix(0.7269008,-8.259306e-2,8.259306e-2,0.7269008,-391.28257,-137.20402)" id="g2287">
      <path sodipodi:nodetypes="cccccccc" id="path2289" d="M 807.62174,1003.8594 C 798.6407,1008.5843 788.17517,1011.6667 778.78848,1015.246 C 796.56219,1015.5807 796.55716,1018.1576 810.29272,1009.2819 C 809.50424,1012.7798 818.92958,1012.5625 825.32139,1016.6655 C 821.68806,1011.2317 813.45828,1007.7699 815.24431,1005.3786 L 815.80952,1000.3105 L 809.86544,997.02348 C 809.62869,999.6758 809.814,1001.3786 807.62174,1003.8594 z " style="fill:#e20909;fill-opacity:1;fill-rule:evenodd;stroke:#000000;stroke-width:3.41727066;stroke-linecap:butt;stroke-linejoin:miter;stroke-miterlimit:4;stroke-dasharray:none;stroke-opacity:1"/>
      <path style="fill:#ffffff;fill-opacity:1;fill-rule:evenodd;stroke:#000000;stroke-width:3.41727066;stroke-linecap:butt;stroke-linejoin:miter;stroke-miterlimit:4;stroke-dasharray:none;stroke-opacity:1" d="M 799.86077,907.14153 C 801.60441,906.68479 814.05452,921.99472 818.23307,935.24524 C 820.61442,942.79668 825.45973,949.20775 824.02591,950.64157 C 823.72329,956.59466 819.62474,959.51729 818.25461,968.50083 C 817.16998,975.61242 817.63915,994.052 815.94469,1001.0625 L 809.88377,997.02193 C 810.31972,987.4344 810.22379,968.9762 811.90408,953.16695 C 798.2486,938.18302 778.62454,930.88713 775.53295,916.40828" id="path2291" sodipodi:nodetypes="cscscccc"/>
    </g>
    <path style="fill:#ffffff;fill-opacity:1;fill-rule:evenodd;stroke:#000000;stroke-width:2.5;stroke-linecap:butt;stroke-linejoin:miter;stroke-miterlimit:4;stroke-dasharray:none;stroke-opacity:1" d="M 228.58111,374.60305 C 222.04707,374.58757 216.90517,379.10953 214.67486,386.7593 C 214.15345,388.54775 212.44582,389.93571 211.20611,391.66555 C 211.42262,391.97641 219.31241,397.24144 221.95611,400.72805 C 242.99643,430.16008 221.96431,459.83093 240.33887,478.91844 C 266.5656,506.13269 289.51738,498.0459 304.75,513.125 C 305.00549,513.13962 305.248,513.14731 305.5,513.15625 C 309.3473,522.8661 312.18947,534.0146 319.5,542.78125 C 325.34064,549.78524 336.28088,554.984 327.59375,543.5 C 338.42669,554.54128 339.90192,547.03675 335.34375,541.78125 C 343.46595,551.09066 351.87424,552.4845 342.625,541.6875 C 354.94394,551.16966 355.22421,546.56496 347.6875,539.71875 C 359.82241,547.36733 361.42149,541.62416 352.125,535.28125 C 362.08277,540.78793 366.90179,535.47875 356.21875,530.28125 C 368.13969,534.6502 366.14781,529.78884 360.125,525.03125 C 355.13153,521.08677 331.83163,510.91355 326.03125,508.71875 C 324.52273,505.9438 322.91261,503.56455 321.25,501.5 C 321.49722,498.39866 321.04168,494.57683 319.75,489.9375 C 318.15073,436.02635 288.9884,429.01852 254.45611,395.4468 C 248.01618,387.31932 243.98378,381.44988 239.76861,378.5718 C 235.80446,375.8651 232.0037,374.61116 228.58111,374.60305 z " id="path2239" sodipodi:nodetypes="csccsccsccccccsccccsc"/>
    <path style="fill:#e20909;fill-opacity:1;fill-rule:evenodd;stroke:#000000;stroke-width:2.5;stroke-linecap:round;stroke-linejoin:round;stroke-miterlimit:4;stroke-dasharray:none;stroke-opacity:1" d="M 217.78289,392.11845 L 216.4253,396.20999 C 211.45966,395.45303 205.89988,395.92299 201.40468,397.52826 C 206.79149,392.76118 212.17275,392.51655 217.78289,392.11845 z " id="path2243" sodipodi:nodetypes="ccccc"/>
    <path sodipodi:type="arc" style="fill:#ffffff;fill-opacity:1;stroke:#000000;stroke-width:6.024652;stroke-linejoin:miter;stroke-miterlimit:4;stroke-dasharray:none;stroke-opacity:1" id="path2245" sodipodi:cx="552.21405" sodipodi:cy="255.86182" sodipodi:rx="7.5871706" sodipodi:ry="7.5871706" d="M 559.80122 255.86182 A 7.5871706 7.5871706 0 1 1  544.62688,255.86182 A 7.5871706 7.5871706 0 1 1  559.80122 255.86182 z" transform="matrix(-0.4169127,-0.1069843,-7.3669179e-2,0.3941156,477.36114,346.4608)"/>
    <path style="fill:#e20909;fill-opacity:1;fill-rule:evenodd;stroke:#000000;stroke-width:2.5;stroke-linecap:round;stroke-linejoin:round;stroke-miterlimit:4;stroke-dasharray:none;stroke-opacity:1" d="M 214.5452,388.22948 L 217.78289,392.11845 C 212.17275,392.51655 206.79149,392.76118 201.40468,397.52826 C 203.8637,390.22777 211.72897,390.61043 214.5452,388.22948 z " id="path2247" sodipodi:nodetypes="ccccc"/>
    <g id="g2303" transform="matrix(0.9748894,0.2226894,-0.2226894,0.9748894,163.16099,18.407016)" style="stroke:#000000;stroke-width:2.5;stroke-miterlimit:4;stroke-dasharray:none;stroke-opacity:1">
      <path sodipodi:nodetypes="cscccc" id="path2295" d="M 180.13417,386.40935 C 167.48245,408.70845 190.82221,420.56956 210.20509,426.13759 C 221.56209,429.40008 232.57363,433.30372 243.44319,437.8015 C 246.38235,436.45482 251.97372,437.21802 253.12589,434.44979 C 252.16613,431.22677 254.39209,430.42644 256.91438,429.41523 C 257.14115,428.73486 257.36792,428.05447 257.59466,427.37409" style="fill:none;fill-rule:evenodd;stroke:#000000;stroke-width:2.5;stroke-linecap:butt;stroke-linejoin:miter;stroke-miterlimit:4;stroke-dasharray:none;stroke-opacity:1;display:inline"/>
      <path sodipodi:nodetypes="ccc" id="path2297" d="M 195.63969,410.55193 C 214.47834,418.46891 234.01915,425.68367 250.8914,435.56704 L 251.63621,437.05669" style="fill:none;fill-rule:evenodd;stroke:#000000;stroke-width:2.5;stroke-linecap:butt;stroke-linejoin:miter;stroke-miterlimit:4;stroke-dasharray:none;stroke-opacity:1;display:inline"/>
      <path sodipodi:nodetypes="cc" id="path2299" d="M 213.51521,410.72487 C 227.17139,416.90299 240.89293,422.88482 253.87067,431.09818" style="fill:none;fill-rule:evenodd;stroke:#000000;stroke-width:2.5;stroke-linecap:butt;stroke-linejoin:miter;stroke-miterlimit:4;stroke-dasharray:none;stroke-opacity:1;display:inline"/>
      <path sodipodi:nodetypes="cc" id="path2301" d="M 232.26333,410.63454 C 239.61616,413.97446 247.05884,417.67367 255.10473,423.78562" style="fill:none;fill-rule:evenodd;stroke:#000000;stroke-width:2.5;stroke-linecap:butt;stroke-linejoin:miter;stroke-miterlimit:4;stroke-dasharray:none;stroke-opacity:1;display:inline"/>
    </g>
  </g>
  <g inkscape:groupmode="layer" id="layer2" inkscape:label="Reflet final" transform="translate(-200.15468,-373.35301)"/>
  <g inkscape:groupmode="layer" id="layer1" inkscape:label="Contour final" transform="translate(-200.15468,-373.35301)"/>
</svg>