<?xml version="1.0" encoding="UTF-8"?>
<svg xmlns="http://www.w3.org/2000/svg" width="110" height="90" viewBox="-55 -45 110 90">
	<g style="fill:#fff;stroke:#000;stroke-width:2">
		<path d="m-25-41 25 36 25-36z"/>
		<path d="m0-42c-1.5 0-4 2-4 2-15 13-30 23-46 37-4 4-3 10 6 16 3 10 0 14 16 20 10 10 12 10 28 8 16 2 18 2 28-8 16-6 13-10 16-20 9-6 10-12 6-16-16-14-31-24-46-37 0 0-2.5-2-4-2z"/>
		<path d="m-20-24c15 7 25 7 40 0"/>
		<path d="m-44 13c9-10 12-10 26-27m-10 47c2-9 16-38 20-43m8 51v-50m44 22c-9-10-12-10-26-27m10 47c-2-9-16-38-20-43" fill="none"/>
	</g>
</svg>