<?xml version="1.0" encoding="UTF-8" standalone="no"?>
<!-- Created with Inkscape (http://www.inkscape.org/) -->
<svg xmlns:dc="http://purl.org/dc/elements/1.1/" xmlns:cc="http://creativecommons.org/ns#" xmlns:rdf="http://www.w3.org/1999/02/22-rdf-syntax-ns#" xmlns:svg="http://www.w3.org/2000/svg" xmlns="http://www.w3.org/2000/svg" xmlns:xlink="http://www.w3.org/1999/xlink" xmlns:sodipodi="http://sodipodi.sourceforge.net/DTD/sodipodi-0.dtd" xmlns:inkscape="http://www.inkscape.org/namespaces/inkscape" version="1.0" width="561.03723" height="723.01489" id="svg1923" inkscape:version="0.47 r22583" sodipodi:docname="Héraldique meuble lion.svg">
  <metadata id="metadata72">
    <rdf:RDF>
      <cc:Work rdf:about="">
        <dc:format>image/svg+xml</dc:format>
        <dc:type rdf:resource="http://purl.org/dc/dcmitype/StillImage"/>
        <dc:title/>
      </cc:Work>
    </rdf:RDF>
  </metadata>
  <sodipodi:namedview pagecolor="#ffffff" bordercolor="#666666" borderopacity="1" objecttolerance="10" gridtolerance="10" guidetolerance="10" inkscape:pageopacity="0" inkscape:pageshadow="2" inkscape:window-width="1045" inkscape:window-height="978" id="namedview70" showgrid="false" inkscape:zoom="1" inkscape:cx="233.96436" inkscape:cy="364.73046" inkscape:window-x="761" inkscape:window-y="17" inkscape:window-maximized="0" inkscape:current-layer="layer1"/>
  <defs id="defs1926">
    <inkscape:perspective sodipodi:type="inkscape:persp3d" inkscape:vp_x="0 : 407.14844 : 1" inkscape:vp_y="0 : 1000 : 0" inkscape:vp_z="731.71094 : 407.14844 : 1" inkscape:persp3d-origin="365.85547 : 271.43229 : 1" id="perspective74"/>
    <pattern patternTransform="matrix(0.5045053,0,0,0.5045053,975.06417,365.54569)" id="pattern6182" xlink:href="#pattern5443"/>
    <linearGradient id="linearGradient5498">
      <stop id="stop5500" style="stop-color:#ffffff;stop-opacity:1" offset="0"/>
      <stop id="stop5502" style="stop-color:#ffffff;stop-opacity:0" offset="1"/>
    </linearGradient>
    <linearGradient id="linearGradient2823">
      <stop id="stop2825" style="stop-color:#000000;stop-opacity:1" offset="0"/>
      <stop id="stop2827" style="stop-color:#000000;stop-opacity:0" offset="1"/>
    </linearGradient>
    <radialGradient cx="504.61539" cy="564.13458" r="365.91113" fx="504.61539" fy="564.13458" id="radialGradient2829" xlink:href="#linearGradient2823" gradientUnits="userSpaceOnUse" gradientTransform="matrix(1.23795,0.50518,-0.896925,2.19793,639.53331,-598.59819)"/>
    <radialGradient cx="254.48274" cy="265.4794" r="365.91113" fx="254.48274" fy="265.4794" id="radialGradient5504" xlink:href="#linearGradient5498" gradientUnits="userSpaceOnUse" gradientTransform="matrix(1.45771,0,0,1.49337,-729.303,-232.81138)"/>
    <radialGradient cx="504.61539" cy="564.13458" r="365.91113" fx="504.61539" fy="564.13458" id="radialGradient11464" xlink:href="#linearGradient2823" gradientUnits="userSpaceOnUse" gradientTransform="matrix(1.23795,0.50518,-0.896925,2.19793,584.95635,-748.94274)"/>
    <radialGradient cx="254.48274" cy="265.4794" r="365.91113" fx="254.48274" fy="265.4794" id="radialGradient11466" xlink:href="#linearGradient5498" gradientUnits="userSpaceOnUse" gradientTransform="matrix(1.45771,0,0,1.49337,-783.87996,-383.15593)"/>
    <radialGradient cx="504.61539" cy="564.13458" r="365.91113" fx="504.61539" fy="564.13458" id="radialGradient11472" xlink:href="#linearGradient2823" gradientUnits="userSpaceOnUse" gradientTransform="matrix(1.23795,0.50518,-0.896925,2.19793,388.5628,-914.38155)"/>
    <radialGradient cx="254.48274" cy="265.4794" r="365.91113" fx="254.48274" fy="265.4794" id="radialGradient11474" xlink:href="#linearGradient5498" gradientUnits="userSpaceOnUse" gradientTransform="matrix(1.45771,0,0,1.49337,-291.00008,-152.80961)"/>
    <radialGradient cx="254.48274" cy="265.4794" r="365.91113" fx="254.48274" fy="265.4794" id="radialGradient11987" xlink:href="#linearGradient5498" gradientUnits="userSpaceOnUse" gradientTransform="matrix(1.45771,0,0,1.49337,-113.8282,-145.8018)"/>
    <pattern id="pattern5443" patternTransform="translate(1304.9062,515.99995)" height="300.00008" width="230.00003" patternUnits="userSpaceOnUse">
      <g transform="matrix(0.1596594,0,0,0.1616169,0.1008733,150.07349)" id="g5411" style="stroke:#000000;stroke-width:15;stroke-miterlimit:4;stroke-dasharray:none;stroke-opacity:1">
        <path d="M 407.02914,608.69929 C 408.45371,546.74328 423.7803,489.15982 452.31871,434.59069 C 527.03313,277.40489 755.23905,281.15895 704.93393,473.402 C 686.39707,544.24137 623.42532,585.87586 548.61507,593.01701 C 554.01466,574.35164 583.71536,508.36456 559.73954,495.45545 C 521.40138,496.90385 473.7952,563.16055 462.34672,594.75617 C 460.69402,599.29227 461.15631,604.53418 459.31088,608.99624" style="opacity:1;fill:#fcef3c;fill-opacity:1;fill-rule:evenodd;stroke:#000000;stroke-width:15;stroke-linecap:butt;stroke-linejoin:miter;stroke-miterlimit:4;stroke-dasharray:none;stroke-opacity:1;display:inline" id="path5413" sodipodi:nodetypes="ccscscc"/>
        <g transform="translate(-38.5322,-48.5769)" style="opacity:1;stroke:#000000;stroke-width:15;stroke-miterlimit:4;stroke-dasharray:none;stroke-opacity:1;display:inline" id="g5415">
          <g transform="translate(0,4)" style="fill:#fcef3c;fill-opacity:1;stroke:#000000;stroke-width:15;stroke-miterlimit:4;stroke-dasharray:none;stroke-opacity:1" id="g5417">
            <path d="M 350.52292,657.37224 C 349.09835,595.41623 333.77176,537.83277 305.23335,483.26364 C 230.51893,326.07784 2.3130139,329.8319 52.618133,522.07495 C 71.154997,592.91432 134.12674,634.54881 208.93699,641.68996 C 203.5374,623.02459 173.8367,557.03751 197.81252,544.1284 C 236.15068,545.5768 283.75686,611.8335 295.20534,643.42912 C 296.85804,647.96522 296.39575,653.20713 298.24118,657.66919" style="fill:#fcef3c;fill-opacity:1;fill-rule:evenodd;stroke:#000000;stroke-width:15;stroke-linecap:butt;stroke-linejoin:miter;stroke-miterlimit:4;stroke-dasharray:none;stroke-opacity:1" id="path5419" sodipodi:nodetypes="ccscscc"/>
            <path d="M 393.6259,57.12017 C 314.9116,141.96961 262.06129,240.08175 284.84465,355.15142 C 297.41422,418.63533 327.88647,477.43115 349.3759,538.58892 C 362.81238,576.95877 366.24813,617.04065 364.65715,657.37017 L 431.4384,657.37017 C 428.24189,616.744 435.24511,577.37193 446.71965,538.58892 C 467.19384,477.05062 498.34544,418.68339 511.2509,355.15142 C 535.37892,236.37223 478.74399,146.7919 402.8134,57.49517 L 398.17297,51.576902 L 393.6259,57.12017 z" style="fill:#fcef3c;fill-opacity:1;fill-rule:nonzero;stroke:#000000;stroke-width:15;stroke-linecap:butt;stroke-linejoin:miter;stroke-miterlimit:4;stroke-dasharray:none;stroke-opacity:1" id="path5421" sodipodi:nodetypes="csccccsccc"/>
            <path d="M 331.34465,704.40142 C 317.38299,743.53144 260.45647,815.19349 230.21965,835.62017 C 222.37748,840.91802 267.70602,832.5686 288.0009,828.12017 C 314.61991,822.28553 349.21835,793.92258 348.40715,803.93267 C 348.33151,849.77093 361.21819,926.25691 394.8134,961.40142 L 397.99548,964.78902 L 401.28215,961.40142 C 434.85984,922.23047 447.51976,853.35944 447.6884,803.93267 C 446.8772,793.92258 481.47565,822.28553 508.09465,828.12017 C 528.38953,832.5686 573.71807,840.91802 565.8759,835.62017 C 535.63908,815.19349 478.74383,743.53144 464.78215,704.40142 L 331.34465,704.40142 z" style="fill:#fcef3c;fill-opacity:1;fill-rule:evenodd;stroke:#000000;stroke-width:15;stroke-linecap:butt;stroke-linejoin:miter;stroke-miterlimit:4;stroke-dasharray:none;stroke-opacity:1" id="path5423" sodipodi:nodetypes="cssscccssscc"/>
            <rect width="317.88773" height="51.503345" x="239.3521" y="655.37946" style="fill:#fcef3c;fill-opacity:1;stroke:#000000;stroke-width:15;stroke-miterlimit:4;stroke-dasharray:none;stroke-opacity:1" id="rect5425"/>
          </g>
        </g>
      </g>
      <g transform="matrix(0.1596594,0,0,0.1616169,115.10087,7.3445139e-2)" id="g5427" style="stroke:#000000;stroke-width:15;stroke-miterlimit:4;stroke-dasharray:none;stroke-opacity:1">
        <path d="M 407.02914,608.69929 C 408.45371,546.74328 423.7803,489.15982 452.31871,434.59069 C 527.03313,277.40489 755.23905,281.15895 704.93393,473.402 C 686.39707,544.24137 623.42532,585.87586 548.61507,593.01701 C 554.01466,574.35164 583.71536,508.36456 559.73954,495.45545 C 521.40138,496.90385 473.7952,563.16055 462.34672,594.75617 C 460.69402,599.29227 461.15631,604.53418 459.31088,608.99624" style="opacity:1;fill:#fcef3c;fill-opacity:1;fill-rule:evenodd;stroke:#000000;stroke-width:15;stroke-linecap:butt;stroke-linejoin:miter;stroke-miterlimit:4;stroke-dasharray:none;stroke-opacity:1;display:inline" id="path5429" sodipodi:nodetypes="ccscscc"/>
        <g transform="translate(-38.5322,-48.5769)" style="opacity:1;stroke:#000000;stroke-width:15;stroke-miterlimit:4;stroke-dasharray:none;stroke-opacity:1;display:inline" id="g5431">
          <g transform="translate(0,4)" style="fill:#fcef3c;fill-opacity:1;stroke:#000000;stroke-width:15;stroke-miterlimit:4;stroke-dasharray:none;stroke-opacity:1" id="g5433">
            <path d="M 350.52292,657.37224 C 349.09835,595.41623 333.77176,537.83277 305.23335,483.26364 C 230.51893,326.07784 2.3130139,329.8319 52.618133,522.07495 C 71.154997,592.91432 134.12674,634.54881 208.93699,641.68996 C 203.5374,623.02459 173.8367,557.03751 197.81252,544.1284 C 236.15068,545.5768 283.75686,611.8335 295.20534,643.42912 C 296.85804,647.96522 296.39575,653.20713 298.24118,657.66919" style="fill:#fcef3c;fill-opacity:1;fill-rule:evenodd;stroke:#000000;stroke-width:15;stroke-linecap:butt;stroke-linejoin:miter;stroke-miterlimit:4;stroke-dasharray:none;stroke-opacity:1" id="path5435" sodipodi:nodetypes="ccscscc"/>
            <path d="M 393.6259,57.12017 C 314.9116,141.96961 262.06129,240.08175 284.84465,355.15142 C 297.41422,418.63533 327.88647,477.43115 349.3759,538.58892 C 362.81238,576.95877 366.24813,617.04065 364.65715,657.37017 L 431.4384,657.37017 C 428.24189,616.744 435.24511,577.37193 446.71965,538.58892 C 467.19384,477.05062 498.34544,418.68339 511.2509,355.15142 C 535.37892,236.37223 478.74399,146.7919 402.8134,57.49517 L 398.17297,51.576902 L 393.6259,57.12017 z" style="fill:#fcef3c;fill-opacity:1;fill-rule:nonzero;stroke:#000000;stroke-width:15;stroke-linecap:butt;stroke-linejoin:miter;stroke-miterlimit:4;stroke-dasharray:none;stroke-opacity:1" id="path5437" sodipodi:nodetypes="csccccsccc"/>
            <path d="M 331.34465,704.40142 C 317.38299,743.53144 260.45647,815.19349 230.21965,835.62017 C 222.37748,840.91802 267.70602,832.5686 288.0009,828.12017 C 314.61991,822.28553 349.21835,793.92258 348.40715,803.93267 C 348.33151,849.77093 361.21819,926.25691 394.8134,961.40142 L 397.99548,964.78902 L 401.28215,961.40142 C 434.85984,922.23047 447.51976,853.35944 447.6884,803.93267 C 446.8772,793.92258 481.47565,822.28553 508.09465,828.12017 C 528.38953,832.5686 573.71807,840.91802 565.8759,835.62017 C 535.63908,815.19349 478.74383,743.53144 464.78215,704.40142 L 331.34465,704.40142 z" style="fill:#fcef3c;fill-opacity:1;fill-rule:evenodd;stroke:#000000;stroke-width:15;stroke-linecap:butt;stroke-linejoin:miter;stroke-miterlimit:4;stroke-dasharray:none;stroke-opacity:1" id="path5439" sodipodi:nodetypes="cssscccssscc"/>
            <rect width="317.88773" height="51.503345" x="239.3521" y="655.37946" style="fill:#fcef3c;fill-opacity:1;stroke:#000000;stroke-width:15;stroke-miterlimit:4;stroke-dasharray:none;stroke-opacity:1" id="rect5441"/>
          </g>
        </g>
      </g>
    </pattern>
    <inkscape:perspective id="perspective2925" inkscape:persp3d-origin="0.5 : 0.33333333 : 1" inkscape:vp_z="1 : 0.5 : 1" inkscape:vp_y="0 : 1000 : 0" inkscape:vp_x="0 : 0.5 : 1" sodipodi:type="inkscape:persp3d"/>
  </defs>
  <g transform="translate(-85.905808,-68.746444)" id="layer7"/>
  <g inkscape:groupmode="layer" id="layer1" inkscape:label="Meubles" transform="translate(-80.999558,-67.043325)" sodipodi:insensitive="true">
    <g id="g2979">
      <g id="g2951">
        <path d="m 185.57307,110.57148 c -4.61937,-1.80357 -6.69307,-1.30663 -9.13627,2.11603 -1.22544,5.04637 -0.67451,11.0589 1.81223,18.02856 -2.23682,7.59209 -5.87648,11.70834 -11.10873,12.18172 l -0.15948,0.009 c 4.07114,10.61628 0.20406,44.02078 22.99757,19.49787 5.19723,-8.28353 8.82531,-20.97676 11.98529,-31.42878 1.15677,-4.50924 3.80934,-8.74746 7.9577,-12.71472 0.12321,-3.02877 -1.21909,-6.15251 -3.45768,-8.87012 -9.28863,2.04024 -8.26876,10.72797 -20.89062,1.18041 z" id="path3723" style="fill:#ffffff;fill-opacity:1;stroke:#000000;stroke-width:3.552315;stroke-miterlimit:4;stroke-opacity:1;stroke-dasharray:none"/>
        <path d="m 134.4477,371.91905 c 0.58555,2.9724 -0.03,5.80212 -1.67166,8.6516 -4.0278,3.22522 -9.1058,5.47775 -15.06301,6.75265 -2.34583,2.0342 -2.80242,4.36528 -1.38202,6.49113 4.62539,0.24256 8.2408,1.16756 11.3593,2.76516 l 6.97524,-1.62597 -6.97524,1.62597 c 0.87117,0.64629 1.91737,1.45493 2.79257,2.26688 3.55318,5.40168 5.54307,9.83891 5.80672,13.64625 3.42023,-0.0658 6.82438,-0.79428 10.03735,-2.34791 6.57678,-3.9406 12.46954,-7.86637 16.9781,-12.42856 -6.04987,-2.53578 -11.11797,-6.91375 -15.5423,-12.96171 -0.62583,-4.6292 -2.79075,-9.22879 -6.49474,-13.79711 -2.76839,-1.27115 -4.98349,-0.89703 -6.82031,0.96162 z" id="path3733" style="fill:#ffffff;fill-opacity:1;stroke:#000000;stroke-width:3.552315;stroke-miterlimit:4;stroke-opacity:1;stroke-dasharray:none"/>
        <path d="m 354.92249,458.45734 c 15.05259,0.33142 24.12003,6.29735 27.19725,18.06342 4.91934,-19.20038 7.50909,-18.25878 -10.77438,-31.98551 -8.57368,0.70782 -13.56433,6.08211 -16.42287,13.92209 z" id="path3747" style="fill:#ffffff;fill-opacity:1;stroke:#000000;stroke-width:3.552315;stroke-miterlimit:4;stroke-opacity:1;stroke-dasharray:none" sodipodi:nodetypes="cccc"/>
        <g id="g2978">
          <path style="fill:#ffffff;fill-opacity:1;stroke:#000000;stroke-width:3.552315;stroke-miterlimit:4;stroke-opacity:1;stroke-dasharray:none" id="path3741" d="m 225.27989,515.74774 c -1.19734,6.46141 -0.85525,11.60036 1.19737,15.08047 0.68423,1.16004 1.53947,1.98864 2.5658,2.81724 2.22366,1.65719 4.96048,2.48577 8.55257,2.6515 5.30261,0 12.14469,-1.32575 20.69729,-4.3087 -6.15788,4.97159 -11.97364,8.28596 -17.7894,9.77577 -1.02632,0.16731 -1.88157,0.49883 -2.73681,0.49883 -5.30264,0.8286 -10.26312,0 -15.05259,-1.98864 -2.39474,-0.99596 -4.78946,-2.48579 -7.01313,-3.97726 -0.68419,-0.66121 -1.36842,-1.48983 -2.39471,-1.98862 0.51314,0.82858 1.02629,1.65718 1.36839,2.48578 7.01313,13.25755 15.05258,17.56791 24.28938,13.09184 0,-0.16563 0,-0.16563 0,-0.33144 1.0263,-0.49716 1.88157,-0.99431 2.73682,-1.32578 0.34212,-0.16562 0.68422,-0.33142 1.19737,-0.49715 4.61841,-2.15435 9.57892,-2.81722 14.19731,-2.15435 -4.61839,-0.66287 -9.5789,0 -14.19731,2.15435 -0.51315,0.16563 -0.85525,0.33144 -1.19737,0.49715 -0.85525,0.33147 -1.71052,0.82862 -2.73682,1.32578 0,0.1673 0,0.1673 0,0.33144 -3.24999,10.10887 -12.99994,16.57193 -29.07881,19.38917 16.76307,6.13161 29.24986,2.65151 37.63141,-10.44032 l 0.6842,0.49716 c -0.85527,4.14297 -2.05262,8.11858 -3.76314,11.76607 -4.61841,10.44033 -12.65784,19.05774 -23.60516,26.18366 8.55258,1.32743 15.90781,0.33145 21.55254,-2.81556 5.98681,-3.31439 10.60522,-9.11456 13.34204,-17.23481 -0.3421,10.27458 -3.59209,18.56056 -9.5789,25.02362 1.36842,2.15601 2.90787,4.31036 4.78946,6.13161 1.88157,1.82459 3.93419,3.48178 5.98681,4.97159 4.61841,3.14869 9.921,5.46875 16.07888,7.29166 -7.69735,0.49717 -13.34206,0 -16.59205,-2.15435 -0.85525,-0.49881 -1.3684,-0.99597 -1.88157,-1.32741 -0.17114,0 -0.17114,0 -0.17114,0 -1.0263,-0.66121 -1.7105,-1.15839 -1.88155,-1.32576 -2.56579,-0.99431 -4.27631,-1.48981 -5.13158,-1.82292 -0.85525,-0.16731 -1.71052,-0.33143 -2.90787,-0.33143 -3.42104,-0.16563 -8.5526,0.49716 -15.56571,1.98862 -9.06575,3.81157 -19.67097,6.29735 -32.32882,7.29 -2.90789,-0.16563 -5.47366,-0.8286 -7.86839,-1.98696 -2.39473,-1.16005 -4.61839,-2.81724 -6.67102,-4.97159 -0.51316,-7.12758 -2.56578,-15.08214 -6.32892,-23.53216 -2.05262,-1.49147 -5.13156,-1.98864 -9.2368,-1.6572 -1.88157,-0.33144 -2.90789,0.16563 -3.42104,1.82291 0,0.1673 0,0.1673 0,0.33144 0,0 0,0 0,0.16563 7.18419,10.60607 5.98681,15.41358 -4.10524,14.58498 -2.39473,0.16563 -6.32892,0.8286 -11.63154,2.15435 -5.47365,2.65151 -7.01312,5.63281 -4.78944,8.94718 l 0.51315,0.49883 c 0.34211,0.32979 0.51316,0.8286 0.85526,1.32575 0.17105,0.16563 0.17105,0.16563 0.34211,0.33145 2.39473,3.147 5.98681,5.6328 10.43416,7.45736 6.84208,2.31841 15.90782,2.98295 27.3683,1.6572 -6.49997,4.8042 -16.24993,5.9659 -29.59197,3.14701 -3.9342,-1.32576 -8.72365,-3.48011 -14.19732,-6.62877 l -3.24998,2.98295 c 5.47366,5.80017 8.38155,11.43465 9.06575,16.90337 -0.6842,3.81157 -3.07893,7.12595 -7.18417,10.11055 0,0.32977 0,0.49715 -0.17108,0.66123 -1.3684,3.31438 -0.34209,5.80017 2.73684,7.29166 l 8.55259,-0.16731 c 4.9605,-2.81558 7.35523,-6.62878 7.5263,-11.43297 0.17105,4.80419 1.3684,7.45737 3.24998,8.11858 4.27629,0.8286 8.21049,0.33144 11.80257,-0.8286 3.24999,-1.48981 6.49998,-1.65717 9.57891,-0.8286 4.96051,-2.48577 7.86838,-5.30136 9.06575,-8.94717 -1.19737,3.64581 -4.10524,6.4614 -9.06575,8.94717 -3.07893,-0.82857 -6.32892,-0.66121 -9.57891,0.8286 -1.0263,0.33145 -2.05261,0.99599 -3.07893,1.6572 l -8.55259,6.96021 3.24999,3.97728 c 0,0 0,0 0.17105,0 7.52628,1.98864 13.17099,5.6328 16.76309,10.93747 1.02631,2.32007 0.85526,3.97728 -0.85528,4.97159 -0.17105,0.16731 -0.17105,0.16731 -0.17105,0.16731 -0.51314,2.31838 0.85526,3.64416 4.27631,4.3087 3.76314,1.49146 7.01312,1.82289 9.5789,0.16563 5.81576,-3.64417 9.06576,-8.78314 9.74996,-15.24452 -2.90788,-4.31036 -1.19735,-9.77745 5.47366,-16.57195 -6.67101,6.7945 -8.38154,12.26159 -5.47366,16.57195 1.19737,1.82288 3.42104,4.97157 6.32893,9.44433 4.78944,-8.1186 9.2368,-13.42327 13.51309,-15.74333 -4.27629,5.80017 -5.81576,11.60036 -4.78944,17.40052 0,0 0,0 0,0.16731 l 0,-0.16731 c 8.03943,-8.11859 17.61833,-12.59466 29.0788,-13.58732 -3.59207,9.94316 -12.48677,16.57195 -26.51303,20.21611 -0.17114,0 -0.17114,0 -0.3421,0.16731 2.90787,7.45736 10.09207,9.94316 21.89464,7.62309 8.5526,-3.147 14.19731,-8.45169 17.27625,-15.57596 l 0.85525,0.16563 c 0.51315,-4.47444 3.07892,-8.28597 7.18418,-11.43463 -4.10526,3.14866 -6.67103,6.96019 -7.18418,11.43463 -0.17115,0.66288 -0.3421,1.16004 -0.3421,1.8229 -1.36842,16.73934 8.5526,24.69221 29.59197,24.19671 0.34209,0 0.51314,0 1.02632,0 -0.34213,-0.16731 -0.51318,-0.16731 -0.51318,-0.16731 -0.17114,-0.32977 -0.3421,-0.32977 -0.51314,-0.32977 -7.69733,-3.48175 -11.63152,-9.446 -11.11837,-17.56791 l 0,-0.33144 c -0.17115,-4.64015 2.73681,-9.94318 8.8947,-15.90906 6.49998,8.45167 10.09204,17.56625 10.94732,27.17797 7.52627,-10.93914 10.26312,-23.20071 8.72365,-36.78969 0.17114,0.49715 0.17114,0.82858 0.34209,1.16002 0,0.32979 0,0.49715 0.17115,0.8286 0.51315,1.98696 1.19737,4.14297 2.05262,6.12996 5.98681,13.75636 18.1315,20.71494 36.26302,20.54923 -10.60522,-6.7945 -18.13152,-15.90909 -22.57886,-27.178 -1.0263,-0.99431 -2.05264,-2.31843 -3.07894,-3.64418 1.0263,1.32575 2.05264,2.65152 3.07894,3.64418 12.56889,11.65361 30.26356,13.27714 43.44718,0.3331 -42.23392,3.16739 -51.41761,-26.0072 -21.39868,-45.6229 -2.33663,-46.30904 51.51605,-109.75252 37.47932,-148.42959 -21.38146,1.48981 -38.99981,8.28597 -52.85503,20.21777 -5.9868,-0.66289 -11.80256,-1.16004 -17.78937,-1.49147 -11.11839,0 -21.03939,2.65151 -29.24989,7.95452 -8.8947,10.11055 -16.59203,16.40622 -23.43411,18.89202 -0.6842,0.16562 -1.19737,0.49715 -1.88157,0.66123 -5.98681,1.6572 -11.28942,0.33142 -15.56571,-3.64418 -4.78946,-4.31036 -3.24999,-10.27461 4.96051,-17.73197 -11.29116,-0.33974 -17.96216,3.96896 -20.35691,12.7521 l -7e-5,2.3e-4 z" sodipodi:nodetypes="cscccccscccccccsccccccccccccsccccccccccsccccccccccccccccccccccccccsccccccccccccsccccccccccccsccccccccccccccccsccccccccccccc"/>
          <path sodipodi:nodetypes="cccccccccscccccccccccccccccsccccccccccccccccc" style="fill:#ffffff;fill-opacity:1;stroke:#000000;stroke-width:3.552315;stroke-miterlimit:4;stroke-opacity:1;stroke-dasharray:none" id="path3943" d="m 179.1179,140.69911 c -7.40904,-8.05532 -11.82068,-25.62095 -25.93435,-25.40249 -4.06003,1.36591 -5.74174,3.02091 -5.53919,5.41736 -0.14725,0.0775 -0.14725,0.0775 -0.0524,0.22009 6.63893,4.93442 12.4875,15.7765 -0.29943,14.79065 -2.93975,-0.1738 -3.74095,1.75351 -4.10945,4.28006 -0.0518,9.70701 7.14977,16.59079 16.82471,12.51512 -1.57776,1.1307 -2.80804,2.42287 -4.45918,3.72823 -0.17006,0.0168 -0.17006,0.0168 -0.15002,0.18112 6.70322,4.18898 14.23619,5.29772 22.78903,3.4747 -8.55284,1.82302 -16.08581,0.71428 -22.78903,-3.4747 -0.02,-0.16479 -0.02,-0.16479 0.15002,-0.18112 -2.24109,-1.45122 -5.46245,-2.47478 -9.45398,-2.75748 -4.70157,0.95243 -8.47269,2.48207 -11.16334,4.40781 -1.39027,1.30056 -1.99036,2.02503 -1.91021,2.68409 -0.10994,0.51063 0.44029,0.79107 1.33067,1.03878 4.89166,-0.80404 8.60318,0.006 11.15458,2.59384 3.10216,5.70224 1.34247,11.03882 -5.50926,15.53183 -1.46991,3.47516 -0.93919,6.42444 1.212,8.55107 3.47158,1.66622 6.65286,2.36024 9.50381,1.75255 3.1104,-4.13305 4.86034,-8.13518 5.58991,-12.03915 2.22156,4.12008 2.68241,7.90954 1.40259,11.53308 5.89248,1.76664 10.59404,0.81423 14.23466,-3.20315 2.93079,-6.17541 -4.25895,9.77963 -4.52946,12.27053 6.70774,-1.99472 12.8822,-2.69289 18.3572,2.40093 l -15.56538,2.16434 c 0.81124,5.25592 3.99304,8.78356 9.3954,10.76406 5.38231,1.81577 13.00519,2.24912 22.67858,1.15171 -9.67339,1.09741 -17.52538,0.89317 -22.90769,-0.9226 -7.64141,7.90274 -9.81165,16.23877 -7.15904,25.31799 8.26937,-12.52338 27.73239,-5.2938 39.16412,-1.93462 -7.60185,5.39864 -17.16528,5.9854 -28.65021,2.08984 6.85426,9.67508 17.5187,12.48277 32.03339,8.75263 -7.013,3.47134 -14.54894,9.40697 -20.06445,16.09883 10.75807,-3.68524 22.9372,-3.76236 34.48197,-3.65143 -7.76525,2.37761 -31.11669,5.53911 -26.9866,18.59838 5.69647,-4.07201 22.62864,-7.30395 38.70479,2.77681 -10.30369,-2.41272 -19.0586,0.14915 -20.65637,6.98802 24.9008,3.32985 28.48353,10.18918 54.7038,22.34922 53.58451,-20.46927 45.83921,-42.6615 13.56121,-79.25545 -3.64217,-4.48346 -7.6244,-8.93421 -11.39653,-13.0718 -15.54888,-17.50619 -28.12527,-37.49557 -46.16493,-54.26204 -8.02361,-7.74227 -22.00015,-11.02307 -31.95661,-16.56402 -5.55186,1.03426 -14.65258,-3.03714 -19.86535,-7.70285 l 2e-5,-7.7e-4 z"/>
          <path sodipodi:nodetypes="ccccccccccccccccccccccccccccccccccccccccccccccccccccccccccccccccccccccccccccccccccccccccccccccccccccccccccccccccccccccscccccccccccccccccccccccccccccccccccccccccccccccc" style="fill:#ffffff;fill-opacity:1;stroke:#000000;stroke-width:3.552315;stroke-miterlimit:4;stroke-opacity:1;stroke-dasharray:none" id="path3707" d="m 635.43521,79.031783 c -9.00427,-13.574346 -43.48816,-16.001073 -42.89963,7.566267 2.78738,-5.682389 9.89473,-8.602682 17.10525,-9.943161 19.42381,0.476111 19.71753,20.202186 8.89635,31.983861 -7.69726,6.79449 -17.10516,8.94885 -28.39462,6.29734 -19.0143,-4.96709 -30.93393,4.32985 -38.65941,20.71492 2.56579,-6.62877 7.21688,-11.9056 12.34849,-16.71146 C 561.27037,97.935914 542.53043,90.218719 523.7744,91.735436 l 0,0 c -23.43966,2.466701 -32.94061,35.175154 -3.08064,33.143894 -14.27959,-5.13823 -9.36498,-15.82029 3.42114,-16.57194 14.33443,2.28304 19.69847,20.35886 11.80249,31.65241 -14.71043,20.05205 -24.86464,44.95384 -27.77258,69.14888 -4.60491,43.13316 -2.91734,57.13013 13.53072,96.47399 9.87366,21.34026 39.23797,51.3548 44.17591,71.689 -3.3491,-7.59458 -10.51797,-11.39572 -18.47353,-12.09751 -9.73802,-1.32933 -18.67592,2.88901 -28.39462,1.32577 -17.75446,-4.66496 -24.14559,-16.43784 -10.77627,-30.98954 -15.66661,2.87805 -21.69552,16.94814 -16.59198,31.15358 6.02032,8.68792 14.31668,11.76774 24.4621,11.76774 -7.0789,4.86536 -15.17233,7.55869 -23.43587,9.61174 5.81406,3.81153 12.99993,3.97561 21.55254,0.49716 -24.18849,17.84572 -13.90693,45.72272 15.05255,46.89858 l 0.1728,0 c 0.1709,-0.16562 0.34198,-0.16562 0.68248,-0.16562 8.53176,-1.01325 16.96039,-6.15954 16.59198,-15.41191 -3.93417,5.46874 -9.7499,7.78715 -16.93248,7.12592 -14.49708,-4.75428 -15.75701,-20.28223 -5.64464,-29.99687 28.31319,-20.78297 64.23749,9.69864 55.93394,46.7329 -10.77209,25.40063 -36.08339,35.18628 -61.92073,35.96109 -36.35833,-2.59119 -65.92639,-30.74861 -86.38118,-58.66461 -9.80757,-17.57902 -10.27128,-37.93084 -15.56575,-57.00581 4.1673,2.27401 9.85982,5.61437 15.7368,5.96423 -15.32086,-23.18354 -10.14752,-75.92216 13.88855,-96.89796 -57.94651,-40.5401 -121.8972,16.29155 -227.70172,66.40718 -17.54843,9.7037 -29.07882,19.02868 -43.61823,41.42986 -2.05263,1.82293 -2.39473,3.81155 -1.19737,5.30136 -7.18419,0.49881 -12.82888,2.32009 -16.76308,6.299 -6.16748,7.11966 -14.20388,12.49531 -22.57885,17.40055 -9.04839,0.96066 -26.17479,-13.52158 -35.920897,4.30705 0.342097,1.32575 1.368421,2.15433 3.592087,2.6515 8.90238,0.67231 13.37544,7.42738 6.49997,13.0935 1.53947,6.46306 5.98683,10.44032 13.17099,12.26323 4.70929,-3.45289 7.78212,-9.4512 14.88153,-3.77128 5.56176,-6.25714 12.19426,-10.06359 11.28942,-18.93229 1.72891,8.424 -5.66763,13.11568 -11.28942,18.40785 -2.44092,4.57378 -8.09589,9.54417 -6.32893,15.23155 l 3.42104,6.62877 c 5.26077,-9.69903 17.23869,-3.81425 19.15782,4.64015 3.59208,2.65316 9.23679,3.14866 16.76307,1.6572 -5.10427,-4.56255 -7.47154,-10.71814 -7.69733,-17.40047 l 2.39473,5.80019 c 5.13155,-3.4801 15.40017,0.22593 21.21594,1.88311 7.18418,-7.12594 6.66551,-18.95221 7.69182,-25.74506 0.17105,0 0.17105,0 0.17105,-0.1673 3.5921,10.27462 11.80257,12.76042 25.14464,7.29165 -10.09207,0.99433 -12.14469,-2.48577 -5.64474,-10.11052 5.03294,-1.05449 9.05261,-4.49098 10.09207,-9.77586 0.24858,-1.7471 3.65011,6.01271 7.52635,6.29724 1.19738,-9.61172 4.10527,-16.57195 8.5526,-20.54921 -0.34209,11.43465 2.73685,17.56791 9.5789,18.72795 1.55043,-11.95242 5.12905,-22.91294 14.02626,-31.32097 0.3421,5.30302 -1.19737,10.77176 -4.78943,16.07478 13.20145,-4.98815 22.14213,-12.15762 22.46992,-26.13978 7.01313,12.76038 5.24047,21.82942 -2.28583,32.93428 17.15622,-14.86097 34.28607,-27.41237 57.13136,-29.49806 -14.45095,1.82522 -25.54544,6.12398 -36.26302,13.78092 1.53947,9.61338 0,16.21429 -4.44734,21.02015 10.20118,0.62206 14.86995,-7.44297 17.96045,-15.90739 -1.88159,8.78312 0.17115,14.91474 6.15786,18.72628 12.48679,5.63281 25.48673,9.44603 38.82879,11.433 13.00274,3.01228 22.38584,11.66088 29.59197,22.5395 3.58159,-13.01097 -5.50659,-23.40939 -16.24993,-29.33235 11.71774,5.88641 18.60706,17.20077 16.60757,30.40527 -12.74554,17.19482 6.46874,38.02323 -8.05857,54.44308 -17.16668,13.46139 -27.84781,30.95209 -31.47354,52.36568 -2.45716,10.28769 2.91435,24.60544 -4.96051,32.97816 -22.78404,16.1165 -48.04276,-2.32013 -27.53935,-25.02693 -24.92867,6.54147 -28.20271,29.01657 -6.84208,42.42582 20.80303,6.46249 45.13636,-1.26438 52.34188,-23.03657 -4.37057,9.70642 -7.32255,19.76233 -8.8947,30.32666 0,0 0,0 0,0.1673 4.27631,-4.97157 8.72365,-8.45335 12.99994,-10.2746 3.506,15.19939 2.93267,31.46351 -7.69733,43.74992 17.11038,-6.88199 34.5992,-31.40192 19.84032,-48.8872 8.78778,13.21289 26.11828,14.49128 39.96384,8.02248 -9.09016,0.43719 -17.01882,-1.2396 -23.41857,-7.68401 25.15052,18.02899 34.1472,-0.84283 39.46607,-7.92896 -15.90195,21.10194 -27.2636,19.26875 -37.27313,19.28492 7.35514,14.08615 27.61688,25.59086 49.16761,28.24237 8.27627,0.83606 9.00038,0.69979 0.71528,0 -16.60637,20.82549 -24.59675,45.95752 -28.42386,71.92391 -7.30025,7.20063 -17.37228,7.49627 -24.9753,0.99266 -3.93417,-0.49716 -8.37988,-0.49716 -13.34209,0 -2.56577,0.99431 -3.42104,2.6515 -2.56577,4.97157 2.90787,0.82859 4.96049,2.98295 6.15786,6.29734 0.85525,3.48178 0.51487,6.62879 -0.6825,9.77745 -0.17279,0.33144 -0.17279,0.49715 -0.3421,0.8286 l 0,0 c -1.71052,4.8042 -1.53947,9.28029 0.3421,13.09017 9.7499,-1.82291 15.05256,-6.79448 16.07716,-15.08047 0.85532,4.80586 3.08064,7.29166 6.32891,7.78881 4.40535,-7.22421 11.00348,-12.66991 18.81565,-16.57195 -7.93705,3.17626 -14.84669,9.20224 -19.01774,16.57195 l 2.59862,6.7945 c 9.09228,-2.95674 17.15843,3.34974 20.01295,11.76601 5.68721,0.0883 11.51075,-2.6086 9.57718,-9.2803 l -6.15784,-6.62878 c 2.28033,1.98442 4.38095,4.95382 6.15784,7.34406 10.32287,-6.38664 21.32546,-17.61127 7.69742,-26.89894 10.81526,4.06469 5.80388,14.40409 -0.42149,20.95926 5.22652,8.10615 14.61539,5.37998 20.09067,-0.90888 -1.13286,-10.19134 11.66232,-16.91227 18.81582,-9.61005 0,0 0,0 0.17114,0 6.26103,-4.73755 6.52863,-13.71434 2.02131,-18.89038 -14.80826,-7.83896 -12.781,-5.73426 -19.64154,-9.28184 18.93772,7.69759 20.21332,15.44283 43.10515,10.44023 -16.68445,-3.43121 -16.89589,-15.39452 -18.30248,-29.66212 -1.36852,-1.65719 -4.27629,-3.48178 -8.8947,-5.30301 4.61841,1.82289 7.52618,3.64582 8.8947,5.30301 6.42735,4.80215 9.67081,12.38656 12.31569,19.72062 9.90047,-15.19647 5.83902,-31.70126 -9.57876,-40.26985 6.38155,2.89617 12.01449,7.75261 14.04171,14.61118 8.23494,10.04444 23.96696,3.30336 31.11411,-4.83205 -22.49877,2.67142 -34.57408,-12.11945 -37.14745,-19.58972 9.89732,-0.90885 16.98066,0.2522 25.45539,13.24838 3.76326,-8.11858 -0.79311,-16.19662 -16.87192,-30.11538 6.50163,1.16002 11.46054,3.31437 14.53939,6.7945 7.7498,-9.54438 -6.27872,-20.1769 -14.02619,-24.02934 17.96379,8.81743 34.80263,13.70028 49.76045,-0.2597 -20.71488,1.20493 -30.70801,0.88202 -40.35091,-17.30656 11.29246,-7.68597 23.9801,-0.39823 30.2744,10.1089 5.47885,-24.769 -16.36503,-30.24315 -40.70852,-23.53216 9.30882,-4.29398 34.5359,-15.11489 24.28924,-28.83352 -12.21456,13.32962 -31.02065,18.19142 -47.38134,10.10721 10.26307,-2.48579 15.7368,-8.45167 16.4227,-17.40052 -15.02915,13.48586 -35.43483,9.14902 -40.75701,-11.37209 6.03152,6.93612 25.72999,17.91202 31.51853,4.5809 -20.03078,1.60302 -29.49875,-20.5071 -35.92099,-35.79706 10.44092,6.46183 10.17072,5.4549 22.58063,12.26316 -21.14669,-31.58147 -18.62786,-42.66394 -17.86698,-55.9591 40.10453,32.01589 89.60651,31.81777 121.06313,0.597 20.01133,-16.73767 29.0322,-44.23694 29.20148,-77.71392 1.36506,-11.98003 10.52254,-10.94414 18.98852,-6.46305 1.35057,-19.95875 -17.71882,-18.31309 -29.62317,-3.95117 13.87049,-14.83291 16.02045,-9.37825 20.57268,-12.11513 17.24503,-12.4537 24.06383,-32.58967 0.94718,-47.01356 11.96748,35.00006 -21.76036,11.03066 -31.23873,52.96929 -3.42097,-12.7604 -8.38152,-22.5395 -14.88148,-29.00091 -8.03941,-7.62475 -15.90788,-19.38916 -23.77621,-34.80107 -4.44736,-10.44032 -6.49998,-19.88634 -6.32728,-28.66946 -1.59343,-25.47989 38.58215,-21.97466 26.51145,-10.44015 8.85633,-0.44819 10.5213,-6.46068 5.47194,-12.26322 -11.5205,-13.99092 -38.11382,-7.52989 -41.90778,13.58891 l 0,0 c -5.30266,-19.5549 -7.18241,-40.60126 -5.47194,-63.30482 1.02625,-12.09752 6.15786,-24.36076 15.73501,-36.45828 12.14644,-11.26893 22.06574,-16.90339 30.44905,-16.57195 8.21046,0.33145 15.90774,2.81722 23.4323,7.6231 7.35692,4.80586 10.43591,13.42327 9.58059,25.52078 -6.60194,19.73073 -36.62809,30.39218 -37.63311,3.81155 -16.36689,22.21666 4.25237,34.90739 26.17095,24.02932 -22.97482,13.10809 -6.15933,23.45676 12.99996,25.18935 -25.12026,-20.99207 25.83281,-40.58684 21.55431,-73.4137 -7.28487,-21.77191 -15.26121,-33.63424 -58.84186,-30.82381 36.29598,-7.97402 59.2019,-2.21396 66.19702,-40.767 -0.10061,-8.296542 0.64085,-18.978688 -4.82542,-25.628127 z"/>
          <path sodipodi:nodetypes="ccccccccccccccccccccccccccccccccccccccccccccccccccccccccccccccccccccccccccccscssccccaccccccccccccacccccccccccccccccccccccccccccccsscsccsccccccccccscccscscccscc" style="fill:#ffffff;fill-opacity:1;stroke:#000000;stroke-width:3;stroke-miterlimit:4;stroke-opacity:1;stroke-dasharray:none" id="path3709" d="m 376.6004,86.598582 c -12.2561,6.183492 -26.4316,5.746242 -39.3419,7.623076 l -0.1712,0 c -26.6841,3.480127 -46.6971,8.120252 -59.8681,14.251882 -3.421,1.49147 -6.3289,2.98295 -8.72366,4.64013 0.3421,4.47443 2.22366,7.12594 5.81576,7.95454 0,0.16563 0,0.16563 0,0.16563 l 0,0 6.1579,-3.48011 0,-2.81722 0,2.81722 -6.1579,3.48011 0,0 c -3.3291,15.98214 11.0149,26.44784 23.9472,32.64674 9.7516,-0.0936 19.4659,0.4899 29.0789,2.15416 0,0 0,0 0.1712,0 11.816,2.51761 23.6159,7.9921 31.1314,17.73197 3.9573,6.05128 3.9888,11.07598 -0.513,16.40622 -13.6851,6.51999 -27.8286,2.32812 -41.5656,-1.49146 -7.4298,-2.15496 -15.147,-1.76583 -22.7499,-1.16005 -3.079,3.3144 -2.9079,6.62879 0.1711,9.94319 -3.5921,6.46305 -10.6052,8.28596 -20.8683,5.1373 3.7631,6.29732 8.3815,9.28027 14.1973,8.94883 5.1315,-0.66287 11.759,-3.44731 16.8905,-7.09315 -4.8766,6.41665 -13.3773,12.74871 -12.5283,21.48396 4.5606,-10.52892 17.926,-12.96186 27.9665,-14.391 -0.5132,4.47444 -4.4474,9.11458 -11.4605,13.92044 13.6841,-1.8229 22.921,-6.46305 27.8814,-13.589 1.1974,7.12595 5.1316,10.77176 11.9737,11.26894 -2.2237,-5.30303 -1.5395,-9.77745 1.8815,-13.09184 4.9606,9.11456 13.3421,14.74902 25.4851,16.40621 -6.1579,-4.80586 -9.0658,-11.1032 -8.5526,-19.05772 5.3043,4.97157 9.7499,7.12592 13.5131,6.7945 -0.6842,-6.7945 1.5394,-12.92613 6.4999,-18.39486 1.7105,6.29733 8.8947,9.94316 21.5543,10.60603 -9.4079,-7.95452 -13.5131,-16.07477 -13.0017,-24.36074 0.6842,-8.45169 2.0526,-14.91475 3.9342,-19.5549 5.1316,0.66287 8.5525,4.64015 10.6053,12.42896 1.3684,-13.589 -4.1036,-22.53785 -16.5921,-27.01227 3.5938,0.8286 7.1842,1.49147 10.6052,1.49147 12.1287,0.93574 16.7238,-6.79163 17.6184,-18.22913 0.6398,-9.12544 -5.4674,-14.44784 -13.6843,-17.06883 -5.5742,-0.89735 -11.3364,0.17826 -15.0525,4.64015 3.4796,-4.73102 9.6182,-5.3368 15.0525,-4.64015 21.5029,4.23023 16.0133,39.10588 -3.9341,35.29796 -3.421,0 -7.013,-0.66287 -10.6052,-1.49147 12.4885,4.47442 17.9605,13.42327 16.5921,27.01227 -2.0528,-7.78881 -5.4737,-11.76609 -10.6053,-12.42896 -1.8816,4.64015 -3.2483,11.10321 -3.9342,19.5549 -0.5132,8.28597 3.5938,16.40622 13.0017,24.36074 -12.6579,-0.66287 -19.8438,-4.3087 -21.5543,-10.60603 -4.9587,5.46873 -7.1841,11.60036 -6.4999,18.39486 -3.7632,0.33142 -8.2105,-1.82293 -13.5131,-6.7945 -0.5132,7.95452 2.3947,14.25186 8.5526,19.05772 -12.1447,-1.65719 -20.5263,-7.29165 -25.4851,-16.40621 -3.421,3.31439 -4.1052,7.78881 -1.8815,13.09184 -6.8421,-0.49718 -10.7763,-4.14299 -11.9737,-11.26894 -4.9604,7.12595 -14.1973,11.7661 -27.8814,13.589 7.0131,-4.80586 10.9473,-9.446 11.4605,-13.92044 -11.6316,1.16004 -20.0556,3.92411 -24.5029,8.72996 4.936,1.08806 6.7659,11.10431 3.1214,12.31643 -2.3947,-0.8286 -4.7895,-1.49149 -7.1842,-1.98864 -8.7236,-1.98864 -17.2762,-2.97406 -25.82884,-1.6483 -9.83917,-0.16739 -13.42517,-7.2143 -15.56571,-15.75244 -7.18418,3.14868 -10.60522,7.78883 -9.57892,14.08615 4.61841,9.94316 13.34204,14.91476 26.51305,15.41191 -6.83125,3.60735 -25.83135,9.68048 -32.84196,22.37212 -4.96051,7.95454 -11.14323,4.95611 -21.38149,-2.48578 4.90572,11.21437 8.21037,22.31651 22.43275,26.1789 2.74905,-7.86574 4.20251,-12.4183 10.06721,-16.07002 -6.26094,3.48837 -9.36294,10.22196 -9.62707,17.07148 -6.81024,9.24831 -12.9022,19.94706 -30.90095,6.3451 -3.92422,6.80016 2.94135,17.9835 12.10945,19.19534 6.92279,1.37172 18.62792,-0.62081 24.2526,-3.19003 7.58566,-4.45983 9.60574,-11.7531 22.39543,-19.97738 -15.97024,10.26339 -14.77222,22.33403 -40.7304,23.65059 13.09071,4.81887 30.0794,4.4723 39.04312,0.60546 8.52433,-3.67731 10.87733,-9.42611 11.85253,-16.25117 -1.0502,9.84523 -5.02217,13.88738 -11.1552,16.22331 -9.58544,3.65088 -9.55626,1.11663 -23.55545,6.23822 -11.07269,4.05093 -28.186,24.29067 -19.29416,33.07331 29.97899,-27.58826 32.22388,-6.48156 64.61011,-24.98592 -4.0765,8.90636 -9.2858,16.09252 -5.9182,25.44796 5.4737,8.1186 16.8654,14.65607 25.9311,16.64469 -1.4373,-2.23593 -13.1738,-11.94677 -12.0142,-19.48997 1.3774,-8.96069 9.6194,-13.82121 20.5668,-17.79682 1.4647,-0.50294 1.4627,-0.5088 0,0 -12.9549,10.73105 -14.4773,26.09359 3.592,32.31528 -10.7766,-14.47409 1.8965,-26.28918 15.8854,-30.32792 1.5998,8.42598 -1.7751,14.79851 -7.5038,20.71786 14.6639,-3.65873 25.7711,-15.33679 34.3591,-27.47447 -16.6144,-1.64862 -8.5622,-0.35819 -23.5323,-3.6203 14.3875,-5.91756 16.5739,-10.87055 20.4128,-16.68107 0.3255,2.38252 -5.8896,10.17408 -20.1355,16.84302 18.2541,4.93817 26.7465,2.79219 33.0255,0.68427 -1.5985,-10.50529 1.7733,-20.52373 8.7236,-28.41779 -18.8983,25.91858 -6.4855,53.27423 35.1083,46.59992 -7.1017,-4.51668 -20.5914,-11.61904 -22.2135,-21.88645 -1.4392,-9.11001 7.4617,-11.98026 12.7632,-24.54941 -5.578,12.15804 -10.4274,11.5661 -12.4652,22.91627 19.9583,-7.83481 24.0887,-9.80989 29.2283,-26.72776 0.5805,-4.46498 0,-8.88544 -1.5394,-13.09184 4.3875,5.84404 -0.4424,27.72558 -5.3837,28.09184 17.958,1.37306 18.8764,3.68554 44.8738,-4.37643 -18.3762,-2.23788 -23.599,-4.69973 -27.6377,-13.16724 7.161,-4.8884 13.4061,-8.70088 20.4798,0.39081 4.4473,-8.28597 3.592,-16.73766 -2.7369,-25.35507 16.4406,9.6979 40.4234,12.88058 52.3419,-4.97159 -23.4274,9.33917 -46.0109,-3.39842 -59.3567,-22.53783 15.7924,-5.93428 31.2926,-9.92917 22.318,6.26272 10.6052,-5.46872 12.6172,-9.04099 12.6172,-14.17829 -2.2104,-15.2509 -21.9537,-11.08146 -28.9501,-30.03419 14.0879,12.63813 19.4071,12.05945 35.4492,5.0062 -14.3999,2.89983 -28.2754,-4.02186 -32.4325,-18.63598 4.6167,-5.96588 11.7148,-2.81722 19.4121,9.61174 4.9606,-10.60605 2.0314,-16.03399 -8.572,-22.1656 -7.0793,-4.01661 -13.8486,-8.62351 -18.4754,-15.41183 6.5698,9.39097 18.867,14.40569 27.8831,5.80009 3.4212,-4.14297 4.2763,-8.28596 2.3931,-12.76038 -13.5808,13.50851 -25.4774,-3.54481 -28.5657,-18.7263 -1.0263,-5.30304 -4.6167,-10.10889 -10.6035,-14.58331 9.235,-1.16004 14.1974,-4.14299 14.8798,-9.11456 -4.4473,2.15435 -8.893,2.98293 -13.5113,1.98862 -3.7633,-6.96021 -9.75,-12.42896 -18.1334,-16.074774 -4.6166,-1.491485 -9.3865,-1.053698 -14.8796,-0.99433 -2.8856,0.561994 -2.8656,0.649952 0,0 55.9792,0.502306 -2.9609,-17.484346 -24.9737,-10.271276 l -1e-4,9.22e-4 z m 24.6315,39.109778 c -2.7385,1.32575 -5.3043,1.82291 -7.1842,1.65719 1.8815,0.16563 4.4473,-0.33144 7.1842,-1.65719 0.3421,-0.16563 0.5132,-0.33145 0.6825,-0.33145 2.5658,-1.32575 5.1316,-3.14866 7.6974,-5.63445 -2.5658,2.48579 -5.1316,4.3087 -7.6974,5.63445 2.5658,1.6572 4.6184,3.48011 6.671,6.13162 -0.6843,3.81155 -2.0526,6.29734 -4.6184,8.12025 2.5658,-1.82291 3.9341,-4.3087 4.6184,-8.12025 -2.0526,-2.65151 -4.1052,-4.47442 -6.671,-6.13162 -0.1693,0 -0.3404,0.16563 -0.6825,0.33145 z m -61.0018,-14.96793 c 9.9608,-0.013 17.1071,8.20108 23.8835,14.63648 l 6.671,-2.48579 -5.0347,0.90059 c -8.0472,2.3135 -16.0838,5.05417 -24.3862,3.2424 -7.3011,-3.38146 -8.1794,-10.6295 -1.7105,-15.90906 -2.3689,-0.0901 -4.7205,0.24438 -7.0131,0.8286 0,-3.3144 1.8816,-5.9659 5.9868,-7.78881 -4.1052,1.82291 -5.9868,4.47441 -5.9868,7.78881 2.2848,-0.67584 5.2259,-1.21322 7.59,-1.21322 z m 35.173,69.98677 c -1.0263,-3.97726 -2.5658,-7.95452 -4.7895,-12.09752 2.2237,4.143 3.7632,8.12026 4.7895,12.09752 0.8552,6.29734 -3.079,12.09753 -11.8009,17.0691 8.7219,-4.97157 12.6561,-10.77176 11.8009,-17.0691 z m -13.6842,-24.36074 c -4.4473,-4.47444 -9.7499,-7.6231 -15.7368,-9.94318 -5.1315,-1.6572 -10.2631,-1.79631 -15.7367,-0.96771 5.4736,-0.8286 10.6052,-0.68949 15.7367,0.96771 5.9869,2.32008 11.2895,5.46874 15.7368,9.94318 z"/>
        </g>
        <path d="m 348.1722,126.92677 c 0.5132,-0.16563 1.0264,-0.16563 1.7106,-0.16563 l 12.695,-1.65719 c -4.4474,-4.64015 -8.9319,-8.78312 -15.0898,-12.42896 -14.0115,-9.04669 -21.2729,16.51039 0.6842,14.25187 z" id="path3713" style="fill:#ffffff;fill-opacity:1;stroke:#000000;stroke-width:3.552315;stroke-miterlimit:4;stroke-opacity:1;stroke-dasharray:none"/>
        <path d="m 305.5432,172.3339 5.6818,9.44602 c 10.6053,-0.49717 21.2105,-0.33144 32.1578,0.66287 6.5,0.49715 11.4605,2.81724 14.7105,6.96021 4.1052,-4.14297 3.9341,-9.44601 -0.1712,-15.90906 -1.3684,-1.82291 -2.9079,-3.64582 -4.7894,-5.30302 -7.1842,-1.65719 -14.3684,-2.48579 -21.3815,-2.48579 -6.8421,0.16563 -14.0263,0.16563 -21.8947,0 l -4.1052,4.14299 0,0 -2.3947,-3.4801 c -9.75,0 -18.9868,0 -27.7104,-0.16563 -5.4737,-0.49716 -10.77642,-4.64015 -15.90798,-12.09752 -2.39472,2.81722 -3.24997,6.62877 -2.56577,10.93748 2.39472,7.29165 7.01313,11.9318 13.85535,13.75473 9.0657,2.81721 18.4736,4.14297 28.5656,3.81152 0.3421,-0.16562 0.6842,-0.16562 1.0263,-0.16562 l 4.9234,-10.1089 z" id="path3717" style="fill:#ffffff;fill-opacity:1;stroke:#000000;stroke-width:3.552315;stroke-miterlimit:4;stroke-opacity:1;stroke-dasharray:none"/>
        <g id="g2906" transform="translate(-14,20)">
          <path style="fill:#ffffff;fill-opacity:1;stroke:#000000;stroke-width:3.552315;stroke-miterlimit:4;stroke-opacity:1;stroke-dasharray:none" id="path3715" d="m 323.8566,146.25609 1.5395,-11.76607 c -4.1053,-0.33145 -8.7237,-0.33145 -13.5131,-0.16563 -0.1711,-0.16563 -0.1711,-0.16563 -0.1711,-0.16563 -0.1712,0 -0.1712,0 -0.1712,0 l 0,0.16563 0,0.16563 5.8158,12.42896 2.3947,3.4801 0,0 4.1052,-4.14299 z"/>
          <path style="fill:#ffffff;fill-opacity:1;stroke:#000000;stroke-width:3.552315;stroke-miterlimit:4;stroke-opacity:1;stroke-dasharray:none" id="path3719" d="m 325.225,161.77992 -6.4999,-9.44602 -4.1053,10.10889 -1.3684,4.3087 c 6.3289,-0.16563 11.9736,0.33145 16.592,1.6572 l -4.6184,-6.62877 z"/>
        </g>
        <g id="g2937">
          <path style="fill:#ffffff;fill-opacity:1;stroke:#000000;stroke-width:3.552315;stroke-miterlimit:4;stroke-opacity:1;stroke-dasharray:none" id="path3721" d="m 205.71435,110.79922 c 1.94752,-18.69617 -27.91465,-39.027914 -37.45559,-19.509121 12.82208,1.992174 17.45916,9.251181 16.2318,19.551481 5.67486,10.60869 21.59437,10.21972 21.22379,-0.0424 z"/>
          <path style="fill:#ffffff;fill-opacity:1;stroke:#000000;stroke-width:3.552315;stroke-miterlimit:4;stroke-opacity:1;stroke-dasharray:none" id="path3727" d="m 147.06796,119.75215 c -20.36619,-1.10047 -27.95491,22.76365 -16.38908,33.61129 0.34651,-10.1801 6.44039,-17.15832 18.95016,-15.86337 9.00721,-0.37558 6.31586,-14.6844 -2.56108,-17.74792 z"/>
          <path style="fill:#ffffff;fill-opacity:1;stroke:#000000;stroke-width:3.552315;stroke-miterlimit:4;stroke-opacity:1;stroke-dasharray:none" id="path3729" d="m 140.42182,161.26191 c -19.24542,-0.09 -33.87634,29.70408 -12.65783,35.62967 -2.14973,-8.06995 5.40502,-23.95983 16.07887,-17.0691 11.41493,-5.75331 10.59345,-18.65308 -3.42104,-18.56057 z"/>
          <path style="fill:#ffffff;fill-opacity:1;stroke:#000000;stroke-width:3.552315;stroke-miterlimit:4;stroke-opacity:1;stroke-dasharray:none" id="path3735" d="m 136.82422,370.50554 c -8.63688,-17.58971 -53.399317,3.5388 -32.67091,22.8693 -0.55413,-7.8122 17.29302,-14.72599 16.93414,-4.47444 11.40508,-2.10929 19.81098,-7.48532 15.73677,-18.39486 z"/>
          <path sodipodi:nodetypes="cccc" style="fill:#ffffff;fill-opacity:1;stroke:#000000;stroke-width:3.552315;stroke-miterlimit:4;stroke-opacity:1;stroke-dasharray:none" id="path3749" d="m 377.71903,724.40165 c -22.17131,7.34527 -35.13608,34.23918 -6.71594,50.08264 -7.13096,-11.78205 -1.34588,-23.1411 10.60522,-28.17231 3.06756,-7.02199 2.59169,-17.86532 -3.88928,-21.91033 z"/>
          <path sodipodi:nodetypes="cccc" style="fill:#ffffff;fill-opacity:1;stroke:#000000;stroke-width:3.552315;stroke-miterlimit:4;stroke-opacity:1;stroke-dasharray:none" id="path3751" d="m 405.70926,755.36666 c -9.18634,21.18573 9.43199,42.77009 29.34316,28.1012 0,0 -20.86484,-8.85749 -10.43248,-19.22511 -2.20426,-10.14274 -10.7626,-14.861 -18.91068,-8.87609 z"/>
          <path sodipodi:nodetypes="cccc" style="fill:#ffffff;fill-opacity:1;stroke:#000000;stroke-width:3.552315;stroke-miterlimit:4;stroke-opacity:1;stroke-dasharray:none" id="path3753" d="m 463.16726,750.96751 c 11.87668,4.82504 6.44591,15.16551 -4.96054,16.90505 26.12192,13.87622 29.54895,-2.93822 23.94726,-26.18369 -8.82469,-9.53061 -17.27953,-2.61028 -18.98672,9.27864 z"/>
          <path style="fill:#ffffff;fill-opacity:1;stroke:#000000;stroke-width:3.552315;stroke-miterlimit:4;stroke-opacity:1;stroke-dasharray:none" id="path3755" d="m 147.28024,609.87636 c 5.30261,-1.32573 9.23681,-1.98862 11.63153,-2.15433 10.09206,0.8286 11.28943,-3.97726 4.10525,-14.58496 -0.17105,-0.16584 -0.17105,-0.16584 -0.34212,-0.32979 -0.17105,0 -0.17105,-0.33144 -0.17105,-0.33144 -4.61839,-3.64582 -10.43416,-5.30302 -17.10518,-4.80586 -9.92101,0.8286 -16.76308,3.31439 -20.52623,7.12592 -4.6184,4.47444 -6.49997,8.94887 -5.30261,13.42494 6.67103,-4.80586 14.19731,-7.12594 22.4078,-7.12594 5.3026,2.48579 6.84207,5.6328 4.44734,9.11458 l 2.5658,-0.99598 c -0.68422,0.16562 -1.19738,0.49715 -1.71054,0.66286 z"/>
          <path style="fill:#ffffff;fill-opacity:1;stroke:#000000;stroke-width:3.552315;stroke-miterlimit:4;stroke-opacity:1;stroke-dasharray:none" id="path3757" d="m 134.9645,629.59699 c -9.57889,2.81722 -15.90782,8.61741 -19.1578,16.90338 -1.19737,7.29165 -0.68421,13.58899 1.36842,18.89203 3.59208,5.80017 8.55258,8.61741 14.53939,8.78312 -2.73682,-3.14868 -3.93418,-7.12592 -3.24998,-12.26325 1.53947,-3.31437 4.27631,-4.97159 8.21049,-4.64012 0.17107,-0.16563 0.17107,-0.33147 0.17107,-0.66124 4.10524,-2.9846 6.49997,-6.29897 7.18417,-10.11054 -0.6842,-5.46873 -3.59209,-11.10321 -9.06575,-16.90338 z"/>
          <path style="fill:#ffffff;fill-opacity:1;stroke:#000000;stroke-width:3.552315;stroke-miterlimit:4;stroke-opacity:1;stroke-dasharray:none" id="path3759" d="m 162.33281,672.84977 c -0.17105,0 -0.17105,0 -0.17105,0 -5.81577,6.79449 -8.72365,14.41757 -8.8947,23.03332 1.19736,12.42898 8.72365,16.9034 22.7499,13.25756 -5.98683,-3.64416 -8.5526,-8.94718 -7.52628,-15.74335 2.05261,-4.14297 5.13155,-5.80017 9.40785,-4.47274 0.17105,0 0.17105,0 0.17105,0 0,-0.1673 0,-0.1673 0.17105,-0.1673 1.71053,-0.99431 1.88158,-2.65153 0.85527,-4.97159 -3.5921,-5.30136 -9.23681,-8.94718 -16.76309,-10.93582 z"/>
          <path sodipodi:nodetypes="cccc" style="fill:#ffffff;fill-opacity:1;stroke:#000000;stroke-width:3.552315;stroke-miterlimit:4;stroke-opacity:1;stroke-dasharray:none" id="path3739" d="m 134.0068,456.89056 c 8.74148,-4.85848 25.44081,0.0735 20.3298,9.04209 -11.34202,21.09207 -45.14146,16.40277 -47.49917,-3.65283 17.76099,7.29494 24.90395,0.37223 27.16937,-5.38926 z"/>
          <path sodipodi:nodetypes="cccc" style="fill:#ffffff;fill-opacity:1;stroke:#000000;stroke-width:3.552315;stroke-miterlimit:4;stroke-opacity:1;stroke-dasharray:none" id="path3737" d="m 101.32901,416.57555 c -22.694359,4.26354 -25.510288,27.76674 -3.208935,40.52218 -5.575192,-11.74978 2.202545,-20.22258 15.282685,-23.60208 10.59998,-9.82939 -0.38978,-15.35013 -12.07375,-16.9201 z"/>
        </g>
      </g>
    </g>
  </g>
</svg>