<?xml version="1.0" encoding="UTF-8" standalone="no"?>
<!-- Created with Inkscape (http://www.inkscape.org/) -->
<svg xmlns:dc="http://purl.org/dc/elements/1.1/" xmlns:cc="http://web.resource.org/cc/" xmlns:rdf="http://www.w3.org/1999/02/22-rdf-syntax-ns#" xmlns:svg="http://www.w3.org/2000/svg" xmlns="http://www.w3.org/2000/svg" xmlns:sodipodi="http://sodipodi.sourceforge.net/DTD/sodipodi-0.dtd" xmlns:inkscape="http://www.inkscape.org/namespaces/inkscape" version="1.0" width="272.02164" height="196.84914" id="svg2" sodipodi:version="0.32" inkscape:version="0.44">
  <metadata id="metadata2914">
    <rdf:RDF>
      <cc:Work rdf:about="">
        <dc:format>image/svg+xml</dc:format>
        <dc:type rdf:resource="http://purl.org/dc/dcmitype/StillImage"/>
        <dc:title>Loup passant</dc:title>
        <dc:creator>
          <cc:Agent>
            <dc:title>AtonX</dc:title>
          </cc:Agent>
        </dc:creator>
        <dc:rights>
          <cc:Agent>
            <dc:title>Dual GFDL CC-BY-NC-SA-2.0.</dc:title>
          </cc:Agent>
        </dc:rights>
        <cc:license rdf:resource="http://creativecommons.org/licenses/by-nc-sa/2.5/"/>
      </cc:Work>
      <cc:License rdf:about="http://creativecommons.org/licenses/by-nc-sa/2.5/">
        <cc:permits rdf:resource="http://web.resource.org/cc/Reproduction"/>
        <cc:permits rdf:resource="http://web.resource.org/cc/Distribution"/>
        <cc:requires rdf:resource="http://web.resource.org/cc/Notice"/>
        <cc:requires rdf:resource="http://web.resource.org/cc/Attribution"/>
        <cc:prohibits rdf:resource="http://web.resource.org/cc/CommercialUse"/>
        <cc:permits rdf:resource="http://web.resource.org/cc/DerivativeWorks"/>
        <cc:requires rdf:resource="http://web.resource.org/cc/ShareAlike"/>
      </cc:License>
    </rdf:RDF>
  </metadata>
  <sodipodi:namedview inkscape:window-height="712" inkscape:window-width="1024" inkscape:pageshadow="2" inkscape:pageopacity="0.0" guidetolerance="10.0" gridtolerance="10.0" objecttolerance="10.0" borderopacity="1.0" bordercolor="#666666" pagecolor="#ffffff" id="base" inkscape:zoom="1.8535368" inkscape:cx="199.22501" inkscape:cy="66.518194" inkscape:window-x="-4" inkscape:window-y="-4" inkscape:current-layer="svg2"/>
  <defs id="defs4"/>
  <path id="path11718" style="fill:black;fill-opacity:1;fill-rule:evenodd;stroke:black;stroke-width:1;stroke-linecap:butt;stroke-linejoin:miter;stroke-miterlimit:4;stroke-dasharray:none;stroke-dashoffset:0;stroke-opacity:1" d="M 102.73754,60.50612 C 90.09613,58.14902 78.982072,60.462159 69.067302,62.101999 C 70.150252,75.685609 60.44436,75.99067 59.40035,110.8122 C 52.6282,109.43103 45.95722,107.92411 39.2238,105.93271 C 35.09272,104.71095 26.86883,102.71895 25.10888,102.79492 C 20.99985,102.97231 11.85062,108.79225 11.62521,108.97259 C 8.9013204,108.78325 6.2067704,108.41295 4.3115204,110.57149 C 3.4332704,111.44974 2.5353304,112.58943 2.5158104,113.73887 C 3.0686104,114.36174 3.3158004,114.66884 3.8883604,115.15532 C 5.0471604,116.13991 4.8339404,118.26109 4.7084604,119.45365 C 6.7439004,119.36443 7.2417604,120.6919 7.8268504,121.87904 C 8.8493604,122.63018 9.9141804,122.87933 10.94612,123.05767 C 13.17507,121.23586 14.41355,119.79917 15.24952,117.08363 C 17.32197,115.31186 20.3683,113.48153 21.77738,113.98317 C 23.5751,112.07959 24.17983,110.64789 28.09641,110.81641 C 32.12974,110.98995 35.22818,111.49293 39.5683,114.55476 C 37.2088,115.12285 36.76904,116.10111 35.12993,116.41468 C 38.86863,117.2724 48.41156,118.49626 51.86029,119.85146 C 55.60414,121.32264 62.4585,125.55544 62.74511,125.61276 C 63.0962,128.41486 62.63308,131.51404 63.65423,134.41557 C 63.76171,131.65224 64.9384,129.28686 66.55147,127.73415 C 68.21425,132.14999 69.13109,138.32839 71.3408,141.51087 C 70.4336,133.91239 70.36189,125.51908 72.28685,122.05791 C 74.50422,127.08439 78.11721,132.32421 82.51591,138.31799 C 86.81374,144.17432 91.47531,154.13625 92.56759,165.16189 C 92.93459,168.86639 89.10306,183.76258 76.4849,183.8462 C 70.1982,183.88786 68.13158,180.17238 63.24033,180.53506 C 63.07969,181.01096 62.18057,182.30294 61.55668,183.17638 C 61.31233,183.50219 61.15813,183.78409 61.08007,184.17437 C 60.9398,184.8757 59.62654,186.61717 59.53733,187.33089 C 59.24166,188.72439 59.3362,190.03872 59.48957,191.44486 C 63.73362,192.69571 68.45003,192.5684 70.56211,191.29986 C 72.11435,191.12931 73.46571,191.7859 73.57411,191.84503 C 78.38686,191.16041 82.03276,191.41872 88.667,191.50453 C 90.07223,187.231 96.40643,179.80264 100.70813,173.44282 C 100.74039,173.39514 101.18961,175.52815 101.33527,176.8712 C 102.15277,175.82806 102.75856,173.71801 102.90374,171.91617 C 103.99706,173.2057 104.91313,174.68322 105.64165,176.18074 C 106.15718,169.42798 101.67534,168.64612 99.90425,157.63054 C 99.68748,156.28231 98.99779,143.37376 98.95857,137.57218 C 100.55664,138.30886 102.00349,139.65313 102.68874,141.07367 C 102.99731,140.00571 102.74834,137.46627 102.69497,136.49366 C 105.03711,138.25506 109.9547,144.53773 110.92748,146.59715 C 109.39296,136.29429 100.64633,131.40783 97.9487,122.85334 C 110.30567,127.73201 156.32611,97.57916 179.57648,93.83951 C 185.8438,92.83146 186.74964,103.08787 184.57008,106.03434 C 177.84738,115.12252 163.46923,120.9601 162.81113,137.72671 C 162.35769,149.27907 181.70625,150.18803 181.73195,159.24914 C 181.7494,165.40294 168.91166,180.4349 159.7365,183.8462 C 158.19695,184.46202 155.58617,184.31922 153.82375,184.31922 C 151.47308,184.31922 144.21296,181.07366 142.38257,181.30372 C 141.13789,181.92269 140.5352,182.36776 139.39663,182.81147 C 137.7717,183.89475 136.97702,186.90695 136.38112,188.69466 C 135.98342,189.88774 137.07398,192.20719 138.33233,192.62664 C 140.64397,193.39719 142.26594,193.05101 144.42246,192.24232 C 145.8609,191.7029 147.50658,192.35892 148.97529,191.97624 C 151.83158,191.23202 157.87589,191.71709 162.81114,192.83359 C 164.96135,188.21279 169.60543,184.65476 171.9759,183.521 C 172.80102,183.92345 173.04019,185.26151 173.04019,185.79742 C 176.45372,184.15734 176.3063,180.95909 176.97698,179.85879 C 178.40082,177.52284 180.7291,174.10098 183.77185,171.75462 C 184.74136,172.06244 185.87089,172.83889 186.28478,174.03103 C 187.60828,171.7708 188.17523,168.35158 187.99947,165.63491 C 190.28792,161.71274 194.3032,158.14863 199.11546,156.05626 C 195.0828,150.38056 187.09827,153.43651 186.93518,143.04819 C 186.76742,132.3627 202.74505,121.16615 199.41109,103.55099 C 204.82589,123.43455 193.56153,121.90026 194.267,137.72671 C 194.58836,144.93598 203.26367,155.22846 210.94097,155.22846 C 221.68398,155.22846 225.96806,147.66014 233.05467,147.66014 C 238.06745,147.66014 247.78995,156.00169 247.71831,159.24914 C 247.61002,164.15812 244.33972,171.79158 242.45595,174.50405 C 237.55965,181.55431 233.66591,182.36287 226.90541,182.07238 C 224.15916,181.95437 223.67339,181.32372 222.1752,179.82553 C 220.41371,178.06403 219.1409,182.73884 218.86406,183.8462 C 218.78522,184.16155 218.70638,184.4769 218.62755,184.79224 C 218.1778,186.59124 218.39104,189.13712 218.39104,190.94151 C 218.39104,192.96666 221.86907,192.04062 223.12124,191.41453 C 226.44817,189.75107 226.90611,188.81292 231.16259,188.81292 C 234.49356,188.81292 237.08926,190.41284 240.14998,191.17802 C 240.46532,191.25686 240.78067,191.33569 241.09602,191.41453 C 247.60387,189.96133 245.35971,179.80295 250.86221,173.6201 C 251.4827,174.46294 252.16979,175.57325 252.73052,176.81647 C 254.86419,174.2776 253.96138,170.2735 254.07539,167.6262 C 255.34471,165.51066 256.44163,162.92882 258.59778,161.85075 C 259.66095,162.3853 260.18962,162.76643 260.82187,163.84326 C 261.77094,161.94512 261.46075,158.90356 260.47674,157.94486 C 257.88349,155.41828 251.92339,149.50012 250.31992,147.89665 C 247.70522,145.28195 246.26096,141.90733 244.64367,138.67275 C 243.57133,136.52807 242.31915,134.38282 242.9881,131.81395 C 237.53848,133.60235 234.30572,137.50734 228.18838,138.02061 C 225.16423,138.02061 220.23119,137.41682 219.91053,131.76846 C 219.67265,127.64028 220.34249,124.59702 220.99265,122.35723 C 221.98638,123.03589 223.4955,123.94358 224.92028,125.9012 C 224.73712,123.11899 224.01359,119.8022 222.88473,118.09636 C 222.84292,117.01433 222.86606,114.4444 223.42702,113.88344 C 224.18062,114.38413 224.73192,114.99135 225.06948,115.88169 C 224.80977,113.36149 223.30351,108.92782 220.677,104.6247 C 218.0505,100.32157 213.6348,96.44167 209.56308,94.15102 C 214.00857,94.09042 222.17927,99.84055 225.04802,101.81249 C 225.15119,101.22179 224.99869,100.52594 225.13836,100.18296 C 228.63761,101.74668 230.94765,103.96609 233.65219,106.83559 C 233.7063,106.85723 233.8627,105.09141 233.82957,104.95887 C 236.07385,106.2892 238.51819,110.18482 239.6542,111.08494 C 239.6542,109.94106 239.13503,108.50731 239.26813,107.55371 C 240.34714,108.95145 243.78822,113.54676 245.48811,116.14179 C 245.49252,114.82904 245.41524,114.06319 245.61303,113.58598 C 248.64991,116.71055 249.87496,120.34197 252.5924,122.96986 C 251.92231,121.14685 251.55806,119.84828 251.59476,118.51182 C 254.2746,120.50355 256.95613,126.80597 258.81643,128.98289 C 258.91726,127.43261 258.40393,125.16035 258.72512,124.44282 C 259.80881,126.61018 262.14963,132.12519 263.56923,134.07858 C 263.55318,132.8318 263.54106,131.95602 263.76342,131.24393 C 264.75386,132.16023 265.84772,134.03295 267.81192,135.52053 C 267.20382,133.90317 266.79077,132.94277 266.88443,132.25315 C 267.8222,132.43953 270.27802,134.9574 270.98755,135.44564 C 270.51453,132.98088 268.72041,129.65501 267.7096,128.02265 C 269.04561,129.12779 271.18223,130.3092 271.52164,130.85499 C 271.37398,129.74665 269.0398,126.25161 268.48713,125.51473 C 268.85827,125.50207 270.02303,125.74251 270.40983,125.92236 C 270.1968,124.03898 262.72518,118.08186 261.92555,117.50172 C 263.06585,117.61138 264.86974,117.75173 266.46187,118.14977 C 265.24099,116.7875 260.86772,113.99684 258.87345,112.86087 C 259.88786,112.61088 261.04395,112.61923 261.88373,112.75635 C 259.48839,109.0276 254.93777,108.95076 251.32684,107.2793 C 253.7608,106.70892 255.86318,106.87375 256.65755,106.71487 C 253.13954,105.16221 247.28533,104.22606 244.82547,103.99726 C 245.28147,103.61999 246.20337,103.05267 247.02047,103.01474 C 245.14563,102.19451 240.88958,101.69774 238.88852,101.69774 C 239.20052,101.13331 239.47442,100.93457 240.47728,100.38073 C 239.31686,100.18789 236.69084,99.86039 235.00023,99.60726 C 235.55608,99.25188 235.74582,98.75485 236.65171,98.29026 C 233.75238,97.38572 230.4292,97.89537 229.81586,97.95579 C 229.96741,97.68019 230.35912,97.23909 230.89955,96.77346 C 217.26046,94.28475 213.07732,92.35347 209.75454,90.33556 C 201.0101,85.0251 189.51541,84.09589 178.65732,82.97459 C 171.43182,82.22843 153.89336,82.15058 146.61019,80.846 C 136.99963,79.12453 108.64405,69.8433 102.73754,60.50612 z " sodipodi:nodetypes="cccsscccscccccsccscccccsssccscccccscccscccccsssscsccsssscccsccccscsssssssssssssccccccsssccccccccsccccccccccccccccccccccccccccccccccccsssc"/>
  <path id="path13548" style="fill:white;fill-opacity:1;fill-rule:evenodd;stroke:black;stroke-width:1;stroke-linecap:butt;stroke-linejoin:miter;stroke-miterlimit:4;stroke-dasharray:none;stroke-opacity:1" d="M 163.58415,111.85416 C 172.63689,97.3065 180.72233,97.81923 192.34242,101.36219 C 191.0125,104.21734 195.89975,106.44104 199.52968,104.72594 C 201.87076,103.61981 199.87887,99.15478 197.3841,97.94684 C 183.69235,91.31746 167.58102,94.18823 163.58415,111.85416 z "/>
  <g style="stroke:black;stroke-width:1;stroke-miterlimit:4;stroke-dasharray:none;stroke-opacity:1" id="g18013" transform="translate(-438.6344,-470.9423)">
    <g style="stroke:black;stroke-width:1;stroke-miterlimit:4;stroke-dasharray:none;stroke-opacity:1" id="g13498">
      <path d="M 441.13592,584.73711 C 442.04977,585.48659 442.93768,585.99648 443.23494,587.14657 C 441.87531,587.51546 439.97009,591.16087 439.84989,593.38453 C 438.34676,590.62368 439.42197,587.20625 441.13592,584.73711 z " style="fill:white;fill-opacity:1;fill-rule:evenodd;stroke:black;stroke-width:1;stroke-linecap:butt;stroke-linejoin:miter;stroke-miterlimit:4;stroke-dasharray:none;stroke-opacity:1" id="path12605"/>
      <path d="M 443.35224,590.35001 C 445.0447,590.33117 445.65819,591.16752 446.17324,592.23794 C 444.91119,592.86397 443.44194,596.937 443.75608,599.14164 C 441.74518,596.72545 442.15069,593.10511 443.35224,590.35001 z " style="fill:white;fill-opacity:1;fill-rule:evenodd;stroke:black;stroke-width:1;stroke-linecap:butt;stroke-linejoin:miter;stroke-miterlimit:4;stroke-dasharray:none;stroke-opacity:1" id="path13492"/>
      <path d="M 446.46498,592.81906 C 447.77207,593.58524 448.55529,593.75055 449.56683,594.01914 C 448.52827,594.97102 448.1295,599.97915 449.04352,602.00984 C 446.44073,600.24711 446.07578,595.79947 446.46498,592.81906 z " style="fill:white;fill-opacity:1;fill-rule:evenodd;stroke:black;stroke-width:1;stroke-linecap:butt;stroke-linejoin:miter;stroke-miterlimit:4;stroke-dasharray:none;stroke-opacity:1" id="path13494"/>
      <path d="M 460.43863,584.89989 C 459.34408,584.69646 458.42174,585.03976 457.37029,585.61117 C 457.69108,586.87711 456.23002,588.94485 454.66023,590.10155 C 457.3261,589.99012 459.38122,587.4514 460.43863,584.89989 z " style="fill:white;fill-opacity:1;fill-rule:evenodd;stroke:black;stroke-width:1;stroke-linecap:butt;stroke-linejoin:miter;stroke-miterlimit:4;stroke-dasharray:none;stroke-opacity:1" id="path13496"/>
    </g>
    <g style="stroke:black;stroke-width:1;stroke-miterlimit:4;stroke-dasharray:none;stroke-opacity:1" id="g17995">
      <path d="M 501.89547,651.45176 C 501.43736,652.54124 501.20152,653.53761 500.18377,654.15017 C 499.44285,652.95196 495.40576,652.1641 493.23999,652.68233 C 495.45826,650.45501 499.04039,650.51218 501.89547,651.45176 z " style="fill:white;fill-opacity:1;fill-rule:evenodd;stroke:black;stroke-width:1;stroke-linecap:butt;stroke-linejoin:miter;stroke-miterlimit:4;stroke-dasharray:none;stroke-opacity:1" id="path13506"/>
      <path d="M 499.67748,655.1218 C 500.03273,656.78169 499.23034,657.53164 498.15001,658.22602 C 497.20926,657.09586 492.42089,656.36823 490.04828,657.06462 C 492.31921,654.66361 496.39746,654.42549 499.67748,655.1218 z " style="fill:white;fill-opacity:1;fill-rule:evenodd;stroke:black;stroke-width:1;stroke-linecap:butt;stroke-linejoin:miter;stroke-miterlimit:4;stroke-dasharray:none;stroke-opacity:1" id="path13508"/>
      <path d="M 498.06451,658.8953 C 497.9534,659.82739 498.04342,661.34861 498.16237,662.38841 C 496.8972,661.7687 492.02606,663.2454 490.46879,664.83726 C 491.16047,661.77078 495.14752,659.62025 498.06451,658.8953 z " style="fill:white;fill-opacity:1;fill-rule:evenodd;stroke:black;stroke-width:1;stroke-linecap:butt;stroke-linejoin:miter;stroke-miterlimit:4;stroke-dasharray:none;stroke-opacity:1" id="path13510"/>
      <path d="M 512.24169,662.79354 C 511.31279,662.1799 510.32957,662.13689 509.1386,662.25369 C 508.94104,663.54461 506.79005,664.88008 504.89372,665.33409 C 507.3925,666.26969 510.27407,664.73179 512.24169,662.79354 z " style="fill:white;fill-opacity:1;fill-rule:evenodd;stroke:black;stroke-width:1;stroke-linecap:butt;stroke-linejoin:miter;stroke-miterlimit:4;stroke-dasharray:none;stroke-opacity:1" id="path13512"/>
    </g>
    <g style="stroke:black;stroke-width:1;stroke-miterlimit:4;stroke-dasharray:none;stroke-opacity:1" id="g18001">
      <path d="M 580.87743,652.25717 C 579.93062,652.96456 579.22264,653.70424 578.03483,653.71696 C 578.00284,652.30853 574.92085,649.58452 572.79094,648.93445 C 575.83174,648.13744 578.8915,650.00099 580.87743,652.25717 z " style="fill:white;fill-opacity:1;fill-rule:evenodd;stroke:black;stroke-width:1;stroke-linecap:butt;stroke-linejoin:miter;stroke-miterlimit:4;stroke-dasharray:none;stroke-opacity:1" id="path13516"/>
      <path d="M 577.65187,654.02884 C 576.69974,655.10323 576.34057,656.0906 575.8459,657.21625 C 574.81486,656.25623 570.45582,656.49588 568.50379,657.56765 C 570.05513,654.8336 574.65001,653.87659 577.65187,654.02884 z " style="fill:white;fill-opacity:1;fill-rule:evenodd;stroke:black;stroke-width:1;stroke-linecap:butt;stroke-linejoin:miter;stroke-miterlimit:4;stroke-dasharray:none;stroke-opacity:1" id="path13518"/>
      <path d="M 575.33115,658.67209 C 574.98526,660.14718 574.91086,660.97385 575.36695,661.96045 C 574.15076,661.24942 569.24832,662.3478 567.57824,663.82088 C 568.49347,660.81354 572.36877,659.18065 575.33115,658.67209 z " style="fill:white;fill-opacity:1;fill-rule:evenodd;stroke:black;stroke-width:1;stroke-linecap:butt;stroke-linejoin:miter;stroke-miterlimit:4;stroke-dasharray:none;stroke-opacity:1" id="path13520"/>
      <path d="M 587.45501,662.8827 C 586.15232,662.78555 584.75608,662.51892 583.23811,663.14766 C 583.01868,664.43504 580.84534,665.55646 578.94159,665.97826 C 581.42415,666.95609 585.45481,664.78731 587.45501,662.8827 z " style="fill:white;fill-opacity:1;fill-rule:evenodd;stroke:black;stroke-width:1;stroke-linecap:butt;stroke-linejoin:miter;stroke-miterlimit:4;stroke-dasharray:none;stroke-opacity:1" id="path13522"/>
    </g>
    <g style="stroke:black;stroke-width:1;stroke-miterlimit:4;stroke-dasharray:none;stroke-opacity:1" id="g18007">
      <path d="M 659.521,650.55941 C 658.23816,651.48292 658.06223,652.98621 657.80145,653.50498 C 656.75335,652.56362 652.57405,652.92253 650.64157,654.02914 C 652.14359,651.2677 656.51691,650.46106 659.521,650.55941 z " style="fill:white;fill-opacity:1;fill-rule:evenodd;stroke:black;stroke-width:1;stroke-linecap:butt;stroke-linejoin:miter;stroke-miterlimit:4;stroke-dasharray:none;stroke-opacity:1" id="path13526"/>
      <path d="M 657.37831,655.19767 C 657.29791,655.72964 656.80758,657.55052 656.96515,658.69263 C 655.89493,657.7193 651.56218,657.69589 649.69405,658.78048 C 651.07573,656.0115 654.40699,655.04144 657.37831,655.19767 z " style="fill:white;fill-opacity:1;fill-rule:evenodd;stroke:black;stroke-width:1;stroke-linecap:butt;stroke-linejoin:miter;stroke-miterlimit:4;stroke-dasharray:none;stroke-opacity:1" id="path13528"/>
      <path d="M 657.00465,660.25093 C 657.34957,661.77879 657.69732,662.38272 658.72804,663.18959 C 657.34596,662.91653 653.19993,665.35227 652.10504,667.29142 C 651.98384,664.15025 654.37269,661.7025 657.00465,660.25093 z " style="fill:white;fill-opacity:1;fill-rule:evenodd;stroke:black;stroke-width:1;stroke-linecap:butt;stroke-linejoin:miter;stroke-miterlimit:4;stroke-dasharray:none;stroke-opacity:1" id="path13530"/>
      <path d="M 671.37116,659.87781 C 670.28704,659.72421 669.05096,659.73319 668.22157,659.8516 C 668.23733,661.15745 666.2704,662.72151 664.47359,663.47891 C 667.09155,663.99419 669.74623,662.11117 671.37116,659.87781 z " style="fill:white;fill-opacity:1;fill-rule:evenodd;stroke:black;stroke-width:1;stroke-linecap:butt;stroke-linejoin:miter;stroke-miterlimit:4;stroke-dasharray:none;stroke-opacity:1" id="path13532"/>
    </g>
  </g>
  <g id="g8124" style="stroke:black;stroke-width:1;stroke-miterlimit:4;stroke-dasharray:none;stroke-opacity:1" transform="translate(-438.6344,-470.9423)">
    <g id="g8120" transform="matrix(1.208781,0,0,1.404222,-93.34612,-185.104)" style="stroke:black;stroke-width:0.76755285;stroke-miterlimit:4;stroke-dasharray:none;stroke-opacity:1">
      <g id="g17987" style="stroke:black;stroke-width:0.76755285;stroke-miterlimit:4;stroke-dasharray:none;stroke-opacity:1">
        <path id="path1888" style="fill:white;fill-opacity:1;fill-rule:evenodd;stroke:black;stroke-width:0.99999988;stroke-linecap:butt;stroke-linejoin:miter;stroke-miterlimit:4;stroke-dasharray:none;stroke-opacity:1" transform="matrix(0.82728,0,0,0.712138,77.22335,131.8196)" d="M 494.72573,510.35371 C 495.20379,508.56957 487.83056,506.0645 483.80278,506.0645 C 469.05573,506.0645 468.96938,513.19475 460.70072,513.17277 C 459.14839,513.16854 457.30524,511.06106 456.73989,511.00563 C 455.43071,510.87726 454.16479,511.4567 454.16479,512.83837 C 454.16479,514.90619 457.22202,517.94519 461.68967,517.94519 C 470.32903,517.94519 470.33132,507.16004 483.83587,507.16004 C 489.26284,507.16004 492.19503,509.67561 494.72573,510.35371 z "/>
        <g id="g17980" style="stroke:black;stroke-width:0.76755285;stroke-miterlimit:4;stroke-dasharray:none;stroke-opacity:1">
          <path id="path4571" style="fill:black;fill-opacity:1;fill-rule:evenodd;stroke:black;stroke-width:0.99999988;stroke-linecap:butt;stroke-linejoin:miter;stroke-miterlimit:4;stroke-dasharray:none;stroke-opacity:1" transform="matrix(0.82728,0,0,0.712138,77.22335,131.8196)" d="M 497.27966,556.5023 C 498.54868,555.01987 504.89464,543.88657 505.1467,541.67555 C 502.28966,544.5128 498.6597,545.14053 495.3976,544.57871 C 500.82653,541.81531 501.98736,538.02473 505.5813,533.73432 C 503.54031,534.40902 500.30611,534.80037 498.62985,534.67508 C 502.09859,532.09557 504.73585,528.38239 507.03346,524.72886 C 508.83123,521.05793 508.48548,516.85423 509.62442,513.00008 C 503.34167,520.48788 502.47583,515.3037 487.30806,515.3037 C 484.33099,515.3037 477.90845,517.23372 478.19759,512.4303 C 479.11648,509.82967 481.43194,507.92955 482.79373,509.96363 C 486.59526,509.68491 490.321,510.33735 494.1114,510.52548 C 498.4093,510.93662 500.0424,508.54312 497.97978,505.2723 C 495.76168,501.75494 490.46162,500.60586 486.4619,499.046 C 482.7558,497.60065 477.73025,499.38165 474.65122,502.21493 C 470.41811,503.51745 466.69601,497.50073 466.11025,493.99649 C 473.26381,490.97312 477.1994,488.40923 484.448,487.16973 C 485.93773,481.80113 502.13668,482.02579 507.6756,481.79645 C 510.25909,479.51136 516.49654,475.57268 521.99302,471.44238 C 520.53977,478.25989 519.36047,483.34537 519.72925,487.73398 C 529.36665,491.99099 536.01072,501.64795 542.07041,509.97678 C 541.00833,509.37161 539.07551,508.6373 538.03503,508.44119 C 540.51932,511.75394 542.64905,515.63044 546.11883,519.54671 C 543.25499,518.836 541.97648,517.87572 539.125,515.61218 C 540.09359,518.10987 542.86235,522.9131 545.22139,525.95936 C 543.28357,525.25115 542.13997,524.7949 540.09481,523.01921 C 540.54011,527.48726 544.8929,533.85827 549.42879,535.6758 C 544.96661,537.4405 537.1718,536.24583 534.77252,535.07838 C 535.49867,538.74235 537.75339,544.31781 540.06505,547.63677 C 535.47407,546.15435 531.64348,543.16216 529.35571,540.19336 C 530.93335,545.1008 528.48306,553.59787 525.36074,556.27346 C 525.29541,552.79644 524.31312,550.64851 523.25,547.11218 C 522.01409,551.9432 518.27489,556.12995 513.5,557.61218 C 514.96337,555.19227 514.5055,553.8376 513.68622,547.62352 C 513.12685,552.9028 504.48917,554.5415 497.27966,556.5023 z "/>
          <g id="g17975" style="stroke:black;stroke-width:0.76755285;stroke-miterlimit:4;stroke-dasharray:none;stroke-opacity:1">
            <path id="path7231" style="opacity:1;color:black;fill:white;fill-opacity:1;fill-rule:nonzero;stroke:black;stroke-width:0.76755273;stroke-linecap:butt;stroke-linejoin:miter;marker:none;marker-start:none;marker-mid:none;marker-end:none;stroke-miterlimit:4;stroke-dasharray:none;stroke-dashoffset:0;stroke-opacity:1;visibility:visible;display:inline;overflow:visible" transform="matrix(0.949126,-0.314897,0.314897,0.949126,-115.3657,172.8064)" d="M 472.5625,481.36218 C 472.5625,481.94898 471.33128,482.42468 469.8125,482.42468 C 468.29372,482.42468 467.0625,481.94898 467.0625,481.36218 C 467.0625,480.77538 468.29372,480.29968 469.8125,480.29968 C 471.33128,480.29968 472.5625,480.77538 472.5625,481.36218 z "/>
            <path id="path7233" style="opacity:1;color:black;fill:black;fill-opacity:1;fill-rule:nonzero;stroke:black;stroke-width:1.24877739;stroke-linecap:butt;stroke-linejoin:miter;marker:none;marker-start:none;marker-mid:none;marker-end:none;stroke-miterlimit:4;stroke-dasharray:none;stroke-dashoffset:0;stroke-opacity:1;visibility:visible;display:inline;overflow:visible" transform="matrix(0.529122,-0.213395,0.175551,0.643188,148.1584,272.7664)" d="M 472.5625,481.36218 C 472.5625,481.94898 471.33128,482.42468 469.8125,482.42468 C 468.29372,482.42468 467.0625,481.94898 467.0625,481.36218 C 467.0625,480.77538 468.29372,480.29968 469.8125,480.29968 C 471.33128,480.29968 472.5625,480.77538 472.5625,481.36218 z "/>
          </g>
        </g>
      </g>
    </g>
  </g>
  <g transform="matrix(0.352814,0.935693,-0.935693,0.352814,561.8106,-538.6003)" style="stroke:black;stroke-width:1.00000048;stroke-miterlimit:4;stroke-dasharray:none;stroke-opacity:1;display:none" id="g13514">
    <path d="M 441.13592,584.73711 C 442.04977,585.48659 442.93768,585.99648 443.23494,587.14657 C 441.87531,587.51546 439.97009,591.16087 439.84989,593.38453 C 438.34676,590.62368 439.42197,587.20625 441.13592,584.73711 z " style="fill:white;fill-opacity:1;fill-rule:evenodd;stroke:black;stroke-width:1.00000048;stroke-linecap:butt;stroke-linejoin:miter;stroke-miterlimit:4;stroke-dasharray:none;stroke-opacity:1" id="path18188"/>
    <path d="M 443.35224,590.35001 C 445.0447,590.33117 445.65819,591.16752 446.17324,592.23794 C 444.91119,592.86397 443.44194,596.937 443.75608,599.14164 C 441.74518,596.72545 442.15069,593.10511 443.35224,590.35001 z " style="fill:white;fill-opacity:1;fill-rule:evenodd;stroke:black;stroke-width:1.00000048;stroke-linecap:butt;stroke-linejoin:miter;stroke-miterlimit:4;stroke-dasharray:none;stroke-opacity:1" id="path18190"/>
    <path d="M 446.46498,592.81906 C 447.77207,593.58524 448.55529,593.75055 449.56683,594.01914 C 448.52827,594.97102 448.1295,599.97915 449.04352,602.00984 C 446.44073,600.24711 446.07578,595.79947 446.46498,592.81906 z " style="fill:white;fill-opacity:1;fill-rule:evenodd;stroke:black;stroke-width:1.00000048;stroke-linecap:butt;stroke-linejoin:miter;stroke-miterlimit:4;stroke-dasharray:none;stroke-opacity:1" id="path18192"/>
    <path d="M 460.43863,584.89989 C 459.34408,584.69646 458.42174,585.03976 457.37029,585.61117 C 457.69108,586.87711 456.23002,588.94485 454.66023,590.10155 C 457.3261,589.99012 459.38122,587.4514 460.43863,584.89989 z " style="fill:white;fill-opacity:1;fill-rule:evenodd;stroke:black;stroke-width:1.00000048;stroke-linecap:butt;stroke-linejoin:miter;stroke-miterlimit:4;stroke-dasharray:none;stroke-opacity:1" id="path18194"/>
  </g>
</svg>