<?xml version="1.0" encoding="UTF-8" standalone="no"?>
<!-- Created with Inkscape (http://www.inkscape.org/) -->
<svg xmlns:i="http://ns.adobe.com/AdobeIllustrator/10.0/" xmlns:dc="http://purl.org/dc/elements/1.1/" xmlns:cc="http://web.resource.org/cc/" xmlns:rdf="http://www.w3.org/1999/02/22-rdf-syntax-ns#" xmlns:svg="http://www.w3.org/2000/svg" xmlns="http://www.w3.org/2000/svg" xmlns:sodipodi="http://sodipodi.sourceforge.net/DTD/sodipodi-0.dtd" xmlns:inkscape="http://www.inkscape.org/namespaces/inkscape" version="1.0" width="272.43381" height="179.29599" id="svg2" sodipodi:version="0.32" inkscape:version="0.45.1" sodipodi:docname="Loups passant.svg" inkscape:output_extension="org.inkscape.output.svg.inkscape" sodipodi:docbase="C:\Documents and Settings\Propriétaire\Mes documents\Mes images\héraldique\Héraldique\Meubles\Animaux à trier et reprendre\Canins">
  <metadata id="metadata2914">
    <rdf:RDF>
      <cc:Work rdf:about="">
        <dc:format>image/svg+xml</dc:format>
        <dc:type rdf:resource="http://purl.org/dc/dcmitype/StillImage"/>
        <dc:title>Loup passant</dc:title>
        <dc:creator>
          <cc:Agent>
            <dc:title>AtonX</dc:title>
          </cc:Agent>
        </dc:creator>
        <dc:rights>
          <cc:Agent>
            <dc:title>Dual GFDL CC-BY-NC-SA-2.0.</dc:title>
          </cc:Agent>
        </dc:rights>
        <cc:license rdf:resource="http://creativecommons.org/licenses/by-nc-sa/2.5/"/>
      </cc:Work>
      <cc:License rdf:about="http://creativecommons.org/licenses/by-nc-sa/2.5/">
        <cc:permits rdf:resource="http://web.resource.org/cc/Reproduction"/>
        <cc:permits rdf:resource="http://web.resource.org/cc/Distribution"/>
        <cc:requires rdf:resource="http://web.resource.org/cc/Notice"/>
        <cc:requires rdf:resource="http://web.resource.org/cc/Attribution"/>
        <cc:prohibits rdf:resource="http://web.resource.org/cc/CommercialUse"/>
        <cc:permits rdf:resource="http://web.resource.org/cc/DerivativeWorks"/>
        <cc:requires rdf:resource="http://web.resource.org/cc/ShareAlike"/>
      </cc:License>
    </rdf:RDF>
  </metadata>
  <sodipodi:namedview inkscape:window-height="723" inkscape:window-width="1024" inkscape:pageshadow="2" inkscape:pageopacity="0.0" guidetolerance="10.0" gridtolerance="10.0" objecttolerance="10.0" borderopacity="1.0" bordercolor="#666666" pagecolor="#ffffff" id="base" inkscape:zoom="2.9504286" inkscape:cx="135.92973" inkscape:cy="89.52301" inkscape:window-x="-4" inkscape:window-y="-4" inkscape:current-layer="svg2"/>
  <defs id="defs4"/>
  <g id="g4027" transform="translate(-226.95832,63.601921)" style="stroke:#000000;stroke-width:1.25;stroke-miterlimit:4;stroke-dasharray:none;stroke-opacity:1">
    <path id="path4015" style="fill:#ffffff;fill-opacity:1;fill-rule:evenodd;stroke:#000000;stroke-width:1.25;stroke-linecap:butt;stroke-linejoin:miter;stroke-miterlimit:4;stroke-dasharray:none;stroke-dashoffset:0;stroke-opacity:1" d="M 407.16063,12.220789 C 413.42795,11.212739 414.33379,21.469149 412.15423,24.415619 C 405.43153,33.503799 391.05338,39.341379 390.39528,56.107989 C 389.94184,67.660349 409.2904,68.569309 409.3161,77.630419 C 409.33355,83.784219 396.49581,98.816179 387.32065,102.22748 C 385.7811,102.8433 383.17032,102.7005 381.4079,102.7005 C 379.05723,102.7005 371.79711,99.454939 369.96672,99.684999 C 368.72204,100.30397 368.11935,100.74904 366.98078,101.19275 C 365.35585,102.27603 364.56117,105.28823 363.96527,107.07594 C 363.56757,108.26902 364.65813,110.58847 365.91648,111.00792 C 368.22812,111.77847 369.85009,111.43229 372.00661,110.6236 C 373.44505,110.08418 375.09073,110.7402 376.55944,110.35752 C 379.41573,109.6133 385.46004,110.09837 390.39529,111.21487 C 392.5455,106.59407 397.18958,103.03604 399.56005,101.90228 C 400.38517,102.30473 400.62434,103.64279 400.62434,104.1787 C 404.03787,102.53862 403.89045,99.340369 404.56113,98.240069 C 405.98497,95.904119 408.31325,92.482259 411.356,90.135899 C 412.32551,90.443719 413.45504,91.220169 413.86893,92.412309 C 415.19243,90.152079 415.75938,86.732859 415.58362,84.016189 C 417.87207,80.094019 421.88735,76.529909 426.69961,74.437539 C 422.66695,68.761839 414.68242,71.817789 414.51933,61.429469 C 414.35157,50.743979 430.3292,39.547429 426.99524,21.932269 L 407.16063,12.220789 z " sodipodi:nodetypes="cssscsccsssscccsccccscc"/>
    <g id="g4017" style="fill:#ffffff;fill-opacity:1;stroke:#000000;stroke-width:1.25;stroke-miterlimit:4;stroke-dasharray:none;stroke-opacity:1" transform="translate(-211.05025,-552.56102)">
      <path id="path4019" style="fill:#ffffff;fill-opacity:1;fill-rule:evenodd;stroke:#000000;stroke-width:1.25;stroke-linecap:butt;stroke-linejoin:miter;stroke-miterlimit:4;stroke-dasharray:none;stroke-opacity:1" d="M 580.87743,652.25717 C 579.93062,652.96456 579.22264,653.70424 578.03483,653.71696 C 578.00284,652.30853 574.92085,649.58452 572.79094,648.93445 C 575.83174,648.13744 578.8915,650.00099 580.87743,652.25717 z "/>
      <path id="path4021" style="fill:#ffffff;fill-opacity:1;fill-rule:evenodd;stroke:#000000;stroke-width:1.25;stroke-linecap:butt;stroke-linejoin:miter;stroke-miterlimit:4;stroke-dasharray:none;stroke-opacity:1" d="M 577.65187,654.02884 C 576.69974,655.10323 576.34057,656.0906 575.8459,657.21625 C 574.81486,656.25623 570.45582,656.49588 568.50379,657.56765 C 570.05513,654.8336 574.65001,653.87659 577.65187,654.02884 z "/>
      <path id="path4023" style="fill:#ffffff;fill-opacity:1;fill-rule:evenodd;stroke:#000000;stroke-width:1.25;stroke-linecap:butt;stroke-linejoin:miter;stroke-miterlimit:4;stroke-dasharray:none;stroke-opacity:1" d="M 575.33115,658.67209 C 574.98526,660.14718 574.91086,660.97385 575.36695,661.96045 C 574.15076,661.24942 569.24832,662.3478 567.57824,663.82088 C 568.49347,660.81354 572.36877,659.18065 575.33115,658.67209 z "/>
      <path id="path4025" style="fill:#ffffff;fill-opacity:1;fill-rule:evenodd;stroke:#000000;stroke-width:1.25;stroke-linecap:butt;stroke-linejoin:miter;stroke-miterlimit:4;stroke-dasharray:none;stroke-opacity:1" d="M 587.45501,662.8827 C 586.15232,662.78555 584.75608,662.51892 583.23811,663.14766 C 583.01868,664.43504 580.84534,665.55646 578.94159,665.97826 C 581.42415,666.95609 585.45481,664.78731 587.45501,662.8827 z "/>
    </g>
  </g>
  <g id="g3603" transform="translate(-295.14976,-68.844802)" style="stroke:#000000;stroke-width:1.25;stroke-miterlimit:4;stroke-dasharray:none;stroke-opacity:1">
    <path id="path3539" style="fill:#ffffff;fill-opacity:1;fill-rule:evenodd;stroke:#000000;stroke-width:1.25;stroke-linecap:butt;stroke-linejoin:miter;stroke-miterlimit:4;stroke-dasharray:none;stroke-dashoffset:0;stroke-opacity:1" d="M 378.88386,138.83339 C 367.62834,136.99391 368.05762,126.72313 354.67514,161.98532 C 347.90299,160.60415 341.23201,159.09723 334.49859,157.10583 C 330.36751,155.88407 322.14362,153.89207 320.38367,153.96804 C 316.27464,154.14543 307.12541,159.96537 306.9,160.14571 C 304.17611,159.95637 301.48156,159.58607 299.58631,161.74461 C 298.70806,162.62286 297.81012,163.76255 297.7906,164.91199 C 298.3434,165.53486 298.59059,165.84196 299.16315,166.32844 C 300.32195,167.31303 300.10873,169.43421 299.98325,170.62677 C 302.01869,170.53755 302.51655,171.86502 303.10164,173.05216 C 304.12415,173.8033 305.18897,174.05245 306.22091,174.23079 C 308.44986,172.40898 309.68834,170.97229 310.52431,168.25675 C 312.59676,166.48498 315.64309,164.65465 317.05217,165.15629 C 318.84989,163.25271 319.45462,161.82101 323.3712,161.98953 C 327.40453,162.16307 330.50297,162.66605 334.84309,165.72788 C 332.48359,166.29597 332.04383,167.27423 330.40472,167.5878 C 334.14342,168.44552 343.68635,169.66938 347.13508,171.02458 C 350.87893,172.49576 357.73329,176.72856 358.0199,176.78588 C 358.37099,179.58798 357.90787,182.68716 358.92902,185.58869 C 359.0365,182.82536 360.21319,180.45998 361.82626,178.90727 C 363.48904,183.32311 364.40588,189.50151 366.61559,192.68399 C 365.70839,185.08551 369.60262,174.04824 371.52758,170.58707 L 378.88386,138.83339 z " sodipodi:nodetypes="ccsscccscccccsccscccccc"/>
    <g transform="translate(-143.35961,-419.76918)" id="g3543" style="fill:#ffffff;fill-opacity:1;stroke:#000000;stroke-width:1.25;stroke-miterlimit:4;stroke-dasharray:none;stroke-opacity:1">
      <path id="path3545" style="fill:#ffffff;fill-opacity:1;fill-rule:evenodd;stroke:#000000;stroke-width:1.25;stroke-linecap:butt;stroke-linejoin:miter;stroke-miterlimit:4;stroke-dasharray:none;stroke-opacity:1" d="M 441.13592,584.73711 C 442.04977,585.48659 442.93768,585.99648 443.23494,587.14657 C 441.87531,587.51546 439.97009,591.16087 439.84989,593.38453 C 438.34676,590.62368 439.42197,587.20625 441.13592,584.73711 z "/>
      <path id="path3547" style="fill:#ffffff;fill-opacity:1;fill-rule:evenodd;stroke:#000000;stroke-width:1.25;stroke-linecap:butt;stroke-linejoin:miter;stroke-miterlimit:4;stroke-dasharray:none;stroke-opacity:1" d="M 443.35224,590.35001 C 445.0447,590.33117 445.65819,591.16752 446.17324,592.23794 C 444.91119,592.86397 443.44194,596.937 443.75608,599.14164 C 441.74518,596.72545 442.15069,593.10511 443.35224,590.35001 z "/>
      <path id="path3549" style="fill:#ffffff;fill-opacity:1;fill-rule:evenodd;stroke:#000000;stroke-width:1.25;stroke-linecap:butt;stroke-linejoin:miter;stroke-miterlimit:4;stroke-dasharray:none;stroke-opacity:1" d="M 446.46498,592.81906 C 447.77207,593.58524 448.55529,593.75055 449.56683,594.01914 C 448.52827,594.97102 448.1295,599.97915 449.04352,602.00984 C 446.44073,600.24711 446.07578,595.79947 446.46498,592.81906 z "/>
      <path id="path3551" style="fill:#ffffff;fill-opacity:1;fill-rule:evenodd;stroke:#000000;stroke-width:1.25;stroke-linecap:butt;stroke-linejoin:miter;stroke-miterlimit:4;stroke-dasharray:none;stroke-opacity:1" d="M 460.43863,584.89989 C 459.34408,584.69646 458.42174,585.03976 457.37029,585.61117 C 457.69108,586.87711 456.23002,588.94485 454.66023,590.10155 C 457.3261,589.99012 459.38122,587.4514 460.43863,584.89989 z "/>
    </g>
  </g>
  <path id="path13548" style="fill:#ffffff;fill-opacity:1;fill-rule:evenodd;stroke:#000000;stroke-width:1.25;stroke-linecap:butt;stroke-linejoin:miter;stroke-miterlimit:4;stroke-dasharray:none;stroke-opacity:1" d="M 168.27399,84.693347 C 184.10007,78.612366 181.0095,78.786429 192.62959,82.329387 C 191.29967,85.184537 196.18692,87.408237 199.81685,85.693137 C 202.15793,84.587007 200.16604,80.121979 197.67127,78.914039 C 183.97952,72.284659 179.0442,74.139428 168.27399,84.693347 z " sodipodi:nodetypes="ccssc"/>
  <path id="path11718" style="fill:#ffffff;fill-opacity:1;fill-rule:evenodd;stroke:#000000;stroke-width:1.25;stroke-linecap:butt;stroke-linejoin:miter;stroke-miterlimit:4;stroke-dasharray:none;stroke-dashoffset:0;stroke-opacity:1" d="M 103.02471,42.827987 C 69.728061,63.316922 53.456994,64.435625 72.57402,104.37978 C 74.79139,109.40626 78.40438,114.64608 82.80308,120.63986 C 87.10091,126.49619 91.76248,136.45812 92.85476,147.48376 C 93.22176,151.18826 89.39023,166.08445 76.77207,166.16807 C 70.48537,166.20973 68.41875,162.49425 63.5275,162.85693 C 63.36686,163.33283 62.46774,164.62481 61.84385,165.49825 C 61.5995,165.82406 61.4453,166.10596 61.36724,166.49624 C 61.22697,167.19757 59.91371,168.93904 59.8245,169.65276 C 59.52883,171.04626 59.62337,172.36059 59.77674,173.76673 C 64.02079,175.01758 68.7372,174.89027 70.84928,173.62173 C 72.40152,173.45118 73.75288,174.10777 73.86128,174.1669 C 78.67403,173.48228 82.31993,173.74059 88.95417,173.8264 C 90.3594,169.55287 96.6936,162.12451 100.9953,155.76469 C 101.02756,155.71701 101.47678,157.85002 101.62244,159.19307 C 102.43994,158.14993 103.04573,156.03988 103.19091,154.23804 C 104.28423,155.52757 105.2003,157.00509 105.92882,158.50261 C 106.44435,151.74985 101.96251,150.96799 100.19142,139.95241 C 99.97465,138.60418 99.28496,125.69563 99.24574,119.89405 C 100.84381,120.63073 102.29066,121.975 102.97591,123.39554 C 103.28448,122.32758 103.03551,119.78814 102.98214,118.81553 C 105.32428,120.57693 110.24187,126.8596 111.21465,128.91902 C 109.68013,118.61616 100.9335,113.7297 98.23587,105.17521 C 110.59284,110.05388 156.47724,78.905171 179.86365,76.161377 C 197.83929,74.052397 199.69826,85.872857 199.69826,85.872857 C 205.11306,105.75642 193.8487,104.22213 194.55417,120.04858 C 194.87553,127.25785 203.55084,137.55033 211.22814,137.55033 C 221.97115,137.55033 226.25523,129.98201 233.34184,129.98201 C 238.35462,129.98201 248.07712,138.32356 248.00548,141.57101 C 247.89719,146.47999 244.62689,154.11345 242.74312,156.82592 C 237.84682,163.87618 233.95308,164.68474 227.19258,164.39425 C 224.44633,164.27624 223.96056,163.64559 222.46237,162.1474 C 220.70088,160.3859 219.42807,165.06071 219.15123,166.16807 C 219.07239,166.48342 218.99355,166.79877 218.91472,167.11411 C 218.46497,168.91311 218.67821,171.45899 218.67821,173.26338 C 218.67821,175.28853 222.15624,174.36249 223.40841,173.7364 C 226.73534,172.07294 227.19328,171.13479 231.44976,171.13479 C 234.78073,171.13479 237.37643,172.73471 240.43715,173.49989 C 240.75249,173.57873 241.06784,173.65756 241.38319,173.7364 C 247.89104,172.2832 245.64688,162.12482 251.14938,155.94197 C 251.76987,156.78481 252.45696,157.89512 253.01769,159.13834 C 255.15136,156.59947 254.24855,152.59537 254.36256,149.94807 C 255.63188,147.83253 256.7288,145.25069 258.88495,144.17262 C 259.94812,144.70717 260.47679,145.0883 261.10904,146.16513 C 262.05811,144.26699 261.74792,141.22543 260.76391,140.26673 C 258.17066,137.74015 252.21056,131.82199 250.60709,130.21852 C 247.99239,127.60382 246.54813,124.2292 244.93084,120.99462 C 243.8585,118.84994 242.60632,116.70469 243.27527,114.13582 C 237.82565,115.92422 234.59289,119.82921 228.47555,120.34248 C 225.4514,120.34248 220.51836,119.73869 220.1977,114.09033 C 219.95982,109.96215 220.62966,106.91889 221.27982,104.6791 C 222.27355,105.35776 223.78267,106.26545 225.20745,108.22307 C 225.02429,105.44086 224.30076,102.12407 223.1719,100.41823 C 223.13009,99.336197 223.15323,96.766267 223.71419,96.205307 C 224.46779,96.705997 225.01909,97.313217 225.35665,98.203557 C 225.09694,95.683357 223.59068,91.249687 220.96417,86.946567 C 218.33767,82.643437 213.92197,78.763537 209.85025,76.472887 C 214.29574,76.412287 222.46644,82.162417 225.33519,84.134357 C 225.43836,83.543657 225.28586,82.847807 225.42553,82.504827 C 228.92478,84.068547 231.23482,86.287957 233.93936,89.157457 C 233.99347,89.179097 234.14987,87.413277 234.11674,87.280737 C 236.36102,88.611067 238.80536,92.506687 239.94137,93.406807 C 239.94137,92.262927 239.4222,90.829177 239.5553,89.875577 C 240.63431,91.273317 244.07539,95.868627 245.77528,98.463657 C 245.77969,97.150907 245.70241,96.385057 245.9002,95.907847 C 248.93708,99.032417 250.16213,102.66384 252.87957,105.29173 C 252.20948,103.46872 251.84523,102.17015 251.88193,100.83369 C 254.56177,102.82542 257.2433,109.12784 259.1036,111.30476 C 259.20443,109.75448 258.6911,107.48222 259.01229,106.76469 C 260.09598,108.93205 262.4368,114.44706 263.8564,116.40045 C 263.84035,115.15367 263.82823,114.27789 264.05059,113.5658 C 265.04103,114.4821 266.13489,116.35482 268.09909,117.8424 C 267.49099,116.22504 267.07794,115.26464 267.1716,114.57502 C 268.10937,114.7614 270.56519,117.27927 271.27472,117.76751 C 270.8017,115.30275 269.00758,111.97688 267.99677,110.34452 C 269.33278,111.44966 271.4694,112.63107 271.80881,113.17686 C 271.66115,112.06852 269.32697,108.57348 268.7743,107.8366 C 269.14544,107.82394 270.3102,108.06438 270.697,108.24423 C 270.48397,106.36085 263.01235,100.40373 262.21272,99.823587 C 263.35302,99.933247 265.15691,100.0736 266.74904,100.47164 C 265.52816,99.109367 261.15489,96.318707 259.16062,95.182737 C 260.17503,94.932747 261.33112,94.941097 262.1709,95.078217 C 259.77556,91.349467 255.22494,91.272627 251.61401,89.601167 C 254.04797,89.030787 256.15035,89.195617 256.94472,89.036737 C 253.42671,87.484077 247.5725,86.547927 245.11264,86.319127 C 245.56864,85.941857 246.49054,85.374537 247.30764,85.336607 C 245.4328,84.516377 241.17675,84.019607 239.17569,84.019607 C 239.48769,83.455177 239.76159,83.256437 240.76445,82.702597 C 239.60403,82.509757 236.97801,82.182257 235.2874,81.929127 C 235.84325,81.573747 236.03299,81.076717 236.93888,80.612127 C 234.03955,79.707587 230.71637,80.217237 230.10303,80.277657 C 230.25458,80.002057 230.64629,79.560957 231.18672,79.095327 C 217.54763,76.606617 213.36449,74.675337 210.04171,72.657427 C 201.29727,67.346967 189.80258,66.417757 178.94449,65.296457 C 171.71899,64.550297 154.18053,64.472447 146.89736,63.167867 C 137.2868,61.446397 108.93122,52.165167 103.02471,42.827987 z " sodipodi:nodetypes="ccsssccscccccscccscccccscsssssssssssssccccccsssccccccccsccccccccccccccccccccccccccccccccccccsssc"/>
  <g id="g17995" style="fill:#ffffff;fill-opacity:1;stroke:#000000;stroke-width:1.25;stroke-miterlimit:4;stroke-dasharray:none;stroke-opacity:1" transform="translate(-438.34723,-488.62043)">
    <path id="path13506" style="fill:#ffffff;fill-opacity:1;fill-rule:evenodd;stroke:#000000;stroke-width:1.25;stroke-linecap:butt;stroke-linejoin:miter;stroke-miterlimit:4;stroke-dasharray:none;stroke-opacity:1" d="M 501.89547,651.45176 C 501.43736,652.54124 501.20152,653.53761 500.18377,654.15017 C 499.44285,652.95196 495.40576,652.1641 493.23999,652.68233 C 495.45826,650.45501 499.04039,650.51218 501.89547,651.45176 z "/>
    <path id="path13508" style="fill:#ffffff;fill-opacity:1;fill-rule:evenodd;stroke:#000000;stroke-width:1.25;stroke-linecap:butt;stroke-linejoin:miter;stroke-miterlimit:4;stroke-dasharray:none;stroke-opacity:1" d="M 499.67748,655.1218 C 500.03273,656.78169 499.23034,657.53164 498.15001,658.22602 C 497.20926,657.09586 492.42089,656.36823 490.04828,657.06462 C 492.31921,654.66361 496.39746,654.42549 499.67748,655.1218 z "/>
    <path id="path13510" style="fill:#ffffff;fill-opacity:1;fill-rule:evenodd;stroke:#000000;stroke-width:1.25;stroke-linecap:butt;stroke-linejoin:miter;stroke-miterlimit:4;stroke-dasharray:none;stroke-opacity:1" d="M 498.06451,658.8953 C 497.9534,659.82739 498.04342,661.34861 498.16237,662.38841 C 496.8972,661.7687 492.02606,663.2454 490.46879,664.83726 C 491.16047,661.77078 495.14752,659.62025 498.06451,658.8953 z "/>
    <path id="path13512" style="fill:#ffffff;fill-opacity:1;fill-rule:evenodd;stroke:#000000;stroke-width:1.25;stroke-linecap:butt;stroke-linejoin:miter;stroke-miterlimit:4;stroke-dasharray:none;stroke-opacity:1" d="M 512.24169,662.79354 C 511.31279,662.1799 510.32957,662.13689 509.1386,662.25369 C 508.94104,663.54461 506.79005,664.88008 504.89372,665.33409 C 507.3925,666.26969 510.27407,664.73179 512.24169,662.79354 z "/>
  </g>
  <g id="g18007" style="fill:#ffffff;fill-opacity:1;stroke:#000000;stroke-width:1.25;stroke-miterlimit:4;stroke-dasharray:none;stroke-opacity:1" transform="translate(-438.34723,-488.62043)">
    <path id="path13526" style="fill:#ffffff;fill-opacity:1;fill-rule:evenodd;stroke:#000000;stroke-width:1.25;stroke-linecap:butt;stroke-linejoin:miter;stroke-miterlimit:4;stroke-dasharray:none;stroke-opacity:1" d="M 659.521,650.55941 C 658.23816,651.48292 658.06223,652.98621 657.80145,653.50498 C 656.75335,652.56362 652.57405,652.92253 650.64157,654.02914 C 652.14359,651.2677 656.51691,650.46106 659.521,650.55941 z "/>
    <path id="path13528" style="fill:#ffffff;fill-opacity:1;fill-rule:evenodd;stroke:#000000;stroke-width:1.25;stroke-linecap:butt;stroke-linejoin:miter;stroke-miterlimit:4;stroke-dasharray:none;stroke-opacity:1" d="M 657.37831,655.19767 C 657.29791,655.72964 656.80758,657.55052 656.96515,658.69263 C 655.89493,657.7193 651.56218,657.69589 649.69405,658.78048 C 651.07573,656.0115 654.40699,655.04144 657.37831,655.19767 z "/>
    <path id="path13530" style="fill:#ffffff;fill-opacity:1;fill-rule:evenodd;stroke:#000000;stroke-width:1.25;stroke-linecap:butt;stroke-linejoin:miter;stroke-miterlimit:4;stroke-dasharray:none;stroke-opacity:1" d="M 657.00465,660.25093 C 657.34957,661.77879 657.69732,662.38272 658.72804,663.18959 C 657.34596,662.91653 653.19993,665.35227 652.10504,667.29142 C 651.98384,664.15025 654.37269,661.7025 657.00465,660.25093 z "/>
    <path id="path13532" style="fill:#ffffff;fill-opacity:1;fill-rule:evenodd;stroke:#000000;stroke-width:1.25;stroke-linecap:butt;stroke-linejoin:miter;stroke-miterlimit:4;stroke-dasharray:none;stroke-opacity:1" d="M 671.37116,659.87781 C 670.28704,659.72421 669.05096,659.73319 668.22157,659.8516 C 668.23733,661.15745 666.2704,662.72151 664.47359,663.47891 C 667.09155,663.99419 669.74623,662.11117 671.37116,659.87781 z "/>
  </g>
  <g transform="matrix(0.352814,0.935693,-0.935693,0.352814,562.09777,-556.27843)" style="stroke:#000000;stroke-width:1.00000048;stroke-miterlimit:4;stroke-dasharray:none;stroke-opacity:1;display:none" id="g13514">
    <path d="M 441.13592,584.73711 C 442.04977,585.48659 442.93768,585.99648 443.23494,587.14657 C 441.87531,587.51546 439.97009,591.16087 439.84989,593.38453 C 438.34676,590.62368 439.42197,587.20625 441.13592,584.73711 z " style="fill:#ffffff;fill-opacity:1;fill-rule:evenodd;stroke:#000000;stroke-width:1.00000048;stroke-linecap:butt;stroke-linejoin:miter;stroke-miterlimit:4;stroke-dasharray:none;stroke-opacity:1" id="path18188"/>
    <path d="M 443.35224,590.35001 C 445.0447,590.33117 445.65819,591.16752 446.17324,592.23794 C 444.91119,592.86397 443.44194,596.937 443.75608,599.14164 C 441.74518,596.72545 442.15069,593.10511 443.35224,590.35001 z " style="fill:#ffffff;fill-opacity:1;fill-rule:evenodd;stroke:#000000;stroke-width:1.00000048;stroke-linecap:butt;stroke-linejoin:miter;stroke-miterlimit:4;stroke-dasharray:none;stroke-opacity:1" id="path18190"/>
    <path d="M 446.46498,592.81906 C 447.77207,593.58524 448.55529,593.75055 449.56683,594.01914 C 448.52827,594.97102 448.1295,599.97915 449.04352,602.00984 C 446.44073,600.24711 446.07578,595.79947 446.46498,592.81906 z " style="fill:#ffffff;fill-opacity:1;fill-rule:evenodd;stroke:#000000;stroke-width:1.00000048;stroke-linecap:butt;stroke-linejoin:miter;stroke-miterlimit:4;stroke-dasharray:none;stroke-opacity:1" id="path18192"/>
    <path d="M 460.43863,584.89989 C 459.34408,584.69646 458.42174,585.03976 457.37029,585.61117 C 457.69108,586.87711 456.23002,588.94485 454.66023,590.10155 C 457.3261,589.99012 459.38122,587.4514 460.43863,584.89989 z " style="fill:#ffffff;fill-opacity:1;fill-rule:evenodd;stroke:#000000;stroke-width:1.00000048;stroke-linecap:butt;stroke-linejoin:miter;stroke-miterlimit:4;stroke-dasharray:none;stroke-opacity:1" id="path18194"/>
  </g>
  <g id="g3992" transform="translate(-267.71681,-18.65625)" style="stroke:#000000;stroke-width:1.25;stroke-miterlimit:4;stroke-dasharray:none;stroke-opacity:1">
    <path style="fill:#ffffff;fill-opacity:1;stroke:#000000;stroke-width:1.25;stroke-linecap:round;stroke-linejoin:round;stroke-miterlimit:4;stroke-dasharray:none;stroke-opacity:1" i:knockout="Off" d="M 339.9098,54.077908 C 339.9098,54.077908 328.81154,53.925842 319.05589,56.692661 C 309.30024,59.459481 302.71154,65.414212 296.71789,64.309736 C 290.72425,63.205256 292.45963,54.30316 293.70118,53.636614 C 293.70118,53.636614 287.39038,54.097235 284.94368,62.480713 C 283.86802,66.167468 287.45391,72.959325 294.33392,72.840929 C 301.19843,72.722664 303.6275,67.572955 311.39179,63.925437 C 318.4981,60.587181 323.26969,58.500713 340.40869,57.1166 L 339.9098,54.077908 z " id="path2980"/>
    <path style="fill:#ffffff;stroke:#000000;stroke-width:1.25;stroke-linecap:round;stroke-linejoin:round;stroke-miterlimit:4;stroke-dasharray:none;stroke-opacity:1" i:knockout="Off" d="M 312.96776,67.538928 C 312.96776,67.538928 311.60052,65.125654 313.48973,62.053585 C 313.48973,62.053585 314.73341,65.915437 317.65215,68.193596 C 317.65205,68.193215 314.22002,70.430898 312.96776,67.538928 z " id="path2984"/>
    <path style="fill:#ffffff;stroke:#000000;stroke-width:1.25;stroke-linecap:round;stroke-linejoin:round;stroke-miterlimit:4;stroke-dasharray:none;stroke-opacity:1" i:knockout="Off" d="M 318.4635,68.02699 L 319.1851,62.791115 C 319.1851,62.791115 321.60196,66.547696 322.91248,67.039691 L 318.4635,68.02699 z " id="path2990"/>
    <polygon style="fill:#ffffff;stroke:#000000;stroke-width:3.16806555;stroke-linecap:round;stroke-linejoin:round;stroke-miterlimit:4;stroke-dasharray:none;stroke-opacity:1" i:knockout="Off" points="205.233,109.493 210.226,95.015 216.966,109.244 205.233,109.493 " id="polygon2996" transform="matrix(0.3806934,-0.1036925,0.1036925,0.3806934,234.00528,46.742041)"/>
    <path style="fill:#ffffff;stroke:#000000;stroke-width:1.25;stroke-linecap:round;stroke-linejoin:round;stroke-miterlimit:4;stroke-dasharray:none;stroke-opacity:1" i:knockout="Off" d="M 328.50312,64.409523 C 328.50312,64.409523 327.82667,62.106211 328.8687,61.190579 C 329.91072,60.274943 330.31443,59.012601 330.31443,59.012601 C 330.31443,59.012601 332.96297,61.304654 332.92399,62.724465 L 328.68997,64.346361" id="path2998"/>
    <path style="fill:#ffffff;stroke:#000000;stroke-width:1.25;stroke-linecap:round;stroke-linejoin:round;stroke-miterlimit:4;stroke-dasharray:none;stroke-opacity:1" i:knockout="Off" d="M 306.3293,55.485362 C 306.3293,55.485362 306.76887,58.223693 310.16344,59.442734 C 310.16344,59.442734 308.72232,55.650205 309.57856,52.048161 C 309.57866,52.048543 305.50101,52.444384 306.3293,55.485362 z " id="path2982"/>
    <path style="fill:#ffffff;stroke:#000000;stroke-width:1.25;stroke-linecap:round;stroke-linejoin:round;stroke-miterlimit:4;stroke-dasharray:none;stroke-opacity:1" i:knockout="Off" d="M 310.83104,51.400721 L 314.57879,55.790149 C 314.57879,55.790149 314.85684,50.814531 315.66923,49.674374 L 310.83104,51.400721 z " id="path2986"/>
    <path style="fill:#ffffff;stroke:#000000;stroke-width:1.25;stroke-linecap:round;stroke-linejoin:round;stroke-miterlimit:4;stroke-dasharray:none;stroke-opacity:1" i:knockout="Off" d="M 324.96435,47.965779 C 324.96435,47.965779 325.68997,50.254471 327.06531,50.431923 C 328.44065,50.609379 329.48117,51.43132 329.48117,51.43132 C 329.48117,51.43132 330.39814,48.050735 329.57286,46.894543 L 325.1547,47.913933" id="path2988"/>
    <polygon style="fill:#ffffff;stroke:#000000;stroke-width:3.16806555;stroke-linecap:round;stroke-linejoin:round;stroke-miterlimit:4;stroke-dasharray:none;stroke-opacity:1" i:knockout="Off" points="196.935,63.234 203.675,75.715 209.666,62.735 196.935,63.234 " id="polygon2992" transform="matrix(0.3806934,-0.1036925,0.1036925,0.3806934,234.00528,46.742041)"/>
    <polygon style="fill:#ffffff;stroke:#000000;stroke-width:3.16806555;stroke-linecap:round;stroke-linejoin:round;stroke-miterlimit:4;stroke-dasharray:none;stroke-opacity:1" i:knockout="Off" points="209.623,63.063 216.363,75.544 222.354,62.563 209.623,63.063 " id="polygon2994" transform="matrix(0.3806934,-0.1036925,0.1036925,0.3806934,234.00528,46.742041)"/>
    <path sodipodi:nodetypes="ccccsccsscsscccssscccccccccccccccccccccccc" id="path4571" d="M 345.46875,19.28125 C 341.76577,21.606638 339.50983,25.422786 338.28125,28.15625 C 337.9499,28.052257 337.58427,27.951028 337.15625,27.875 C 337.86562,21.712938 335.53126,19.65625 335.53125,19.65625 C 335.53125,19.65625 335.09883,20.419438 333.90625,22.84375 C 332.71369,25.268061 330.75,28.125001 330.75,28.125 C 330.05193,28.261569 329.32264,28.410669 328.53125,28.625 C 318.9728,31.228512 318.29672,38.934815 315.5,40.75 C 312.70329,42.565182 306.62029,42.897639 302.84375,43.53125 C 299.06723,44.164859 298.479,47.891447 300.25,48.59375 C 299.95108,48.99618 298.99949,50.568643 299.5,52.40625 C 300.32,55.416771 306.34096,55.895003 306.75,54.9375 C 307.83678,52.393557 328.43854,47.40516 332.99154,49.142566 C 345.56445,56.776237 322.96361,66.550316 314.375,68.0625 C 312.13807,68.503718 312.62501,67.187498 312.625,67.1875 C 312.625,67.1875 311.70196,66.942502 311.6875,68.125 C 311.61129,74.310072 318.37499,74.718747 318.375,74.71875 C 316.5238,72.86627 322.08757,70.355107 325.09375,69.03125 C 328.09994,67.707393 331.94241,69.498821 336.59375,67.40625 C 336.91027,67.39235 337.22074,67.34152 337.53125,67.3125 C 337.1426,70.230831 336.78279,73.160554 335.46875,75.84375 C 332.67118,80.292288 329.44229,84.796687 325.21875,87.9375 C 327.25977,88.090053 331.2024,87.602763 333.6875,86.78125 C 329.31152,92.005253 327.92275,96.635286 321.3125,100 C 325.28443,100.68407 329.67753,99.923382 333.15625,96.46875 C 332.84934,99.160887 325.1389,112.72625 323.59375,114.53125 C 332.37205,112.14379 342.88141,110.14681 343.5625,103.71875 C 344.56006,111.28502 345.12555,112.92853 343.34375,115.875 C 349.15765,114.07023 353.71392,108.97601 355.21875,103.09375 C 356.51321,107.39959 357.70171,110.01639 357.78125,114.25 C 361.58298,110.99221 364.57718,100.63155 362.65625,94.65625 C 365.44184,98.271061 370.09754,101.91376 375.6875,103.71875 C 372.87283,99.677589 370.13417,92.898748 369.25,88.4375 C 372.17136,89.858987 381.66059,91.304948 387.09375,89.15625 C 381.57085,86.943226 376.26095,79.190301 375.71875,73.75 C 378.20894,75.91208 379.60925,76.45018 381.96875,77.3125 C 379.09639,73.603374 375.7106,67.75994 374.53125,64.71875 C 378.00321,67.474836 379.57549,68.665888 383.0625,69.53125 C 378.83769,64.7628 376.24362,60.033606 373.21875,56 C 374.48564,56.238783 376.83181,57.138145 378.125,57.875 C 370.36485,48.670472 361.93305,31.697546 348.3125,30.5625 C 349.02504,24.222912 345.46875,19.281251 345.46875,19.28125 z " style="fill:#ffffff;fill-opacity:1;fill-rule:evenodd;stroke:#000000;stroke-width:1.25;stroke-linecap:butt;stroke-linejoin:miter;stroke-miterlimit:4;stroke-dasharray:none;stroke-opacity:1"/>
    <path style="fill:none;stroke:#000000;stroke-width:1.25;stroke-linecap:round;stroke-linejoin:round;stroke-miterlimit:4;stroke-dasharray:none;stroke-opacity:1" i:knockout="Off" d="M 330.76282,28.113871 C 333.58026,27.562381 335.66194,27.605104 337.14417,27.86876" id="path3018"/>
    <path style="fill:none;stroke:#000000;stroke-width:1.25;stroke-linecap:round;stroke-linejoin:round;stroke-miterlimit:4;stroke-dasharray:none;stroke-opacity:1" i:knockout="Off" d="M 303.69539,46.19814 C 303.69539,46.19814 302.03464,49.283227 300.26363,48.580922" id="path3020"/>
    <path style="fill:none;stroke:#000000;stroke-width:1.25;stroke-linecap:round;stroke-linejoin:round;stroke-miterlimit:4;stroke-dasharray:none;stroke-opacity:1" i:knockout="Off" d="M 344.89668,25.892508 C 344.89668,25.892508 346.03159,30.059197 344.47101,33.512033" id="path3022"/>
    <path style="fill:none;stroke:#000000;stroke-width:1.25;stroke-linecap:round;stroke-linejoin:round;stroke-miterlimit:4;stroke-dasharray:none;stroke-opacity:1" i:knockout="Off" d="M 337.06383,31.448804 C 337.06383,31.448804 337.42117,30.056778 338.28139,28.143378" id="path3024"/>
    <path style="fill:none;stroke:#000000;stroke-width:1.25;stroke-linecap:round;stroke-linejoin:round;stroke-miterlimit:4;stroke-dasharray:none;stroke-opacity:1" i:knockout="Off" d="M 336.59929,67.410891 C 341.81458,65.26736 347.48971,62.252269 349.74679,55.732442" id="path3042"/>
    <path style="fill:none;stroke:#000000;stroke-width:1.25;stroke-linecap:round;stroke-linejoin:round;stroke-miterlimit:4;stroke-dasharray:none;stroke-opacity:1" i:knockout="Off" d="M 348.31639,30.550404 C 348.14477,32.08077 347.72372,33.693802 346.94318,35.339727" id="path3044"/>
    <g transform="matrix(0.4528173,0,0,0.4528173,216.57205,-53.237254)" id="g5091" style="fill:#ffffff;fill-opacity:1;stroke:#000000;stroke-width:2.76049519;stroke-miterlimit:4;stroke-dasharray:none;stroke-opacity:1">
      <g style="stroke:#000000;stroke-width:2.76049519;stroke-miterlimit:4;stroke-dasharray:none;stroke-opacity:1" id="g6155" transform="translate(2,2)">
        <path sodipodi:nodetypes="cccc" id="path6227" style="opacity:1;color:#000000;fill:#ffffff;fill-opacity:1;fill-rule:evenodd;stroke:#000000;stroke-width:2.76049519;stroke-linecap:butt;stroke-linejoin:miter;marker:none;marker-start:none;marker-mid:none;marker-end:none;stroke-miterlimit:4;stroke-dasharray:none;stroke-dashoffset:0;stroke-opacity:1;visibility:visible;display:inline;overflow:visible;enable-background:accumulate" d="M 230.08659,198.51194 C 239.1833,207.02143 244.35849,184.0795 253.76538,195.32316 C 248.03858,197.0735 245.2066,205.73332 239.18606,206.46148 C 235.5618,205.89289 232.51874,201.8042 230.08659,198.51194 z "/>
        <path id="path4120" style="fill:#000000;fill-opacity:1;stroke:#000000;stroke-width:2.76049519;stroke-miterlimit:4;stroke-dasharray:none;stroke-opacity:1" d="M 246.85831,199.97047 C 246.85835,201.6894 244.89249,203.0856 242.45851,203.09529 C 240.02454,203.10498 238.03651,201.72453 238.00911,200.0057 C 237.9817,198.28688 239.92522,196.87516 242.35888,196.84615 C 244.79255,196.81714 246.80243,198.18172 246.85719,199.90022 L 242.43357,199.97047 L 246.85831,199.97047 z "/>
      </g>
    </g>
  </g>
  <g style="fill:#ffffff;fill-opacity:1;stroke:#000000;stroke-width:4.87088251;stroke-miterlimit:4;stroke-dasharray:none;stroke-opacity:1" id="g2827" transform="matrix(0.2590524,0,0,0.2542243,157.92416,-90.368299)">
    <g style="fill:#ffffff;fill-opacity:1;stroke:#000000;stroke-width:4.87088251;stroke-miterlimit:4;stroke-dasharray:none;stroke-opacity:1" id="g2832">
      <g style="fill:#ffffff;fill-opacity:1;stroke:#000000;stroke-width:4.87088251;stroke-miterlimit:4;stroke-dasharray:none;stroke-opacity:1" id="g4654"/>
    </g>
  </g>
  <g transform="matrix(8.786136e-2,0,0,8.786136e-2,176.70592,50.806847)" inkscape:label="Fond écu" id="g2377" style="fill:#ffffff;fill-opacity:1;stroke:#000000;stroke-width:14.22695923;stroke-miterlimit:4;stroke-dasharray:none;stroke-opacity:1"/>
  <g transform="matrix(8.786136e-2,0,0,8.786136e-2,176.70592,50.806847)" style="fill:#ffffff;fill-opacity:1;stroke:#000000;stroke-width:14.22695923;stroke-miterlimit:4;stroke-dasharray:none;stroke-opacity:1;display:inline" inkscape:label="Reflet final" id="g2414"/>
  <g transform="matrix(8.786136e-2,0,0,8.786136e-2,176.70592,50.806847)" style="fill:#ffffff;fill-opacity:1;stroke:#000000;stroke-width:14.22695923;stroke-miterlimit:4;stroke-dasharray:none;stroke-opacity:1;display:inline" inkscape:label="Contour final" id="g2416"/>
  <g id="layer6" inkscape:label="Borde 3px" sodipodi:insensitive="true" transform="matrix(0.3128753,0,0,0.3128753,70.687122,126.20595)"/>
  <g id="g7520" inkscape:label="Borde 3px" sodipodi:insensitive="true" transform="matrix(0.3128753,0,0,0.3128753,70.361165,102.59077)"/>
  <g inkscape:label="Escudo" id="g2984" transform="matrix(0.310381,-3.9428076e-2,3.9428076e-2,0.310381,36.050722,178.31946)" style="fill:#ffffff;fill-opacity:1;stroke:#000000;stroke-width:3.9952023;stroke-miterlimit:4;stroke-dasharray:none;stroke-opacity:1;display:inline"/>
  <g inkscape:label="Escudo" id="g7140" transform="matrix(0.310381,-3.9428076e-2,3.9428076e-2,0.310381,32.751414,154.93363)" style="fill:#ffffff;fill-opacity:1;stroke:#000000;stroke-width:3.9952023;stroke-miterlimit:4;stroke-dasharray:none;stroke-opacity:1;display:inline"/>
  <g id="g9885" transform="matrix(-0.3409908,6.8807849e-2,6.8807849e-2,0.3409908,613.65312,108.48588)" style="fill:#ffffff;fill-opacity:1;stroke:#000000;stroke-width:3.59335995;stroke-miterlimit:4;stroke-dasharray:none;stroke-opacity:1"/>
  <g id="g9997" transform="matrix(0.1404011,-1.7835326e-2,1.7835326e-2,0.1404011,232.17446,279.40643)" style="fill:#ffffff;fill-opacity:1;stroke:#000000;stroke-width:8.83208752;stroke-miterlimit:4;stroke-dasharray:none;stroke-opacity:1"/>
</svg>