<?xml version="1.0" encoding="UTF-8" standalone="no"?>
<!-- Created with Inkscape (http://www.inkscape.org/) -->
<svg xmlns:dc="http://purl.org/dc/elements/1.1/" xmlns:cc="http://creativecommons.org/ns#" xmlns:rdf="http://www.w3.org/1999/02/22-rdf-syntax-ns#" xmlns:svg="http://www.w3.org/2000/svg" xmlns="http://www.w3.org/2000/svg" xmlns:sodipodi="http://sodipodi.sourceforge.net/DTD/sodipodi-0.dtd" xmlns:inkscape="http://www.inkscape.org/namespaces/inkscape" version="1.0" width="385.92001" height="177.86" id="svg1403" sodipodi:version="0.32" inkscape:version="0.48.1 " sodipodi:docname="Loup passant.svg">
  <metadata id="metadata2053">
    <rdf:RDF>
      <cc:Work rdf:about="">
        <dc:format>image/svg+xml</dc:format>
        <dc:type rdf:resource="http://purl.org/dc/dcmitype/StillImage"/>
      </cc:Work>
    </rdf:RDF>
  </metadata>
  <sodipodi:namedview inkscape:window-height="708" inkscape:window-width="1221" inkscape:pageshadow="2" inkscape:pageopacity="0.0" guidetolerance="10.0" gridtolerance="10.0" objecttolerance="10.0" borderopacity="1.0" bordercolor="#666666" pagecolor="#ffffff" id="base" width="385.92px" height="177.86px" inkscape:zoom="1.9019485" inkscape:cx="192.96001" inkscape:cy="88.93" inkscape:window-x="-4" inkscape:window-y="0" inkscape:current-layer="svg1403" showgrid="false" inkscape:window-maximized="0"/>
  <defs id="defs1405"/>
  <g id="g4880">
    <g id="g4868">
      <path style="fill:#ffffff;stroke:#000000;stroke-width:2;stroke-linecap:butt;stroke-linejoin:miter;stroke-miterlimit:4;stroke-opacity:1;stroke-dasharray:none;fill-opacity:1" d="m 363.52071,137.02178 c 2.91106,0.83351 8.13417,2.16557 8.44295,-2.8943 -3.23799,0.14049 -3.3861,0.11819 -6.0486,-0.7381 -0.65868,1.82665 -1.99409,2.51893 -2.39435,3.6324 z" id="path4698-7-2-7-2-2" inkscape:connector-curvature="0" sodipodi:nodetypes="cccc"/>
      <path style="fill:#ffffff;stroke:#000000;stroke-width:2;stroke-linecap:butt;stroke-linejoin:miter;stroke-miterlimit:4;stroke-opacity:1;stroke-dasharray:none;fill-opacity:1" d="m 365.34127,130.71097 c 2.56735,-1.60545 7.05212,-4.59581 3.49855,-8.21097 -2.06225,2.50031 -2.17796,2.59542 -4.59582,4.00112 0.9169,1.71161 0.53762,3.16738 1.09721,4.20988 z" id="path4698-7-2-7-2-0-0" inkscape:connector-curvature="0" sodipodi:nodetypes="cccc"/>
      <path style="fill:#ffffff;stroke:#000000;stroke-width:2;stroke-linecap:butt;stroke-linejoin:miter;stroke-miterlimit:4;stroke-opacity:1;stroke-dasharray:none;fill-opacity:1" d="m 182.62075,145.01713 c 2.44911,-1.78064 6.71437,-5.07656 2.91724,-8.43503 -1.88279,2.63805 -1.99155,2.74105 -4.30551,4.31196 1.0341,1.64349 0.75728,3.12215 1.38825,4.12307 z" id="path4698-7-2-7-2-0" inkscape:connector-curvature="0" sodipodi:nodetypes="cccc"/>
      <path style="fill:#ffffff;stroke:#000000;stroke-width:2;stroke-linecap:butt;stroke-linejoin:miter;stroke-miterlimit:4;stroke-opacity:1;stroke-dasharray:none;fill-opacity:1" d="m 182.609,149.41903 c 2.91106,0.83351 8.13417,2.16557 8.44295,-2.8943 -3.23799,0.14049 -3.3861,0.11819 -6.0486,-0.7381 -0.65868,1.82665 -1.99409,2.51893 -2.39435,3.6324 z" id="path4698-7-2-7-2" inkscape:connector-curvature="0" sodipodi:nodetypes="cccc"/>
      <path style="fill:#ffffff;stroke:#000000;stroke-width:2;stroke-linecap:butt;stroke-linejoin:miter;stroke-miterlimit:4;stroke-opacity:1;stroke-dasharray:none;fill-opacity:1" d="m 203.0833,142.29664 c -2.02529,2.25107 -5.51219,6.36165 -1.09977,8.85729 1.29318,-2.97188 1.37815,-3.09522 3.31495,-5.11289 -1.35305,-1.39276 -1.38986,-2.89648 -2.21518,-3.7444 z" id="path4698-7-2-7" inkscape:connector-curvature="0" sodipodi:nodetypes="cccc"/>
      <path style="fill:#ffffff;stroke:#000000;stroke-width:2;stroke-linecap:butt;stroke-linejoin:miter;stroke-miterlimit:4;stroke-opacity:1;stroke-dasharray:none;fill-opacity:1" d="m 210.42693,146.23223 c -0.62842,2.9621 -1.59289,8.26542 3.47619,8.22049 -0.36602,-3.22031 -0.35411,-3.36964 0.31437,-6.08536 -1.86815,-0.52967 -2.65189,-1.81352 -3.79056,-2.13513 z" id="path4698-7-2-6" inkscape:connector-curvature="0" sodipodi:nodetypes="cccc"/>
      <path style="fill:#ffffff;stroke:#000000;stroke-width:2;stroke-linecap:butt;stroke-linejoin:miter;stroke-miterlimit:4;stroke-opacity:1;stroke-dasharray:none;fill-opacity:1" d="m 205.36729,137.38402 c -2.84577,-1.03472 -7.9633,-2.72769 -8.62429,2.29832 3.23991,0.0857 3.38606,0.11829 5.98237,1.15826 0.78432,-1.77633 2.16492,-2.37369 2.64192,-3.45658 z" id="path4698-70" inkscape:connector-curvature="0" sodipodi:nodetypes="cccc"/>
      <path style="fill:#ffffff;stroke:#000000;stroke-width:2;stroke-linecap:butt;stroke-linejoin:miter;stroke-miterlimit:4;stroke-opacity:1;stroke-dasharray:none;fill-opacity:1" d="m 46.293258,153.14398 c -2.025289,2.25107 -5.512192,6.36165 -1.099772,8.85729 1.293187,-2.97188 1.37815,-3.09522 3.314959,-5.11289 -1.353058,-1.39276 -1.389864,-2.89648 -2.215185,-3.7444 z" id="path4698-7-2" inkscape:connector-curvature="0" sodipodi:nodetypes="cccc"/>
      <path style="fill:#ffffff;stroke:#000000;stroke-width:2;stroke-linecap:butt;stroke-linejoin:miter;stroke-miterlimit:4;stroke-opacity:1;stroke-dasharray:none;fill-opacity:1" d="m 33.343939,146.29515 c -2.937813,0.73367 -8.127194,2.19166 -5.864684,6.72804 2.73396,-1.74067 2.87336,-1.7954 5.607319,-2.38507 -0.342924,-1.91124 0.467438,-3.17849 0.257365,-4.34297 z" id="path4698" inkscape:connector-curvature="0" sodipodi:nodetypes="cccc"/>
      <path style="fill:#ffffff;stroke:#000000;stroke-width:2;stroke-linecap:butt;stroke-linejoin:miter;stroke-miterlimit:4;stroke-opacity:1;stroke-dasharray:none;fill-opacity:1" d="m 38.484527,151.54964 c -2.567308,1.60561 -7.052163,4.59583 -3.498568,8.21104 2.062254,-2.50031 2.177918,-2.59545 4.595849,-4.00111 -0.916751,-1.71174 -0.537646,-3.16737 -1.097279,-4.20993 z" id="path4698-7" inkscape:connector-curvature="0" sodipodi:nodetypes="cccc"/>
    </g>
    <path inkscape:connector-curvature="0" sodipodi:nodetypes="ccccccc" id="path6527" d="m 49.022913,75.754456 c -8.947185,6.949335 -13.559111,6.078843 -17.607687,11.412395 -7.072634,7.984691 -0.01002,15.389399 5.233151,4.994741 1.556603,-4.22386 3.911669,-3.513223 6.505307,-5.646876 l 17.93377,-11.412406 -5.543166,-6.521365 -6.521375,7.173511 z" style="fill:#e20909;fill-opacity:1;fill-rule:evenodd;stroke:#000000;stroke-width:3.03539991;stroke-linecap:butt;stroke-linejoin:round;stroke-miterlimit:4;stroke-opacity:1;stroke-dasharray:none"/>
    <path inkscape:connector-curvature="0" sodipodi:nodetypes="cccccccccccccccccccccccccccccccccccccccccccccccccccccccccccccccccccccccccccccccccccccccccccccccccc" id="path4621" d="m 36.813725,145.45399 c -9.287646,-1.35239 -6.255737,10.00764 -1.890872,6.71238 0.668112,4.64957 5.213952,5.46592 7.713761,0.65214 1.81237,6.14368 9.628408,9.01886 7.881598,0.34923 3.970101,1.1992 7.498268,1.54349 6.65642,-5.67822 8.04302,-2.46864 16.086051,-2.26609 24.129072,-7.82565 2.425507,2.74009 5.233009,4.52517 11.086323,-1.30427 6.291069,-3.49099 14.173643,-5.39047 22.172663,-7.17351 l 17.6077,-7.82563 c 1.14665,4.6927 20.86437,20.65703 34.56326,26.08547 l 15.65128,1.30427 c 9.5301,-9.76476 -0.852,-9.57342 -11.73846,-9.12991 0.1102,-6.74177 -4.00565,-5.03142 -7.17351,-5.2171 -8.81765,-5.91668 -11.88033,-14.71084 -17.60769,-22.17266 24.91971,-0.15774 35.23678,-19.412649 56.40985,-20.216241 4.02709,10.319911 14.62176,1.681652 26.41154,16.629501 l 0.65215,-4.2389 c 2.02851,2.27029 6.50126,5.35532 11.08632,8.47778 l -1.30427,3.26068 c -3.58676,5.32579 -13.3939,7.99287 -22.8248,19.56412 -11.39227,-3.72204 -19.29321,0.30517 -13.36881,3.58675 -1.74278,1.47731 -2.12385,7.61909 5.15462,4.19724 0.54345,2.53197 7.45565,6.65844 10.1706,1.99806 9.31272,2.07996 11.34831,-8.83711 17.93376,-12.06453 2.93209,-6.63502 7.57837,-4.85299 16.6295,-12.06453 8.28403,-1.8932 10.83545,-5.93614 5.2171,-13.04274 l -4.56496,-11.738473 c 18.75776,13.893903 29.67622,16.895993 71.409,13.694873 15.77436,25.32616 25.28401,25.5565 35.65463,24.57947 9.1513,1.90776 6.35245,-3.26291 2.49539,-5.6675 5.91295,-1.0135 5.5387,-3.5335 -2.45593,-5.63331 4.76335,-3.52251 -1.3752,-3.65523 -10.26074,-0.88805 -5.29844,-1.33162 -10.73178,-7.41938 -16.62951,-20.21624 -6.82427,-11.155159 -0.004,-4.573724 -16.92017,-6.63209 0.17962,0.155494 4.25827,-2.873461 4.2035,-3.476038 -3.22866,0.548233 -8.03685,0.150535 -11.96508,0.142168 0.92243,-0.657114 0.94737,-2.711614 2.27491,-3.222341 -1.97968,-0.189105 -11.77088,-0.142937 -17.04743,-0.83265 2.28676,-2.201019 5.46804,-2.063769 9.28139,-2.347892 0.008,1.069331 -13.6624,-0.588807 -16.4549,-0.912796 0,0 4.24351,-2.210469 5.06219,-2.986813 -8.3664,0.446568 -11.70091,-3.702864 -14.51818,-11.034134 l 26.08548,6.521364 9.45599,1.630344 c 36.16672,7.027275 48.09211,-0.53416 53.8013,-7.825646 -11.62978,0.799464 -17.39032,1.255887 -25.10727,-1.630343 4.09793,-1.195584 5.61816,-2.391167 7.1735,-3.58675 -6.44848,0.47082 -16.86173,0.831983 -19.23804,-0.326063 2.39117,-1.810808 5.43448,-4.180009 7.17351,-5.217104 -7.39089,0.274461 -14.78178,1.49627 -22.17267,-0.652135 -0.19463,-0.35235 3.34987,-0.08307 7.17351,-2.934605 -0.54344,-0.253112 -15.4339,1.435926 -21.52052,-1.304281 l 5.21711,-4.564958 -13.69489,2.282479 c -18.79825,4.226309 -29.61598,-15.085422 -55.43164,-11.086333 -29.6976,6.784554 -32.58756,10.865831 -76.6261,9.782062 -6.41267,0.543448 -13.15143,-0.543458 -19.56411,1.630334 l 1.95642,-5.217094 c -2.73481,1.630344 -6.61673,3.260687 -11.08634,4.891031 l 6.1953,-8.151719 -14.34701,2.934625 2.60855,-3.912833 -16.95557,3.260688 1.63035,-3.912823 -11.412398,1.304281 1.304268,-3.912823 -12.390601,0.326063 3.260687,-4.891031 -12.390604,1.956416 C 74.914288,37.441222 73.788893,32.715479 68.9131,31.409133 68.267299,22.914739 65.073521,20.426065 62.717798,18.366394 c -4.758101,6.256263 -3.811835,9.779219 -4.891031,14.34701 l -5.869229,0 c -1.776185,-6.701596 -8.033844,-8.921718 -13.04274,-12.390594 -1.060519,9.898136 -1.319383,18.787447 2.934619,23.150865 -4.534716,7.655046 -3.45521,11.053429 -4.891035,17.93376 -3.790972,3.912823 -4.676712,3.260688 -11.738458,7.17351 -7.056233,1.430412 -7.014759,11.947315 4.564958,5.86923 -1.013915,10.506045 24.786641,-7.303942 27.38975,-3.260688 -2.820737,10.219403 -7.397301,10.594022 -16.303427,16.955562 7.08351,9.949738 21.660948,-15.31848 23.476937,-0.652135 l 5.217094,-6.521365 0.652135,11.738459 3.912823,-5.217094 0,7.825646 7.17351,-3.260688 0,7.173511 c 3.616092,-4.040512 5.938436,-4.846664 7.825646,-4.564959 -0.842334,3.369739 0.458517,4.919078 -1.956417,9.129916 6.780173,-2.71614 9.663156,-4.318655 13.368807,-7.17352 0.1636,1.034252 -6.575308,6.46825 -6.847432,11.08634 6.184273,-5.09273 6.676642,-4.26993 11.086322,-5.86923 -2.3467,3.34356 -4.2154,6.20911 -4.56496,7.55552 23.0456,-6.22615 33.1833,-18.130556 6.79151,2.72043 -7.173512,2.08373 -15.269278,11.5714 -22.442789,14.50525 -0.977145,-1.84878 -7.975817,4.62961 -13.345642,7.17351 -8.101998,4.88609 -17.20405,9.27496 -24.81398,10.16407 z" style="fill:#ffffff;fill-opacity:1;fill-rule:evenodd;stroke:#000001;stroke-width:3.03539991;stroke-linecap:butt;stroke-linejoin:miter;stroke-miterlimit:4;stroke-opacity:1;stroke-dasharray:none"/>
    <path inkscape:connector-curvature="0" sodipodi:nodetypes="ccc" id="path5508" d="m 39.240861,21.953144 c 5.490755,5.760542 5.417602,11.521093 7.825646,17.281635 -3.097879,0.996239 -5.026396,3.034398 -5.543163,4.891021" style="fill:none;fill-opacity:1;fill-rule:evenodd;stroke:#000001;stroke-width:3.03539991000000020;stroke-linecap:butt;stroke-linejoin:miter;stroke-miterlimit:4;stroke-opacity:1;stroke-dasharray:none"/>
    <path inkscape:connector-curvature="0" sodipodi:nodetypes="ccc" id="path6396" d="m 62.391725,20.811915 c 2.693301,7.823693 2.642286,11.091675 3.039741,14.497323 0.255894,2.192591 2.001937,4.116164 2.177353,8.653531" style="fill:none;fill-opacity:1;fill-rule:evenodd;stroke:#000001;stroke-width:3.03539991000000020;stroke-linecap:round;stroke-linejoin:round;stroke-miterlimit:4;stroke-opacity:1;stroke-dasharray:none"/>
    <path inkscape:connector-curvature="0" sodipodi:nodetypes="cccc" id="path6398" d="m 118.47551,60.918341 c -0.0294,5.540728 2.90015,10.548349 0.32607,20.542312 -0.83445,2.760545 -3.45266,2.697783 -6.49648,7.039103 -2.94574,4.215321 -9.86424,4.059747 -11.43729,8.286116" style="fill:none;fill-opacity:1;fill-rule:evenodd;stroke:#000001;stroke-width:3.03539991000000020;stroke-linecap:round;stroke-linejoin:round;stroke-miterlimit:4;stroke-opacity:1;stroke-dasharray:none"/>
    <path inkscape:connector-curvature="0" sodipodi:nodetypes="ccc" id="path6400" d="m 89.12934,57.005518 c 2.882203,5.434469 12.91718,9.238615 9.455989,17.607698 -1.467535,3.60479 -7.961014,6.621159 -12.716667,13.368812" style="fill:none;fill-opacity:1;fill-rule:evenodd;stroke:#000001;stroke-width:3.03539991000000020;stroke-linecap:round;stroke-linejoin:round;stroke-miterlimit:4;stroke-opacity:1;stroke-dasharray:none"/>
    <path inkscape:connector-curvature="0" id="path6402" d="M 77.390881,59.287997 C 85.728528,65.31274 70.882063,77.27681 67.282767,76.24356" style="fill:none;fill-opacity:1;fill-rule:evenodd;stroke:#000001;stroke-width:3.03539991000000020;stroke-linecap:round;stroke-linejoin:round;stroke-miterlimit:4;stroke-opacity:1;stroke-dasharray:none"/>
    <path inkscape:connector-curvature="0" sodipodi:nodetypes="cccc" id="path6407" d="m 131.51825,123.52349 c 10.54057,-3.17646 8.08398,-5.1576 10.06262,-8.86079 8.03027,-5.79903 5.1401,-9.67319 8.19722,-15.920411 2.47563,3.126981 2.65454,4.083991 5.21709,3.912811" style="fill:none;fill-opacity:1;fill-rule:evenodd;stroke:#000001;stroke-width:3.03539991000000020;stroke-linecap:butt;stroke-linejoin:miter;stroke-miterlimit:4;stroke-opacity:1;stroke-dasharray:none"/>
    <path inkscape:connector-curvature="0" sodipodi:nodetypes="ccc" id="path6409" d="m 208.14435,82.601893 c 5.95929,-2.512279 17.17137,-1.522698 25.7594,-2.282479 0.0778,5.264061 14.46891,12.090929 20.86839,19.890176" style="fill:none;fill-opacity:1;fill-rule:evenodd;stroke:#000001;stroke-width:3.03539991000000020;stroke-linecap:round;stroke-linejoin:round;stroke-miterlimit:4;stroke-opacity:1;stroke-dasharray:none"/>
    <path sodipodi:nodetypes="cc" id="path6411" d="m 201.62298,94.014289 c 16.76281,-1.538068 20.76288,-2.333494 39.95648,-5.15333" style="fill:none;fill-opacity:1;fill-rule:evenodd;stroke:#000001;stroke-width:3.03539991000000020;stroke-linecap:butt;stroke-linejoin:round;stroke-miterlimit:4;stroke-opacity:1;stroke-dasharray:none" inkscape:connector-curvature="0"/>
    <path inkscape:connector-curvature="0" sodipodi:nodetypes="cccccc" id="path6405" d="m 36.958382,62.059571 5.543166,2.608552 c 5.217094,-2.30048 9.45599,-1.484372 16.955563,-2.28248 -6.913164,-2.282479 -8.413229,-4.564958 -13.368802,-6.847437 -2.740339,4.473603 -4.589222,3.958192 -3.912823,5.869229 l -5.217104,0.652136 z" style="fill:#000000;fill-opacity:1;fill-rule:evenodd;stroke:#000001;stroke-width:3.03539991;stroke-linecap:round;stroke-linejoin:round;stroke-miterlimit:4;stroke-opacity:1;stroke-dasharray:none"/>
    <path transform="matrix(1.7731594,0,0,1.7731594,-222.70964,-480.17703)" d="m 153.3985,304.05746 c 0,0.62294 -0.50499,1.12793 -1.12793,1.12793 -0.62294,0 -1.12793,-0.50499 -1.12793,-1.12793 0,-0.62293 0.50499,-1.12793 1.12793,-1.12793 0.62294,0 1.12793,0.505 1.12793,1.12793 z" sodipodi:ry="1.1279302" sodipodi:rx="1.1279302" sodipodi:cy="304.05746" sodipodi:cx="152.27057" id="path6413" style="fill:#ffffff;fill-opacity:1;stroke:none" sodipodi:type="arc"/>
    <path sodipodi:nodetypes="cccc" inkscape:connector-curvature="0" id="path3296" d="m 233.66145,80.696432 c -2.77385,1.524388 -9.33301,4.130292 -16.93199,7.033288 7.97821,1.17475 13.92011,2.019036 20.57888,-2.083938 -2.85218,-2.740818 -2.66918,-3.45818 -3.64689,-4.94935 z" style="fill:none;stroke:#000000;stroke-width:3;stroke-linecap:butt;stroke-linejoin:miter;stroke-miterlimit:4;stroke-opacity:1;stroke-dasharray:none"/>
    <g id="g4864">
      <path style="fill:#ffffff;fill-opacity:1;stroke:#000000;stroke-width:2;stroke-linecap:butt;stroke-linejoin:miter;stroke-miterlimit:4;stroke-opacity:1;stroke-dasharray:none" d="m 40.636774,87.990212 -1.041969,-3.907383 4.949351,1.041969 -1.30246,-4.688859 c 1.97955,1.527842 5.097254,3.508544 5.730827,2.34443 l -1.041969,-5.209843 4.670489,1.652453 -1.023599,-4.778359 3.64689,0.781476 c -3.725063,5.691741 -5.722592,7.949128 -14.58756,12.764116 z" id="path4068" inkscape:connector-curvature="0" sodipodi:nodetypes="cccccccccc"/>
      <path style="fill:#ffffff;fill-opacity:1;stroke:#000000;stroke-width:2;stroke-linecap:butt;stroke-linejoin:miter;stroke-miterlimit:4;stroke-opacity:1;stroke-dasharray:none" d="m 35.648629,81.64459 1.403547,-4.338216 3.528548,2.830305 1.446679,-4.70558 3.284621,1.910797 1.58681,-4.557917 c -5.992841,2.179879 -5.797871,3.925781 -14.471594,4.803725 z" id="path4068-3" inkscape:connector-curvature="0" sodipodi:nodetypes="cccccccc"/>
    </g>
  </g>
</svg>