<?xml version="1.0" encoding="UTF-8"?>
<svg xmlns="http://www.w3.org/2000/svg" height="180" width="165">
	<g style="fill:#fff;stroke:#000;stroke-width:3">
		<path d="m51 143.5c-3.7 10.2-9.6 16.6-16.3 21.6 11 2.7 16.2 6.7 21.4 10.8 6.1-7.3 12.5-14.1 21.6-17.7l0-14.4-27-0z"/>
		<path d="m15 14c4.1-4.1 8.11-7 12.4-8.7 7.1-3 15.6-1.9 19 0 20.4 11.7 22.2 32.4 8 51.7-14.3 19.3-16.4 26.8-17.5 35.7 39.3 0 79.5-0.3 124.6-2.2-6.2 7-7 13.7-6.6 22.6-22.6 12.4-39.2 30.7-38.6 54.6-12.3 1.8-14.7 2.3-23.34 9.5-9.8-17.4-28.1-29.2-56.8-38.6-17.7-5.8-32.2-19.8-31.4-44.4 0.5-15 9-28.3 19.7-39.4l-9.5-7.3z"/>
		<circle cx="35" cy="25" r="7" fill="none"/>
		<path d="m36.1 94.5c10.1-11.5 21.69-24.9 53-26.5 20.6-1.1 41.8-1.7 50.2-10.2 1.6 11.3-2.9 19.2-13.1 22.8-13.9 4.4-27.3 5.6-41.5 6.4 12.9-1.3 23.9-0.8 41.5-6.6 10.3-0.2 7.1 9 2.9 13.2-9.5 7.2-22.3 5.9-33.5 8.8l24.8-4.3c8.1 2.3 5 5.9 1.4 9.3-7 5.1-18.6 6.2-28.4 8.8l20.3-4.9c7.2 2.9 2.5 7-2.8 10.6-15.6 8.9-33.7 7.6-50.3 8.2"/>
	</g>
</svg>