<?xml version="1.0" encoding="UTF-8" standalone="no"?>
<!-- Created with Inkscape (http://www.inkscape.org/) -->
<svg xmlns:dc="http://purl.org/dc/elements/1.1/" xmlns:cc="http://creativecommons.org/ns#" xmlns:rdf="http://www.w3.org/1999/02/22-rdf-syntax-ns#" xmlns:svg="http://www.w3.org/2000/svg" xmlns="http://www.w3.org/2000/svg" xmlns:xlink="http://www.w3.org/1999/xlink" xmlns:sodipodi="http://sodipodi.sourceforge.net/DTD/sodipodi-0.dtd" xmlns:inkscape="http://www.inkscape.org/namespaces/inkscape" id="svg2" version="1.1" inkscape:version="0.47 r22583" width="373.97824" height="462.44049" sodipodi:docname="a1.svg">
  <metadata id="metadata8">
    <rdf:RDF>
      <cc:Work rdf:about="">
        <dc:format>image/svg+xml</dc:format>
        <dc:type rdf:resource="http://purl.org/dc/dcmitype/StillImage"/>
        <dc:title/>
      </cc:Work>
    </rdf:RDF>
  </metadata>
  <defs id="defs6">
    <inkscape:perspective sodipodi:type="inkscape:persp3d" inkscape:vp_x="0 : 0.5 : 1" inkscape:vp_y="0 : 1000 : 0" inkscape:vp_z="1 : 0.5 : 1" inkscape:persp3d-origin="0.5 : 0.33333333 : 1" id="perspective10"/>
    <inkscape:perspective id="perspective3083" inkscape:persp3d-origin="0.5 : 0.33333333 : 1" inkscape:vp_z="1 : 0.5 : 1" inkscape:vp_y="0 : 1000 : 0" inkscape:vp_x="0 : 0.5 : 1" sodipodi:type="inkscape:persp3d"/>
    <linearGradient inkscape:collect="always" xlink:href="#linearGradient5039-1" id="linearGradient3246" gradientUnits="userSpaceOnUse" gradientTransform="matrix(1.6232213,0,0,1.6232213,372.55036,-284.80762)" x1="-236.26207" y1="458.6069" x2="-35.708897" y2="274.89862"/>
    <linearGradient id="linearGradient5039-1">
      <stop id="stop5051-1" offset="0" style="stop-color:#000000;stop-opacity:0.49803922"/>
      <stop style="stop-color:#000000;stop-opacity:0;" offset="1" id="stop5043-52"/>
    </linearGradient>
    <linearGradient inkscape:collect="always" xlink:href="#linearGradient5039" id="linearGradient3248" gradientUnits="userSpaceOnUse" gradientTransform="matrix(1.6232213,0,0,1.6232213,372.55034,-282.44437)" x1="221.58957" y1="459.45349" x2="27.223606" y2="274.89862"/>
    <linearGradient id="linearGradient5039">
      <stop id="stop5051" offset="0" style="stop-color:#000000;stop-opacity:0.49803922"/>
      <stop style="stop-color:#000000;stop-opacity:0;" offset="1" id="stop5043"/>
    </linearGradient>
    <radialGradient r="300" fy="226.33101" fx="221.44487" cy="226.33101" cx="221.44487" gradientTransform="matrix(1.6786885,0,0,1.5415926,-94.54076,168.0528)" gradientUnits="userSpaceOnUse" id="radialGradient3357" xlink:href="#linearGradient2893-7" inkscape:collect="always"/>
    <linearGradient id="linearGradient2893-7">
      <stop style="stop-color:white;stop-opacity:0.3137255;" offset="0" id="stop2895-4"/>
      <stop id="stop2897-0" offset="0.19" style="stop-color:white;stop-opacity:0.25098041;"/>
      <stop style="stop-color:#6b6b6b;stop-opacity:0.1254902;" offset="0.60000002" id="stop2901-9"/>
      <stop style="stop-color:black;stop-opacity:0.1254902;" offset="1" id="stop2899-4"/>
    </linearGradient>
    <radialGradient inkscape:collect="always" xlink:href="#linearGradient2893-7" id="radialGradient3081" gradientUnits="userSpaceOnUse" gradientTransform="matrix(1.6786885,0,0,1.5415926,-94.54076,168.0528)" cx="221.44487" cy="226.33101" fx="221.44487" fy="226.33101" r="300"/>
  </defs>
  <sodipodi:namedview pagecolor="#ffffff" bordercolor="#666666" borderopacity="1" objecttolerance="10" gridtolerance="10" guidetolerance="10" inkscape:pageopacity="0" inkscape:pageshadow="2" inkscape:window-width="1440" inkscape:window-height="840" id="namedview4" showgrid="false" inkscape:zoom="0.45227404" inkscape:cx="219.83689" inkscape:cy="302.99462" inkscape:window-x="-4" inkscape:window-y="-4" inkscape:window-maximized="1" inkscape:current-layer="svg2"/>
  <g id="g2894">
    <path sodipodi:nodetypes="cscsc" id="path3723" d="m 230.31429,451.23419 c 0.53057,0.041 3.22888,0.9998 3.72023,1.1271 2.50088,0.6478 4.37623,2.3695 4.43091,4.6938 2.03184,-3.1244 1.93013,-5.944 0.49155,-8.5726 -0.21422,-0.3915 -4.27803,-5.9083 -2.36609,-3.454" style="fill:#ffe000;fill-opacity:1;stroke:#000000;stroke-width:1.62202287px;stroke-linecap:butt;stroke-linejoin:miter;stroke-opacity:1;display:inline"/>
    <path sodipodi:nodetypes="cssssssscssscsscssssssssssssssscssscscscccccccccccccccccscccccsccccccccccccscscscssscscsscc" id="path3772-8" d="m 223.36466,447.27149 c -4.04423,-4.4899 -3.81497,-2.3234 -2.56466,1.6133 0.19455,0.6126 -1.0313,0.5327 -0.71668,1.2548 1.06454,2.443 -3.38741,5.2873 -4.85689,3.8006 -1.7862,-1.8071 -7.71261,-18.6839 -10.06085,-17.1254 -3.10345,2.0597 -3.45863,-3.2343 -6.02423,-5.1363 -2.8896,-2.142 -9.26,-0.053 -9.404,-3.3356 -0.059,-1.3446 11.7601,-4.5599 11.94068,-6.0912 0.29987,-2.543 -0.8108,-9.4009 0.32269,-12.1799 -0.46212,-3.5652 -3.47429,-7.782 -3.48112,-13.3248 -0.006,-5.9061 2.32966,-11.6237 1.928,-17.1752 -0.26278,-3.6322 -2.16757,-6.4567 -3.53518,-9.0446 -2.14034,-4.0501 -3.99058,-5.3722 -12.7353,-2.1488 -6.37053,7.6247 -4.57292,15.0541 -4.25549,24.9032 0.14631,4.5378 -1.56934,6.0107 -1.93893,10.6872 -0.47307,5.9854 0.27381,15.1497 -0.59302,20.5598 0.14956,0.4809 -0.0801,2.3817 1.2785,3.1493 1.49327,0.8436 8.79206,-0.2273 10.47796,0.9537 0.66065,0.4628 -0.0561,4.0363 -0.72655,5.1664 -0.46204,0.7789 -4.17413,-0.8409 -8.06626,-0.5375 -3.76535,0.2934 -7.69921,2.5052 -9.02188,3.4901 -0.26272,0.1956 -3.76465,3.5199 -5.52568,8.0888 -1.34995,3.5024 -0.3388,8.4342 -2.4878,10.1357 -2.07977,1.6467 -6.48473,-3.1502 -6.92015,-2.6588 -0.57712,0.6513 9.55413,-13.5433 6.74384,-13.4236 -2.69258,0.1146 -8.8259,14.2101 -11.75201,14.9299 -1.2572,0.3093 -3.80734,-0.3754 -4.0901,-0.8752 -1.29937,-2.2965 -0.86205,-5.7884 -2.77129,-5.8158 -1.59099,-0.023 5.24647,-4.3455 3.90903,-5.008 -0.81028,-0.4013 -8.26252,4.3652 -8.78711,3.5485 -1.28602,-2.0025 -1.07396,-6.3859 -2.45252,-6.9478 -2.51621,-1.0256 24.54826,-8.1796 32.2277,-11.0578 1.22242,-5.4548 1.14474,-9.5349 0.64659,-15.0812 -0.23912,-2.6624 0.88586,-5.4492 -0.60774,-8.4699 -4.82974,-9.768 0.54936,-16.7649 -0.20543,-22.5112 -0.8389,-6.3867 -3.36818,-10.0867 -3.26595,-15.6085 -2.52917,-1.3053 -8.59224,-3.2435 -12.91226,-9.4343 -3.64213,-5.2194 -3.97356,-12.7176 -5.97108,-16.7851 0.58331,21.9374 -11.15002,4.6353 -12.76493,4.5935 -2.58945,-0.067 -0.33558,10.6596 -4.54785,13.2811 -4.33534,19.1805 -31.902008,14.5587 -23.77318,-9.6893 -4.17755,13.9006 2.18282,43.9513 -5.98664,44.3237 -7.533008,-7.6465 -2.511428,-40.1943 -7.323638,-38.3912 -11.58186,10.3494 -36.51922,14.6707 -44.07017,-3.3692 -7.67454,-22.128 9.05986,-43.9515 27.86677,-53.5771 11.93832,-5.5764 3.81585,-2.9998 -3.8413,-2.8192 -18.72707,1.0242 -43.24093,-1.0366 -51.15609,-21.0978 -15.18655,-27.58622 12.52972,-42.99052 41.4141,-33.96812 -28.70753,-1.71 -49.8669,-0.8806 -58.33835,-25.81 -10.3626,-18.7152 3.49841,-46.85692 25.27253,-45.3657 12.10037,-2.05635 31.17211,11.8107 37.03564,14.7926 -19.47339,-13.1462 -47.63652,-30.04644 -54.41082,-56.12198 -7.32063,-30.074038 38.06145,-56.990828 60.47052,-34.532758 13.58013,8.575378 28.263138,34.157128 32.075388,39.785778 C 92.223822,110.61408 73.822572,93.287292 66.973952,68.910422 c 0.20481,-23.95521 29.34014,-45.71261 54.724108,-34.92839 15.28801,7.22363 20.28188,14.28731 22.91106,17.44871 5.75046,6.91449 -11.22062,0.55373 1.62066,-29.08523 18.61615,-23.5654997 67.29317,-30.6580497 83.14246,-1.10885 4.16485,7.57468 6.94706,18.32646 6.3938,26.64474 -6.32622,15.52231 -8.83121,8.09316 10.4402,-10.52427 16.85019,-7.4525 47.08606,-8.56465 57.853,10.03606 7.7158,19.86142 0.51366,39.07474 0.52529,40.39966 0.0503,5.71618 -7.13688,-1.61336 19.21838,-3.37078 20.70223,-0.55293 44.34315,20.811708 39.58646,43.157208 -5.64956,26.87953 -32.86449,40.30069 -54.26861,55.62389 21.54344,-16.16112 35.69458,-23.17292 51.29409,-7.0019 17.5577,12.3655 14.52238,45.3568 -5.76199,55.5258 -12.21166,9.6012 -42.63331,7.6641 -43.55673,7.9812 19.33617,-1.7664 35.21937,-10.8601 47.33254,25.7459 4.26216,24.33752 -24.77601,30.82232 -41.44583,28.65172 -9.80712,-0.8063 -35.37413,-1.6723 -15.3595,3.873 17.63468,10.1815 32.45067,35.0209 22.25581,56.6005 -9.71182,16.1012 -28.76345,9.2135 -40.32127,1.6344 -0.0725,37.5638 -3.62699,45.8742 -10.20413,20.6204 -1.91253,-8.3523 -4.90488,-18.0882 -4.6683,-16.0964 0.11598,0.9759 -3.73427,8.7166 -6.95431,7.6 -14.28903,-4.5757 -18.03827,-26.1458 -18.74361,-23.0204 -0.88703,3.9305 -9.32476,6.1195 -13.53049,5.4593 -7.73303,1.0512 -11.71994,-9.3551 -12.16488,-6.0661 -0.0929,0.6868 -0.83367,8.6685 -1.40355,14.429 -1.56173,3.7039 -4.79694,12.5463 -5.83346,17.2309 -0.78577,3.5514 -2.10698,9.2569 -0.74843,11.9029 5.21374,10.1551 -0.93611,12.8651 -0.83865,17.5837 0.15863,7.6833 0.82899,8.7785 -0.60137,15.6797 0.48524,2.9878 3.93268,4.846 6.59905,6.742 8.63241,6.138 23.71273,8.2812 26.05884,13.692 -0.81945,-0.1493 -0.88387,3.509 -2.52891,4.8646 -1.569,1.2929 -4.71526,0.24 -5.69986,1.9179 -1.26193,2.1501 -0.0996,4.9734 -0.90495,4.3836 l -8.02621,-5.8654 z" style="fill:#ffe000;fill-opacity:1;stroke:none;display:inline"/>
    <path sodipodi:nodetypes="ccsc" id="path3725" d="m 239.80609,447.23729 c 3.82336,0.4504 5.87375,1.3832 7.80267,3.728 1.47823,-2.533 -0.19235,-5.6317 -5.64681,-9.2833 -0.26632,-0.1783 -3.15951,-1.2319 -3.44067,-1.4144" style="fill:#ffe000;fill-opacity:1;stroke:#000000;stroke-width:1.62202287px;stroke-linecap:butt;stroke-linejoin:miter;stroke-opacity:1;display:inline"/>
    <g id="g3359" style="display:inline" transform="translate(-178.33404,-309.85741)">
      <path style="fill:none;stroke:#000000;stroke-width:1.62202287px;stroke-linecap:butt;stroke-linejoin:miter;stroke-opacity:1" d="m 397.81315,567.58488 c 4.13094,-0.99155 61.55233,-33.01948 70.3082,-34.31096 17.24872,-2.54418 39.18519,31.61305 -3.24143,48.88965 -0.57339,0.23349 -31.95808,-2.82206 -46.33975,-3.1672 29.10136,1.34849 45.13175,2.92578 46.20837,3.65758 14.32577,9.73766 11.66584,34.04051 -15.46716,35.2347 m -65.20861,-65.67439 c 34.47593,-39.17493 57.17974,-59.88127 60.0612,-65.16194 14.95609,-10.28277 34.73578,-10.4083 42.79909,8.45323 8.02776,18.77841 -9.21798,29.08093 -24.07483,39.9732 m -89.26542,-7.71772 c 0.23265,-0.6471 14.44866,-42.75934 14.7009,-43.42705 5.5993,-14.82199 14.95039,-35.95421 23.57177,-42.55482 25.5817,-19.58562 57.28318,12.5989 33.74928,44.79691" id="path3765-0" sodipodi:nodetypes="csscsccczccsss"/>
      <path style="fill:none;stroke:#000000;stroke-width:1.62202287px;stroke-linecap:butt;stroke-linejoin:miter;stroke-opacity:1" d="m 273.08634,662.15916 c -47.78016,40.60165 -72.51432,-35.53586 -10.53931,-58.95422 -12.24298,2.91417 -30.69123,3.05538 -41.95102,-1.36148 -13.81138,-5.41778 -37.45298,-29.48187 -14.64035,-51.19674 5.56484,-5.29705 21.46266,-3.77149 37.15954,-1.4557 -17.50622,-2.66461 -31.97758,-1.15012 -34.78594,-2.01405 -17.78543,-5.47126 -28.21523,-25.13978 -29.09763,-37.50947 -1.62447,-22.77272 19.82529,-39.23625 46.32543,-28.93763 7.48888,2.91036 10.75573,9.1501 21.51038,13.45917 -27.34835,-16.31144 -47.73993,-33.98798 -53.6259,-48.78382 -15.66053,-39.36659 35.14121,-68.16513 60.90513,-42.2057 10.03813,10.11432 27.77362,35.58162 32.90186,40.92783 -14.07342,-19.58228 -32.40151,-37.71489 -40.51095,-59.87129 -8.10943,-22.15641 31.53999,-69.78378 74.67719,-26.09787 l 11.94321,48.09354 -12.1893,-48.1485 c -0.19609,-6.49156 -1.60099,-14.77917 1.00064,-19.51017 22.50625,-40.9271 95.27266,-39.61383 92.4481,22.32933 l -10.77785,41.70646 10.84478,-42.26839 c 3.33225,-7.33904 8.27178,-13.45107 14.38036,-14.98047 67.51348,-16.90341 60.57041,36.9775 53.33447,52.99085 -9.43536,18.34425 -23.81517,32.2125 -35.82361,45.41061 19.50369,-22.32192 34.65496,-39.49188 36.89359,-45.08079 1.44277,-3.60199 10.23492,-3.45753 12.59099,-3.50699 46.56234,-0.97754 65.48588,40.31408 25.45949,74.43431 -9.71734,8.28347 -19.22587,15.3455 -34.02436,24.23171 9.32782,-5.93065 18.77839,-11.86131 27.26262,-17.79197 33.96779,-3.55024 60.5865,56.01789 3.25697,72.88649 l -13.53774,-1.54066 -16.32315,2.43618 c 11.1883,-2.10036 22.37657,-2.46778 33.56486,-0.18125 23.20418,21.21381 21.07565,50.91716 -15.10244,55.22704 -5.7938,0.69022 -13.46782,-0.70976 -32.95396,-0.0438 9.53711,5.08629 22.71166,15.82053 28.5831,26.22674 12.67724,22.46849 -2.81353,62.44049 -39.1224,34.04489" id="path3750" sodipodi:nodetypes="ccsscssscssczcccscccsccsssccccccscsc"/>
      <path style="fill:none;stroke:#000000;stroke-width:1.62202287px;stroke-linecap:butt;stroke-linejoin:miter;stroke-opacity:1" d="m 371.99173,455.07816 c -4.0137,-17.9494 -6.56679,-30.22637 -10.48912,-36.7924 -17.02602,-28.50181 -48.20027,-5.65346 -38.65593,22.76203 0.19024,0.56644 1.28016,1.20847 2.29832,2.45873 6.5974,8.10135 23.22931,32.88291 24.25661,42.07994 -5.39712,-15.01177 -18.08429,-35.99966 -27.09405,-42.89762 -25.5817,-19.58562 -56.86158,7.67809 -32.81774,43.1667 13.99783,20.66073 51.73454,54.90452 53.39093,57.72001 -17.24223,-18.43963 -36.68562,-34.36069 -51.67724,-55.61356 -14.95609,-10.28276 -34.96868,-12.0385 -43.03198,6.82303 -8.02776,18.7784 8.5193,29.5467 23.37616,40.43897 l 65.51086,34.90078 c -4.13094,-0.99154 -61.31944,-36.2799 -70.07532,-37.57139 -17.24872,-2.54417 -46.87049,30.44862 3.24144,48.88965 0.58101,0.2138 38.47894,-2.12339 52.8606,-2.46852 -29.10136,1.34848 -51.6526,2.2271 -52.72922,2.95891 -14.32577,9.73765 -11.66585,34.0405 15.46716,35.2347" id="path3765" sodipodi:nodetypes="cssscsscczccsscsc"/>
      <path style="fill:#cfb53b;fill-opacity:1;stroke:#000000;stroke-width:1.62202287;stroke-linejoin:round;stroke-miterlimit:4;stroke-opacity:1;stroke-dasharray:none;stroke-dashoffset:0" d="m 251.20298,450.08724 c -5.16994,8.27399 -15.30508,7.01825 -25.51033,0.6426 -10.20524,-6.37564 -16.61604,-17.78571 -11.4461,-26.05971 5.16994,-8.27397 14.37354,-9.34712 24.57879,-2.97147 10.20523,6.37564 17.54758,20.11459 12.37764,28.38858 z" id="path3912" sodipodi:nodetypes="csssc"/>
      <path style="fill:#cfb53b;fill-opacity:1;stroke:#000000;stroke-width:1.62202287;stroke-linejoin:round;stroke-miterlimit:4;stroke-opacity:1;stroke-dasharray:none;stroke-dashoffset:0" d="m 237.70071,522.72251 c -2.85916,6.72971 -13.41043,9.05123 -25.29065,3.46153 -11.88018,-5.5897 -19.19317,-16.97389 -16.33401,-23.70361 2.85917,-6.72972 16.67088,-8.11968 28.55107,-2.53 11.88022,5.5897 15.93276,16.04234 13.07359,22.77208 z" id="path3915" sodipodi:nodetypes="csssc"/>
      <path style="fill:#cfb53b;fill-opacity:1;stroke:#000000;stroke-width:1.62202287;stroke-linejoin:round;stroke-miterlimit:4;stroke-opacity:1;stroke-dasharray:none;stroke-dashoffset:0" d="m 251.11035,581.59854 c -1.55358,7.57019 -10.80383,12.17993 -22.50071,8.87027 -11.69682,-3.30969 -20.13785,-13.5774 -18.58427,-21.14761 1.55357,-7.57024 13.91979,-11.89591 25.61664,-8.58624 11.69687,3.30969 17.02191,13.29337 15.46834,20.86358 z" id="path3915-7" sodipodi:nodetypes="csssc"/>
      <path style="fill:#cfb53b;fill-opacity:1;stroke:#000000;stroke-width:1.62202287;stroke-linejoin:round;stroke-miterlimit:4;stroke-opacity:1;stroke-dasharray:none;stroke-dashoffset:0" d="m 303.82515,410.13293 c -6.68301,5.22852 -18.35757,1.19484 -26.7699,-11.84765 -8.41231,-13.04244 -9.00808,-29.30194 -2.32506,-34.5305 6.68301,-5.22854 21.01388,1.76025 29.42619,14.80268 8.41231,13.04249 6.35179,26.34687 -0.33123,31.57547 z" id="path3915-1" sodipodi:nodetypes="csssc"/>
      <path style="fill:#cfb53b;fill-opacity:1;stroke:#000000;stroke-width:1.62202287;stroke-linejoin:round;stroke-miterlimit:4;stroke-opacity:1;stroke-dasharray:none;stroke-dashoffset:0" d="m 368.47291,379.05789 c -8.73707,0.0315 -16.70492,-9.25046 -16.83075,-23.12588 -0.12587,-13.8754 8.36157,-25.73244 17.09866,-25.76389 8.73711,-0.0315 17.38914,12.80698 17.51501,26.68238 0.12587,13.87541 -9.04578,22.17595 -17.78292,22.20739 z" id="path3915-2" sodipodi:nodetypes="csssc"/>
      <path style="fill:#cfb53b;fill-opacity:1;stroke:#000000;stroke-width:1.62202287;stroke-linejoin:round;stroke-miterlimit:4;stroke-opacity:1;stroke-dasharray:none;stroke-dashoffset:0" d="m 434.21457,406.72697 c -7.34483,-3.69093 -9.09144,-15.49987 -1.81774,-28.13598 7.27367,-12.63611 20.69827,-19.77515 28.04311,-16.08426 7.34484,3.6909 7.77384,19.01626 0.50022,31.65234 -7.27371,12.63612 -19.38071,16.2588 -26.72559,12.5679 z" id="path3915-22" sodipodi:nodetypes="csssc"/>
      <path style="fill:#cfb53b;fill-opacity:1;stroke:#000000;stroke-width:1.62202287;stroke-linejoin:round;stroke-miterlimit:4;stroke-opacity:1;stroke-dasharray:none;stroke-dashoffset:0" d="m 482.98486,449.63784 c -4.88716,-5.89019 -2.0238,-16.85463 8.81537,-25.2747 10.83913,-8.42006 24.88493,-9.8023 29.77207,-3.91211 4.88717,5.89022 -0.39163,19.4538 -11.23078,27.87385 -10.83917,8.42007 -22.46952,7.20319 -27.35666,1.31296 z" id="path3915-6" sodipodi:nodetypes="csssc"/>
      <path style="fill:#cfb53b;fill-opacity:1;stroke:#000000;stroke-width:1.62202287;stroke-linejoin:round;stroke-miterlimit:4;stroke-opacity:1;stroke-dasharray:none;stroke-dashoffset:0" d="m 497.15342,522.30791 c -3.44537,-6.4493 1.36858,-16.12116 13.17599,-21.86304 11.80738,-5.74188 24.66151,-5.61607 28.23969,0.76046 6.12695,10.91858 1.81289,20.85455 -10.82376,25.21428 -12.41162,4.28209 -27.14655,2.33759 -30.59192,-4.1117 z" id="path3915-5" sodipodi:nodetypes="csssc"/>
      <path style="fill:#cfb53b;fill-opacity:1;stroke:#000000;stroke-width:1.62202287;stroke-linejoin:round;stroke-miterlimit:4;stroke-opacity:1;stroke-dasharray:none;stroke-dashoffset:0" d="m 521.71043,573.60114 c 1.31361,6.91872 -3.75301,12.49997 -13.76455,14.98506 -10.0115,2.4851 -19.83658,-2.20283 -21.15019,-9.12153 -1.31361,-6.91874 6.38527,-18.57127 16.7001,-18.46758 11.74698,0.11809 17.53653,6.63856 18.21464,12.60405 z" id="path3915-61" sodipodi:nodetypes="csssc"/>
      <path style="fill:#cfb53b;fill-opacity:1;stroke:#000000;stroke-width:1.62202287;stroke-linejoin:round;stroke-miterlimit:4;stroke-opacity:1;stroke-dasharray:none;stroke-dashoffset:0" d="m 489.24228,650.17666 c -3.11406,4.70364 -10.60503,4.3307 -17.58162,-2.55018 -6.9766,-6.88086 -9.85949,-17.37246 -6.74545,-22.07612 3.11406,-4.70365 12.62679,-2.91683 19.60338,3.96405 6.9766,6.88086 7.83772,15.95858 4.72369,20.66225 z" id="path3915-27" sodipodi:nodetypes="csssc"/>
      <path style="fill:#cfb53b;fill-opacity:1;stroke:#000000;stroke-width:1.62202287;stroke-linejoin:round;stroke-miterlimit:4;stroke-opacity:1;stroke-dasharray:none;stroke-dashoffset:0" d="m 268.48933,625.28445 c 4.43226,3.7047 3.55768,11.97382 -3.70588,19.31578 -7.26355,7.34195 -17.81439,9.95518 -22.24666,6.25046 -4.43229,-3.70473 -2.02541,-14.1334 5.23814,-21.47532 7.26357,-7.34199 16.28211,-7.79567 20.7144,-4.09092 z" id="path3915-54" sodipodi:nodetypes="csssc"/>
      <path style="fill:#ffe000;fill-opacity:1;stroke:#000000;stroke-width:1.62202287;stroke-linejoin:round;stroke-miterlimit:4;stroke-opacity:1;stroke-dasharray:none;stroke-dashoffset:0" d="m 295.66866,591.89517 c 1.90194,2.6209 -0.4637,6.67454 -6.54687,9.1915 -6.08321,2.51693 -13.13889,2.08393 -15.04086,-0.53697 -1.90193,-2.62091 1.88205,-7.51566 7.96524,-10.0326 6.0832,-2.51696 11.72052,-1.24283 13.62249,1.37807 z" id="path3915-23" sodipodi:nodetypes="csssc"/>
      <path style="fill:none;stroke:#000000;stroke-width:1.62202287;stroke-linejoin:round;stroke-miterlimit:4;stroke-opacity:1;stroke-dasharray:none;stroke-dashoffset:0" d="m 287.68853,563.36389 c -1.86761,3.66528 -8.75968,4.92968 -16.51981,1.88529 -7.76012,-3.04438 -12.53696,-9.24469 -10.66934,-12.90999 1.86758,-3.66528 10.88938,-4.42231 18.6495,-1.37794 7.76014,3.04439 10.40725,8.73733 8.53965,12.40264 z" id="path3915-11" sodipodi:nodetypes="csssc"/>
      <path style="fill:none;stroke:#000000;stroke-width:1.62202287;stroke-linejoin:round;stroke-miterlimit:4;stroke-opacity:1;stroke-dasharray:none;stroke-dashoffset:0" d="m 447.23431,561.50584 c 0.60425,4.48413 6.07861,7.65433 13.42468,6.34902 7.34608,-1.30529 13.0128,-6.82888 12.40854,-11.31302 -0.60422,-4.48418 -8.00783,-7.65415 -15.35392,-6.34883 -7.34609,1.30528 -11.08352,6.82864 -10.4793,11.31283 z" id="path3915-74" sodipodi:nodetypes="csssc"/>
      <path style="fill:none;stroke:#000000;stroke-width:1.62202287;stroke-linejoin:round;stroke-miterlimit:4;stroke-opacity:1;stroke-dasharray:none;stroke-dashoffset:0" d="m 444.35968,517.05242 c 1.9078,5.60294 8.94824,7.53576 16.87544,2.88195 7.92718,-4.65376 12.80686,-14.13188 10.89907,-19.73478 -1.90782,-5.60295 -11.12385,-6.76017 -19.05102,-2.10642 -7.92719,4.65379 -10.6313,13.35633 -8.72349,18.95925 z" id="path3915-77" sodipodi:nodetypes="csssc"/>
      <path style="fill:none;stroke:#000000;stroke-width:1.62202287;stroke-linejoin:round;stroke-miterlimit:4;stroke-opacity:1;stroke-dasharray:none;stroke-dashoffset:0" d="m 294.42155,520.9523 c -2.09009,5.40277 -9.80326,7.26652 -18.4879,2.779 -8.68462,-4.48754 -14.03054,-13.62704 -11.94045,-19.0298 2.0901,-5.4028 12.18671,-6.51868 20.87134,-2.03113 8.68464,4.48754 11.64712,12.87915 9.55701,18.28193 z" id="path3915-19" sodipodi:nodetypes="csssc"/>
      <path style="fill:none;stroke:#000000;stroke-width:1.62202287;stroke-linejoin:round;stroke-miterlimit:4;stroke-opacity:1;stroke-dasharray:none;stroke-dashoffset:0" d="m 322.53784,478.77244 c -1.66283,6.18202 -7.79927,8.3146 -14.70858,3.17981 -6.90932,-5.13478 -11.16242,-15.5925 -9.49959,-21.77452 1.66283,-6.18205 9.6955,-7.45889 16.60481,-2.32411 6.90931,5.1348 9.26621,14.73677 7.60336,20.91882 z" id="path3915-50" sodipodi:nodetypes="csssc"/>
      <path style="fill:none;stroke:#000000;stroke-width:1.62202287;stroke-linejoin:round;stroke-miterlimit:4;stroke-opacity:1;stroke-dasharray:none;stroke-dashoffset:0" d="m 353.8588,451.83888 c -2.54011,5.33676 -7.99218,6.2236 -12.70189,0.36886 -4.70969,-5.85478 -6.22508,-16.09461 -3.68492,-21.43139 2.5401,-5.3368 9.38967,-5.12018 14.09938,0.73458 4.70972,5.85477 4.82755,14.99115 2.28743,20.32795 z" id="path3915-60" sodipodi:nodetypes="csssc"/>
      <path style="fill:none;stroke:#000000;stroke-width:1.62202287;stroke-linejoin:round;stroke-miterlimit:4;stroke-opacity:1;stroke-dasharray:none;stroke-dashoffset:0" d="m 418.39649,481.54224 c -4.58643,-1.88773 -6.16858,-8.85404 -2.35909,-16.69779 3.80947,-7.84369 11.56804,-12.67198 16.15446,-10.78427 4.58646,1.88772 5.53376,11.0067 1.72424,18.85042 -3.80946,7.84373 -10.93316,10.51937 -15.51961,8.63164 z" id="path3915-8" sodipodi:nodetypes="csssc"/>
      <path style="fill:none;stroke:#000000;stroke-width:1.62202287;stroke-linejoin:round;stroke-miterlimit:4;stroke-opacity:1;stroke-dasharray:none;stroke-dashoffset:0" d="m 458.0253,601.37353 c -1.30133,3.06053 -6.10367,4.11628 -11.51086,1.57422 -5.4072,-2.54207 -8.73565,-7.71932 -7.43432,-10.77984 1.30132,-3.06053 7.58765,-3.69264 12.99482,-1.15058 5.40719,2.54207 7.25169,7.29568 5.95036,10.3562 z" id="path3915-0" sodipodi:nodetypes="csssc"/>
      <path style="fill:#ffe000;fill-opacity:1;stroke:#000000;stroke-width:1.62202287;stroke-linejoin:round;stroke-miterlimit:4;stroke-opacity:1;stroke-dasharray:none;stroke-dashoffset:0" d="m 262.24216,635.19728 c 0.89067,2.34066 -0.9053,6.08688 -4.77963,8.52251 -3.87432,2.43558 -8.05258,2.20895 -8.94325,-0.13171 -0.8907,-2.34064 1.83256,-6.88621 5.70689,-9.32181 3.87432,-2.43563 7.12532,-1.40967 8.01599,0.93099 z" id="path3915-54-9" sodipodi:nodetypes="csssc"/>
      <path style="fill:#ffe000;fill-opacity:1;stroke:#000000;stroke-width:1.62202287;stroke-linejoin:round;stroke-miterlimit:4;stroke-opacity:1;stroke-dasharray:none;stroke-dashoffset:0" d="m 238.77632,578.93949 c -1.51137,1.99695 -5.63968,2.46249 -9.75994,0.47095 -4.12021,-1.99155 -6.14518,-5.65333 -4.63382,-7.65027 1.51133,-1.99697 6.80921,-2.10066 10.92944,-0.10916 4.12027,1.99152 4.97569,5.29151 3.46432,7.28845 z" id="path3915-54-9-0" sodipodi:nodetypes="csssc"/>
      <path style="fill:#ffe000;fill-opacity:1;stroke:#000000;stroke-width:1.62202287;stroke-linejoin:round;stroke-miterlimit:4;stroke-opacity:1;stroke-dasharray:none;stroke-dashoffset:0" d="m 225.3745,517.27505 c -1.8427,2.53561 -6.85583,3.11063 -11.84923,0.55794 -4.99335,-2.55269 -7.43655,-7.22266 -5.59384,-9.75827 1.84268,-2.53563 8.27409,-2.64508 13.26743,-0.0923 4.99339,2.55267 6.01837,6.75707 4.17566,9.29268 z" id="path3915-54-9-6" sodipodi:nodetypes="csssc"/>
      <path style="fill:#ffe000;fill-opacity:1;stroke:#000000;stroke-width:1.62202287;stroke-linejoin:round;stroke-miterlimit:4;stroke-opacity:1;stroke-dasharray:none;stroke-dashoffset:0" d="m 239.29962,445.08805 c -3.15907,0.95145 -8.47562,-1.47652 -12.15109,-6.37448 -3.67541,-4.89794 -3.70044,-10.00845 -0.54137,-10.95991 3.15902,-0.9515 9.65404,2.6618 13.32944,7.55976 3.67549,4.89796 2.52212,8.8232 -0.63695,9.77462 z" id="path3915-54-9-3" sodipodi:nodetypes="csssc"/>
      <path style="fill:#ffe000;fill-opacity:1;stroke:#000000;stroke-width:1.62202287;stroke-linejoin:round;stroke-miterlimit:4;stroke-opacity:1;stroke-dasharray:none;stroke-dashoffset:0" d="m 287.13688,377.21863 c 4.13167,0.39903 9.07363,4.67269 10.88298,10.50537 1.80929,5.83263 -0.71297,10.41131 -4.84462,10.01228 -4.13162,-0.39901 -9.84596,-6.1985 -11.65524,-12.03115 -1.80932,-5.83265 1.4852,-8.88555 5.61688,-8.4865 z" id="path3915-54-9-9" sodipodi:nodetypes="csssc"/>
      <path style="fill:#ffe000;fill-opacity:1;stroke:#000000;stroke-width:1.62202287;stroke-linejoin:round;stroke-miterlimit:4;stroke-opacity:1;stroke-dasharray:none;stroke-dashoffset:0" d="m 369.82103,341.822 c 2.87102,0.99341 5.25045,6.69826 4.93591,13.8646 -0.31456,7.16626 -3.40685,12.29693 -6.27788,11.3035 -2.871,-0.99339 -5.38393,-8.61046 -5.06939,-15.77678 0.31453,-7.16629 3.54033,-10.38476 6.41134,-9.39135 z" id="path3915-54-9-4" sodipodi:nodetypes="csssc"/>
      <path style="fill:#ffe000;fill-opacity:1;stroke:#000000;stroke-width:1.62202287;stroke-linejoin:round;stroke-miterlimit:4;stroke-opacity:1;stroke-dasharray:none;stroke-dashoffset:0" d="m 455.01163,378.96532 c 0.98583,3.14127 -1.00202,8.16886 -5.29028,11.43759 -4.28825,3.26866 -8.91292,2.96451 -9.89875,-0.17676 -0.98586,-3.14125 2.02836,-9.24161 6.31661,-12.51029 4.28826,-3.26872 7.8866,-1.89183 8.87242,1.24944 z" id="path3915-54-9-60" sodipodi:nodetypes="csssc"/>
      <path style="fill:#ffe000;fill-opacity:1;stroke:#000000;stroke-width:1.62202287;stroke-linejoin:round;stroke-miterlimit:4;stroke-opacity:1;stroke-dasharray:none;stroke-dashoffset:0" d="m 510.374,430.33475 c 1.15948,2.78673 -1.17855,7.24687 -6.22215,10.14666 -5.04358,2.89972 -10.48286,2.6299 -11.64233,-0.15685 -1.15952,-2.7867 2.38566,-8.1985 7.42924,-11.09827 5.04358,-2.89977 9.27575,-1.67831 10.43524,1.10843 z" id="path3915-54-9-61" sodipodi:nodetypes="csssc"/>
      <path style="fill:#ffe000;fill-opacity:1;stroke:#000000;stroke-width:1.62202287;stroke-linejoin:round;stroke-miterlimit:4;stroke-opacity:1;stroke-dasharray:none;stroke-dashoffset:0" d="m 529.11934,511.42855 c 0.0404,2.98093 -3.57254,6.43578 -9.01147,7.57621 -5.43892,1.14036 -10.11432,-0.82 -10.15472,-3.80094 -0.0404,-2.9809 4.96454,-6.95068 10.40346,-8.09106 5.43893,-1.14042 8.72233,1.33486 8.76273,4.31577 z" id="path3915-54-9-96" sodipodi:nodetypes="csssc"/>
      <path style="fill:#ffe000;fill-opacity:1;stroke:#000000;stroke-width:1.62202287;stroke-linejoin:round;stroke-miterlimit:4;stroke-opacity:1;stroke-dasharray:none;stroke-dashoffset:0" d="m 497.63966,571.75878 c 1.51136,-1.99695 5.63967,-2.46249 9.75993,-0.47096 4.12022,1.99156 6.14518,5.65334 4.63383,7.65028 -1.51133,1.99696 -6.80922,2.10066 -10.92945,0.10916 -4.12026,-1.99152 -4.97568,-5.29151 -3.46431,-7.28845 z" id="path3915-54-9-0-8" sodipodi:nodetypes="csssc"/>
      <path style="fill:#ffe000;fill-opacity:1;stroke:#000000;stroke-width:1.62202287;stroke-linejoin:round;stroke-miterlimit:4;stroke-opacity:1;stroke-dasharray:none;stroke-dashoffset:0" d="m 471.35453,633.70192 c -0.89067,2.34066 0.9053,6.08688 4.77963,8.52251 3.87432,2.43558 8.05258,2.20895 8.94325,-0.13171 0.8907,-2.34064 -1.83256,-6.88621 -5.70689,-9.32181 -3.87432,-2.43563 -7.12532,-1.40967 -8.01599,0.93099 z" id="path3915-54-9-2" sodipodi:nodetypes="csssc"/>
    </g>
    <path sodipodi:nodetypes="cccc" id="path3729" d="m 157.98984,450.62339 c -0.83544,1.3379 -1.34116,2.7311 -1.87289,4.1401 -0.65646,2.5433 0.90502,4.3226 3.00835,6.866 0.33542,-3.2355 1.24768,-5.0911 2.84916,-7.6935" style="fill:#ffe000;fill-opacity:1;stroke:#000000;stroke-width:1.62202287px;stroke-linecap:butt;stroke-linejoin:miter;stroke-opacity:1;display:inline"/>
    <path sodipodi:nodetypes="csccccsccc" id="path3748" d="m 209.69657,253.33112 c 2.88637,1.61466 5.0693,3.66824 8.95496,4.6137 30.9239,7.52454 63.47095,55.46557 65.97287,97.65047 -0.17939,74.4902 -11.62424,13.4225 -14.16217,9.5512 l -8.39851,-36.2289 7.08109,32.7707 c -4.22266,14.1096 -12.10962,4.7995 -16.96169,0 -8.16414,-8.0757 -11.05705,-25.1244 -16.1383,-40.5105 l 7.41044,24.7015 c -3.75185,3.1308 -12.40874,11.7152 -24.86616,-1.3174" style="fill:none;stroke:#000000;stroke-width:1.62202287px;stroke-linecap:butt;stroke-linejoin:miter;stroke-opacity:1;display:inline"/>
    <g id="g3395" style="display:inline" transform="translate(-178.33404,-309.85741)">
      <path sodipodi:type="arc" style="fill:none;stroke:#000000;stroke-width:1;stroke-linejoin:round;stroke-miterlimit:4;stroke-opacity:1;stroke-dasharray:none;stroke-dashoffset:0" id="path3802" sodipodi:cx="275.52747" sodipodi:cy="401.79108" sodipodi:rx="2.2972586" sodipodi:ry="2.3690479" d="m 277.82472,401.79108 c 0,1.30839 -1.02851,2.36904 -2.29725,2.36904 -1.26875,0 -2.29726,-1.06065 -2.29726,-2.36904 0,-1.30839 1.02851,-2.36905 2.29726,-2.36905 1.26874,0 2.29725,1.06066 2.29725,2.36905 z" transform="matrix(1.9740846,0,0,1.7668072,-174.48455,-303.36634)"/>
      <path sodipodi:type="arc" style="fill:none;stroke:#000000;stroke-width:1;stroke-linejoin:round;stroke-miterlimit:4;stroke-opacity:1;stroke-dasharray:none;stroke-dashoffset:0" id="path3802-9" sodipodi:cx="275.52747" sodipodi:cy="401.79108" sodipodi:rx="2.2972586" sodipodi:ry="2.3690479" d="m 277.82472,401.79108 c 0,1.30839 -1.02851,2.36904 -2.29725,2.36904 -1.26875,0 -2.29726,-1.06065 -2.29726,-2.36904 0,-1.30839 1.02851,-2.36905 2.29726,-2.36905 1.26874,0 2.29725,1.06066 2.29725,2.36905 z" transform="matrix(1.9740846,0,0,1.7668072,-164.47037,-305.81167)"/>
      <path sodipodi:type="arc" style="fill:none;stroke:#000000;stroke-width:1;stroke-linejoin:round;stroke-miterlimit:4;stroke-opacity:1;stroke-dasharray:none;stroke-dashoffset:0" id="path3802-8" sodipodi:cx="275.52747" sodipodi:cy="401.79108" sodipodi:rx="2.2972586" sodipodi:ry="2.3690479" d="m 277.82472,401.79108 c 0,1.30839 -1.02851,2.36904 -2.29725,2.36904 -1.26875,0 -2.29726,-1.06065 -2.29726,-2.36904 0,-1.30839 1.02851,-2.36905 2.29726,-2.36905 1.26874,0 2.29725,1.06066 2.29725,2.36905 z" transform="matrix(1.9740846,0,0,1.7668072,-154.4562,-306.74323)"/>
      <path sodipodi:type="arc" style="fill:none;stroke:#000000;stroke-width:1;stroke-linejoin:round;stroke-miterlimit:4;stroke-opacity:1;stroke-dasharray:none;stroke-dashoffset:0" id="path3802-2" sodipodi:cx="275.52747" sodipodi:cy="401.79108" sodipodi:rx="2.2972586" sodipodi:ry="2.3690479" d="m 277.82472,401.79108 c 0,1.30839 -1.02851,2.36904 -2.29725,2.36904 -1.26875,0 -2.29726,-1.06065 -2.29726,-2.36904 0,-1.30839 1.02851,-2.36905 2.29726,-2.36905 1.26874,0 2.29725,1.06066 2.29725,2.36905 z" transform="matrix(1.9740846,0,0,1.7668072,-144.6749,-303.71568)"/>
      <path sodipodi:type="arc" style="fill:none;stroke:#000000;stroke-width:1;stroke-linejoin:round;stroke-miterlimit:4;stroke-opacity:1;stroke-dasharray:none;stroke-dashoffset:0" id="path3802-5" sodipodi:cx="275.52747" sodipodi:cy="401.79108" sodipodi:rx="2.2972586" sodipodi:ry="2.3690479" d="m 277.82472,401.79108 c 0,1.30839 -1.02851,2.36904 -2.29725,2.36904 -1.26875,0 -2.29726,-1.06065 -2.29726,-2.36904 0,-1.30839 1.02851,-2.36905 2.29726,-2.36905 1.26874,0 2.29725,1.06066 2.29725,2.36905 z" transform="matrix(1.9740846,0,0,1.7668072,-134.66072,-298.82503)"/>
      <path style="fill:none;stroke:#000000;stroke-width:1.62202287px;stroke-linecap:butt;stroke-linejoin:miter;stroke-opacity:1" d="m 368.96419,410.82945 c 6.0634,13.62144 10.60814,29.23556 10.47996,44.71447" id="path3853" sodipodi:nodetypes="cc"/>
      <path style="fill:none;stroke:#000000;stroke-width:1.62202287px;stroke-linecap:butt;stroke-linejoin:miter;stroke-opacity:1" d="m 386.19789,456.24259 c 10.1436,-28.85783 16.28276,-34.24105 21.65857,-40.98827" id="path3855" sodipodi:nodetypes="cc"/>
      <path style="fill:none;stroke:#000000;stroke-width:1.62218511;stroke-linecap:butt;stroke-linejoin:miter;stroke-miterlimit:4;stroke-opacity:1;stroke-dasharray:none" d="m 373.15618,409.89789 7.68529,28.41233 c -0.39795,-9.2816 -0.49295,-19.9255 -2.09599,-29.80965" id="path3857" sodipodi:nodetypes="ccc"/>
      <path style="fill:none;stroke:#000000;stroke-width:1.62218511;stroke-linecap:butt;stroke-linejoin:miter;stroke-miterlimit:4;stroke-opacity:1;stroke-dasharray:none" d="m 380.95792,406.87036 c 2.76477,4.84336 1.92951,26.36475 2.32886,40.52249 1.23227,-7.4185 4.63059,-31.33699 3.02754,-41.22115" id="path3857-1" sodipodi:nodetypes="ccc"/>
      <path style="fill:none;stroke:#000000;stroke-width:1.62218511;stroke-linecap:butt;stroke-linejoin:miter;stroke-miterlimit:4;stroke-opacity:1;stroke-dasharray:none" d="m 389.80766,408.03479 -1.39734,25.61768 c 2.86248,-18.59713 6.72657,-23.18593 6.75374,-23.98745" id="path3857-11" sodipodi:nodetypes="ccc"/>
      <path style="fill:none;stroke:#000000;stroke-width:1.62218511;stroke-linecap:butt;stroke-linejoin:miter;stroke-miterlimit:4;stroke-opacity:1;stroke-dasharray:none" d="m 405.17825,413.39121 c -3.98892,4.91874 -8.04309,10.79435 -16.30215,26.08344 3.56115,-13.93935 5.09636,-19.22682 9.54839,-29.34387" id="path3857-2" sodipodi:nodetypes="ccc"/>
    </g>
    <path sodipodi:nodetypes="ccsc" id="path3733" d="m 137.08254,439.36269 c -4.83779,3.1773 -3.87682,8.1345 -3.08661,10.6844 0.8357,-2.8124 2.52611,-3.9637 4.93898,-4.5769 0.24567,-0.062 6.1742,-2.3021 5.23417,-1.918" style="fill:#ffe000;fill-opacity:1;stroke:#000000;stroke-width:1.62202287px;stroke-linecap:butt;stroke-linejoin:miter;stroke-opacity:1;display:inline"/>
    <path sodipodi:nodetypes="ccsc" id="path3727" d="m 190.50444,434.13919 c 1.86106,-1.2843 4.90613,-2.2171 9.2598,0.2375 0.26997,-2.2476 -1.64663,-5.4195 -7.26937,-6.265 -0.4065,-0.061 -3.45173,-0.1101 -3.89753,-0.1456" style="fill:#e6ce46;fill-opacity:1;stroke:#000000;stroke-width:1.62202287px;stroke-linecap:butt;stroke-linejoin:miter;stroke-opacity:1;display:inline"/>
    <path sodipodi:nodetypes="ccc" id="path3731" d="m 145.82917,446.52389 c -3.44008,2.0859 -3.83347,5.8225 -3.52316,10.4087 1.46066,-3.6185 3.60718,-4.0452 5.69834,-4.5112" style="fill:#ffe000;fill-opacity:1;stroke:#000000;stroke-width:1.62202287px;stroke-linecap:butt;stroke-linejoin:miter;stroke-opacity:1;display:inline"/>
    <path sodipodi:nodetypes="ccsc" id="path3721" d="m 218.7587,453.37109 c 2.425,0.667 3.38255,1.8102 6.06978,4.9803 0.58285,-1.5522 1.77581,-5.8322 -0.70794,-7.6153 -0.35127,-0.2522 -2.93705,-2.4539 -2.74435,-1.7996" style="fill:#ffe000;fill-opacity:1;stroke:#000000;stroke-width:1.62202287px;stroke-linecap:butt;stroke-linejoin:miter;stroke-opacity:1;display:inline"/>
    <g id="g3408" style="display:inline" transform="translate(-178.33404,-309.85741)">
      <path style="fill:none;stroke:#000000;stroke-width:1.62202287px;stroke-linecap:butt;stroke-linejoin:miter;stroke-opacity:1" d="m 335.16355,588.08939 c 0.01,1.13825 -0.0165,2.27795 0.01,3.41528 -0.005,0.35634 1.26282,0.42784 0.53457,0.40044 1.7177,-0.0378 3.43588,-0.006 5.15378,-0.0169 -0.31657,0 -0.63316,0 -0.94973,0 1.1015,0.062 2.21093,-0.1124 3.3062,0.0659 0.0647,2.55916 -0.0394,5.12102 0.05,7.67971 0.3762,0.48184 1.20856,0.28444 1.54078,0.78665 2.32366,0.0321 4.64971,0.008 6.97453,0.0146 0.41467,-0.25633 0.41189,0.25433 0,0 1.07794,0.0237 2.25501,0.15214 3.23828,-0.37383 0.0285,-0.0337 0.0573,-0.0673 0.0858,-0.10105" id="path3678"/>
      <path style="fill:none;stroke:#000000;stroke-width:1.62202287px;stroke-linecap:butt;stroke-linejoin:miter;stroke-opacity:1" d="m 371.72788,601.38551 c 12.75952,-6.99929 15.28419,-11.52011 19.70675,-17.56988 4.42257,-6.04975 -1.35746,-15.86528 -1.42458,-15.90786 l -18.75702,-44.87438 c 0,0 -2.01957,-12.09502 -1.66202,-18.51959 0.42605,-7.65571 4.51118,-23.26821 4.51118,-23.26821" id="path3688" sodipodi:nodetypes="czccsc"/>
      <path style="fill:none;stroke:#000000;stroke-width:1.62202287px;stroke-linecap:butt;stroke-linejoin:miter;stroke-opacity:1" d="m 401.16929,465.81259 c -4.43232,-2.92569 -11.93635,-12.77387 -32.52801,-9.49723 l -4.98603,-1.66201 -3.56148,-2.61175 6.17321,9.9721 c 0,0 -10.72942,10.18802 -14.24584,17.33243 -3.51641,7.14441 -5.69834,24.6928 -5.69834,24.6928 0,0 -1.58297,29.27006 -4.03633,43.68724 -1.3138,7.72064 -5.69833,22.79335 -5.69833,22.79335 l -23.74307,14.7207 c -5.00405,5.90335 -37.63281,30.7472 -40.12578,75.50296 l 0.94973,27.30453 c 7.03317,29.80795 7.56124,8.11166 9.49722,0.71228 l 1.18716,-30.86597 c 0.64133,-6.86131 1.56354,-13.42155 7.83521,-28.72913 l 4.51117,-8.31007" id="path3700" sodipodi:nodetypes="ccccczcscccccccc"/>
      <path style="fill:#ffe000;fill-opacity:1;stroke:#000000;stroke-width:1.62202287px;stroke-linecap:butt;stroke-linejoin:miter;stroke-opacity:1" d="m 385.64024,483.00289 12.41302,-2.63172 18.31158,-0.7876 -21.12795,-18.24414" id="path3694" sodipodi:nodetypes="cccc"/>
      <path style="fill:none;stroke:#000000;stroke-width:1.62202287px;stroke-linecap:butt;stroke-linejoin:miter;stroke-opacity:1" d="m 366.26698,477.20926 c 10.95118,8.36315 19.54969,6.1392 28.01681,3.32403 -5.4264,-3.53984 -7.66297,-12.39603 -11.39667,-18.75702 l 10.92182,6.88549" id="path3690" sodipodi:nodetypes="cccc"/>
      <path style="fill:none;stroke:#000000;stroke-width:1.62202287px;stroke-linecap:butt;stroke-linejoin:miter;stroke-opacity:1" d="m 392.96638,575.70466 c 30.11072,19.02191 7.38079,95.15976 -31.44802,103.08325 l -3.0866,5.46091 0,14.00841 c 1.92833,5.14433 -0.1562,10.28867 -1.89945,15.43299 -0.39475,8.07265 -1.30458,16.14528 0.7123,24.21793 l 11.15924,0.47486 c -0.83471,1.92819 -1.64006,3.86374 0,6.41062 -9.20949,-3.66637 -12.62145,-0.62498 -17.56987,1.18716 -2.59008,2.71741 -6.21574,5.2707 -6.14394,8.94959 0.15182,7.78276 -2.16158,11.38278 -5.25273,9.57 -1.06084,-2.39371 -2.10886,-2.42911 -5.69833,-1.662 5.81933,-6.72066 6.99533,-10.65533 9.97208,-15.67043 -3.50194,3.643 -8.80703,6.94096 -9.89594,12.21404 -0.7965,3.85703 -5.86243,5.00819 -8.38623,3.45637 0.36862,-4.29526 -1.30388,-4.30785 -2.84917,-5.69833 l 18.04475,-13.77097 c -7.67988,4.19976 -17.86357,12.78121 -23.0308,12.58381 0.55071,-3.47899 0.58855,-6.44515 -2.61171,-6.17319 0.8005,-4.35289 22.08105,-7.99349 33.00286,-12.34638 1.22312,-7.61217 0.65718,-16.45387 0,-24.6928 -2.7801,-4.8437 -3.27444,-9.46545 -0.23743,-15.67043 1.67714,-7.73929 -3.0301,-14.0916 -3.32403,-21.60619 -9.39322,-1.96553 -12.45378,-9.56006 -16.38272,-16.38272 l -1.26969,-11.08418 -0.65875,9.38657 c -0.40398,5.75645 -8.91568,0.46518 -12.51542,-2.47016 0.25597,-11.83451 2.83071,-22.52709 9.2219,-33.92338 -7.81971,12.84975 -8.9349,26.82503 -11.36269,41.33383 -6.57002,13.50527 -13.75427,23.74629 -27.66566,10.04527" id="path3717" sodipodi:nodetypes="cccccccccscccscccccccccccscccc"/>
      <path style="fill:none;stroke:#000000;stroke-width:1.62202287px;stroke-linecap:butt;stroke-linejoin:miter;stroke-opacity:1" d="m 371.96531,674.98902 c 0,0 5.78108,7.26522 6.88548,11.6341 0.98997,3.91623 -0.47484,12.10897 -0.47484,12.10897 -3.09417,9.81223 0.57213,10.9324 1.42457,15.67043 -1.22051,4.83058 2.58166,11.6136 0.23743,17.56986 l -4.51118,2.84917 -8.31006,2.13687 10.44694,3.56147 c 1.62399,2.27462 1.80111,5.27265 5.69835,6.41063 4.21951,2.5788 5.87354,7.92045 8.17634,14.89396 0.49927,1.51199 3.57192,1.06853 4.40749,2.43847 1.51231,-3.30399 1.33687,-5.40172 4.7486,-4.27375 l -7.59778,-10.44695 c 6.76445,6.13783 13.42983,12.11713 17.095,13.29613 -0.79143,-4.59033 1.26628,-6.64807 6.17319,-6.17321" id="path3719" sodipodi:nodetypes="cscccccccsccccc"/>
    </g>
    <path sodipodi:nodetypes="cscccccscccc" id="path3715" d="m 218.08034,338.37369 c 0,0 -0.59236,13.6557 -1.89945,20.1816 -1.32262,6.6035 -6.88549,20.4191 -6.88549,20.4191 l -0.23743,9.0223 c 4.27031,6.015 2.36922,9.6555 -0.23743,15.6705 l -0.94973,18.0447 6.41064,6.4106 c 4.35221,2.2348 11.25848,6.5211 16.15955,8.599 4.81702,2.0423 8.12348,2.108 10.19525,4.9346 0.32738,-1.2018 -3.67644,1.1941 -1.18717,6.1732 l -4.51117,-2.8492 c -10.57729,-3.3887 -13.34763,-6.7215 -18.75702,-10.6844" style="fill:none;stroke:#000000;stroke-width:1.62202287px;stroke-linecap:butt;stroke-linejoin:miter;stroke-opacity:1;display:inline"/>
    <path d="m 288.66012,439.37543 a 1.5369834,1.1710349 0 1 1 -3.07396,0 1.5369834,1.1710349 0 1 1 3.07396,0 z" sodipodi:ry="1.1710349" sodipodi:rx="1.5369834" sodipodi:cy="439.37543" sodipodi:cx="287.12314" id="path3698" style="fill:#ffe000;fill-opacity:1;stroke:#000000;stroke-width:1;stroke-linejoin:round;stroke-miterlimit:4;stroke-opacity:1;stroke-dasharray:none;stroke-dashoffset:0;display:inline" sodipodi:type="arc" transform="matrix(1.6220229,0,0,1.6220229,-255.45266,-554.57068)"/>
    <path sodipodi:nodetypes="cccc" id="path3692" d="m 210.62376,163.80466 c 18.01256,-19.63196 31.97777,4.63304 30.62856,8.31006 l -5.93576,-5.22347 -24.45537,-2.84916" style="fill:#ffe000;fill-opacity:1;stroke:#000000;stroke-width:1.62202287px;stroke-linecap:butt;stroke-linejoin:miter;stroke-opacity:1;display:inline"/>
  </g>
</svg>