<?xml version="1.0" encoding="UTF-8" standalone="no"?>
<!-- Created with Inkscape (http://www.inkscape.org/) -->
<svg xmlns:dc="http://purl.org/dc/elements/1.1/" xmlns:cc="http://web.resource.org/cc/" xmlns:rdf="http://www.w3.org/1999/02/22-rdf-syntax-ns#" xmlns:svg="http://www.w3.org/2000/svg" xmlns="http://www.w3.org/2000/svg" xmlns:sodipodi="http://sodipodi.sourceforge.net/DTD/sodipodi-0.dtd" xmlns:inkscape="http://www.inkscape.org/namespaces/inkscape" version="1.0" width="200" height="190" id="svg1935" sodipodi:version="0.32" inkscape:version="0.44" sodipodi:docname="Héraldique_meuble_Quintefeuille.svg" sodipodi:docbase="C:\Documents and Settings\Bruno Vallette\Mes documents\Perso\Wikipédia Blasons\Meubles BVA">
  <metadata id="metadata1896">
    <rdf:RDF>
      <cc:Work rdf:about="">
        <dc:format>image/svg+xml</dc:format>
        <dc:type rdf:resource="http://purl.org/dc/dcmitype/StillImage"/>
      </cc:Work>
    </rdf:RDF>
  </metadata>
  <sodipodi:namedview inkscape:window-height="719" inkscape:window-width="1024" inkscape:pageshadow="2" inkscape:pageopacity="0.0" guidetolerance="10.0" gridtolerance="10.0" objecttolerance="10.0" borderopacity="1.0" bordercolor="#666666" pagecolor="#ffffff" id="base" inkscape:zoom="1.9894737" inkscape:cx="100" inkscape:cy="95" inkscape:window-x="-4" inkscape:window-y="-4" inkscape:current-layer="svg1935"/>
  <defs id="defs1937"/>
  <path style="fill:yellow;fill-opacity:1;fill-rule:evenodd;stroke:black;stroke-width:3;stroke-linecap:butt;stroke-linejoin:miter;stroke-miterlimit:4;stroke-dasharray:none;stroke-opacity:1" d="M 99.5625 4.5625 C 99.562008 4.5184999 90.90842 20.56778 82.96875 26.40625 C 69.000618 36.677779 65.9882 49.00638 76.4375 60.71875 C 81.285548 66.152811 81.78174 69.65585 77.96875 73.46875 C 77.085158 74.352321 76.18645 74.91996 75.28125 75.21875 C 73.238348 75.893091 71.17117 75.24929 69.3125 74.0625 C 68.023108 72.988251 66.76197 71.33253 65.4375 69.0625 C 57.527388 55.505301 44.83518 54.57708 30.75 64.6875 C 22.743789 70.434381 13.81084 71.90622 4.71875 73.6875 C 4.6767499 73.674371 17.27577 86.86349 20.375 96.21875 C 25.827399 112.67732 36.63186 119.34981 51 113.03125 C 52.763401 112.25578 54.29838 111.73644 55.65625 111.46875 C 57.478351 111.34236 59.42851 111.30394 60.84375 112.15625 C 62.280191 113.02133 63.37111 114.02981 63.59375 115.53125 C 64.326901 120.47549 63.08559 123.10722 59.6875 125.1875 C 59.655711 125.20696 59.62565 125.23072 59.59375 125.25 C 58.472451 125.69908 57.14176 126.06981 55.59375 126.40625 C 40.255731 129.73982 35.45576 141.47988 40.71875 158 C 43.710311 167.39021 41.28623 185.4728 41.3125 185.4375 C 49.715161 181.53441 57.80115 177.46285 67.65625 177.40625 C 84.994158 177.30675 94.04233 169.1479 93.15625 153.5 C 92.584638 143.40557 97.487 142.48461 99.84375 142.25 C 102.65273 142.34181 107.41383 144.40584 106.5625 153.5 C 104.9932 169.11741 114.72459 177.30675 132.0625 177.40625 C 141.91763 177.46285 150.00359 181.5344 158.40625 185.4375 C 158.43254 185.47281 156.00844 167.3902 159 158 C 164.26302 141.47989 159.43177 129.73982 144.09375 126.40625 C 142.20504 125.99576 140.66431 125.5217 139.40625 124.9375 C 137.61938 123.77999 136.03284 122.30795 135.375 120.5 C 135.37283 120.49014 135.37713 120.47864 135.375 120.46875 C 135.36736 120.4474 135.34969 120.42814 135.34375 120.40625 C 135.0509 119.32711 135.19688 117.3349 135.53125 116.34375 C 135.96249 115.06548 136.94385 113.09381 138.0625 112.59375 C 139.64332 111.59166 141.68152 111.35681 143.75 111.46875 C 145.12301 111.73245 146.67833 112.24389 148.46875 113.03125 C 162.8369 119.34981 173.64134 112.67732 179.09375 96.21875 C 182.19299 86.863491 194.79201 73.67437 194.75 73.6875 C 185.65792 71.906221 176.72497 70.43438 168.71875 64.6875 C 154.63358 54.577081 141.94136 55.5053 134.03125 69.0625 C 132.95383 70.909131 131.91647 72.3237 130.875 73.375 C 129.03396 76.166231 123.07137 75.74783 121.15625 73.59375 C 119.94367 72.122831 119.4283 71.55642 119.03125 70.53125 C 118.61668 68.879721 118.9093 67.05421 119.53125 65.28125 C 120.20777 63.945981 121.26947 62.49945 122.71875 60.875 C 133.16805 49.162631 130.12439 36.80276 116.15625 26.53125 C 108.21658 20.692779 104.06621 12.65915 99.5625 4.5625 z M 99.71875 91.90625 C 106.42147 91.906252 111.84375 97.35977 111.84375 104.0625 C 111.84375 110.76523 106.42147 116.1875 99.71875 116.1875 C 93.016022 116.18749 87.59375 110.76523 87.59375 104.0625 C 87.593749 97.359766 93.01602 91.90625 99.71875 91.90625 z " id="path14529"/>
</svg>