<?xml version="1.0" encoding="UTF-8" standalone="no"?>
<svg xmlns:dc="http://purl.org/dc/elements/1.1/" xmlns:cc="http://creativecommons.org/ns#" xmlns:rdf="http://www.w3.org/1999/02/22-rdf-syntax-ns#" xmlns:svg="http://www.w3.org/2000/svg" xmlns="http://www.w3.org/2000/svg" xmlns:sodipodi="http://sodipodi.sourceforge.net/DTD/sodipodi-0.dtd" xmlns:inkscape="http://www.inkscape.org/namespaces/inkscape" height="300" width="200" version="1.0" id="svg2" sodipodi:version="0.32" inkscape:version="0.46" sodipodi:docname="Meuble_Héraldique_Tour_ajourée.svg" inkscape:output_extension="org.inkscape.output.svg.inkscape" style="display:inline">
  <title id="title3663">Tour ajourée</title>
  <metadata id="metadata49">
    <rdf:RDF>
      <cc:Work rdf:about="">
        <dc:title>Tour ajourée</dc:title>
        <dc:format>image/svg+xml</dc:format>
        <dc:type rdf:resource="http://purl.org/dc/dcmitype/StillImage"/>
      </cc:Work>
      <cc:License rdf:about="http://creativecommons.org/licenses/by-sa/3.0/">
        <cc:permits rdf:resource="http://creativecommons.org/ns#Reproduction"/>
        <cc:permits rdf:resource="http://creativecommons.org/ns#Distribution"/>
        <cc:requires rdf:resource="http://creativecommons.org/ns#Notice"/>
        <cc:requires rdf:resource="http://creativecommons.org/ns#Attribution"/>
        <cc:permits rdf:resource="http://creativecommons.org/ns#DerivativeWorks"/>
        <cc:requires rdf:resource="http://creativecommons.org/ns#ShareAlike"/>
      </cc:License>
    </rdf:RDF>
  </metadata>
  <sodipodi:namedview inkscape:window-height="1138" inkscape:window-width="1920" inkscape:pageshadow="2" inkscape:pageopacity="0.0" guidetolerance="10.0" gridtolerance="10.0" objecttolerance="10.0" borderopacity="1.0" bordercolor="#666666" pagecolor="#ffffff" id="base" showgrid="false" height="660px" inkscape:zoom="1.4142136" inkscape:cx="-77.718927" inkscape:cy="139.37471" inkscape:window-x="-8" inkscape:window-y="-8" inkscape:current-layer="layer2" inkscape:window-maximized="0" inkscape:showpageshadow="false" showborder="true"/>
  <desc id="desc4"/>
  <defs id="defs6"/>
  <g inkscape:groupmode="layer" id="layer2" inkscape:label="Meubles" style="display:inline" transform="translate(-80.9025,54.283747)">
    <path style="fill:#ff0000;fill-opacity:1;stroke:#000000;stroke-width:3;stroke-linecap:round;stroke-linejoin:round;stroke-miterlimit:4;stroke-dasharray:none;stroke-opacity:1;display:inline" d="M 141.75,46.15625 C 139.78407,46.18237 137.82324,46.242 136,46.21875 C 135.78632,50.104648 136.08342,54.24936 136,58.1875 C 131.19062,58.187501 126.43438,58.1875 121.625,58.1875 C 121.54123,54.249491 121.87092,50.16673 121.65625,46.28125 C 117.32568,46.331961 112.6219,46.16647 108.34375,46.34375 C 108.30498,50.267159 108.37661,54.23279 108.34375,58.15625 L 94.21875,58.15625 L 93.96875,46.34375 C 89.49894,46.39441 84.16738,46.16651 79.75,46.34375 L 79.75,58.125 L 65.84375,58.125 L 65.84375,46.28125 C 62.404429,46.332611 57.98045,46.22867 54.59375,46.40625 C 54.454842,55.856448 54.60631,65.58572 54.25,75.03125 C 85.561001,75.206613 116.87509,75.125 148.1875,75.125 L 147.46875,46.21875 C 145.66807,46.137519 143.71593,46.13013 141.75,46.15625 z M 54.3125,75.53125 C 54.927011,76.970308 56.67178,78.90626 57.53125,80.28125 C 58.921476,82.201025 60.240087,84.098566 61.71875,85.9375 C 61.686994,86.40394 61.654185,86.874955 61.625,87.34375 C 61.587561,87.925945 61.563128,88.508845 61.53125,89.09375 C 61.516669,89.355266 61.513922,89.612893 61.5,89.875 C 61.440437,91.051357 61.387553,92.222629 61.34375,93.40625 C 61.106459,98.89543 60.942177,104.46674 60.75,109.96875 C 60.74462,110.07195 60.755536,110.17814 60.75,110.28125 C 60.734746,110.71259 60.703589,111.13221 60.6875,111.5625 C 60.191168,122.10262 59.606624,132.8104 59.03125,143.53125 C 58.388522,154.50562 57.728916,165.47102 57.3125,176.375 C 57.343507,176.37525 57.375241,176.37475 57.40625,176.375 C 57.40014,176.51985 57.381065,176.66773 57.375,176.8125 C 53.11418,181.66254 44.971285,190.84936 42.3125,193.90625 C 40.406101,211.72499 38.47779,230.61964 36.65625,248.46875 L 88.71875,248.46875 L 89.03125,220.5 C 89.098402,214.63034 94.1328,209.125 101.0625,209.125 C 108.11712,209.125 113.04957,214.58762 113.0625,220.5 L 113.125,248.46875 L 165.53125,248.46875 C 165.62267,246.02757 164.65879,243.23724 164.5,240.75 C 162.84563,225.26407 161.32211,209.50525 159.5625,194.03125 C 132.79533,194.51774 70.01986,194.22336 43.25,194.03125 C 69.99467,194.03378 132.81997,193.90921 159.40625,193.9375 C 158.42411,192.31472 156.26337,190.42914 155.03125,188.84375 C 151.67757,184.90961 148.29383,180.67312 144.90625,176.78125 L 143.09375,139.9375 C 143.06037,139.16576 143.03304,138.39724 143,137.625 C 142.30275,120.76201 141.67397,103.88744 140.78125,87.03125 C 140.79564,86.79607 140.77003,86.618174 140.71875,86.46875 C 140.71155,86.33381 140.69473,86.19741 140.6875,86.0625 C 140.59411,86.063951 140.49966,86.061073 140.40625,86.0625 C 140.20495,85.951693 139.93844,85.914959 139.59375,85.90625 L 139.5625,85.90625 C 139.05413,85.896792 138.3971,85.958393 137.625,85.96875 C 118.86101,85.968753 100.17546,85.980907 81.46875,86 C 79.662256,85.988111 63.866458,85.978452 62.0625,85.96875 C 83.624403,85.954159 119.29968,85.935427 140.78125,85.875 C 143.09926,82.606594 145.73528,78.85511 147.96875,75.53125 L 54.3125,75.53125 z M 97.21875,109.53125 L 106.78125,109.53125 L 106.78125,135.34375 L 97.21875,135.34375 L 97.21875,109.53125 z M 144.85258,176.6875 C 135.49221,176.66309 66.84057,176.66054 57.46875,176.65625 C 72.000588,176.51406 130.3212,176.59256 144.85258,176.6875 z" id="path4359" sodipodi:nodetypes="cccccccccccccccccccccssscsscccscccccsccccccccccccscccccccccccccccccc" transform="translate(80.9025,-54.283747)"/>
  </g>
</svg>