<?xml version="1.0" encoding="UTF-8" standalone="no"?>
<!-- Generator: Adobe Illustrator 14.0.0, SVG Export Plug-In . SVG Version: 6.00 Build 43363)  -->
<svg xmlns:dc="http://purl.org/dc/elements/1.1/" xmlns:cc="http://creativecommons.org/ns#" xmlns:rdf="http://www.w3.org/1999/02/22-rdf-syntax-ns#" xmlns:svg="http://www.w3.org/2000/svg" xmlns="http://www.w3.org/2000/svg" xmlns:xlink="http://www.w3.org/1999/xlink" xmlns:sodipodi="http://sodipodi.sourceforge.net/DTD/sodipodi-0.dtd" xmlns:inkscape="http://www.inkscape.org/namespaces/inkscape" sodipodi:docname="Girl_Guides_Association_of_Grenada.svg" inkscape:version="0.48.0 r9654" xml:space="preserve" enable-background="new 0 0 424.269 421.752" viewBox="0 0 300.00753 238.13683" height="238.13684" width="300.00754" y="0px" x="0px" id="Layer_1" version="1.1"><metadata id="metadata75"><rdf:RDF><cc:Work rdf:about=""><dc:format>image/svg+xml</dc:format><dc:type rdf:resource="http://purl.org/dc/dcmitype/StillImage"/></cc:Work></rdf:RDF></metadata><defs id="defs73"><linearGradient id="linearGradient24127-0"><stop id="stop24129-0" offset="0" style="stop-color:#eac102;stop-opacity:1;"/><stop id="stop24131-5" offset="1" style="stop-color:#a48b1c;stop-opacity:1;"/></linearGradient><linearGradient inkscape:collect="always" xlink:href="#linearGradient24127-0" id="linearGradient3628" gradientUnits="userSpaceOnUse" gradientTransform="matrix(0.44101383,0,0,0.44101383,326.15771,-214.44297)" x1="-303.07037" y1="972.29724" x2="-484.67966" y2="973.09448"/><linearGradient inkscape:collect="always" xlink:href="#linearGradient24127-0" id="linearGradient3866" gradientUnits="userSpaceOnUse" gradientTransform="matrix(0.44101383,0,0,0.44101383,308.18665,-212.5621)" x1="-303.07037" y1="972.29724" x2="-484.67966" y2="973.09448"/></defs><sodipodi:namedview pagecolor="#ffd880" bordercolor="#666666" borderopacity="1" objecttolerance="10" gridtolerance="10" guidetolerance="10" inkscape:pageopacity="1" inkscape:pageshadow="2" inkscape:window-width="1366" inkscape:window-height="746" id="namedview71" showgrid="false" inkscape:zoom="1.4142136" inkscape:cx="88.150777" inkscape:cy="72.37861" inkscape:window-x="-8" inkscape:window-y="-8" inkscape:window-maximized="1" inkscape:current-layer="Layer_1" fit-margin-top="0" fit-margin-left="0" fit-margin-right="0" fit-margin-bottom="0"/>

<path style="color:#000000;fill:#ffffff;fill-opacity:1;fill-rule:nonzero;stroke:#000000;stroke-width:0.64880532;stroke-linecap:butt;stroke-linejoin:miter;stroke-miterlimit:4;stroke-opacity:1;stroke-dasharray:none;stroke-dashoffset:0;marker:none;visibility:visible;display:inline;overflow:visible;enable-background:accumulate" d="m 25.438916,119.59622 -6.58308,2.01521 c 0.13406,5.30676 0.26843,10.61352 0.40294,15.92028 l 6.71742,-2.14958 z" id="path5343" inkscape:connector-curvature="0" sodipodi:nodetypes="ccccc"/><path style="color:#000000;fill:#ffffff;fill-opacity:1;fill-rule:nonzero;stroke:#000000;stroke-width:0.64880532;stroke-linecap:butt;stroke-linejoin:miter;stroke-miterlimit:4;stroke-opacity:1;stroke-dasharray:none;stroke-dashoffset:0;marker:none;visibility:visible;display:inline;overflow:visible;enable-background:accumulate" d="m 50.051766,59.771825 c -2.08997,-2.374965 -9.87986,-4.179939 -14.34479,-3.609947 -4.46494,0.569992 -6.6499,6.554964 -9.02487,6.649902 -2.37496,0.09485 -10.44984,-2.469964 -14.05979,-2.564962 -3.6099503,-0.09485 -10.9248403,3.704945 -10.9248403,3.704945 0,0 7.40989,-1.614976 11.1148403,-1.614976 3.70494,0 9.58771,3.041232 14.05979,3.324951 4.49296,0.285147 9.40899,-6.90158 11.39983,-7.029897 2.01665,-0.13011 7.04385,1.721314 10.63984,3.894943" id="path5324" inkscape:connector-curvature="0" sodipodi:nodetypes="cssccsssc"/><path style="color:#000000;fill:url(#linearGradient3866);fill-opacity:1;fill-rule:evenodd;stroke:#000000;stroke-width:1.51997757;stroke-linecap:butt;stroke-linejoin:miter;stroke-miterlimit:4;stroke-opacity:1;stroke-dasharray:none;stroke-dashoffset:0;marker:none;visibility:visible;display:inline;overflow:visible;enable-background:accumulate" d="m 279.09338,160.20158 17.07573,-1.38795 -32.4904,37.97612 -132.87814,11.17986 0,-14.13853 14.43979,0.38 c 1.74402,3.05281 5.01258,5.39479 14.62978,4.36993 l 24.60464,-1.04498 c 3.99617,-1.40893 7.58478,-1.78072 8.92987,-6.55491 l 41.79938,-10.06985 0.66499,-3.03995 z" id="path3864" inkscape:connector-curvature="0" sodipodi:nodetypes="cccccccccccc"/><use x="0" y="0" xlink:href="#g3854" id="use3862" transform="translate(-18.23973,2.1495718)" width="413.42224" height="416.40088"/><path id="path2226" style="color:#000000;fill:url(#linearGradient3628);fill-opacity:1;fill-rule:evenodd;stroke:#000000;stroke-width:1.51997757;stroke-linecap:butt;stroke-linejoin:miter;stroke-miterlimit:4;stroke-opacity:1;stroke-dasharray:none;stroke-dashoffset:0;marker:none;visibility:visible;display:inline;overflow:visible;enable-background:accumulate" d="m 163.24832,192.36452 c 1.74403,3.05281 4.94881,5.3664 14.56601,4.34154 l 24.5857,-1.03495 c 3.99617,-1.40893 7.59484,-1.77485 8.93993,-6.54904 l 41.81321,-10.04614 0.6728,-3.13273 43.2596,-17.65062 -1.37832,6.3294 3.55456,6.20983 -0.88864,18.03803 c -9.02672,9.82043 -20.35165,18.06938 -24.28951,30.75344 l -5.92427,6.2098 c -7.3739,7.72933 -99.45477,15.59464 -118.07371,9.22469 -2.5338,-0.86688 -23.57716,-5.03444 -31.47381,-8.62436 -1.37853,-0.62668 -44.943274,-15.09316 -42.694954,-15.68133 5.47134,-1.43124 -0.51159,-7.90343 -1.18482,-7.09693 8.0439,0.91561 17.68281,2.62744 26.506864,1.59048 1.60251,-0.18818 2.89175,-0.75327 4.44918,-1.12105 4.00469,1.15211 11.66556,-1.11749 15.40181,-3.32644 1.05189,0.0565 3.31124,-0.96281 4.30662,-1.91894 2.28173,-1.14077 3.91905,-4.31202 5.1453,-7.34745 z" inkscape:connector-curvature="0" sodipodi:nodetypes="cccscccccccssscccccccc"/><g id="g3858" transform="matrix(-3.0399551,0,0,3.0399551,1766.3914,-595.22725)"><path inkscape:connector-curvature="0" d="m 536.9871,257.41147 0.0731,1.45909 m -0.65775,-1.43477 0,1.33751 m -0.56028,-1.28887 0,1.41046 m -0.68208,-1.41046 0,1.36182 m -0.7308,-1.3375 0.0487,1.3375 m -0.7795,-1.3375 0.0487,1.38614 m -0.70642,-1.31319 0,1.36183 m -0.7308,-1.38615 -0.0243,1.36183 m -0.75522,-1.33751 0.0244,1.36183 m -0.68211,-1.38615 -0.0487,1.38615 m -0.60903,-1.31319 0,1.3375 m -0.609,-1.3375 0,1.26455 m -0.53592,-1.26455 0.0244,1.3375 m -0.60904,-1.31319 0.0731,1.36183 m -0.41414,-1.33751 0,1.33751 m 9.25681,-1.60501 0,1.41046 m -0.73081,-1.3375 -0.0243,1.3375 m -0.60905,-1.3375 -0.0244,1.38613 m -0.56024,-1.41046 0,1.43479 m -0.68208,-1.4591 0.0487,1.41046 m -0.73079,-1.38615 0,1.43479 m -0.77952,-1.36182 0.0487,1.41046 m -0.75514,-1.4591 0,1.43478 m -0.65772,-1.41046 0.0487,1.36181 m -0.75514,-1.31318 0,1.36183 m -0.65772,-1.38614 0,1.41046 m -1.24236,-1.31319 0,1.3375 m -0.51156,-1.36182 -0.0487,1.31319" style="fill:none;stroke:#000000;stroke-width:0.07114202px;stroke-linecap:butt;stroke-linejoin:miter;stroke-opacity:1" id="path32494"/><path id="path3642" d="m 527.42959,259.14331 0.62527,-1.51851 9.55769,-0.29774 0.50617,1.39941" style="color:#000000;fill:none;stroke:#000000;stroke-width:0.42685193;stroke-linecap:butt;stroke-linejoin:miter;stroke-miterlimit:4;stroke-opacity:1;stroke-dasharray:none;stroke-dashoffset:0;marker:none;visibility:visible;display:inline;overflow:visible;enable-background:accumulate" inkscape:connector-curvature="0"/></g><g id="g3854" transform="matrix(-3.0399551,0,0,3.0399551,1766.3914,-595.22725)"><path inkscape:connector-curvature="0" d="m 525.34681,259.59609 -0.77513,0.98015 m -0.13781,-0.99734 -0.8268,1.01453 m -0.0517,-1.13491 -0.79235,1.08333 m -0.0344,-1.08333 -0.70623,0.98016 m -0.15503,-1.03174 -0.89571,1.06613 m 0.0689,-1.10052 -0.689,1.01454 m 0.0172,-1.08332 -0.79235,1.10051 m -0.0172,-1.13491 -0.98183,1.08333 m 0.12058,-1.13491 -0.79236,0.94575 m 0.0689,-1.04893 -0.99906,1.08333 m 0.0345,-1.11772 -0.9646,1.08332 m -1.80864,-1.23809 -0.72346,0.84259 m -0.32728,-0.85978 -0.58565,0.65344 m 12.19539,-0.0172 c -0.0344,0.0688 -0.6201,0.99735 -0.6201,0.99735 m -0.22393,-1.03174 -0.74068,1.04893 m -0.0861,-1.11772 -0.75791,1.01455 m -0.10335,-1.08332 -0.75791,1.1521 m -0.0689,-1.1865 -0.74068,1.15211 m -0.0172,-1.22089 -0.72346,1.06612 m -0.12058,-1.10051 -0.689,1.13491 m -0.0517,-1.13491 c -0.0861,0.086 -0.84404,1.06613 -0.84404,1.06613 m 0.0861,-1.15211 -0.80958,1.03174 m -0.0689,-1.10052 -0.87848,1.1521 m -0.17225,-1.20368 -0.70623,1.10051 m -1.9809,-1.27247 -0.58565,0.82539 m -2.46319,-2.99204 -0.20671,1.03174 m -0.32727,-1.08333 -0.17226,1.01455 m -0.37895,-1.15211 -0.0861,0.99734 m -0.4651,-1.10052 -0.0689,0.96296 m -0.53398,-1.06613 0,0.92856 m -0.53398,-1.04893 -0.0517,0.98014 m -0.4995,-1.08331 -0.0172,0.92856 m -0.49956,-1.01454 0,0.94576 m -0.49952,-0.98015 0.0172,0.80819 m -0.49951,-0.91137 -0.0172,0.791 m -0.51678,-0.87697 0.0344,0.77379 m -0.46503,-0.85977 0.0172,0.72221 m -0.46505,-0.82539 0.0172,0.68783 m -0.46505,-0.84258 0,0.791 m -0.44786,-0.8254 0,0.61904 m -0.63733,-1.5304 -0.0517,1.47882 m -0.44782,-1.58199 -0.0172,1.37563 m -0.55123,-0.13753 c 0,-0.0688 0.0517,-1.41004 0.0517,-1.41004 m -0.63736,-0.15477 0.0172,1.46164 m -0.53395,-1.6164 0.0517,1.47883 m -0.60291,-1.54761 0,1.42724 m -0.39617,-1.51322 -0.0689,1.37565 m -0.49953,-0.0688 0.0172,-1.51321 m -0.53396,-0.10317 0,1.46163 m -0.56842,-1.66797 -0.0344,1.5476 m -0.68906,-1.47882 0,0.3439 m -0.70623,-1.75396 -0.1378,1.34126 m -0.32728,-1.66798 -0.15502,1.53041 m -0.31006,-1.82274 -0.1378,1.65078 m -0.32728,-2.01189 -0.25838,1.80555 m -0.39617,-1.92591 -0.2067,1.582 m -0.27561,-1.9775 -0.25837,1.75395 m -0.36173,-1.90871 -0.15503,1.53041 m -0.4134,-1.82274 -0.18947,1.77115 m -0.56844,-2.04628 -0.13779,1.82274 m -0.49953,-2.13226 -0.18948,1.73676 m -0.4823,-2.08067 -0.12058,1.80554 m -0.41341,-2.02909 -0.0344,1.89153 m -0.82685,-2.30422 c -0.006,0.62477 -0.0115,0.97409 -0.0172,1.87432 m 0.48228,-1.59919 0,1.89151 m -1.13686,-2.26981 -0.1378,1.59919 m -0.49953,-1.87432 -0.0861,1.66797 m -0.534,-2.04628 -0.0689,1.92592 m -0.67178,-2.23543 0,1.80553 m -0.70624,-2.04627 0,1.90871 m -0.63732,-2.21824 0.10335,2.01189 m -0.70623,-2.30421 0.0517,1.9431 m -0.68903,-2.16665 0.2067,1.96031 m -0.84403,-2.28702 0.32727,2.06347 m 41.90867,11.65863 -0.6201,0.77381" style="fill:none;stroke:#000000;stroke-width:0.07114202px;stroke-linecap:butt;stroke-linejoin:miter;stroke-opacity:1" id="path3701"/><path inkscape:connector-curvature="0" d="m 526.94875,259.66487 -15.08922,-0.89417 -0.1378,-0.0688 m -0.12798,-0.54565 c -0.12744,-0.37414 -0.19552,-0.82122 -0.21875,-1.40625 -2.20496,-0.48837 -5.50096,-0.76082 -7.875,-1.4375 0.0475,-0.37516 -0.0947,-0.18897 -0.3125,-0.875 -1.52103,-0.16492 -4.96717,-1.39956 -5.5625,-1.1875 -0.25283,-0.0946 -0.55355,-1.28632 -0.78125,-1.4375 -4.70682,-2.66392 -8.70395,-3.77994 -14.03125,-6.34375 l 0.53125,2.40625" style="color:#000000;fill:none;stroke:#000000;stroke-width:0.42685193;stroke-linecap:butt;stroke-linejoin:miter;stroke-miterlimit:4;stroke-opacity:1;stroke-dasharray:none;stroke-dashoffset:0;marker:none;visibility:visible;display:inline;overflow:visible;enable-background:accumulate" id="path15431"/></g><path id="path44203" style="fill:none;stroke:#000000;stroke-width:0.64880532;stroke-linecap:butt;stroke-linejoin:miter;stroke-miterlimit:4;stroke-opacity:1;stroke-dasharray:none" d="m 26.629156,207.43944 49.26207,-16.21235 M 267.23576,87.514059 201.12483,195.25624 M 223.97596,58.43926 c -47.92675,48.41086 14.38254,78.48055 21.5738,117.72084 M 133.70108,68.894031 160.30182,186.82395 M 130.972,123.74449 115.68801,203.13337 m 16.33745,-78.20172 27.85745,62.10139 M 134.11999,68.057648 228.7934,25.82036 283.52673,156.7526 M 220.77911,58.946355 47.769726,182.52184 M 133.91054,67.848499 25.887066,172.08878 M 134.53893,35.02051 22.690216,141.45013" inkscape:connector-curvature="0" sodipodi:nodetypes="ccccccccccccccccccccc"/>

<g transform="matrix(0.14507248,0,0,0.14507248,632.00739,77.142993)" id="layer1"/><path id="path12883" style="fill:none;stroke:#000000;stroke-width:0.86507416;stroke-linecap:butt;stroke-linejoin:miter;stroke-miterlimit:4;stroke-opacity:1;stroke-dasharray:none" d="M 277.17739,212.96088 C 224.74397,228.83139 172.31052,230.60289 119.8771,221.952 L 77.148406,210.45176 M 283.11336,205.0622 c -53.69631,17.47931 -106.67747,22.19924 -160.93225,12.91698 L 78.195666,208.15167 M 297.49447,189.54219 c -89.36492,39.16183 -157.79333,16.22686 -177.11319,20.62886 -21.656794,3.18612 -24.483224,1.13345 -42.288884,-2.69018 M 297.91338,183.06022 c -56.96204,25.74471 -116.02411,29.06118 -175.94175,21.11866 -15.63926,4.51266 -28.136704,7.49838 -43.775964,1.46367 M 298.33228,176.16007 c -53.90661,20.11903 -113.70693,31.06934 -171.54317,21.95504" inkscape:connector-curvature="0" sodipodi:nodetypes="cccccccccccccc"/><path id="path31311" style="fill:none;stroke:#000000;stroke-width:0.86507416;stroke-linecap:butt;stroke-linejoin:miter;stroke-miterlimit:4;stroke-opacity:1;stroke-dasharray:none" d="m 130.42021,191.65371 32.87967,0.5914" inkscape:connector-curvature="0"/><path id="path32360" style="fill:none;stroke:#000000;stroke-width:0.21626854px;stroke-linecap:butt;stroke-linejoin:miter;stroke-opacity:1" d="m 197.89889,192.26043 c 0.10457,0.20915 3.03709,3.76374 3.03709,3.76374" inkscape:connector-curvature="0"/><path id="path32390" style="fill:none;stroke:#000000;stroke-width:0.21626854px;stroke-linecap:butt;stroke-linejoin:miter;stroke-opacity:1" d="m 199.20798,192.15585 2.77527,3.1887" inkscape:connector-curvature="0"/><path id="path32392" style="fill:none;stroke:#000000;stroke-width:0.21626854px;stroke-linecap:butt;stroke-linejoin:miter;stroke-opacity:1" d="m 201.19779,192.05131 c 0.26174,0.0523 2.46108,2.92735 2.46108,2.92735" inkscape:connector-curvature="0"/><g transform="matrix(0.44101382,0,0,0.44101382,326.15772,-214.44297)" id="layer4"><path inkscape:connector-curvature="0" d="m -431.74539,514.494 -20.14994,418.40058 9.40333,-19.44489 10.74661,-398.95569 z" style="fill:#000000;fill-opacity:0.99541285;fill-rule:evenodd;stroke:#000000;stroke-width:0.98077893;stroke-linecap:butt;stroke-linejoin:miter;stroke-miterlimit:4;stroke-opacity:1;stroke-dasharray:none" id="path3140"/><path inkscape:connector-curvature="0" d="m -210.76777,490.35551 -79.92808,439.85699 11.4183,-0.67048 69.18146,-443.20957" style="fill:#000000;fill-opacity:1;fill-rule:evenodd;stroke:#000000;stroke-width:0.98077893;stroke-linecap:butt;stroke-linejoin:miter;stroke-miterlimit:4;stroke-opacity:1;stroke-dasharray:none" id="path4111"/><path inkscape:connector-curvature="0" d="m -165.76625,881.26505 40.97153,-254.12473 -36.26987,252.78368 -4.70166,1.34105 z" style="fill:#000000;fill-opacity:1;fill-rule:evenodd;stroke:#000000;stroke-width:0.98077893;stroke-linecap:butt;stroke-linejoin:miter;stroke-miterlimit:4;stroke-opacity:1;stroke-dasharray:none" id="path5082"/><path inkscape:connector-curvature="0" d="m -497.68376,782.53679 141.72122,8.04619 -86.64469,-3.35258 -55.07653,-4.69361 z" style="fill:none;stroke:#000000;stroke-width:2.94233561;stroke-linecap:butt;stroke-linejoin:miter;stroke-miterlimit:4;stroke-opacity:1;stroke-dasharray:none" id="path7028"/><path inkscape:connector-curvature="0" d="m -466.00031,661.05879 65.15151,2.68205 -37.61324,0.67051 -27.53827,-3.35256 z" style="fill:none;stroke:#000000;stroke-width:2.94233561;stroke-linecap:butt;stroke-linejoin:miter;stroke-miterlimit:4;stroke-opacity:1;stroke-dasharray:none" id="path7030"/><path inkscape:connector-curvature="0" d="m -459.95531,623.78774 51.71816,1.34105 -27.53823,2.68203 -24.17993,-4.02308 z" style="fill:#000000;fill-opacity:1;fill-rule:evenodd;stroke:#000000;stroke-width:0.98077893;stroke-linecap:butt;stroke-linejoin:miter;stroke-miterlimit:4;stroke-opacity:1;stroke-dasharray:none" id="path8001"/><path inkscape:connector-curvature="0" d="m -280.90408,638.30397 99.41632,5.94929 -57.12727,-0.66102 -42.28905,-5.28827 z" style="fill:#000000;fill-opacity:1;fill-rule:evenodd;stroke:#000000;stroke-width:2.97862577;stroke-linecap:butt;stroke-linejoin:miter;stroke-miterlimit:4;stroke-opacity:1;stroke-dasharray:none" id="path8972"/><path inkscape:connector-curvature="0" d="m -340.5294,774.64428 174.3651,19.46299 c 0,0 -85.8143,-7.3193 -89.55165,-7.52166 -3.73737,-0.20237 -84.84966,-11.27522 -84.81345,-11.94133 z" style="fill:none;stroke:#000000;stroke-width:2.94528055;stroke-linecap:butt;stroke-linejoin:miter;stroke-miterlimit:4;stroke-opacity:1;stroke-dasharray:none" id="path9943"/><path inkscape:connector-curvature="0" d="m -195.6353,781.16661 124.850039,12.38559 -94.715269,-7.23931 -30.13477,-5.14628 z" style="fill:none;stroke:#000000;stroke-width:2.94233561;stroke-linecap:butt;stroke-linejoin:miter;stroke-miterlimit:4;stroke-opacity:1;stroke-dasharray:none" id="path9945"/><path inkscape:connector-curvature="0" d="m -168.63564,717.78627 60.44979,8.71669 -28.88157,-1.34103 -31.56822,-7.37566 z" style="fill:none;stroke:#000000;stroke-width:2.94233561;stroke-linecap:butt;stroke-linejoin:miter;stroke-miterlimit:4;stroke-opacity:1;stroke-dasharray:none" id="path10916"/><path inkscape:connector-curvature="0" d="m -156.36293,705.41955 40.97152,6.70515 -26.19492,-1.34102 -14.7766,-5.36413 z" style="fill:#000000;fill-opacity:1;fill-rule:evenodd;stroke:#000000;stroke-width:0.98077893;stroke-linecap:butt;stroke-linejoin:miter;stroke-miterlimit:4;stroke-opacity:1;stroke-dasharray:none" id="path11887"/><path inkscape:connector-curvature="0" d="m -680.59584,893.1981 112.56047,18.01667 -65.54157,-8.53424 -47.0189,-9.48243 z" style="fill:#000000;fill-opacity:1;fill-rule:evenodd;stroke:#000000;stroke-width:0.98077893;stroke-linecap:butt;stroke-linejoin:miter;stroke-miterlimit:4;stroke-opacity:1;stroke-dasharray:none" id="path4133"/><path inkscape:connector-curvature="0" d="m -68.318551,730.18051 c 1.645678,-0.22836 -17.329682,98.94742 -15.730592,106.09879 0,0 5.803247,-2.14998 5.281941,-1.31726 -4.832396,7.71973 10.448651,-104.78153 10.448651,-104.78153 z" style="fill:#000000;fill-opacity:1;fill-rule:evenodd;stroke:#000200;stroke-width:0.98077893;stroke-linecap:butt;stroke-linejoin:miter;stroke-miterlimit:4;stroke-opacity:1;stroke-dasharray:none" id="path8024"/><path inkscape:connector-curvature="0" d="m -707.68524,847.5253 65.54158,-0.94823 -40.84472,3.79297 -24.69686,-2.84474 z" style="fill:#000000;fill-opacity:1;fill-rule:evenodd;stroke:#000000;stroke-width:1.4711678;stroke-linecap:butt;stroke-linejoin:miter;stroke-miterlimit:4;stroke-opacity:1;stroke-dasharray:none" id="path41292"/><path inkscape:connector-curvature="0" d="m -680.08879,880.56151 179.3447,67.42944 11.23557,-0.34507 z" style="fill:#000000;fill-opacity:1;fill-rule:evenodd;stroke:#000000;stroke-width:0.98077893;stroke-linecap:butt;stroke-linejoin:miter;stroke-miterlimit:4;stroke-opacity:1;stroke-dasharray:none" id="path5084" sodipodi:nodetypes="cccc"/><path inkscape:connector-curvature="0" d="m -682.13078,757.72304 1.89974,119.47946 c 0,0 1.42477,5.68943 1.42477,1.89647 0,-3.79297 -2.37469,-124.22067 -3.32451,-121.37593 z" style="fill:#000000;fill-opacity:1;fill-rule:evenodd;stroke:#000000;stroke-width:0.49038947px;stroke-linecap:butt;stroke-linejoin:miter;stroke-opacity:1" id="path2377"/><path inkscape:connector-curvature="0" d="m -680.23104,871.8005 c -7.71778,0.35556 -15.673,3.0818 -15.673,5.21533 0,2.13358 7.95522,3.67447 15.673,3.3189 7.71776,-0.35566 15.19805,-2.60767 15.19805,-4.74128 0,-2.13354 -7.48029,-4.14862 -15.19805,-3.79295 z" style="fill:#000000;fill-opacity:1;fill-rule:evenodd;stroke:#000000;stroke-width:0.49038947px;stroke-linecap:butt;stroke-linejoin:miter;stroke-opacity:1" id="path3348"/></g><g transform="matrix(0.14507248,0,0,0.14507248,308.61927,89.270047)" id="layer7"/><path id="path2185" style="fill:#ffffff;fill-opacity:1;fill-rule:evenodd;stroke:#000000;stroke-width:0.86507416;stroke-linecap:butt;stroke-linejoin:miter;stroke-miterlimit:4;stroke-opacity:1;stroke-dasharray:none" d="m 205.33453,67.430353 c -3.6709,3.972279 -4.91196,6.940795 -13.98629,11.51918 -5.94585,2.999949 -10.04167,8.468829 -15.12788,12.735922 -15.50246,20.759585 -6.07748,29.375055 0.62836,37.009935 0.24927,-4.26268 -3.94158,-9.01787 10.4727,-11.70936 12.42147,-2.33015 36.68843,8.47886 58.64724,16.72763 -28.94788,-12.69874 -42.59202,-48.906407 -1.67562,-63.56504 l -38.95851,-2.718267 z" inkscape:connector-curvature="0"/><path id="path3158" style="fill:#ffffff;fill-opacity:1;fill-rule:evenodd;stroke:#000000;stroke-width:0.86507416;stroke-linecap:butt;stroke-linejoin:miter;stroke-miterlimit:4;stroke-opacity:1;stroke-dasharray:none" d="m 120.50546,77.676066 c -5.25699,5.555274 -11.58816,10.038205 -17.38471,15.05486 -4.588024,4.41593 -20.742894,26.092454 3.56073,37.637204 -5.29828,-9.64347 4.23086,-10.30001 14.24289,-10.66386 l 47.54617,14.84577 C 140.01437,126.92237 113.66751,102.8102 148.99127,78.30333 l -28.48581,-0.627264 z" inkscape:connector-curvature="0"/><path id="path3160" style="fill:#ffffff;fill-opacity:1;fill-rule:evenodd;stroke:#000000;stroke-width:0.86507416;stroke-linecap:butt;stroke-linejoin:miter;stroke-miterlimit:4;stroke-opacity:1;stroke-dasharray:none" d="m 106.26254,131.83181 c -40.955004,11.59663 -34.329004,26.46496 -23.877784,37.4281 4.4912,4.71124 40.902754,15.13384 37.701794,12.12754 -20.854004,-19.58579 -9.27599,-13.32339 1.0473,-11.70933 12.41737,3.89458 28.13779,11.00564 40.00578,18.19127 -33.82771,-27.58695 -21.89163,-49.42805 6.912,-53.11026 l -61.78909,-2.92732 z" inkscape:connector-curvature="0"/><path id="path2232" style="fill:#ffffff;fill-opacity:1;fill-rule:evenodd;stroke:#000000;stroke-width:0.86507416;stroke-linecap:butt;stroke-linejoin:miter;stroke-miterlimit:4;stroke-opacity:1;stroke-dasharray:none" d="m 239.68505,130.78633 c -27.20362,11.51542 6.36907,40.52504 4.39854,38.47358 -13.4059,-18.74807 9.21197,-1.49009 38.74909,-11.70936 -49.89962,-0.24806 8.10193,-22.40997 8.37817,-22.5823 l -51.5258,-4.18192 z" inkscape:connector-curvature="0"/><path id="path3162" style="fill:#ffffff;fill-opacity:1;fill-rule:evenodd;stroke:#000000;stroke-width:0.86507416;stroke-linecap:butt;stroke-linejoin:miter;stroke-miterlimit:4;stroke-opacity:1;stroke-dasharray:none" d="m 177.26762,128.4863 c -26.32768,16.86522 -27.57093,37.73156 -10.26328,48.51018 0.4753,1.01744 27.30898,6.61558 27.43854,7.31833 -7.53273,-3.50377 -16.15176,-6.80424 -15.08073,-11.91845 3.90461,-11.05006 39.17967,1.96758 61.57961,4.391 -17.77765,-14.25639 -31.42456,-30.04439 6.28365,-42.65549 -0.0489,2.36842 -51.42297,-4.89321 -69.95779,-5.64557 z" inkscape:connector-curvature="0"/><path id="path4135" style="fill:#ffffff;fill-opacity:1;fill-rule:evenodd;stroke:#000000;stroke-width:0.86507416;stroke-linecap:butt;stroke-linejoin:miter;stroke-miterlimit:4;stroke-opacity:1;stroke-dasharray:none" d="m 76.938916,210.03356 c 0,0 -6.519,4.04189 -18.22252,1.88185 -36.83192,-15.79549 -45.63164,-12.62782 -30.99924,-4.60009 -7.57375,-1.08499 -15.28487,-1.75849 -21.7832903,-6.0638 -9.67007,-7.42628 -5.12561003,-13.73619 2.72292,-18.1913 5.1732703,-2.93651 12.4276403,-8.49501 18.0130703,-8.9911 l 48.1745,16.93675 c -2.35998,-1.10788 -32.73068,0.51582 -15.49957,20.28227 6.84215,2.08751 10.75195,-2.35052 17.59413,-1.25458 z" inkscape:connector-curvature="0"/><path id="path3204" style="fill:#fffdff;fill-opacity:1;fill-rule:evenodd;stroke:#000000;stroke-width:0.86507416;stroke-linecap:butt;stroke-linejoin:miter;stroke-miterlimit:4;stroke-opacity:1;stroke-dasharray:none" d="m 251.8334,102.76752 c -20.90914,6.30192 -23.19911,15.16756 -11.72945,25.92787 -3.16596,-12.89278 35.29941,3.55283 53.94634,6.49681 -16.32303,-7.97596 -32.27344,-17.80541 -16.66345,-29.07914 l -25.55344,-3.34554 z" inkscape:connector-curvature="0"/><path id="path46143" style="fill:none;stroke:#000000;stroke-width:0.64880532;stroke-linecap:butt;stroke-linejoin:miter;stroke-miterlimit:4;stroke-opacity:1;stroke-dasharray:none" d="m 120.04585,181.92978 12.14836,5.0183" inkscape:connector-curvature="0"/><path id="path49052" style="fill:none;stroke:#000000;stroke-width:0.64880532;stroke-linecap:butt;stroke-linejoin:miter;stroke-miterlimit:4;stroke-opacity:1;stroke-dasharray:none" d="m 194.55384,184.14895 16.53711,5.02696" inkscape:connector-curvature="0"/><path id="path6078" style="fill:#ffffff;fill-opacity:1;stroke:#000000;stroke-width:0.64880532;stroke-linecap:butt;stroke-linejoin:miter;stroke-miterlimit:4;stroke-opacity:1;stroke-dasharray:none" d="m 134.93461,34.212247 c 0,0 -7.62187,1.853795 -7.62187,1.435588 0,-0.418176 2.72292,-3.031868 1.88511,-3.031868 -0.83784,0 -6.70256,0 -6.70256,0 -1.22589,6.097846 -4.2763,3.999304 -6.4931,5.645561 3.2516,0.727765 -0.41626,-11.047075 -2.72292,-12.859375 1.19267,-1.530222 -1.70231,-10.024495 -2.19925,-9.722931 2.78995,-1.084899 5.7028,-1.965392 9.32071,-1.672766 l 0.52364,1.254559 c 4.71354,-1.014798 11.80435,-0.332693 14.90581,-2.779978" inkscape:connector-curvature="0" sodipodi:nodetypes="cssccccccc"/><path id="path6080" style="fill:#ffffff;fill-opacity:1;stroke:#000000;stroke-width:0.64880532;stroke-linecap:butt;stroke-linejoin:miter;stroke-miterlimit:4;stroke-opacity:1;stroke-dasharray:none" d="m 232.97197,2.4628955 c -10.6257,5.7625388 -21.74635,8.4123765 -31.82653,9.7662505 0.62173,5.455048 1.1308,11.379981 -3.14183,24.46416 10.64571,-2.062761 20.68118,-5.313324 30.78979,-11.082065 l 4.17857,-23.1483455 z" inkscape:connector-curvature="0"/><path id="path7051" style="fill:#fffffe;fill-opacity:1;fill-rule:evenodd;stroke:#000000;stroke-width:0.64880532;stroke-linecap:butt;stroke-linejoin:miter;stroke-miterlimit:4;stroke-opacity:1;stroke-dasharray:none" d="m 248.90103,67.221265 c 8.73054,-3.910325 17.08607,-0.195773 21.99274,-3.972887 l -3.14182,19.445893 c -3.67762,-0.07539 -7.20391,0.401153 -10.59026,1.622972 -5.69351,2.05428 -10.81799,5.521409 -14.33482,6.949975 2.58195,-2.099514 8.54598,-24.798798 6.07416,-24.046014 z" inkscape:connector-curvature="0" sodipodi:nodetypes="cccsccc"/><path id="path8022" style="fill:#ffffff;fill-opacity:1;fill-rule:evenodd;stroke:#000000;stroke-width:0.64880532;stroke-linecap:butt;stroke-linejoin:miter;stroke-miterlimit:4;stroke-opacity:1;stroke-dasharray:none" d="m 18.829086,121.65233 5.86474,1.04547 -0.41894,15.05487 c -0.90326,-1.26238 -7.26695,2.26397 -7.12143,4.8092 0.0955,1.67006 -5.23638,1.04551 -5.23638,-0.83635 0,-1.88188 1.67562,-15.89127 1.67562,-15.89127 0,0 9.42544,-1.46368 8.58763,-1.46368 -0.83781,0 -3.36714,0.51469 -3.36714,0.51469 z" inkscape:connector-curvature="0" sodipodi:nodetypes="ccccscscc"/><path style="fill:#ffffff;fill-opacity:1;fill-rule:evenodd;stroke:#000000;stroke-width:0.64880532;stroke-linecap:butt;stroke-linejoin:miter;stroke-miterlimit:4;stroke-opacity:1;stroke-dasharray:none" d="m 125.08834,38.182398 c 1.67855,1.774239 3.35712,3.548479 5.03566,5.322718 -2.30958,7.919813 -10.36467,13.502629 -18.62131,12.136474 -7.74188,-1.077056 -14.759924,-4.865327 -22.145104,-7.269202 -3.5289,-1.434038 -6.60083,-3.063454 -3.63399,2.098299 2.61366,7.314801 -6.29325,10.767095 -12.06199,8.771851 -7.08954,-1.96527 -13.34902,-6.081795 -19.96068,-9.231888 1.66975,5.166435 1.65568,14.033497 -4.96753,14.934357 -7.73027,1.05143 -13.14328,-6.468173 -19.14813,-10.380321 -4.629,-3.015757 -10.63699,-1.09028 -15.84601,-1.321591 -3.20028,-0.141965 -11.1777603,1.234161 -11.2656803,0.534425 6.36606,-2.249324 13.0574903,-4.725337 19.8235503,-4.46837 6.91018,0.262349 12.52352,4.927737 17.22283,9.635655 4.99179,5.000939 14.02405,1.705597 9.87828,-5.867144 -3.53939,-6.465133 4.54157,-6.454007 8.84614,-7.407458 6.94277,2.353867 13.15349,10.15655 21.16694,8.583526 -5.09351,-5.766765 -2.59166,-12.363923 5.31004,-13.039341 8.55376,-1.780228 15.881364,4.445388 23.427874,7.376634 7.73106,5.440486 14.40349,-2.726201 16.49817,-9.692289 l 0.44125,-0.716274 z" id="path9989" inkscape:connector-curvature="0" sodipodi:nodetypes="cccccccssscsssccccccc"/><path id="path56808" style="fill:none;stroke:#000000;stroke-width:0.64880532;stroke-linecap:butt;stroke-linejoin:miter;stroke-miterlimit:4;stroke-opacity:1;stroke-dasharray:none" d="m 125.61584,38.490193 8.79708,0" inkscape:connector-curvature="0"/><path id="path56810" style="fill:none;stroke:#000000;stroke-width:0.64880532;stroke-linecap:butt;stroke-linejoin:miter;stroke-miterlimit:4;stroke-opacity:1;stroke-dasharray:none" d="m 128.96711,42.253931 5.44581,0" inkscape:connector-curvature="0"/><path style="color:#000000;fill:#000000;stroke:none;stroke-width:0.08960074;marker:none;visibility:visible;display:inline;overflow:visible;enable-background:accumulate" d="m 272.331,201.30183 c -1.47629,0.3637 -2.95259,0.7271 -4.42894,1.08922 l 1.34403,5.47283 c 1.47942,-0.36376 2.95754,-0.72874 4.43447,-1.0939 z m -11.94304,2.91593 c -1.47684,0.35485 -2.95386,0.70676 -4.43122,1.05468 l 1.29265,5.48873 c 1.48696,-0.3502 2.97244,-0.70424 4.45645,-1.06116 z m -11.95253,2.78639 c -1.47863,0.33169 -2.95775,0.65772 -4.43739,0.97719 l 1.18826,5.50934 c 1.49581,-0.32229 2.98989,-0.65109 4.48229,-0.9854 z m -11.97243,2.54098 c -1.48177,0.29426 -2.9642,0.58008 -4.44743,0.85675 l 1.03079,5.53475 c 1.50599,-0.27998 3.00995,-0.56932 4.51202,-0.86672 z m -12.00278,2.17973 c -1.48614,0.24229 -2.97323,0.47381 -4.46132,0.6933 l 0.82031,5.56494 c 1.51742,-0.22344 3.03256,-0.45885 4.54558,-0.70503 z m -12.04351,1.70262 c -1.49183,0.17632 -2.98484,0.33887 -4.4791,0.48691 l 0.5568,5.5999 c 1.53013,-0.1526 3.05777,-0.3198 4.583,-0.50043 z m -12.09811,1.11551 c -1.50037,0.10063 -3.00162,0.18757 -4.50366,0.26235 l 0.27785,5.61997 c 1.53317,-0.0754 3.06649,-0.16355 4.59988,-0.26509 z m -12.15429,0.53719 c -1.50462,0.034 -3.01001,0.0572 -4.51603,0.0693 l 0.0465,5.62531 c 1.53207,-0.0122 3.06442,-0.0362 4.59699,-0.0711 z m -12.18578,0.045 c -1.50818,-0.0213 -3.01694,-0.0514 -4.52622,-0.0903 l -0.14348,5.62793 c 1.53025,0.0386 3.0609,0.0687 4.59191,0.0897 z m -12.21129,-0.35717 c -1.51095,-0.0654 -3.02232,-0.13771 -4.53412,-0.21675 l -0.29244,5.62778 c 1.52763,0.079 3.05585,0.15169 4.58455,0.21705 z m -12.23071,-0.66961 c -1.51295,-0.0985 -3.02624,-0.20185 -4.53978,-0.30971 l -0.4003,5.62483 c 1.52433,0.10853 3.04932,0.21249 4.57498,0.31114 z m -12.24406,-0.89223 c -1.51423,-0.12038 -3.02864,-0.2438 -4.54318,-0.36947 l -0.46709,5.61914 c 1.52025,0.12646 3.04133,0.2508 4.56316,0.37191 z m -12.25138,-1.02504 c -1.51478,-0.13132 -3.02956,-0.26356 -4.54434,-0.39589 l -0.49271,5.61066 c 1.51541,0.13376 3.0318,0.26691 4.54908,0.39933 z" id="path15469" inkscape:connector-curvature="0"/><path style="color:#000000;fill:#000000;stroke:none;stroke-width:0.1;marker:none;visibility:visible;display:inline;overflow:visible;enable-background:accumulate" d="m 250.72698,197.30958 c -0.7964,-3.85822 -0.69323,-3.19274 -2.51176,-3.90689 -1.41504,1.44264 -1.61403,0.75999 -0.82106,4.59991 1.11162,-0.22982 2.22254,-0.46086 3.33282,-0.69302 z m -10.91307,2.23069 c -0.75795,-3.8684 -0.66256,-3.2005 -2.47136,-3.9355 -1.42927,1.42717 -1.62118,0.74099 -0.87566,4.5917 1.11645,-0.21614 2.23212,-0.43498 3.34702,-0.6562 z m -10.96138,2.08064 c -0.68919,-3.88039 -0.60677,-3.21001 -2.3984,-3.97897 -1.45298,1.39929 -1.63237,0.70886 -0.96446,4.57224 1.12181,-0.19395 2.24276,-0.3917 3.36286,-0.59327 z m -11.015,1.84513 c -0.59015,-3.89422 -0.52585,-3.22129 -2.29292,-4.03737 -1.48611,1.35904 -1.64763,0.66353 -1.08745,4.54151 1.12773,-0.16294 2.25449,-0.33096 3.38037,-0.50414 z m -11.07404,1.52405 c -0.46074,-3.90987 -0.41982,-3.23433 -2.15484,-4.11057 -1.52874,1.30639 -1.66687,0.60504 -1.24462,4.49944 1.13417,-0.12312 2.26732,-0.25262 3.39946,-0.38887 z m -11.1384,1.11752 c -0.28545,-3.72337 -0.28758,-3.30827 -1.73341,-4.06315 -0.079,-0.0413 -0.16264,-0.086 -0.25049,-0.13528 -1.57981,1.24207 -1.68919,0.53373 -1.43656,4.44448 0.66429,-0.0429 1.32855,-0.0885 1.99275,-0.1368 0.47611,-0.035 0.95208,-0.0714 1.42783,-0.10913 z m -11.19026,0.62106 c -0.11916,-3.93507 -0.13771,-3.25786 -1.78758,-4.28299 -1.63586,1.1671 -1.71247,0.45581 -1.63607,4.37215 1.1412,-0.0213 2.28242,-0.052 3.42365,-0.0891 z m -11.19317,0.13072 c 0.0426,-3.93748 -0.003,-3.26203 -1.61221,-4.35337 -1.68389,1.1004 -1.73159,0.38717 -1.80963,4.30503 1.14041,0.0213 2.28107,0.0389 3.42184,0.0483 z m -11.18324,-0.29731 c 0.18271,-3.93589 0.114,-3.26269 -1.4593,-4.41 -1.72392,1.04188 -1.7466,0.32776 -1.95721,4.24314 1.13846,0.0611 2.27732,0.11673 3.41651,0.16689 z m -11.16186,-0.66329 c 0.30065,-3.93027 0.2128,-3.25983 -1.32879,-4.45289 -1.756,0.99157 -1.75752,0.27754 -2.07891,4.18644 1.13536,0.0933 2.27127,0.1824 3.4077,0.2666 z m -11.12903,-0.96746 c 0.39659,-3.92067 0.29335,-3.25349 -1.22079,-4.48208 -1.78004,0.94946 -1.76433,0.2365 -2.1746,4.13494 1.13108,0.11917 2.26288,0.23499 3.39539,0.34714 z" id="path15533" inkscape:connector-curvature="0"/></svg>