<?xml version='1.0' encoding='utf-8'?>
<svg xmlns='http://www.w3.org/2000/svg' version='1.1' width='2000' height='2000'>
	<g transform="scale(10)">
//nouvelle forme de couleur rgba(0,0,0,0)
<path d="M 0.0 0.0  L 100.0 0.0  L 100.0 100.0  L 0.0 100.0  Z " stroke="black" stroke-width ="0.01px" fill="rgba(0,0,0,0)"/>
//nouvelle forme de couleur blue
<path d="M 0.0 0.0  L 100.0 0.0  L 100.0 100.0  L 0.0 100.0  Z " stroke="black" stroke-width ="0.01px" fill="blue"/>
//nouvelle forme de couleur rgba(0,0,0,0)
<path d="M 0.0 0.0  L 100.0 0.0  L 100.0 100.0  L 0.0 100.0  Z " stroke="black" stroke-width ="0.01px" fill="rgba(0,0,0,0)"/>
//nouvelle forme de couleur white
<path d="M 0.0 35.0  L 100.0 35.0  L 100.0 65.0  L 0.0 65.0  Z " stroke="black" stroke-width ="0.01px" fill="white"/>
//nouvelle forme de couleur rgba(0,0,0,0)
<path d="M 0.0 0.0  L 100.0 0.0  L 100.0 100.0  L 0.0 100.0  Z " stroke="black" stroke-width ="0.01px" fill="rgba(0,0,0,0)"/>
//nouvelle forme de couleur rgba(0,0,0,0)
<path d="M 0.0 0.0  L 100.0 0.0  L 100.0 35.0  L 0.0 35.0  Z " stroke="black" stroke-width ="0.01px" fill="rgba(0,0,0,0)"/>
//nouvelle forme de couleur yellow
<path d=" M 45.493452164823665 23.808631787423657 C 44.952812895417274 25.299042746327768 44.09071243879627 26.234202563679364 43.11171700500631 26.964796170985302 44.71902294107937 27.359316718930504 45.478840292677546 27.943791604775253 46.23865764427572 28.542878362766125 47.129981845188965 27.476211696099455 48.06514166254056 26.482604390163388 49.394822027837364 25.956576992903113 L 49.394822027837364 23.852467403862015 45.44961654838531 23.852467403862015 Z " stroke="black" stroke-width ="0.1px" fill="yellow"/>
<path d="M 40.233178192220926 4.886257358199918 C 40.832264950211794 4.287170600209052 41.41820102327115 3.863426307971608 42.04505033833965 3.615024481487591 43.082493260714074 3.1766683171040295 44.32450239313417 3.337398910711334 44.82130604610221 3.615024481487591 47.80212796391042 5.32461352258348 48.06514166254056 8.349271056830055 45.990255817791706 11.169362381030968 43.900758100896724 13.989453705231881 43.59390878582823 15.085344116190784 43.43317819222093 16.38580073719535 49.17564394564558 16.38580073719535 55.04961654838531 16.341965120756996 61.63957088628485 16.064339549980737 60.73363481322549 17.08717060020905 60.61673983605654 18.066166033999004 60.675187324641016 19.366622655003567 57.372904219618185 21.17849480112229 54.947333443362474 23.85246740386201 55.03500467623919 27.344704846784385 53.237744402266586 27.607718545414524 52.88705947075974 27.680777906145117 51.62459371733508 28.732832700665664 50.192630247015444 26.190366947241007 47.51865764427572 24.466166033999002 43.32505033833965 23.092650052263842 40.738748968476635 22.245161467788954 38.62002750728942 20.199499367332336 38.736922484458375 16.604978819387128 38.809981845188965 14.413197997469322 40.05199097760906 12.469819002035532 41.61546129724376 10.847901193816355 L 40.22733344336248 9.781234527149689 Z " stroke="black" stroke-width ="0.1px" fill="yellow"/>
<path d="M 43.316283215051975 16.648814435825486 C 44.79208230180997 14.968449139021835 46.48559828354513 13.010458271441927 51.060575452494895 12.776668317104026 54.070621114595355 12.615937723496721 57.168338009572516 12.528266490620009 58.3957352698465 11.286257358199917 58.62952522418439 12.937398910711332 57.97199097760905 14.091736810254712 56.481580018704946 14.617764207514984 54.45052979039444 15.26068658194421 52.49253892281453 15.436029047697632 50.417653078065676 15.552924024866583 52.30258458491499 15.362969686967041 53.90989052098805 15.436029047697634 56.481580018704946 14.588540463222749 57.98660284975517 14.55931671893051 57.51902294107937 15.903608956373434 56.90532431094239 16.51730758651042 55.51719645706111 17.569362381030967 53.64687682235792 17.379408043131424 52.01034714199262 17.803152335368868 L 55.63409143423006 17.17484183308576 C 56.817653078065675 17.510914892446493 56.36468504153599 18.03694228970677 55.83865764427572 18.533745942674802 54.81582659404741 19.278951422126855 53.12084942509764 19.439682015734164 51.68888595477801 19.81959069153325 L 54.65509600044011 19.10360895637343 C 55.707150794960654 19.527353248610876 55.02039280409308 20.12644000660174 54.245963580348786 20.652467403862016 51.96651152555427 21.95292402486658 49.321762667106775 21.76296968696704 46.89619189085107 21.850640919843748  Z " stroke="black" stroke-width ="0.01px" fill="yellow"/></g></svg>
