<?xml version='1.0' encoding='utf-8'?>
<svg xmlns='http://www.w3.org/2000/svg' version='1.1' width='2000' height='2000'>
	<g transform="scale(10)">
//nouvelle forme de couleur rgba(0,0,0,0)
<path d="M 0.0 0.0  L 100.0 0.0  L 100.0 100.0  L 0.0 100.0  Z " stroke="black" stroke-width ="0.01px" fill="rgba(0,0,0,0)"/>
//nouvelle forme de couleur blue
<path d="M 0.0 0.0  L 100.0 0.0  L 100.0 100.0  L 0.0 100.0  Z " stroke="black" stroke-width ="0.01px" fill="blue"/>
//nouvelle forme de couleur rgba(0,0,0,0)
<path d="M 0.0 0.0  L 100.0 0.0  L 100.0 100.0  L 0.0 100.0  Z " stroke="black" stroke-width ="0.01px" fill="rgba(0,0,0,0)"/>
//nouvelle forme de couleur white
<path d="M 0.0 80.0  L 50.0 30.0  L 100.0 80.0  L 100.0 100.0  L 0.0 100.0  Z " stroke="black" stroke-width ="0.01px" fill="white"/>
//nouvelle forme de couleur rgba(0,0,0,0)
<path d="M 0.0 0.0  L 100.0 0.0  L 100.0 100.0  L 0.0 100.0  Z " stroke="black" stroke-width ="0.01px" fill="rgba(0,0,0,0)"/>
//nouvelle forme de couleur rgba(0,0,0,0)
<path d="M 0.0 0.0  L 50.0 0.0  L 50.0 30.0  L 0.0 80.0  Z " stroke="black" stroke-width ="0.01px" fill="rgba(0,0,0,0)"/>
//nouvelle forme de couleur yellow
<path d="M 25.0 12.833333333333343  L 28.333333333333332 22.83333333333334  L 38.33333333333333 22.83333333333334  L 31.666666666666664 29.500000000000004  L 35.0 39.5  L 25.0 32.833333333333336  L 15.000000000000004 39.5  L 18.333333333333336 29.500000000000004  L 11.666666666666671 22.83333333333334  L 21.666666666666668 22.83333333333334  Z " stroke="black" stroke-width ="0.01px" fill="yellow"/>
//nouvelle forme de couleur rgba(0,0,0,0)
<path d="M 0.0 0.0  L 100.0 0.0  L 100.0 100.0  L 0.0 100.0  Z " stroke="black" stroke-width ="0.01px" fill="rgba(0,0,0,0)"/>
//nouvelle forme de couleur rgba(0,0,0,0)
<path d="M 50.0 0.0  L 100.0 0.0  L 100.0 80.0  L 50.0 30.0  Z " stroke="black" stroke-width ="0.01px" fill="rgba(0,0,0,0)"/>
//nouvelle forme de couleur yellow
<path d="M 75.0 12.833333333333343  L 78.33333333333333 22.83333333333334  L 88.33333333333333 22.83333333333334  L 81.66666666666666 29.500000000000004  L 85.0 39.5  L 75.0 32.833333333333336  L 65.0 39.5  L 68.33333333333334 29.500000000000004  L 61.66666666666667 22.83333333333334  L 71.66666666666667 22.83333333333334  Z " stroke="black" stroke-width ="0.01px" fill="yellow"/>
//nouvelle forme de couleur rgba(0,0,0,0)
<path d="M 0.0 0.0  L 100.0 0.0  L 100.0 100.0  L 0.0 100.0  Z " stroke="black" stroke-width ="0.01px" fill="rgba(0,0,0,0)"/>
//nouvelle forme de couleur rgba(0,0,0,0)
<path d="M 20.0 100.0  L 50.0 70.0  L 80.0 100.0  Z " stroke="black" stroke-width ="0.01px" fill="rgba(0,0,0,0)"/>
//nouvelle forme de couleur yellow
<path d="M 50.0 81.99999999999999  L 51.81818181818181 87.45454545454544  L 57.272727272727266 87.45454545454544  L 53.63636363636363 91.09090909090907  L 55.454545454545446 96.54545454545452  L 50.0 92.90909090909088  L 44.545454545454554 96.54545454545452  L 46.36363636363637 91.09090909090907  L 42.727272727272734 87.45454545454544  L 48.18181818181819 87.45454545454544  Z " stroke="black" stroke-width ="0.01px" fill="yellow"/></g></svg>
