<?xml version='1.0' encoding='utf-8'?>
<svg xmlns='http://www.w3.org/2000/svg' version='1.1' width='2000' height='2000'>
	<g transform="scale(10)">
//nouvelle forme de couleur rgba(0,0,0,0)
<path d="M 0.0 0.0  L 100.0 0.0  L 100.0 100.0  L 0.0 100.0  Z " stroke="black" stroke-width ="0.01px" fill="rgba(0,0,0,0)"/>
//nouvelle forme de couleur blue
<path d="M 0.0 0.0  L 100.0 0.0  L 100.0 100.0  L 0.0 100.0  Z " stroke="black" stroke-width ="0.01px" fill="blue"/>
//nouvelle forme de couleur rgba(0,0,0,0)
<path d="M 0.0 0.0  L 100.0 0.0  L 100.0 100.0  L 0.0 100.0  Z " stroke="black" stroke-width ="0.01px" fill="rgba(0,0,0,0)"/>
//nouvelle forme de couleur rgba(0,0,0,0)
<path d="M 10.0 0.0  L 50.0 0.0  L 50.0 50.0  L 10.0 50.0  Z " stroke="black" stroke-width ="0.01px" fill="rgba(0,0,0,0)"/>
//nouvelle forme de couleur white
<path d=" M 19.035290713156083 12.714571526949964 L 30.170189924791867 27.59013988686153 L 41.30977407499442 12.714571526949964 L 30.170189924791867 12.714571526949964 L 19.035290713156083 12.714571526949964 Z " stroke="black" stroke-width ="0.1px" fill="white"/>
<path d="M 29.133336730777685 12.790929179122799 C 26.628521448177317 14.697218293099946 24.27091006515775 18.959602787011377 23.825288293738154 20.243592195810738 C 16.426412414471656 21.16158911782803 14.205983009561587 26.33590978163732 18.700627326692313 28.159817983871612 C 18.8071811521466 27.583215175994567 23.963316299375897 22.605018038206175 24.565519998064055 22.417866642272795 C 23.84767786618583 22.683449191373075 18.6897088442566 27.639597449880274 18.715909615858454 28.17000617664904 C 17.683858728391844 31.962330277361804 19.905020053071038 33.48666974950116 22.837033594327725 33.23353798703032 C 23.309943421282384 30.88447653538957 25.69271882540677 25.8700632249714 26.816052659937437 24.627447659513457 C 25.717853504516395 25.96112447696062 23.287198484670633 30.91581704648378 22.826845401550298 33.32523172202716 C 24.446613192630995 36.833848071160894 26.61898040940512 37.81781883927226 30.111403237410688 35.612481000559555 L 30.17253239407525 25.50740268475526 L 30.233661550739814 35.612481000559555 C 33.726084378745384 37.81781883927226 35.893355869019956 36.833848071160894 37.51312529021149 33.32523172202716 C 36.927644898675915 31.166070033203432 34.510826259677316 26.193892894763366 33.52901212821307 24.627447659513457 C 34.30389998909066 25.89736921172575 36.66262962814948 30.622636720788005 37.50803119382278 33.23353798703032 C 40.44004473507946 33.48666974950116 42.66120931998035 31.962330277361804 41.62915517229205 28.17000617664904 C 41.4623133273689 27.029254607746083 36.201243054753796 22.236507030169523 35.77445069369773 22.31708829954017 C 36.45885436182502 22.242139063136886 41.69899075097649 27.239908941833853 41.64443746145819 28.159817983871612 C 46.13908177858892 26.33590978163732 43.9186540037897 21.16158911782803 36.51977649441235 20.243592195810738 C 36.074154722992745 18.959602787011377 33.80713512003922 14.561332253111729 31.30231983743886 12.65504313913459 C 31.30231983743886 12.65504313913459 30.54558163070268 11.98704979687776 30.17253239407525 12.159261226922316 L 29.133336730777685 12.790929179122799 Z " stroke="black" stroke-width ="0.1px" fill="white"/>
<path d="M 24.91824827290534 21.335163320538506 C 28.689341809980792 23.2128244278665 32.137567442662466 22.83041020443806 35.42681814535601 21.335163320538506 M 21.113421222016115 24.777626511385265 C 26.91125276336057 30.92177999195255 32.95066021139999 31.191509543040958 39.23164519624523 24.777626511385265  Z " stroke="black" stroke-width ="0.01px" fill="white"/>
//nouvelle forme de couleur rgba(0,0,0,0)
<path d="M 0.0 0.0  L 100.0 0.0  L 100.0 100.0  L 0.0 100.0  Z " stroke="black" stroke-width ="0.01px" fill="rgba(0,0,0,0)"/>
//nouvelle forme de couleur rgba(0,0,0,0)
<path d="M 50.0 0.0  L 90.0 0.0  L 90.0 50.0  L 50.0 50.0  Z " stroke="black" stroke-width ="0.01px" fill="rgba(0,0,0,0)"/>
//nouvelle forme de couleur white
<path d=" M 59.03529071315609 12.714571526949964 L 70.17018992479187 27.59013988686153 L 81.30977407499442 12.714571526949964 L 70.17018992479187 12.714571526949964 L 59.03529071315609 12.714571526949964 Z " stroke="black" stroke-width ="0.1px" fill="white"/>
<path d="M 69.13333673077769 12.790929179122799 C 66.62852144817731 14.697218293099946 64.27091006515775 18.959602787011377 63.825288293738154 20.243592195810738 C 56.426412414471656 21.16158911782803 54.205983009561585 26.33590978163732 58.70062732669231 28.159817983871612 C 58.8071811521466 27.583215175994567 63.9633162993759 22.605018038206175 64.56551999806405 22.417866642272795 C 63.847677866185826 22.683449191373075 58.6897088442566 27.639597449880274 58.71590961585845 28.17000617664904 C 57.68385872839184 31.962330277361804 59.90502005307104 33.48666974950116 62.83703359432772 33.23353798703032 C 63.309943421282384 30.88447653538957 65.69271882540677 25.8700632249714 66.81605265993744 24.627447659513457 C 65.7178535045164 25.96112447696062 63.28719848467063 30.91581704648378 62.8268454015503 33.32523172202716 C 64.44661319263099 36.833848071160894 66.61898040940511 37.81781883927226 70.11140323741068 35.612481000559555 L 70.17253239407525 25.50740268475526 L 70.23366155073981 35.612481000559555 C 73.72608437874538 37.81781883927226 75.89335586901996 36.833848071160894 77.51312529021149 33.32523172202716 C 76.92764489867591 31.166070033203432 74.51082625967732 26.193892894763366 73.52901212821307 24.627447659513457 C 74.30389998909065 25.89736921172575 76.66262962814947 30.622636720788005 77.50803119382277 33.23353798703032 C 80.44004473507947 33.48666974950116 82.66120931998034 31.962330277361804 81.62915517229204 28.17000617664904 C 81.4623133273689 27.029254607746083 76.2012430547538 22.236507030169523 75.77445069369773 22.31708829954017 C 76.45885436182502 22.242139063136886 81.69899075097649 27.239908941833853 81.6444374614582 28.159817983871612 C 86.13908177858892 26.33590978163732 83.9186540037897 21.16158911782803 76.51977649441235 20.243592195810738 C 76.07415472299274 18.959602787011377 73.80713512003922 14.561332253111729 71.30231983743886 12.65504313913459 C 71.30231983743886 12.65504313913459 70.54558163070269 11.98704979687776 70.17253239407525 12.159261226922316 L 69.13333673077769 12.790929179122799 Z " stroke="black" stroke-width ="0.1px" fill="white"/>
<path d="M 64.91824827290534 21.335163320538506 C 68.68934180998079 23.2128244278665 72.13756744266247 22.83041020443806 75.42681814535601 21.335163320538506 M 61.113421222016115 24.777626511385265 C 66.91125276336057 30.92177999195255 72.95066021139999 31.191509543040958 79.23164519624524 24.777626511385265  Z " stroke="black" stroke-width ="0.01px" fill="white"/>
//nouvelle forme de couleur rgba(0,0,0,0)
<path d="M 0.0 0.0  L 100.0 0.0  L 100.0 100.0  L 0.0 100.0  Z " stroke="black" stroke-width ="0.01px" fill="rgba(0,0,0,0)"/>
//nouvelle forme de couleur rgba(0,0,0,0)
<path d="M 30.0 50.0  L 70.0 50.0  L 70.0 100.0  L 30.0 100.0  Z " stroke="black" stroke-width ="0.01px" fill="rgba(0,0,0,0)"/>
//nouvelle forme de couleur white
<path d=" M 39.035290713156094 62.71457152694994 L 50.17018992479188 77.5901398868615 L 61.30977407499442 62.71457152694994 L 50.17018992479188 62.71457152694994 L 39.035290713156094 62.71457152694994 Z " stroke="black" stroke-width ="0.1px" fill="white"/>
<path d="M 49.13333673077769 62.79092917912278 C 46.628521448177324 64.69721829309992 44.27091006515776 68.95960278701135 43.82528829373817 70.2435921958107 C 36.42641241447166 71.161589117828 34.2059830095616 76.33590978163728 38.70062732669233 78.15981798387158 C 38.80718115214661 77.58321517599454 43.963316299375904 72.60501803820614 44.56551999806406 72.41786664227277 C 43.84767786618584 72.68344919137304 38.689708844256614 77.63959744988024 38.715909615858465 78.17000617664901 C 37.683858728391854 81.96233027736177 39.90502005307105 83.48666974950113 42.837033594327735 83.23353798703029 C 43.30994342128239 80.88447653538954 45.69271882540678 75.87006322497137 46.81605265993745 74.62744765951342 C 45.717853504516405 75.96112447696059 43.28719848467064 80.91581704648375 42.82684540155031 83.32523172202713 C 44.446613192631006 86.83384807116086 46.618980409405125 87.81781883927223 50.1114032374107 85.61248100055951 L 50.172532394075255 75.50740268475523 L 50.23366155073982 85.61248100055951 C 53.72608437874539 87.81781883927223 55.893355869019956 86.83384807116086 57.5131252902115 83.32523172202713 C 56.927644898675915 81.1660700332034 54.51082625967732 76.19389289476334 53.52901212821307 74.62744765951342 C 54.30389998909066 75.89736921172572 56.66262962814948 80.62263672078797 57.50803119382278 83.23353798703029 C 60.44004473507946 83.48666974950113 62.661209319980344 81.96233027736177 61.629155172292045 78.17000617664901 C 61.4623133273689 77.02925460774605 56.2012430547538 72.23650703016949 55.77445069369773 72.31708829954015 C 56.45885436182502 72.24213906313686 61.698990750976485 77.23990894183382 61.64443746145819 78.15981798387158 C 66.13908177858892 76.33590978163728 63.91865400378969 71.161589117828 56.519776494412355 70.2435921958107 C 56.07415472299275 68.95960278701135 53.80713512003922 64.5613322531117 51.302319837438866 62.65504313913456 C 51.302319837438866 62.65504313913456 50.54558163070269 61.987049796877734 50.172532394075255 62.1592612269223 L 49.13333673077769 62.79092917912278 Z " stroke="black" stroke-width ="0.1px" fill="white"/>
<path d="M 44.918248272905345 71.33516332053847 C 48.689341809980796 73.21282442786647 52.13756744266247 72.83041020443804 55.42681814535601 71.33516332053847 M 41.11342122201613 74.77762651138524 C 46.91125276336057 80.92177999195252 52.9506602114 81.19150954304092 59.23164519624524 74.77762651138524  Z " stroke="black" stroke-width ="0.01px" fill="white"/></g></svg>
