<?xml version='1.0' encoding='utf-8'?>
<svg xmlns='http://www.w3.org/2000/svg' version='1.1' width='2000' height='2000'>
	<g transform="scale(10)">
//nouvelle forme de couleur rgba(0,0,0,0)
<path d="M 0.0 0.0  L 100.0 0.0  L 100.0 100.0  L 0.0 100.0  Z " stroke="black" stroke-width ="0.01px" fill="rgba(0,0,0,0)"/>
//nouvelle forme de couleur red
<path d="M 0.0 0.0  L 100.0 0.0  L 100.0 100.0  L 0.0 100.0  Z " stroke="black" stroke-width ="0.01px" fill="red"/>
//nouvelle forme de couleur rgba(0,0,0,0)
<path d="M 0.0 0.0  L 100.0 0.0  L 100.0 100.0  L 0.0 100.0  Z " stroke="black" stroke-width ="0.01px" fill="rgba(0,0,0,0)"/>
//nouvelle forme de couleur rgba(0,0,0,0)
<path d="M 1.0 0.0  L 99.0 0.0  L 99.0 100.0  L 1.0 100.0  Z " stroke="black" stroke-width ="0.01px" fill="rgba(0,0,0,0)"/>
//nouvelle forme de couleur white
<path d=" M 58.320199563825554 63.832427389017994 C 58.23440950717265 63.786207744045555 59.54250574440219 62.98959970129501 59.29288999365045 62.63740775044349 C 57.91523838261999 61.460881858143566 56.61167386058705 60.8029689859141 55.81899624848303 63.72126221846188 C 56.9498154560764 62.669005196931735 57.6203349213303 63.30451540712982 58.320199563825554 63.832427389017994 Z " stroke="black" stroke-width ="0.1px" fill="white"/>
<path d="M 57.59762991847996 68.72366998150953 C 57.781946846511254 68.9393952514719 57.31835872312956 65.84774862575877 56.374819836538386 66.77828912185974 C 54.636587732383425 67.84906933109254 54.69648631777939 69.00547540439865 56.06911703296233 70.22439242366009 C 56.335713693531225 68.41244804253412 56.97002586407963 68.58617285063812 57.59762991847996 68.72366998150953 Z " stroke="black" stroke-width ="0.1px" fill="white"/>
<path d="M 62.82236689027722 70.19660084793041 C 62.9599127127412 69.87926754790651 62.32955135536643 69.62072425027571 61.71596708253761 69.58815523666135 C 61.1023839420714 69.55558622304699 60.50557901851375 69.74899149344907 60.71023884097457 70.33555646185359 C 61.14909956187046 71.55560924082073 61.66375837167941 72.06932932201948 61.98860942712316 72.34677967828038 C 62.2375208483266 72.16629353298525 62.71696997489639 71.39879513605156 62.82236689027722 70.19660084793041 Z " stroke="black" stroke-width ="0.1px" fill="white"/>
<path d="M 66.12951457815439 68.52913121612698 C 66.20310455996267 67.73542428640334 63.86036973117398 68.50096709309602 64.35087977579485 68.77925200060628 C 64.84138982041571 69.05753690811653 65.18042032056007 69.45700499826295 64.57320898454446 70.61346768969995 C 66.53205816517087 70.23870661951221 66.0559245963461 69.32283814585061 66.12951457815439 68.52913121612698 Z " stroke="black" stroke-width ="0.1px" fill="white"/>
<path d="M 72.19265056747626 55.11055492932212 L 68.55291439038763 50.257571472599594 L 67.82496715496991 51.430376421337286 C 67.84950545289854 52.26013324736252 66.58203045985883 52.83464534806272 64.40765870217865 54.03885410928102 C 62.496629194903704 55.300908482469126 60.621515965141455 57.007640523320966 63.659490867494135 60.873471014863526 C 64.19868231341863 61.55844169184631 64.8421383121061 62.731493495634695 62.20359526429607 64.41210419561817 C 61.908647640864274 64.50096521969067 61.39304444063204 64.66758105527987 60.666817264030826 64.49298772504798 C 60.440327755023254 63.925718215651486 60.42355180283994 63.48427684034954 60.46460900663763 63.077534452746114 C 60.11893833210225 61.160083317065386 57.180576236878466 62.77553560729302 58.199883770954656 64.49298772504798 C 59.4928493788846 65.60086979545434 59.09945641418291 65.91719529274836 57.75502718999731 65.78711626938644 C 57.07550997138205 65.9096379046369 56.39283459342562 66.03595182229449 55.44986075578074 66.47462230627058 C 55.43815778812535 66.70201317592193 55.436314301783504 66.91954456425977 55.53074428521054 67.04080361519132 C 56.99997119350846 66.86828477327532 57.15901152318429 68.59789733318325 57.148404682542974 68.98199699788033 C 57.34576303084395 69.02728697314352 57.53423006786963 69.08146939204461 57.835910719427105 69.02243819641392 C 59.33418046414742 68.0044238204473 59.48615711581316 68.05887121220098 59.88162343646812 68.09114467917207 C 60.4744764144895 68.30643965133966 59.617831638103624 70.35402303142534 60.78814199199421 71.00407277763652 C 61.526318991301515 69.46905220415417 62.77472046840631 70.36501147826888 62.9534707018083 70.9579369274978 C 63.253646443446655 70.52048146861065 63.23579814386424 69.81043348909316 63.17419195564057 69.06287939494752 C 63.39082538042245 67.40303849010049 64.14558809499327 68.32294949830779 64.46832049997904 69.02243819641392 C 65.22816072852827 68.02572016420105 65.63304717380106 68.38959356781822 66.14037959747257 69.14376292437731 C 66.50198827585407 69.19532052673026 66.54060637057295 69.14005217207864 66.6926034047658 68.98199699788033 L 66.894811662159 67.80919204914264 C 66.95996214537651 66.23543448286654 68.07087894759869 66.2333124353207 68.31254324804794 67.62549792055114 C 68.50587265015464 67.41642641333122 68.75736472576415 67.29780463493663 68.76035303071264 67.08115875416595 C 68.78963706037263 64.95787693307756 68.91834479260436 65.45483578280704 69.86669395559612 66.83403986298654 C 70.32503018115627 62.496245161778134 70.69018541925684 65.42661051219471 71.10073028053098 64.81651957804193 C 71.55099615771377 63.73315655539969 69.9407210293749 62.23303426543659 72.43530002340304 62.511353143825374 C 72.0346372906948 61.908186607080694 71.04128350781954 61.82362629623076 71.38382093499135 60.57015976113637 C 71.51228407689761 59.76914456307718 70.76927188921212 59.4246164424232 69.80660173619252 59.19514768736809 C 67.80140608598049 58.4811466299517 68.97617794858537 57.84037772775636 69.44262755230234 57.33483783410888 L 71.18275183439171 56.2047535298545 L 72.19265056747626 55.11055492932212 Z " stroke="black" stroke-width ="0.1px" fill="white"/>
<path d="M 74.74774868161495 49.63434173499199 C 71.4582081000826 49.18136045225163 69.12747405031779 47.23688208560826 69.12747405031779 47.23688208560826 L 70.6602763254318 46.332921537235876 C 71.16703124416821 46.14532981651379 71.89941847341049 46.18337153866017 72.66470989560202 46.254316321393176 C 76.80983196502208 47.65759103374015 80.96858541563574 49.01607627510102 85.83108977724908 48.06223741813795 C 90.17419072968471 46.43393281219781 90.34350272066698 42.63558547086551 86.06690542477719 40.6340405577334 C 84.15897859107513 39.9661798799062 84.0673749847422 38.547437094199516 73.21494640650093 41.57730428020845 C 69.23978064239269 43.16328456858153 65.72832076737839 43.458953507000885 62.9569617757591 41.695211537791195 C 60.706160070825106 40.25893524930985 58.27136529356852 39.08944812304243 52.93479166018275 42.127540791107364 C 53.63261012342757 39.746810667039625 55.31332386840927 39.135294088350975 56.74714632709775 38.079370476664266 C 56.14578930581638 37.931221210646825 54.869752519023166 38.02841076177354 53.7208449509724 38.079370476664266 C 54.73122946762 36.948383679403456 56.5233676941973 37.38251905109508 58.24064656047172 37.607739181608046 C 57.75953172849108 37.31426136485422 57.167423845072236 36.981142929937604 55.961094168670726 36.428659811604895 C 58.18628636063962 36.39775423867614 59.04859408247732 36.8478661145429 60.480895778170044 37.09680471244917 C 60.353069024055 36.84749469960425 60.180893288012214 36.5671409655912 59.53763318805761 35.957028516548675 C 61.073655902456764 36.03868205255861 62.36214754568361 36.30820134104415 63.46789511255536 37.411225575819984 C 63.296504103806726 36.951615442314775 63.194413687269986 36.56130590102146 63.232079465027255 36.310752554022145 C 63.868722037843185 36.709671448298906 64.49463321012982 37.2266425425735 65.07930260351206 38.19727773424701 C 65.14942076153405 37.47816066252321 65.45475894434715 37.082471266432535 65.94396111014441 36.93959428076377 C 65.97016284875865 37.336693468313655 65.99636458737288 37.81400922371144 66.02256632598711 38.315186124192365 C 66.39981519684623 38.20253755860688 66.62417926122012 38.140850972637345 66.8479216585168 38.079370476664266 C 66.66402257229149 38.93836943493264 67.16044128505226 39.16240398178472 67.75188220688919 39.29775188840746 C 69.38688813480171 39.90672518065644 71.08216179832363 39.76236593232091 72.82192032728742 39.061936240879355 C 74.456383853506 38.47082370420159 76.1573057417657 37.91294148090701 78.20638044341909 37.52913396576535 C 84.8171269947291 36.78787807250013 87.98961185536731 38.134138327038784 90.23298299680303 40.044502005094444 C 91.42702880352618 40.82805617158651 93.78479461370412 44.70777848772475 90.03647052337759 48.37665828150875 C 88.69222927138654 49.21608435192774 88.35682119925664 50.22927259841712 84.88782605477402 50.34178980993894 C 81.34121877646454 50.50576837299118 78.03728926314729 50.08732301773236 74.74774868161495 49.63434173499199 Z " stroke="black" stroke-width ="0.1px" fill="white"/>
<path d="M 27.90853829700273 39.44947149375895 C 28.024938379941126 39.76882832578093 27.70405093336861 39.82690154263693 26.63828584493397 40.043199788083925 C 26.105872608403615 39.37057865781132 25.884258260174644 38.46266050208958 24.60616000723565 38.264566118087004 C 26.330556565217034 37.040030315515835 27.804622511926034 37.49380991390178 27.90853829700273 39.44947149375895 Z " stroke="black" stroke-width ="0.1px" fill="white"/>
<path d="M 32.001978204181896 41.4049666163113 C 32.00589504647701 42.10545972005946 30.686828480205822 40.61065387258712 30.626724937176032 40.240530959682076 C 31.491555562926287 40.081594807367075 32.18960049869467 39.14623610832718 31.453716533688496 38.16573124407657 C 33.65346680235973 38.85478522065928 33.029520279215035 41.17548427290478 32.001978204181896 41.4049666163113 Z " stroke="black" stroke-width ="0.1px" fill="white"/>
<path d="M 25.47105744238036 45.21235474078445 C 26.480188093901223 45.409988253201554 26.014223367857213 42.763339753773 24.581740494145635 42.989062653288286 C 23.14925762043406 43.214785552803576 22.60614378363763 44.32987624363513 23.247765241647947 46.62970358810857 C 23.66511990523326 45.34789741377745 24.461926790859497 45.014721228367335 25.47105744238036 45.21235474078445 Z " stroke="black" stroke-width ="0.1px" fill="white"/>
<path d="M 28.472502439917736 49.881268124526365 C 28.420777247897355 48.46730277670435 26.764486413093525 47.08207792448577 26.666076967718606 48.0470524354327 C 26.200635959385345 48.59911657959681 25.827347073837075 49.41593276562535 24.44278476698619 48.491710852931924 C 24.46583559338002 51.537873869374216 27.73910061376987 50.411965718454425 28.472502439917736 49.881268124526365 Z " stroke="black" stroke-width ="0.1px" fill="white"/>
<path d="M 39.17474123470423 57.520808011562224 L 41.062108892716765 50.91502234088098 L 39.88965271166536 49.570988311248996 C 37.49664890918284 48.60239363701284 34.84742088771085 46.99323954766563 31.997025250091458 44.881165851768635 C 30.20008580601451 43.81149309317609 31.537751428283748 42.46403706371299 32.39737658307979 42.364676773447876 C 32.64040085103308 42.046136374873356 32.495287449194066 41.70103414637214 32.28298984087591 41.30660733460036 C 31.69984121048943 40.67691520353273 31.36041438342883 40.34505255875931 31.081938106636162 40.248537895752825 C 30.732861285346313 40.13725269475922 30.291432366033167 39.74050453962086 30.45281555396532 40.934852687162994 C 30.577342603411964 41.77956462628206 29.672360663958283 43.597304439286134 28.67983463815666 41.70695753522607 C 28.584773928751485 41.059032101285965 28.576873434766807 40.35528345501151 28.62264126705472 39.848186562764496 C 28.458152008461834 39.53606779259576 28.501576982493436 39.01603478980253 27.993518714383878 39.04748502915046 C 27.185214271681126 39.338356147158024 26.590493348285353 39.50003374937081 26.163344767182068 39.56222197198005 C 25.99641402154885 40.31944983996992 25.817132596842832 40.991829777004924 27.192817860187407 41.16362503920813 C 27.27481302999914 41.70234428992098 27.449640872529187 42.320633529426935 27.021238992480473 42.421869012187194 C 25.98522525975822 42.343101868490145 24.647622030669226 41.52518389363444 23.99001263162134 43.22257054580123 C 25.851456206333534 43.48556176379492 25.682788076735765 44.77480756052526 25.019485724626684 45.224323813655026 C 25.19106481880614 45.777188538189954 25.515157757477244 45.91063973742781 25.991765899475133 45.624675146643355 C 27.44053645060922 44.937170242121844 27.500959772842286 45.26250821349126 27.82193973344068 45.45309616570016 C 28.058699771392067 46.41216540559504 27.917865567885887 47.137484427376755 26.563695420752826 47.11169147166756 C 26.241966855227776 47.23018529308634 26.110022717398007 47.72084820666063 26.306327062574297 48.284147652718964 C 27.860941699086997 48.63858960809215 27.87670984854044 49.15518589034022 28.022115399934847 49.914146273135394 C 28.76931393221849 50.251819070500964 28.807105402226334 50.86418718587822 28.851413619099855 48.970462444129126 C 29.04491627268708 47.970012144727846 30.122436304221264 48.91675222043967 29.680711838264862 49.54239162569803 C 30.524250649711846 50.03513129231343 31.03277431885734 49.57543962869973 30.081062038890575 50.71484667438681 C 30.355348573997226 51.15003061386257 32.928595063812054 50.86785151130955 30.938956943606552 52.03028515083044 C 31.824946897233797 52.38316218106577 33.9272913335183 52.27990656339527 31.997025250091458 53.68888045679784 C 32.43539226088596 54.15661868917391 35.59085204956494 53.96017981931863 32.969305764648695 55.17589678182205 C 37.05016399078103 55.776745372288005 35.546064843304066 56.208352178253996 34.799480051559286 56.66291423920887 L 37.48754811082325 57.40642240172097 L 39.17474123470423 57.520808011562224 Z " stroke="black" stroke-width ="0.1px" fill="white"/>
<path d="M 25.49884867840126 64.38824984471073 C 23.905811732666315 65.497471500094 23.688394826189157 67.55016862976186 25.693386651129977 68.22342841255093 C 25.279354905646716 66.93058736450895 25.644603223954487 66.08890902484308 26.63828584493397 65.6110599266523 M 29.667522078492247 66.72270597040038 C 28.86680922125203 68.98317918445335 29.72718739718893 70.1964423171639 32.33547258348763 70.3077648861239 C 31.32251647133491 69.4159896918821 31.257565283938142 68.42941423163724 31.724066976335532 67.38969359664922 M 36.587519125460005 65.38873071790269 C 37.242065483626625 67.33472758281658 36.30460964901849 68.04250177819746 34.97563151275333 68.44575762130054 C 35.54501401079471 67.32312992488465 35.404713150081534 66.48437534549804 34.86446747455983 65.80559869203485 M 29.806477692415427 58.3853600761085 C 28.18936649095265 56.65583244339689 26.254484557786707 56.910067101266804 25.6378044055607 58.88560164506709 C 27.127874033147656 58.43660288165367 27.547377581272844 58.776443021069795 27.6387673975435 59.35805050593339 M 81.92047887362136 65.84667401363443 C 80.65202778400506 66.8542706535169 79.78434020737 67.97318986235938 81.31128816774975 69.75728604962477 C 81.41062128131205 68.43102784836766 82.0701772117 67.55294971235128 83.21746550120724 67.06505542537762 M 85.08433966056208 68.20483162127812 C 83.9347447484023 69.31165040318635 83.7223305067345 70.35989546396148 85.08433966056208 71.30973934560879 C 85.37718561897518 70.56965997710353 85.24467767779798 69.63326290154306 86.81365554146416 69.482167227994 M 89.72204966000677 68.95158173796511 C 90.83934279613003 69.41166972849504 91.03239590175798 70.38009001888805 91.11729252430541 71.40799558232152 C 92.89015340967657 70.53239392335036 92.38325354852506 69.16387028738231 92.31602291517858 67.89041075790732 M 91.33345715096348 64.17631346006766 C 92.28981438238864 63.90359185009886 93.05472419837793 64.06597944367303 93.43614809020906 65.09992502931007 C 94.13540805106638 63.23272927897176 93.03012701759317 62.58163662678956 91.33345715096348 62.32908918922022 M 48.317311318905816 61.411643334431965 C 50.265622733010574 59.59178713569514 50.17551837478369 61.044518917738955 50.34081840501096 61.81815585242397 C 52.74571541206867 57.72591624961971 51.73644287551179 59.157198818956374 52.52211456009922 59.754768087281064 C 54.36311763072423 56.241687801360634 53.83130126252974 58.31621461757524 54.212127266898634 58.241616833037085 C 55.6350892357194 55.111738248257765 55.682246476939405 56.18168390624121 56.19690981619883 55.8245050304207 C 58.531030762553605 53.073255666531665 63.307126797524695 52.30966052354167 67.81083526949925 51.32435444179141 C 69.49111645196093 51.780820004306875 69.54156886839885 52.79929525185895 69.7563157770594 53.761117265277804 C 70.51760882684732 54.227310955043144 70.9928047994245 55.12264969444328 71.23016385720074 56.374742673682235 C 75.09371150570573 60.28151260331024 79.70210803406235 59.38814191013991 83.98386550640163 60.599774440680775 C 84.5097969860712 61.334342600325016 85.0893605564096 62.03315641031091 85.77213558227639 62.663162205823674 C 85.66937593943251 63.193338912947524 85.79330396905432 63.678176953215626 85.94899703483182 64.15666243919763 C 84.99227065319326 64.40633367571766 84.36880991361161 63.96170130255863 82.84408931050115 65.39469487181086 L 81.82222150454602 65.49295110852358 C 81.15693921639964 65.43975158037476 81.17033846325656 65.7458529755923 81.38989225122984 66.16109600936787 C 81.73969265223249 66.03780097044942 82.35078119785159 66.60038816042113 83.11920813213192 67.5759898945365 C 85.59826130230684 66.04598115800071 85.72088711491813 66.56182102202007 86.02760225067453 66.80958875697951 C 84.94509302944613 67.5380863206295 84.39203353854094 67.31349691609466 84.73061562308862 68.53890463788157 C 85.73494766154386 68.33989417252117 86.13104923762742 69.23569944531985 86.63679295654612 69.9341475021802 C 87.11566231345557 69.97148263005305 87.62452908847428 70.20879752568717 87.95343060500204 69.2463515804659 C 88.22214251894107 67.99185346302664 89.30352617172733 68.38927310919738 89.48623401247866 69.52147040209667 C 91.59585274622017 67.76767057667162 91.85530306630788 68.29574448641415 92.47323334686398 68.38169420619616 C 93.07065314332311 67.75520666133704 92.77297086416924 67.30773885218295 92.33567393604861 66.88819397282221 C 89.24730776483935 65.50559959896486 91.42082685346827 64.66726286138424 91.98194989857512 64.53003749754113 C 91.28453455642226 64.10280047891739 91.29083841911579 63.16888554221524 91.90334468273242 61.79850483155395 C 91.4516112635969 61.77872019189502 91.13709075231574 61.68505228850979 90.03647052337759 62.01466945821203 C 88.44164195350871 61.29002645691317 89.78714578981862 61.184401936646154 89.9775163284049 60.835590088208875 C 87.30729543636073 58.889610208734254 89.86810179045597 59.79691688864236 89.85960793845953 59.30278781309487 C 86.88186340374985 57.4115463425667 89.46910702788381 58.09177355254335 89.48623401247866 57.573471932192795 C 89.02350761704916 56.95543181246277 87.0826663991343 58.350592014290285 87.97308275823468 55.942413420366066 C 86.78558313980525 56.09255904167876 85.3786792052681 56.55411570652404 85.75248456140639 54.488216361094764 C 84.56456030699526 55.06071285633521 81.54178171097402 56.118030406404486 77.89195844768565 51.71738165336754 C 76.37880719344167 49.65399388822464 72.40694906054014 46.13579079382109 69.57945432450398 46.234665300523154 C 64.88162153186501 46.79359382687662 62.55873249031661 46.07370561621008 54.84096899364025 48.25874989156339 L 42.61785283446824 48.71073016574959 L 39.689807695055606 48.966197966510336 C 39.75324151654447 54.40023065332586 38.43871572437082 57.12174304250777 36.63767939234253 58.43674669170614 C 36.548766279589614 58.50166504058699 35.37877411959464 59.03626702082138 35.28667000898464 59.09300631451356 C 33.49160009558976 60.19883088204331 31.90240616210724 61.300051263168925 31.16113781285323 61.07140573573698 C 30.31847318534722 60.95408164490243 30.091826277935773 60.559549523407185 30.296479306220885 59.97093271393915 C 30.394544173651195 59.45348602736507 30.45713325262715 58.943134724954376 30.296479306220885 58.477432480565184 C 30.157159071534757 58.25440120699251 30.192801317293938 57.90014722381389 29.667637579479265 57.96649914376893 C 29.16562046593589 58.97130111271057 28.334726747842346 59.252576589894545 27.30948031154436 59.106274207306804 C 27.05401862554175 59.218396224275 26.892444521272232 59.59022787237037 27.112967158701345 60.01023475567919 C 28.641472457389423 60.94531942296557 28.324821972024086 61.106850950400656 28.449256167736067 62.407695537425546 C 27.58487769437912 62.64565587975184 26.722666110127662 62.884616098269696 26.523427813408553 63.42956334338068 C 26.048265132292336 63.384964109314375 25.561287492857822 63.32264226791623 25.187138464665036 63.42956334338068 C 25.00014349904255 63.85998909513626 24.91588349075887 64.26986699482849 24.990625425058283 64.64794475512387 C 26.665923419347624 65.3070862407937 26.163375907154055 65.60325341876491 26.40551987640823 66.02353659855248 C 27.34884384057455 65.81410500002008 28.111119101697188 65.06153001002691 28.960190636894943 64.56933953928117 C 30.289429216562205 64.07168994835482 30.20419967940513 65.12831336013934 29.903453227007372 65.66981369344163 C 29.602132666762373 65.72372094822659 29.30081323887999 66.14202249343293 28.999492678634986 66.4951678936087 C 28.81759560951802 66.91288061025377 28.88574685367281 67.0805461459897 28.960190636894943 67.24191801029568 C 31.34201009380105 67.01706816235874 31.036273319346467 67.61341561141879 31.71137432375215 67.91006291113996 C 32.85812587337855 68.14491944753075 32.30611495025747 67.45317837445589 32.418821266336465 67.12401075271293 C 32.13859435693662 66.07847090623181 32.62054600489184 66.02376193871342 32.81184734554998 65.59120734523631 C 33.169099824940645 65.29272561807423 33.78461704075812 64.88018326914222 33.75511106802503 66.02353659855248 C 33.946583395438466 67.00322729408086 34.50339440369657 66.83471475110679 35.05209769561093 66.69168149939676 C 34.879887988689596 65.53799083164823 35.4612803246558 65.3577028498112 36.54559679662228 65.82702412512702 C 36.75745957769518 65.71723024570112 36.92267015127564 65.52968381948374 36.977926049938446 65.15887922428274 C 36.32409760967154 63.71139254588478 37.89678962272425 63.400701684977136 38.74654397258056 64.09770824422496 L 38.62863671499782 65.5126021293936 C 39.46532926205733 64.12255114769778 40.18883423892527 63.50237652443312 40.711675501010745 63.35095812753797 C 40.54104430757868 64.18790772091174 40.515843577518616 64.85865252632658 40.711675501010745 65.2767864818655 C 41.906619271289856 63.15787218339412 42.532367383359535 63.03114042393053 43.10913515039447 63.07584043826982 C 43.01862427398779 63.83270368549675 43.06287926981827 64.25265168594944 43.069833108654436 64.76585314506923 C 43.83807999727852 64.1569262796876 44.273527777244226 63.50045603743326 44.681240599611144 62.840023658379096 C 45.55744354313238 62.229660957198035 45.65765310536088 62.9262326892006 45.54589797388087 63.97979985427959 C 45.78184157838479 64.02728774538402 46.10614230559627 63.72751625720022 46.64637212804132 63.115142480009865 C 47.26576655346229 61.80486984182883 47.7034167787197 61.77027956094163 48.25777961899803 61.97536628410937 C 48.313781744626 61.17167644554685 48.566528478016075 59.97499223392411 48.218476444895366 59.61720867646568 C 48.35650012438407 59.44361635478796 48.816731924966476 59.72111653500405 49.20104220911046 59.89232749809645 C 49.318624478621885 59.15304644523675 49.18217591553461 58.108929978566266 49.043831777425055 57.062538595396546 C 49.45770125534517 57.06789693530417 49.682406160867025 57.26241984761007 49.947792325797444 57.416261500507396 C 49.84420945533039 56.433573441129575 49.73382335025535 55.47583472731066 49.47616103074123 55.058103892863706 M 39.64454489649525 48.07484287879976 C 39.18372313498895 48.81221929773625 38.5511095083673 49.39927684387952 37.67137359347839 49.770102953970245 C 39.22282588090825 50.23511672188779 39.76336257362274 49.97804776038542 40.64502690204983 49.9646417193528 C 40.72542804500443 50.53936104241207 40.39001544342407 51.02167731113023 40.00583085153066 51.49315460487042 C 40.87847364698141 51.47018123207965 41.47021690963731 51.27866813961198 42.090167325103636 51.10407933883056 C 42.29731381587324 51.669165653099846 42.02889631621485 52.23425309973175 41.89562855972109 52.79933941400105 C 42.5478388538071 52.408709414086886 42.93737385906981 51.87278030486439 43.28518583131553 51.632110218793606 C 43.27015937937677 52.432674736530885 43.80090226780955 52.75569136453373 44.174503798676604 53.216206255770594 C 44.35914684714184 52.75049608484307 44.54961363655063 52.3080820100524 44.785908273466084 52.04897819292577 C 45.25113039610532 52.326211135564044 45.617077155675766 52.63653624334612 45.925345892943845 52.96608660365391 C 46.12665392205585 52.54850977052298 46.33903192811988 52.17520944811227 46.59233351919269 51.96560459809933 C 47.5707559685891 52.38795660438971 47.70489451193598 52.581198814574826 48.09305596134325 52.85492143309779 C 48.17692213390844 52.587576280838505 48.13087913750439 52.186766340989955 48.25980315099612 51.659901794523286 C 48.90768555515674 52.21702420250129 49.80322472274024 52.21692002514045 50.649842428145135 52.32688942077213 C 50.413664424579316 51.933135232395344 50.19456697874102 51.52229822156581 50.010645245263355 51.07628776310087 C 50.85641934051795 51.002364866682946 51.44971507232291 51.07993057364247 52.03939969973957 51.159661357927305 C 51.73427440109863 50.73462338750742 51.36509361389162 50.30246851803439 50.59425927668577 49.82568610542961 C 51.20247615070602 49.87040989938388 51.69911001236418 49.859342187157104 52.20614688939244 49.85347654879668 C 51.66301142447001 49.44486576287382 51.11460481156152 49.05206842090911 50.62205085241545 48.491710852931924 C 50.98866910301828 48.25796403190661 51.52076290005414 48.244852405154624 52.03939969973957 48.213798492722944 C 51.43935735145752 47.83541952397121 51.01643576677037 47.42161572308292 50.6776328715122 46.99098841078136 L 51.59474128224034 46.935406391684616 C 51.268138461826794 46.53430996409375 50.90195277374398 46.14904623062554 50.3163480488394 45.8515507913036 L 50.45530366276258 45.35131035470763 C 49.88521457044767 45.0966816346467 49.73548339385311 44.70193323189145 49.45482278957062 44.35082834915305 C 49.42585582144362 43.8905116213743 49.49194050382085 43.5727718031706 49.56598682776412 43.26697388113465 C 50.224245070592026 43.09121648213162 49.71404437240952 42.36197835332956 49.42703121384094 41.73845986325441 C 49.70158272180017 41.25929043025123 49.97278470113582 41.01752987897945 50.108901481976076 39.62435697354624 C 53.16115774166497 38.989788889046196 51.30855474838279 35.6340798303029 49.17691042936164 37.12512849860924 C 48.76930744616865 36.85016934010759 48.361703330613054 36.13724289481553 47.954100347420066 36.569306042916516 L 47.842935176863946 35.957900435764415 C 47.589007389263465 35.98023515603872 47.19423747161848 36.143412006357536 46.73128913311587 36.37476727753396 C 46.55767756127366 36.15243806878435 46.5281931034303 35.930108860034736 46.50895992436626 35.70777965128512 C 45.94720841800651 35.99982049987691 45.67986553047246 36.27286030374132 45.31394028579175 36.51372402381976 L 44.785908273466084 35.84673639757092 C 44.66721742095179 36.02597241453596 44.54080612010906 36.20851719507033 44.06333862812049 36.54151446718683 C 43.68284780308648 36.42528423864111 43.301254056862696 36.311574649282704 42.56261618596993 37.01396446041574 C 40.56589853467768 34.21134093691786 37.1758098144941 37.7005578130299 40.450489269029895 39.82087057933431 C 40.35909967923176 40.691659697179645 40.22669591541541 41.562449947387606 40.28374207937703 42.43323906523295 C 39.91956293785303 42.595933529076554 39.86936870009197 42.86329000496202 39.811292086148114 43.12801826721147 C 40.061412870627414 42.97835503237398 40.311532522744095 42.8408465778764 40.561653307223395 42.79452388790574 C 40.43216990659846 43.97159104953699 40.05635007736305 44.47123246630813 39.72791849132169 45.10118957022833 L 40.67281847777951 44.68432272845878 C 40.91101208680509 46.4684143862737 39.415019523309255 46.98076997051796 38.14382358670731 47.65797603703021 C 38.58204339036149 47.95198379948919 39.1023538219961 48.040764425815816 39.64454489649525 48.07484287879976 Z " stroke="black" stroke-width ="0.1px" fill="white"/>
<path d="M 42.47559185406358 39.515190423010615 C 41.98337194188977 39.60213662189634 41.64247417578859 39.77835036303436 41.38705166953256 40.36238676571323 C 41.31052547145621 40.53736736396042 41.99293587656006 39.89947126572654 42.0718672128367 40.15337300898681 C 42.10360620465218 40.255469087336635 42.07110060334442 40.53079966077694 42.203363954196156 40.71029385641884 C 42.35304643919815 40.91342725407081 42.49450117741891 40.99943132725849 42.799550607764466 41.046768614134734 C 43.46008150236638 41.149267813576515 43.82894975749086 40.69755704169337 43.919527443292004 40.37343975722598 C 44.031966521793194 40.416406124397355 44.15598853751228 40.58703278837895 44.20395541800404 40.609361846840166 C 44.226731759699305 40.61996415803101 44.13580417384925 40.36503083242589 44.27144083293955 40.38394355286908 C 44.612988575183365 40.43156732748764 44.72251068758099 40.048525289475634 44.76541477480839 40.14236644434139 C 44.876148515207106 40.38457427884722 45.43085332899603 40.21276316356736 45.528116483692905 39.959565749855386 C 45.5629728697953 39.86882726856251 45.42028385632109 39.79242449801151 45.2636645179222 39.77361369020393 C 45.18007803892362 39.763574163234146 45.23162431765038 39.60888776782391 45.19733864230737 39.607163179556935 C 45.105832419159604 39.60256239024065 45.18444669390325 39.89170099344291 44.9536553393105 39.78261484065315 C 44.82948611645109 39.72392448617043 44.891151187530895 39.44468952642381 44.89148410214054 39.4286699924692 C 44.94591564081756 39.350206321953735 44.915443762771446 39.14052333892017 44.70832105161682 39.094805330587434 C 44.56455629365566 39.063073132947665 44.639775745271024 38.85683253227234 44.57148748523947 38.915261310990346 C 44.53953674161446 38.94259994167289 44.61495095960009 39.59798198345148 44.57800876155562 39.6325858526901 C 44.38272603393315 39.81550657761359 44.146053187903334 40.084994159945836 44.13291664917376 40.05276032566636 C 43.98002618087542 39.677602928562386 43.71925892306317 39.606325231219735 43.21404401748702 39.501683601705004 C 43.059346298450606 39.46964113670795 42.64451884175579 39.50015604453354 42.47559185406358 39.515190423010615 Z " stroke="black" stroke-width ="0.1px" fill="white"/>
<path d="M 46.72763839603595 39.36233845504128 C 45.45041489321924 40.26816400464526 45.538434571866674 38.863518001168075 45.45150762314546 39.04925491192215 C 45.026197885697286 39.95801214834371 46.27775072796753 40.09320831837566 46.46286936873226 40.13947778730328 C 46.56659491688915 40.16540322943876 46.49684137963012 40.35015724944054 46.629104730481856 40.52965144508245 C 46.77878721548385 40.73278484273442 47.080812105277154 40.77237790166724 47.385090396679956 40.82443940538512 C 48.10676321083222 40.94791788704765 48.26430429240203 40.368261462974594 48.331372997894164 40.026050156236714 C 48.45438721088338 40.03238006327045 48.81229419586715 40.201320639314076 48.852025403039356 40.241128847144296 C 48.91830711651209 40.30754078231808 48.752499787832036 39.86291973278524 48.75445424571043 39.76911141643539 C 48.40914026539967 39.489783602954105 48.19155905310666 39.48459624980178 47.63978479377271 39.321041190368604 C 47.488317705285006 39.27614414493381 46.95909557984799 39.27087865876085 46.72763839603595 39.36233845504128 Z " stroke="black" stroke-width ="0.1px" fill="white"/>
<path d="M 42.55441448352891 39.93153184852549 C 42.5062607632052 39.95547452371713 42.50344344501201 40.157431396609155 42.52142083393286 40.20811481502112 C 42.58981440368787 40.41124821267309 42.545137036600934 40.33227950843006 42.665555874470044 40.431782476385024 C 42.78597471233917 40.53128544433999 43.1096764197258 40.52051780820694 43.24619292457015 40.50005261861469 C 43.519227066621475 40.45912223943019 43.57957633233934 40.36175943682294 43.58128506752966 40.05107763481625 C 43.58250575443169 39.99001384828652 43.48132802216494 40.05913326247958 43.47058529800948 39.99900820456004 C 43.4629962037447 39.9565321504022 43.40911272857472 39.862700054437376 43.32757695827704 39.89996044637745 C 43.27202664533359 39.925345751544214 43.325001965684066 40.13236655006324 43.2902112566135 40.21428619128836 C 43.22137833016278 40.376360120417395 43.091098878617494 40.367477868043046 43.012471015522436 40.379264630532155 C 42.9731565177936 40.38515857795802 42.820383815207514 40.25183193860813 42.763300283279506 40.204663373761946 C 42.59341191972475 40.007174803759916 42.71260554124136 39.85287567636498 42.55441448352891 39.93153184852549 Z " stroke="black" stroke-width ="0.1px" fill="white"/>
<path d="M 46.95931186110799 39.709202639775874 C 46.91523124912066 39.74000743243163 46.9291842212977 40.0810059788058 46.94716161021856 40.13168939721777 C 47.01555517997356 40.33482279486973 46.95801190882271 40.199414873028246 47.0565580303656 40.32061843819153 C 47.12276953735603 40.4020522958536 47.405382334791675 40.42432473618392 47.637195080465716 40.388888580421195 C 47.77632394586942 40.36762054573289 47.90099480536853 40.22915524482323 47.97228722342522 39.93991359662275 C 47.97350791032726 39.87884981009303 47.872330178060494 39.94796922428607 47.86158745390504 39.88784416636655 C 47.85399835964026 39.84536811220869 47.800114884470275 39.751536016243875 47.7185791141726 39.78879640818395 C 47.663028801229146 39.81418171335072 47.710010526243394 40.018908345205986 47.68121341250906 40.10312215309486 C 47.632760748454245 40.244815819827984 47.55427556304903 40.12160910519374 47.459055190514746 40.149988377122085 C 47.42095798260008 40.16134257709118 47.30891409865252 40.09981678661338 47.2376760340015 40.07960411388491 C 46.91101433073182 39.98691796888935 47.17241457924744 39.56028110245307 46.95931186110799 39.709202639775874 Z " stroke="black" stroke-width ="0.1px" fill="white"/>
<path d="M 42.95708715988381 39.83328580307632 C 42.951954160137134 39.85308742817452 42.9564201983019 39.87583546080433 42.972640160439866 39.88830050850154 C 43.06541915917009 39.91517826759862 43.09600653820322 39.96884093205813 43.1177241208508 40.040461735273986 C 43.1177241208508 40.040461735273986 43.18966425032489 40.03592662298953 43.18966425032489 40.03592662298953 C 43.28224961504746 39.79540261169644 43.10635406780506 39.76863695649852 42.95708715988381 39.83328580307632 Z " stroke="black" stroke-width ="0.1px" fill="white"/>
<path d="M 47.368807022235394 39.60238234458441 C 47.363674022488716 39.62218396968261 47.36814006065349 39.64493200231242 47.38436002279145 39.65739705000962 C 47.47713902152167 39.68427480910671 47.50772640055481 39.73793747356622 47.529443983202384 39.80955827678207 C 47.529443983202384 39.80955827678207 47.60138411267648 39.80502316449762 47.60138411267648 39.80502316449762 C 47.69396947739905 39.56449915320452 47.51807393015664 39.5377334980066 47.368807022235394 39.60238234458441 Z " stroke="black" stroke-width ="0.1px" fill="white"/>
<path d="M 41.11485774054368 36.6999920126416 C 40.99202923502379 36.6950413232764 40.886468127063374 36.71751079470222 40.74356056760392 36.74047057914158 C 40.407260193731176 36.794502393814504 40.04888214589838 36.8634859244934 39.92535950209376 37.74859263527873 C 39.87454699434336 37.82774364990323 40.01716919842311 38.12377720908553 40.1086765539335 38.1020245231968 C 40.18908109397595 38.08291024220764 40.16919567404404 37.99223517322136 40.20992788977041 37.908909137624875 C 40.34705360570317 37.628386681581766 40.433136944274096 37.463860055022494 40.536081162224676 37.339229960577626 C 40.66625303932127 37.18163679032739 40.86047814025867 37.09474607720993 40.972794923597135 37.0791432526987 C 41.08187654693643 37.06398997614674 41.17887246405549 37.30517868429651 41.034505289181645 37.42381518340514 C 40.88332242371101 37.54805234802162 40.75444823417447 37.832346703944765 40.71054766784337 38.078030891687355 C 40.75230353937628 38.15327299055507 40.69535362623718 38.64751983181482 40.737215939856156 38.580905203732435 C 41.12018890374847 37.971490290062505 41.40242575679499 37.821201991059965 41.589335795221146 37.4880292027377 C 41.72023464911838 37.25469795879314 41.65868394666299 37.17558204740979 41.58920670588271 36.988217931573885 C 41.54938830678893 36.88083598452397 41.23768624606356 36.704942702006804 41.11485774054368 36.6999920126416 Z " stroke="black" stroke-width ="0.1px" fill="white"/>
<path d="M 50.19411743078174 37.33798096461014 C 50.474203927216976 37.30413464596286 50.859635250352625 37.24049473447755 51.04705824904466 38.040400217171246 C 50.80346779978245 37.89066451112622 50.826290568345044 37.7993394659973 50.42938841189066 37.686619561566886 C 50.20692105490167 37.714035192907446 49.91309107337369 37.698159469005304 49.89622566454356 37.87542177792745 C 49.88591097345764 37.983829645509125 49.913470414850664 38.03329011229383 49.935323881012394 38.23782990431715 C 49.89356800947948 38.31307200318486 49.99535042338417 38.74965327813103 49.95034240641282 38.68512219726548 C 49.575267671779955 38.147347336975905 49.452015662640996 38.281284319776816 49.41782057630741 37.9187923985534 C 49.35974396236356 37.303135902133924 49.85536662420398 37.37891700560773 50.19411743078174 37.33798096461014 Z " stroke="black" stroke-width ="0.1px" fill="white"/>
<path d="M 44.260702638234555 42.02563494967734 C 44.204209067230444 42.033152705097194 44.15525023708545 42.068499404213114 44.13033486240508 42.11975579810971 C 44.1054183553621 42.17101105964368 44.117690901414264 42.408208189565556 44.14667598734315 42.4572779912471 C 44.42716107541987 42.82210484418851 44.663770509143085 42.90644887377843 44.795036248528504 43.11199533616902 C 44.92430789734391 43.314418742459594 45.198925082334966 43.78567749021454 45.39848814065288 43.78894209164178 C 45.43553791314604 43.78954790564232 45.5079332523925 44.02656498990796 45.50904976193369 43.989709983785076 C 45.52129399892041 43.58571697261777 45.88959267564812 43.18437821942668 46.67288300165023 42.615313915280915 C 46.748793194462465 42.56016445870418 46.73965389577386 42.197131268149434 46.66343456796696 42.142409844642245 C 46.58721524016005 42.087688421135056 46.49410106209494 42.11642778437587 46.426346144856396 42.18133480963054 C 45.97363776150693 42.615014971549805 45.65575413325077 42.92524382850936 45.46029928651038 42.99522044120411 C 45.3252412647178 43.04357345734856 45.24969795739375 42.92314782530374 45.08242082203573 42.78410501945898 C 44.8514018625568 42.59208009908804 44.79613464026781 42.51435359663678 44.50287536949922 42.17305497416889 C 44.469378950900854 42.11009108316643 44.33134055069812 42.01580038034139 44.260702638234555 42.02563494967734 L 44.260702638234555 42.02563494967734 Z " stroke="black" stroke-width ="0.1px" fill="white"/>
<path d="M 48.207446100634975 43.08330806160862 C 48.11496944272372 43.090848464280825 47.986697670099865 43.19084740706241 47.99279317807171 43.28343050705975 C 48.01295942393285 43.677959231467135 47.965049161571976 43.923462241190876 47.855953949881275 44.049733129069 C 47.74685873819057 44.17600401694712 47.58718541781136 44.23414064610972 47.34992940503336 44.23728068764899 C 46.875417379477355 44.24356077072754 46.28543607305482 43.94067302061945 45.60651674190178 43.73953597826274 C 45.12155753883357 43.56093521672631 45.200200122642656 43.659312616239134 45.14230468671766 43.868060267750366 C 44.33600022287054 44.51761630386016 43.765160374139995 44.45976729480249 43.48409211931509 44.343817892185996 C 43.34710568398434 44.28730620337999 43.158165319384395 44.16997531836973 43.06935072217923 44.036746062204976 C 42.9666703447186 43.88271417238785 42.963504258839116 43.645352849886386 43.02218102497043 43.384470091087124 C 43.035182812548484 43.321518656073465 42.901055592827774 43.198641458961006 42.84317940706728 43.22661194798432 C 42.55082602639297 43.36789909653763 42.543892570083926 43.44614648579309 42.4207186939656 43.64031496859961 C 42.423894971108645 44.07251060312688 42.55230489197187 44.1702844533644 42.675016764142114 44.27613544615499 C 42.84301181739984 44.42104841981063 42.911737169401874 44.58424904974442 43.14053669814984 44.68823277657819 C 43.19341690004042 44.712264908416635 43.38416791246629 44.535615207670745 43.54538011364314 44.763975379722986 C 43.73042062138724 45.02608901668784 43.83370341576056 45.451242488094756 43.966235136552726 45.68491230846205 C 43.99058659464941 45.727846969480126 44.280051318285615 45.814958493308055 44.28812506375082 45.83320538453195 C 44.40317084099828 46.09319131213789 44.30156054621151 48.11113849778943 45.63637034995855 48.04252298496132 C 46.52048397872803 48.05385340531545 46.78518959372512 47.17368379554391 46.95226630089979 45.533080599211395 C 46.980009185036906 45.26066019769895 47.34142536177337 45.951881516332215 47.441898764491825 45.65781147392926 C 47.546080654783715 45.3528888681969 47.65942449101656 44.28294321021345 48.192879387919064 44.32179457163159 C 48.697571141965774 44.35855106220673 48.74615402772165 43.24142211866306 48.207446100634975 43.08330806160862 Z " stroke="black" stroke-width ="0.1px" fill="white"/>
<path d="M 46.168673634078715 44.4219792218825 C 46.04481467857659 44.431304228040425 45.71916870457512 44.15203982686574 45.69156283631476 44.27314261175603 L 45.726388648626475 45.585225897762996 L 45.36786339365336 45.600432395357984 L 45.35508921096149 44.372612741195084 C 45.32479737857161 44.219197989004684 45.071655450627915 44.57794065760042 44.918240698437515 44.60823248999031 C 44.764825946247115 44.63852432238018 44.64417157695348 44.82218787718098 44.67446340934336 44.97560262937138 C 44.65801244523136 45.38328487794762 44.64190232226733 45.954110005964125 44.707866974207064 46.330357868269076 L 44.83426468669839 46.71307491820976 C 44.88235386235288 46.85597115404303 45.063477527801865 47.66398322071786 45.529856925036526 47.67511887470172 C 45.886788945806344 47.68364103576359 46.23443672547248 47.402950990053036 46.403656995082706 46.69362659024834 C 46.48522220680845 46.35173460976869 46.52435099706796 45.616417958434056 46.54234423906546 45.34202271651609 C 46.564239602644044 45.253664461445915 46.54925957757262 44.65992710822 46.490364265456066 44.59051554447156 C 46.43146895333951 44.52110398072311 46.2802623082539 44.463399914080526 46.168673634078715 44.4219792218825 Z " stroke="black" stroke-width ="0.1px" fill="white"/>
<path d="M 43.98024472686066 44.951567100445075 C 44.07597013312251 45.16385112041182 44.12112762195942 45.26654848331172 44.30890618251345 45.38704658656409 C 44.37416424017965 45.39491877148332 44.299152010923365 45.2324270005483 44.3341250303754 45.176770245518775 C 44.369096917464816 45.12111462285186 44.257657715155176 44.953007465694974 44.222253265545746 44.89762474241896 L 44.20814063023959 44.80648314003414 C 44.06840481847271 44.72640132333777 44.00385788453051 44.802319442688336 43.98024472686066 44.951567100445075 Z " stroke="black" stroke-width ="0.1px" fill="white"/>
<path d="M 46.91912204707556 44.56702128487658 L 46.9252934233428 44.72915069977389 C 46.90173008962813 44.787854642608025 46.91273552191094 44.85478859694864 46.95385613801523 44.90285625771339 C 46.99497562175691 44.95092278611553 47.0732943498573 45.02079635381205 47.134937906047355 45.0066078502105 L 47.28977264096053 44.71145753387012 C 47.30950405957641 44.656562858882396 47.29968987276759 44.59538357136566 47.26377812470536 44.54941531089438 C 47.227865244280515 44.503448182785725 47.15698387385412 44.520808434079854 47.09894576023927 44.52667180771503 C 47.012093547450824 44.53564464909881 46.96756451986682 44.51883925548742 46.91912204707556 44.56702128487658 Z " stroke="black" stroke-width ="0.1px" fill="white"/>
<path d="M 62.376095988410185 32.75394721797638 C 62.00302327088566 32.45887616701925 62.19998415990777 32.56628302604675 61.417789960919734 32.29829016237006 C 60.15604925217677 32.686518421171776 58.55704792606113 33.27823450712485 57.19825015261773 34.054689892365666 C 59.62467450540324 33.45468491205 60.629069956165075 32.94806134737725 62.376095988410185 32.75394721797638  Z " stroke="black" stroke-width ="0.01px" fill="white"/></g></svg>
