<?xml version='1.0' encoding='utf-8'?>
<svg xmlns='http://www.w3.org/2000/svg' version='1.1' width='2000' height='2000'>
	
//nouvelle forme de couleur rgba(0,0,0,0)
<path d="M 0.0 0.0 L 800.0 0.0 L 800.0 800.0 L 0.0 800.0 " stroke="rgba(0,0,0,0)" fill="rgba(0,0,0,0)"/>
//nouvelle forme de couleur red
<path d="M 0.0 0.0 L 800.0 800.0 L 0.0 800.0 " stroke="red" fill="red"/>
//nouvelle forme de couleur yellow
<path d="M 266.66666666666845 391.11111111111234 L 298.98989898990067 488.080808080809 L 395.9595959595973 488.080808080809 L 331.3131313131329 552.7272727272734 L 363.6363636363651 649.6969696969701 L 266.66666666666845 585.0505050505056 L 169.6969696969718 649.6969696969701 L 202.020202020204 552.7272727272734 L 137.3737373737396 488.080808080809 L 234.34343434343626 488.080808080809 " stroke="yellow" fill="yellow"/>
//nouvelle forme de couleur rgba(0,0,0,0)
<path d="M 0.0 0.0 L 800.0 0.0 L 800.0 800.0 L 0.0 800.0 " stroke="rgba(0,0,0,0)" fill="rgba(0,0,0,0)"/>
//nouvelle forme de couleur blue
<path d="M 0.0 0.0 L 800.0 0.0 L 800.0 800.0 " stroke="blue" fill="blue"/>
//nouvelle forme de couleur black
<path d="M 533.3333333333369 124.44444444444392 L 565.6565656565691 221.41414141414054 L 662.6262626262658 221.41414141414054 L 597.9797979798013 286.060606060605 L 630.3030303030336 383.0303030303016 L 533.3333333333369 318.3838383838372 L 436.3636363636403 383.0303030303016 L 468.6868686868725 286.060606060605 L 404.0404040404081 221.41414141414054 L 501.01010101010473 221.41414141414054 " stroke="black" fill="black"/></svg>
