<?xml version='1.0' encoding='utf-8'?>
<svg xmlns='http://www.w3.org/2000/svg' version='1.1' width='2000' height='2000'>
	
//nouvelle forme de couleur rgba(0,0,0,0)
<path d="M 0.0 0.0 L 100.0 0.0 L 100.0 100.0 L 0.0 100.0 " stroke="rgba(0,0,0,0)" fill="rgba(0,0,0,0)"/>
//nouvelle forme de couleur blue
<path d="M 0.0 20.0 L 80.0 100.0 L 0.0 100.0 " stroke="blue" fill="blue"/>
//nouvelle forme de couleur red
<path d="M 26.666666666666675 59.111111111111114 L 29.89898989898991 68.80808080808082 L 39.59595959595961 68.80808080808082 L 33.13131313131314 75.27272727272728 L 36.363636363636374 84.96969696969698 L 26.666666666666675 78.50505050505052 L 16.969696969696976 84.96969696969698 L 20.202020202020208 75.27272727272728 L 13.737373737373739 68.80808080808082 L 23.434343434343443 68.80808080808082 " stroke="red" fill="red"/>
//nouvelle forme de couleur rgba(0,0,0,0)
<path d="M 0.0 0.0 L 100.0 0.0 L 100.0 100.0 L 0.0 100.0 " stroke="rgba(0,0,0,0)" fill="rgba(0,0,0,0)"/>
//nouvelle forme de couleur white
<path d="M 0.0 20.0 L 0.0 0.0 L 20.0 0.0 L 100.0 80.0 L 100.0 100.0 L 80.0 100.0 " stroke="white" fill="white"/>
//nouvelle forme de couleur rgba(0,0,0,0)
<path d="M 0.0 0.0 L 100.0 0.0 L 100.0 100.0 L 0.0 100.0 " stroke="rgba(0,0,0,0)" fill="rgba(0,0,0,0)"/>
//nouvelle forme de couleur blue
<path d="M 20.0 0.0 L 100.0 0.0 L 100.0 80.0 " stroke="blue" fill="blue"/>
//nouvelle forme de couleur red
<path d="M 73.3333333333333 12.444444444444471 L 76.56565656565652 22.141414141414163 L 86.26262626262621 22.141414141414163 L 79.79797979797976 28.606060606060623 L 83.03030303030299 38.30303030303031 L 73.3333333333333 31.838383838383855 L 63.636363636363605 38.30303030303031 L 66.86868686868684 28.606060606060623 L 60.40404040404037 22.141414141414163 L 70.10101010101006 22.141414141414163 " stroke="red" fill="red"/></svg>
